<svg xmlns="http://www.w3.org/2000/svg" viewBox="0 0 100 100">
  <defs>
    <linearGradient id="goldGrad" x1="0%" y1="0%" x2="100%" y2="100%">
      <stop offset="0%" style="stop-color:#d4af70"/>
      <stop offset="50%" style="stop-color:#b8965a"/>
      <stop offset="100%" style="stop-color:#d4af70"/>
    </linearGradient>
  </defs>
  
  <!-- Outer ring -->
  <circle cx="50" cy="50" r="42" fill="none" stroke="url(#goldGrad)" stroke-width="3"/>
  
  <!-- Inner decorative circle -->
  <circle cx="50" cy="50" r="35" fill="none" stroke="url(#goldGrad)" stroke-width="1.5" opacity="0.6"/>
  
  <!-- Heart shape -->
  <path d="M50 72 C50 72 20 52 20 38 C20 28 28 22 38 22 C44 22 48 26 50 30 C52 26 56 22 62 22 C72 22 80 28 80 38 C80 52 50 72 50 72 Z" 
        fill="url(#goldGrad)" 
        opacity="0.9"/>
  
  <!-- Small decorative dots -->
  <circle cx="50" cy="15" r="2" fill="url(#goldGrad)"/>
  <circle cx="50" cy="85" r="2" fill="url(#goldGrad)"/>
  <circle cx="15" cy="50" r="2" fill="url(#goldGrad)"/>
  <circle cx="85" cy="50" r="2" fill="url(#goldGrad)"/>
</svg>
