<?xml version="1.0" encoding="UTF-8"?>
<svg id="_Слой_1" data-name="Слой_1" xmlns="http://www.w3.org/2000/svg" version="1.1" viewBox="0 0 95.56 240.86">
  <!-- Generator: Adobe Illustrator 30.4.0, SVG Export Plug-In . SVG Version: 2.1.3 Build 103)  -->
  <path d="M-2.75,61.79c-1.5,1.38-3.08,1.92-4.65,1.6-.73-.15-1.47-.5-2.19-1-4.78-3.51-11.08-3.56-15.51-3.03-2.92.38-6.01,1.07-8.99,1.69-2.4.53-4.9,1.09-7.27,1.48-.84.14-1.73.26-2.55.04-1.69-.44-2.35-3.47-2.2-5.48.15-1.75,1.27-3.51,2.98-4.69,2.01-1.37,3.6-2.22,4.9-2.62,5.92-1.85,12-3.27,18.14-4.21,2.41-.38,4.68-.02,6.9.33,3.11.48,4.4,2.36,6.05,4.78.16.23.32.42.43.65.67.95,1.51,1.83,2.31,2.65.84.88,1.73,1.77,2.39,2.77,1.17,1.76.85,3.58-.76,5.03ZM-4,53.66c-.8-.82-1.65-1.66-2.27-2.59-.16-.23-.31-.47-.43-.65-1.57-2.3-2.94-4.31-5.97-4.92-.15-.03-.24-.05-.39-.08-2.22-.35-4.53-.71-7.06-.31-6.15.99-12.23,2.41-18.2,4.25-1.3.4-2.95,1.28-5.02,2.7-1.83,1.26-3.08,3.14-3.2,5-.19,2.2.53,5.45,2.55,6.01.92.24,1.86.12,2.75,0,2.37-.39,4.87-.95,7.31-1.47,2.98-.67,6.06-1.32,8.94-1.7,4.33-.55,10.47-.48,15.17,2.91,2.44,1.76,5.08,1.54,7.45-.63,1.75-1.63,2.08-3.75.83-5.63-.7-1.06-1.63-2.01-2.47-2.89ZM-4.75,61.13c-1.07,1-2.17,1.19-3.25.97-1.03-.21-2.07-.83-3-1.52-4.29-3.16-9.93-3.18-13.89-2.71-2.61.34-5.17.94-7.68,1.5-2.08.49-4.27,1.02-6.42,1.35-.78.1-1.57.24-2.35.03-1.55-.36-2.71-2.18-2.55-3.97.12-1.6,1.15-3.17,2.74-4.23,1.24-.87,2.71-1.33,4.18-1.8,5.32-1.67,10.81-2.9,16.33-3.82,2.1-.34,4.29-.61,6.46-.27,2.8.47,3.98,2.18,5.48,4.31.12.18.27.41.39.59.58.88,1.35,1.64,2.11,2.41s1.56,1.59,2.18,2.53c1,1.58.76,3.31-.73,4.63ZM-5.97,53.82c-.71-.75-1.47-1.52-2.07-2.35-.17-.19-.27-.41-.39-.59-1.41-2.07-2.63-3.84-5.37-4.39-.1-.02-.24-.05-.34-.07-2.22-.35-4.47-.04-6.57.3-5.51.87-11.01,2.15-16.33,3.82-1.52.46-2.99.97-4.28,1.83-1.65,1.14-2.7,2.81-2.83,4.46-.14,1.95,1.06,3.82,2.8,4.28.82.22,1.66.08,2.44-.01,2.15-.33,4.34-.85,6.47-1.34,2.5-.56,5.08-1.21,7.63-1.51,3.91-.48,9.44-.43,13.65,2.66,1.86,1.34,4.3,2.65,6.61.52,1.57-1.46,1.83-3.29.75-4.98-.56-1.03-1.4-1.86-2.16-2.62ZM-1.17,130.7c-1.12.28-2.45.57-3.74,1.13-1.16.48-2.28.96-3.44.93-1.96-.09-3.52-1.47-4.97-2.83-.56-.52-1.11-1.04-1.69-1.46-2.96-2.22-6.92-2.98-10.45-1.86-1.13.33-2,.82-2.57,1.41-.19.17-.37.33-.57.55-1.26,1.22-3.02,2.85-3.21,4.33-.12.84-.29,1.92-.52,3.1-.52,2.84-1.15,6.43-.82,8.58.14.84.37,1.7.55,2.55.65,2.57,1.29,5.19-.42,6.88-1.02,1.01-2.53,1.47-3.97,1.79-3.53.86-7.13,1.56-10.73,2-3.6.44-8.1.6-11.03-2.03-1.29-1.18-2.18-2.78-2.87-4.14-2.1-4.19-3.65-8.62-4.71-13.16-.33-1.39-.63-2.92-.27-4.43.68-3.12,3.9-4.96,6.84-6.4,1.02-.51,2.09-1.05,3.24-1.18.41-.02.82-.04,1.23-.06.4.03.81.01,1.22,0,3.58-.34,5.65-4.04,6.55-6.25.28-.65.52-1.32.75-1.93.86-2.27,1.74-4.58,3.49-6.21,1.14-1.09,2.55-1.82,3.94-2.41,3.75-1.68,10.83-4.01,16.16-.45,1.07.73,2.05,1.69,2.98,2.64,1.01,1.02,2.08,2.05,3.29,2.85,1.44.9,3.12,1.39,4.79,1.73.64.13,1.33.22,1.96.35l.1.02c1.38.23,2.76.46,3.94,1.15.95.6,1.68,1.51,2.37,2.36L.22,125.34c1.54,1.94,2.1,3.17,1.85,3.93-.3.75-1.59,1.05-3.24,1.43ZM.41,125.12l-4.01-5.08c-.69-.85-1.46-1.82-2.46-2.43-1.22-.76-2.65-.99-4.02-1.22l-.1-.02c-2.27-.36-4.67-.79-6.6-2.05-1.22-.76-2.23-1.77-3.25-2.79-.93-.95-1.9-1.91-3.02-2.65-1.25-.86-2.63-1.34-4.04-1.63-4.59-.93-9.51.77-12.42,2.07-1.4.63-2.87,1.35-4.01,2.49-1.77,1.73-2.71,4.08-3.57,6.35-.24.66-.52,1.32-.75,1.93-.88,2.11-2.89,5.72-6.31,6.05-.41.02-.77.05-1.17.02-.4-.03-.81-.01-1.28.05-1.19.11-2.33.7-3.34,1.16-2.99,1.48-6.27,3.36-7.03,6.61-.36,1.55-.03,3.15.3,4.54,1.06,4.59,2.65,9.03,4.75,13.21.73,1.42,1.57,3.06,2.95,4.26,3.06,2.7,7.63,2.51,11.27,2.08,3.6-.44,7.24-1.13,10.78-1.99,1.5-.36,3.01-.81,4.1-1.92,1.84-1.81,1.17-4.54.53-7.16-.18-.85-.42-1.71-.56-2.5-.33-2.15.28-5.64.8-8.48.19-1.18.41-2.26.52-3.1.18-1.39,1.87-2.98,3.13-4.15.2-.21.38-.38.57-.55.58-.6,1.42-.98,2.46-1.33,3.41-1.04,7.34-.35,10.21,1.81.58.42,1.13.94,1.69,1.46,1.55,1.38,3.14,2.82,5.2,2.93,1.21.04,2.38-.43,3.55-.96,1.23-.56,2.51-.86,3.69-1.14,1.71-.42,3.04-.71,3.4-1.7.27-.81-.33-2.15-1.96-4.16ZM-114.57,43.71c3.85-6.95,9.15-12.79,15.88-19.47,3.75-3.72,7.55-7.17,12.24-8.97,7.1-2.68,14.95-1,22.54.69,8.04,1.73,16.36,3.56,23.82.14,1.91-.89,3.67-2.05,5.38-3.23,2.82-1.87,5.42-3.68,8.63-4.2,2.63-.43,5.33.06,7.93.53L2.87,13.1c4.8.92,10.24,1.92,14.53,4.82,4.17,2.77,7.01,7.06,9.78,11.23.83,1.18,1.65,2.42,2.48,3.6,4.47,6.29,10.07,11.8,15.51,17.12,4.2,4.1,8.53,8.38,12.33,12.97,6.49,7.87,11.58,16.93,16.46,25.7,5.11,9.17,11.5,20.58,11.13,32.45-.06,1.82-.29,3.7-.51,5.54-.26,2.29-.54,4.67-.5,7.02.05,3.52.86,7.09,1.57,10.59,1.41,6.59,2.69,12.85-.31,18.39-1.86,3.44-5,5.85-8.05,8.13-2.22,1.69-4.51,3.46-6.37,5.63-3.55,4.22-2.28,9-.97,14.09.8,3.06,1.59,6.22,1.28,9.26-.71,7.79-5.81,12.4-10.17,13.35-1.33.29-2.71.32-4.1.39-2.25.05-4.56.15-6.57,1.32-1.38.79-2.39,2.01-3.4,3.23-.2.21-.4.48-.6.69-4.45,5.15-10.82,9-17.87,10.93-4.84,1.31-10.34,1.87-17.26,1.65-1.93-.03-3.94-.14-5.79-.51-1.81-.37-3.52-.97-5.04-1.98-3.09-2.05-4.88-5.56-6.59-8.91-1.83-3.52-3.69-7.15-7.03-9.25-3.84-2.4-8.5-2.23-13.01-2.02-4.2.17-8.56.35-12.15-1.54-2.52-1.37-4.45-3.65-6.34-5.86-1.69-1.97-3.41-3.99-5.56-5.45-2.65-1.76-5.85-2.5-8.91-3.22-.83-.17-1.7-.39-2.57-.62-13.8-3.65-25.83-14.07-31.3-27.28-1.98-4.77-3.19-9.9-4.41-14.92-1.72-7.31-3.51-14.84-7.71-21.24-1.25-1.88-2.76-3.71-4.18-5.47-3.06-3.72-6.2-7.56-7.14-12.22-.87-4.24.12-8.42,1.22-12.82.85-3.44,1.67-6.98,1.58-10.56-.16-4-1.57-7.84-2.95-11.58-.96-2.53-1.91-5.16-2.44-7.81-1.64-7.5,0-16.07,4.49-24.21ZM-117.26,75.91c1.34,3.68,2.76,7.47,2.89,11.36.11,3.48-.7,6.98-1.54,10.37-1.03,4.32-2.12,8.72-1.23,13.12,1.01,4.83,4.18,8.73,7.29,12.51,1.42,1.76,2.9,3.53,4.14,5.41,4.12,6.27,5.91,13.75,7.65,21.02,1.17,5.02,2.41,10.2,4.44,15.03,5.58,13.38,17.73,23.97,31.74,27.62.87.23,1.74.45,2.57.62,3.01.71,6.12,1.44,8.67,3.13,2.11,1.39,3.79,3.41,5.43,5.32,1.88,2.26,3.85,4.59,6.52,6,3.77,1.98,8.18,1.81,12.49,1.61,4.61-.19,9.02-.36,12.67,1.95,3.2,2.02,5.02,5.59,6.82,9.01,1.8,3.41,3.62,6.99,6.79,9.15,3.18,2.12,7.27,2.54,11.16,2.66,6.98.19,12.53-.37,17.48-1.7,7.16-1.96,13.6-5.89,18.16-11.12.2-.21.4-.48.6-.69.94-1.13,1.94-2.3,3.26-3.05,1.85-1.1,4-1.17,6.25-1.23,1.39-.08,2.82-.09,4.2-.42,4.58-1.01,9.91-5.78,10.69-13.91.33-3.14-.5-6.35-1.34-9.47-1.29-4.94-2.48-9.6.86-13.55,1.8-2.13,4.03-3.86,6.25-5.5,3.06-2.33,6.26-4.79,8.19-8.31,3.1-5.78,1.7-12.42.35-18.84-.73-3.45-1.48-7.01-1.54-10.48-.04-2.3.23-4.68.49-6.97.22-1.84.45-3.72.52-5.59.36-12.08-6.02-23.54-11.22-32.78-4.89-8.77-9.96-17.88-16.5-25.76-3.79-4.63-8.17-8.87-12.37-13.03-5.38-5.31-10.99-10.76-15.43-17-.83-1.18-1.65-2.42-2.48-3.6-2.81-4.23-5.69-8.57-9.95-11.42-3.58-2.4-7.83-3.52-11.93-4.34-.98-.2-1.91-.39-2.89-.53l-21.03-3.89c-2.55-.46-5.39-.99-8.13-.53-3.31.55-6.14,2.47-8.85,4.31-1.7,1.13-3.47,2.35-5.32,3.19-7.23,3.32-15.47,1.55-23.4-.2-7.7-1.66-15.63-3.41-22.9-.66-4.79,1.83-8.6,5.33-12.47,9.12-6.8,6.71-12.11,12.6-16.01,19.59-4.56,8.23-6.22,16.95-4.66,24.58.68,2.68,1.66,5.37,2.62,7.9ZM-81.49,65.2c-.09.19-.21.26-.23.36-1.36,1.45-3.03,2.64-4.78,3.51-1.63.79-2.91,1.09-4.15.89-1.28-.21-2.71-1.16-2.82-2.65-.15-1.51,1.1-2.68,1.6-3.13,1.7-1.38,3.96-2,5.96-2.56,1.08-.29,2.37-.64,3.56-.25.62.23,1.15.59,1.55,1.13.2.24.38.64.34,1.09-.15.22-.81,1.26-1.04,1.62ZM-82.29,61.12c-.15-.03-.29-.06-.39-.08-1.12-.23-2.36.08-3.32.35-2.04.55-4.3,1.16-6.08,2.64-1.21.97-1.82,2.22-1.7,3.37.13,1.6,1.7,2.68,3.12,2.92,1.28.21,2.62-.13,4.31-.96,1.81-.91,3.47-2.09,4.89-3.59v-.05s.15-.18.24-.36c.65-.94.96-1.48,1-1.68.05-.5-.15-1-.35-1.29-.45-.55-1.06-1.03-1.73-1.26ZM-70.03,53.78c-.81,2.74-1.63,5.57-3.43,7.9-.7.93-1.47,1.74-2.29,2.54-.76.76-1.53,1.52-2.17,2.41-.75.97-1.23,1.79-1.51,2.69-.09.19-.09.44-.14.68-.04.45-.15.99-.39,1.19-.55.45-2.05.35-3.37.34-.96-.04-1.87-.07-2.5.05-1.17.27-2.32.65-3.41,1.04-.99.36-2.02.71-3.09.95-1.28.3-2.32.4-3.2.22-.44-.09-.82-.22-1.18-.44-1.59-.93-2.15-2.93-2.58-4.84-.53-2.4-1-5.13.41-7.04.78-1.11,2.08-1.72,3.21-2.3l6.39-3.18c.39-.18.79-.4,1.26-.46,1-.15,1.86.38,2.75.96.41.24.81.52,1.23.71,1.72.81,3.91.54,5.42-.63.73-.61,1.29-1.37,1.86-2.17.34-.44.7-.93,1.04-1.37.98-1.07,2.21-1.89,3.57-2.33.43-.12,1.02-.25,1.53-.05,1.22.5.8,2.35.59,3.12ZM-70.44,50.29c-.09-.07-.23-.1-.38-.13-.49-.1-1.03.05-1.4.12-1.46.42-2.75,1.27-3.74,2.4-.39.43-.74.92-1.1,1.41-.56.75-1.07,1.51-1.79,2.08-1.4,1.14-3.43,1.39-5.1.6-.42-.19-.83-.42-1.18-.7-.9-.59-1.9-1.15-2.95-1-.47.06-.93.32-1.37.49l-6.39,3.18c-1.18.57-2.49,1.23-3.33,2.38-1.48,2.04-1.03,4.83-.45,7.28.46,2.02,1.06,4.08,2.74,5.08,1.13.69,2.65.74,4.62.27,1.07-.24,2.1-.59,3.09-.95,1.1-.39,2.24-.77,3.35-1,.59-.14,1.45-.11,2.4-.07,1.42.03,2.92.13,3.54-.4.36-.28.43-.88.53-1.37.05-.24.05-.5.13-.64.28-.86.74-1.63,1.49-2.6.68-.83,1.39-1.6,2.16-2.36.77-.81,1.61-1.66,2.3-2.59,1.8-2.38,2.66-5.36,3.45-8,.3-.75.77-2.79-.62-3.48ZM-68.8,58.25c-.19.42-.38.89-.57,1.31-1.52,3.51-3.2,7.54-5.49,10.53-1.82,2.48-5.27,3.2-8.3,3.81-.48.11-.91.22-1.38.28-1.28.3-2.58.7-3.82,1.06-2.54.76-5.13,1.5-7.74,1.59-1.49.06-3.52-.2-4.62-1.54-.58-.68-.89-1.65-1.07-2.5-.79-2.9-1.24-5.95-1.29-8.96-.02-1.94.11-4.3,1.47-6.01.69-.88,1.67-1.49,2.6-2.07l4.84-3.09c.75-.46,1.52-.96,2.36-1.1,1.06-.19,2.14.23,3.28.61.95.34,1.89.69,2.9.74,3.17.18,5.64-2.27,7.87-4.97,1.95-2.35,4.26-4.73,6.93-4.34,1.63.23,3.1,1.54,3.8,3.36.55,1.54.64,3.38.15,5.52-.4,2-1.15,3.94-1.93,5.76ZM-70.33,42.43c-.1-.02-.2-.04-.29-.06-3.26-.46-5.93,2.16-8.08,4.77-2.02,2.44-4.2,4.69-6.86,4.51-.85-.07-1.71-.35-2.56-.67-1.23-.45-2.51-.91-3.93-.69-1.1.18-1.99.77-2.81,1.31l-4.84,3.09c-.99.61-2.1,1.35-2.92,2.36-1.62,1.96-1.76,4.68-1.72,6.77.08,3.12.51,6.26,1.33,9.27.26.97.59,2.1,1.33,2.96,1.43,1.71,3.86,2.05,5.6,2,2.76-.05,5.47-.88,8.06-1.63,1.24-.36,2.48-.72,3.77-1.02.43-.12.9-.17,1.33-.29,3.24-.67,6.9-1.45,9-4.28,2.36-3.13,4.1-7.2,5.64-10.81.2-.47.38-.89.57-1.31.79-1.88,1.59-3.85,2.06-5.94.53-2.38.45-4.49-.21-6.25-.79-2.14-2.5-3.71-4.46-4.1ZM-15.09,153.01c.56-.5,1.08-.8,1.6-.9.79-.14,1.64.18,2.2.44,1.25.61,2.35,1.44,3.46,2.27,1.1.83,2.3,1.69,3.55,2.29,1.06.52,2.17.85,3.29,1.07,1.47.3,2.96.45,4.47.55,2.7.24,5.49.5,7.89,1.7,1.29.67,2.14,1.5,2.6,2.46.46,1.01.43,2.42-.51,3.25-1.05.91-2.57.65-4.05.4-.2-.04-.39-.08-.6-.07-3.3-.52-6.85.19-11.18,2.22-.62.28-1.38.79-2.14,1.3-1.64,1.09-3.58,2.38-4.92,1.95-.63-.18-1.07-.73-1.45-1.62-.2-.5-.35-1.04-.5-1.57-.16-.69-.38-1.4-.71-2.02-.54-1.13-1.42-2.02-2.27-2.85-.67-.7-1.39-1.4-1.89-2.21-1.65-2.67-1.17-6.54,1.14-8.67ZM-14.53,164.1c.85.83,1.69,1.71,2.23,2.79.33.63.5,1.32.67,1.97.15.54.29,1.08.49,1.62.37.94.95,1.57,1.68,1.76,1.48.45,3.47-.82,5.18-2,.76-.51,1.48-1.02,2.14-1.3,4.22-1.99,7.71-2.66,10.96-2.16.2.04.39.08.6.07,1.48.25,3.15.53,4.26-.46,1.05-.91,1.07-2.53.57-3.6-.46-1.01-1.39-1.91-2.73-2.59-2.44-1.26-5.28-1.53-7.98-1.77-2.6-.22-5.3-.46-7.66-1.6-1.25-.61-2.4-1.45-3.5-2.28-1.1-.83-2.25-1.68-3.5-2.28-.37-.18-.79-.36-1.28-.46-.34-.07-.69-.09-1.07-.01-.58.09-1.15.43-1.72.97-2.43,2.2-2.95,6.27-1.17,9.07.45.8,1.16,1.56,1.83,2.25ZM-110.04,47.47c1.24-2.34,3.25-4.27,5.01-5.9,8.33-7.52,17.82-13.69,28.06-18.33,3.52-1.58,6.48-2.61,9.57-2.59,2.24,0,4.41.59,6.58,1.18l14.57,3.86c.1.02.24.05.36-.03,9.27-3.11,18.63-5.13,29.87-7.18,1.96-.37,3.74-.67,5.45-.32,1.86.38,3.54,1.38,5.17,2.37l21.31,13.05c4.89,2.97,9.35,6.06,10.99,10.76.61,1.75.77,3.72.96,5.58.24,2.59.52,5.24,1.82,7.59,1.62,2.82,4.44,4.46,7.16,6.07,1.9,1.15,3.9,2.31,5.43,3.84,2.4,2.47,3.53,5.7,4.76,9.15.61,1.75,1.25,3.61,2.08,5.3,1.65,3.39,4.09,6.42,6.5,9.35,3.42,4.2,6.63,8.2,7.7,13.2.13.64.24,1.32.32,1.95.18,1.1.36,2.26.69,3.39.24.81.59,1.59.95,2.33.43.9.81,1.79,1.08,2.71.56,2.25.1,4.55-.43,6.93-.24,1.17-.48,2.39-.62,3.59-.39,3.68.4,7.35,1.15,10.91.89,4.15,1.72,8.08.87,12.02-.89,3.89-3.27,7.12-5.83,10.47-2.09,2.78-4.25,5.7-5.48,9.01-2.72,7.43-.24,15.77,1.93,21.39.66,1.76,1.4,3.64.86,5.31-.36,1.3-1.44,2.35-2.38,3.23-4.37,4.25-9.07,8.39-14.64,8.02-.85-.07-1.78-.26-2.66-.44-1.42-.29-2.83-.57-4.34-.42-3.38.38-5.85,2.78-8.21,5.15-.58.6-1.21,1.23-1.83,1.77-1.86,1.66-5.09,2.78-7.75,2.6-.3-.01-.6-.07-.94-.14-.83-.17-1.73-.5-2.44-1.26,3.38-5.93,9.2-10.55,15.77-12.37,1.51-.41,3.09-.7,4.58-1.01,3.28-.61,6.66-1.25,9.48-3.12,4.64-3.08,6.66-8.82,7.8-12.91.87-3.03,1.78-7.06,1.27-11.08-.19-1.56-.59-3.12-.96-4.57-.5-2.03-1.1-4.14-1.07-6.27.02-2.59.83-5.12,1.63-7.55.13-.38.27-.81.39-1.19,1.41-4.44,2.43-9.02,3.02-13.68.58-4.61.61-8.32.09-11.78-.28-1.63-.66-3.29-1.05-4.89-.42-1.71-.86-3.53-1.06-5.3-.21-1.72-.32-3.47-.37-5.21-.07-1.44-.11-2.97-.27-4.43-.82-7.74-4.6-15.22-10.41-20.46-.56-.52-1.21-1.06-1.78-1.53-1.48-1.22-3-2.54-4.17-4.05-.88-1.19-1.56-2.6-2.25-3.96-.36-.73-.72-1.47-1.13-2.21-3.06-5.5-8.1-9.47-13.01-13.36-2.76-2.19-5.57-4.38-8.07-6.87-.84-.88-1.72-1.82-2.51-2.69-1.83-2-3.74-4.11-6.01-5.74-1.51-1.07-3.37-1.95-5.37-2.36-2-.4-4.1-.32-6.03.66-.6-.53-1.27-1.02-1.95-1.41-.05-2.76-3.77-4.98-5.78-5.85-.65-.28-1.28-.46-1.96-.6-1.95-.4-4-.35-5.69-.29-4.76.16-9.07.35-13.26,1.44-3.38.89-8.14,2.78-11.33,6.76-1.29,1.62-2.27,3.46-3.25,5.24-1.31,2.48-2.7,5.05-4.9,6.89-.98.82-2.07,1.41-3.16,2.06-.86.49-1.78,1.01-2.61,1.61-3.41,2.51-5.56,6.35-7.63,10.1-2.41,4.39-4.74,8.6-8.98,10.69-1.1.39-2.18.73-3.27,1.07-.27.1-.59.14-.86.23,3.45-2.2,7.3-5.95,9.08-8.94,1.23-2.04,2.28-4.22,3.31-6.3.78-1.57,1.55-3.14,2.38-4.71,1.05-1.92,2.3-3.86,4.26-4.73,1-.41,2.14-.53,3.19-.68.04.06.09.07.19.09.1.02.17-.07.23-.16,1.09-.13,2.14-.28,3.16-.79,2.15-1.09,3.23-3.41,4.21-5.5l.07-.09c2.06-4.41,4.55-8.69,7.35-12.7,1.29-1.87,2.84-4,5.06-5.18,2.11-1.15,4.66-1.4,6.83-1.57,4.74-.31,9.6-.2,14.32.35,2.24.25,4.45.64,5.86,2.2.66.74,1.13,1.7,1.55,2.65.42.95.84,1.9,1.55,2.65,1.74,1.98,4.49,2.18,7.09,2.4,1.05.11,2.1.17,3.08.37,4.02.76,7.47,3.54,10.58,6.26,2.68,2.32,5.34,4.79,7.89,7.24-.02.1,0,.21-.01.3-.02.35.23.61.59.63.1.02.22-.06.32-.09.34.32.68.65,1.02.97,2.46,2.43,4.81,4.38,7.34,6.47,1.57,1.28,3.23,2.64,4.86,4.13,1.94,1.71,3.89,3.63,4.07,6.01.08.63-.01,1.32-.09,1.96-.11.79-.18,1.64-.04,2.48.48,2.39,2.69,3.8,4.94,5.01,2.93,1.61,5.69,3.29,7.4,5.92,1.36,2.06,1.94,4.51,2.47,6.91l4.34,18.78c.87,3.74,1.77,7.58,2.21,11.43.84,7.19.14,14.67-1.98,21.62-.31,1.05-.68,2.1-1.04,3.15-1.46,4.18-2.89,8.52-2.26,12.92,1.81,11.65.74,21.25-3.18,28.54-1.16,2.21-3.76,6-7.84,6.85-1.38.28-2.8.25-4.15.18-.86-.02-1.76-.1-2.64-.03-4.67.22-8.81,2.85-11.87,5.13-.29.19-.6.44-.9.68-2.04,1.52-4.13,3.08-6.61,3.75-.11.03-.13.13-.09.19.03.11.13.13.19.09,2.52-.66,4.63-2.27,6.71-3.78.29-.19.6-.44.9-.68,3.04-2.23,7.08-4.82,11.7-5.06.87-.03,1.73,0,2.64.03,1.41.08,2.82.11,4.25-.16,4.19-.88,6.86-4.77,8.03-7.02,3.92-7.34,5.02-17.04,3.17-28.75-.66-4.3.82-8.58,2.23-12.77.36-1.05.73-2.09,1.04-3.15,2.17-6.98,2.87-14.47,2.01-21.76-.43-3.9-1.33-7.74-2.2-11.48l-4.34-18.78c-.5-2.29-1.15-4.86-2.55-7.02-1.75-2.64-4.56-4.38-7.53-6-2.2-1.21-4.35-2.61-4.77-4.83-.14-.79-.09-1.54.02-2.38.08-.64.17-1.34.1-2.01-.2-2.53-2.2-4.46-4.18-6.23-1.64-1.45-3.3-2.8-4.86-4.13-2.53-2.09-4.88-4.04-7.3-6.41-.34-.32-.68-.65-1.02-.97.07-.09.09-.19.11-.28.3-5.74.22-11.65-3.49-15.7-1.25-1.37-2.78-2.34-4.22-3.29l-7.56-4.83c-5.31-3.41-11.22-6.89-17.22-8.11-3.18-.64-6.37-.68-9.57.3-1.62.49-3.14,1.2-4.66,1.91-2.03.96-3.98,1.84-6.08,2.18-2.37.39-4.89.03-7.31-.31-3.41-.49-6.93-.94-10.18.54-1.85.85-3.36,2.27-4.85,3.6-2.12,1.91-4.05,3.71-6.62,3.8-2.45.06-4.5-1.37-6.72-2.99-.66-.49-1.34-.93-2.01-1.37-3.15-2.01-7.91-3.38-11.77-1.16-1.1.64-1.98,1.48-2.86,2.32-.38.38-.81.75-1.19,1.13-2.09,1.76-4.62,2.98-7.09,4.16-2.48,1.18-5.01,2.39-7.15,4.2-4.52,3.76-7.21,10.03-7.35,17.23-.13,6.43,1.52,12.61,3.15,18.64.9,3.33,1.78,6.77,1.86,10.19,0,3.25-.77,6.56-1.52,9.76-1.06,4.51-2.17,9.22-1.02,13.83.09.32.4.54.72.45-.32,1.56-.24,3.21.24,4.57.48,1.42,1.39,2.42,2.59,3.02-.27,2.34-.2,4.74.3,7.08.68,3.44,2.11,6.68,3.45,9.85l10.06,23.19c2.11,4.9,4.35,9.93,7.34,14.5-2.28-3.31-4.38-6.99-6.5-11.13-7.09-13.74-13.07-28.17-17.77-42.9-1.64-5.21-3.26-10.78-3.08-16.44.04-2.48.51-5.03.9-7.49.36-2.27.78-4.62.89-6.94.34-6.19-1.22-12.35-2.72-18.24-1.35-5.41-2.75-11.03-2.69-16.61.09-2.98.61-5.52,1.7-7.64ZM-15.78,13.04l.16-.02c2.48-.72,5.02-1.43,7.54-1.07,2.22.35,3.97,2.23,5.63,4.09,1.08,1.18,2.16,2.37,3.38,3.17,3.27,2.19,6.92,3.74,10.49,5.22,1.5.61,3.05,1.28,4.54,1.93,6.33,2.91,10.35,6.16,12.59,10.17.63,1.14.99,2.13,1.31,3.06.41,1.25.84,2.41,1.87,3.84,1.78,2.5,4.53,4.02,7.18,5.47,1.65.89,3.39,1.85,4.82,3.06,3.98,3.19,8.09,8.5,11.12,14.15,6.08,11.45,12.79,22.77,19.79,33.64,2.45,3.75,4.31,9.11,4.81,13.68.44,4.11-1.47,7.79-3.26,11.34-2.04,4.06-4.2,8.2-2.8,12.86.43,1.41,1.62,3.07,2.78,4.63,1.07,1.49,2.23,3.04,2.64,4.3,1.16,3.59.81,7.59-.89,10.95-.78,1.57-2.22,3.16-3.6,4.71-1.05,1.16-1.98,2.24-2.7,3.32-3.18,4.65-5.78,8.95-5.41,14.67.09,1.34.46,2.99.89,4.65.47,1.93.9,3.84.9,5.37-.13,8.46-4.59,14.89-8.77,17.24-2.7,1.54-5.9,2.01-8.95,2.51-3.68.58-7.46,1.19-10.42,3.49-1.51,1.17-4.18,3.83-6.49,6.21-1.6,1.61-3.08,3.14-4.06,4.01-3.92,3.53-9.39,5.22-14.6,4.57-4.56-.57-10.01-5.58-13.48-10.3.35.02.69.09,1.05.11.21,0,.4.03.61.02,3.05,4.28,7.95,7.2,13.16,7.85,5.35.68,10.95-1.09,14.98-4.7,1.06-.96,2.04-2.03,2.96-3.06,1.19-1.34,2.37-2.67,3.82-3.8,2.96-2.3,6.73-3.37,10.34-4.37,2.91-.83,5.93-1.65,8.57-3.15,5.74-3.26,9.53-9.67,9.54-16.27-.02-1.68-.24-3.35-.42-4.97-.16-1.2-.33-2.41-.39-3.59-.34-5.61,1.21-11.25,4.37-15.84.65-.94,1.33-1.82,2.02-2.69,1.17-1.49,2.4-3.07,3.26-4.83,1.77-3.46,2.1-7.61.91-11.31-.4-1.3-1-2.59-1.58-3.78-.6-1.29-1.26-2.59-1.63-3.99-1.37-4.55.39-8.97,2.25-13.63,1.56-3.96,3.2-8.05,2.72-12.21-.45-4.57-3.06-8.5-5.54-12.36l-.08-.12c-7.05-10.88-13.72-22.2-19.8-33.6l-.26-.46c-2.62-4.9-5.31-9.97-9.64-13.44-1.4-1.15-2.98-2.13-4.52-3.05-2.63-1.6-5.34-3.27-7.17-5.77-1.03-1.43-1.71-3.09-2.36-4.7-.48-1.16-.99-2.39-1.63-3.48-2.28-4.07-6.34-7.38-12.75-10.36-1.48-.71-3.04-1.33-4.58-1.99-3.52-1.47-7.18-2.98-10.4-5.15-.72-.45-1.42-1-2.14-1.5-2.26-1.63-4.57-3.31-7.25-3.86-.15-.03-.29-.06-.49-.1-2.62-.38-5.21.37-7.74,1.08l-.11.03c-11.93,3.44-25.3,5.41-37.11,6.99,11.84-1.98,28.16-5.49,40.03-8.89ZM27.91,211.43c-.39.94-.79,1.88-1.27,2.74-2.9,5.31-9.95,7.96-15.68,5.88-1.61-.58-3.06-1.48-4.5-2.38,2.5-.56,4.78-1.78,6.56-3.51.95.85,2.31,1.38,3.88,1.44,3.01.2,6.56-1.01,8.68-2.92.63-.59,1.26-1.22,1.89-1.8.37-.33.71-.72,1.08-1.05-.21.52-.42,1.08-.63,1.6ZM27.34,216.04c-1.77,3.46-4.44,5.87-7.48,6.83-2.71.83-5.49.52-8.1-.93-1.38-.74-4.74-2.69-6.87-3.98.26-.05.52-.05.78-.1,1.62,1.04,3.28,2.14,5.13,2.82,6.02,2.18,13.34-.61,16.4-6.19.49-.92.89-1.9,1.29-2.84.41-1.04.83-2.07,1.42-3.02.73-.61,1.46-1.18,2.26-1.63-1.51,2.69-4.05,7.47-4.83,9.04ZM59.12,188.6c-2.06-5.4-4.51-13.42-1.91-20.47,1.15-3.17,3.29-5.95,5.32-8.69,2.51-3.36,5.14-6.79,6.03-10.98.95-4.18.03-8.43-.87-12.53-.73-3.45-1.53-7.02-1.13-10.5.13-1.14.37-2.32.59-3.44.49-2.44,1.06-4.97.4-7.5-.25-1.02-.72-1.98-1.14-2.92-.36-.73-.67-1.46-.93-2.17-.35-1.04-.49-2.08-.63-3.18-.12-.68-.18-1.36-.35-2.05-1.11-5.31-4.57-9.57-7.95-13.76-2.32-2.86-4.72-5.84-6.34-9.11-.79-1.63-1.44-3.44-2.05-5.19-1.2-3.39-2.46-6.95-5.02-9.61-1.65-1.66-3.69-2.88-5.69-4.05-2.68-1.56-5.27-3.1-6.69-5.62-1.21-2.07-1.43-4.51-1.67-7.1-.16-1.96-.36-3.99-1.04-5.91-1.77-5.09-6.45-8.32-11.52-11.43L-4.74,19.34c-1.63-.99-3.44-2.12-5.44-2.52-.05,0-.1-.02-.15-.03-1.92-.34-3.8-.06-5.91.33-11.2,2.06-20.55,4.08-29.87,7.18l-9.36-2.5c11.76-1.59,24.98-3.59,36.8-7l.11-.03c2.48-.72,5.08-1.47,7.59-1.06,2.86.43,5.25,2.18,7.61,3.88.71.5,1.42,1.05,2.14,1.5,3.22,2.18,6.93,3.69,10.45,5.16,1.5.61,3.05,1.28,4.54,1.93,6.38,2.92,10.4,6.17,12.63,10.23.64,1.1,1.11,2.31,1.59,3.47.69,1.61,1.36,3.33,2.39,4.76,1.82,2.55,4.59,4.23,7.25,5.89,1.54.92,3.12,1.9,4.52,3.05,4.28,3.46,6.98,8.48,9.55,13.37l.26.46c6.08,11.45,12.74,22.76,19.79,33.64l.08.12c2.48,3.81,5.05,7.73,5.52,12.2.44,4.11-1.19,8.15-2.74,12.06-1.78,4.52-3.64,9.18-2.29,13.83.43,1.41,1.07,2.76,1.67,4.05.57,1.18,1.18,2.48,1.58,3.78,1.15,3.64.79,7.68-.92,11.1-.85,1.71-2.08,3.24-3.25,4.73-.69.88-1.38,1.81-2.03,2.74-3.19,4.69-4.74,10.38-4.41,16.04.06,1.23.22,2.43.38,3.64.23,1.62.45,3.29.42,4.97,0,6.51-3.71,12.83-9.4,16.05-2.64,1.5-5.61,2.32-8.52,3.16-3.67,1.04-7.38,2.07-10.46,4.45-1.45,1.13-2.64,2.52-3.87,3.79-.92,1.03-1.9,2.11-2.96,3.06-3.97,3.52-9.45,5.26-14.72,4.65-5.06-.62-9.79-3.4-12.82-7.52.21,0,.36-.03.56.01,2.03,1.27,6.08,3.62,7.64,4.44,2.79,1.53,5.73,1.82,8.6.98,3.25-.97,6-3.52,7.84-7.11.91-1.75,3.9-7.45,5.23-9.77.61-.23,1.2-.42,1.88-.48,1.3-.14,2.57.11,3.94.39.93.19,1.86.38,2.81.42,6.12.42,11.26-4.13,15.58-8.39,1.01-.97,2.22-2.19,2.7-3.78.85-1.96.02-4.11-.66-6.03ZM-75.96,81.11c3.18-2.41,5.19-6.07,7.14-9.64,2.02-3.71,4.16-7.5,7.5-9.92.83-.59,1.69-1.08,2.55-1.57,1.1-.64,2.24-1.28,3.22-2.09,2.26-1.88,3.66-4.5,5.03-7.02.97-1.79,1.95-3.62,3.19-5.2,3.17-3.88,7.77-5.75,11.1-6.6,4.14-1.1,8.4-1.3,13.15-1.41,2.4-.07,5.06-.15,7.46.85,2.11.88,5.16,2.87,5.47,5.12-.68-.39-1.38-.74-2.14-.99-.57-.22-1.15-.33-1.74-.45-2.93-.59-5.95-.24-8.62.14-11.78,1.69-19.62,5.24-24.57,11.1-1.54,1.82-2.83,3.95-4,5.95-.54.91-1.09,1.86-1.68,2.76-5.51,8.39-13.69,15.13-23.06,18.98ZM-7.59,211.98c-.93-1.2-1.62-2.56-2.36-3.93-.85-1.59-1.68-3.24-2.87-4.65-3.53-4.17-9.96-5.57-14.9-3.27-.27.1-.51.25-.79.4-.79.4-1.53.76-2.31.86-.94.12-1.94-.19-2.9-.48-3.07-.93-6.32-2.19-7.03-4.98-.08-.37-.15-.74-.18-1.1-.05-.52-.14-1.05-.3-1.54-.83-2.45-3.53-3.66-5.84-3.82-1.55-.11-3.14.18-4.62.49-.68.12-1.42.22-2.1.34-6.83.86-14.31-1.93-20.48-7.6-.64-.59-1.28-1.22-1.86-1.85,2.54,2.55,5.81,4.99,9.75,6.34,8.32,2.85,17.26.39,25.97-3.19,1.38,2.72,4.39,4.7,8.29,5.54,1.91.39,3.86.53,5.77.66,1.41.08,2.91.18,4.29.41,5.18.79,10.14,3.17,13.98,6.79.64.59,1.23,1.21,1.86,1.85,1.3,1.38,2.69,2.78,4.3,3.87.49.35,1.55.62,1.65.64.05,0,.1.02.2.04,2.1-.08,3.4-.23,3.76-.51,1.29-.86,1.77-1.98,2.29-3.04.44-.93.82-1.82,1.77-2.49,2.92-2.11,6.43-2.87,10.18-3.59,1.97-.42,4.03-.81,5.94-1.44,9.97-3.27,17.26-13.7,16.94-24.19,0-.71-.06-1.49-.12-2.16-.09-1.54-.26-3-.06-4.49.22-1.84.92-3.53,1.69-5.35.72-1.79,1.48-3.56,1.73-5.55.2-1.23.14-2.46.12-3.64,0-.71-.03-1.38.01-2.08.08-1.41.26-2.79.49-4.17.29-1.92.59-3.95.49-5.95-.2-3.55-2.25-7.47-5.82-8.19-.05,0-.1-.02-.15-.03t-.1-.02c-.28-1.12-.72-2.23-1.17-3.29v-.05c-.28-.57-.52-1.17-.76-1.73-.13-4.91.31-9.85,1.29-14.69l.11-.54c.35-1.71.69-3.42.49-5.19-.69-5.12-6-8.03-9.1-9.31-.99-.4-1.98-.76-2.92-1.15-3.16-1.2-6.49-2.38-8.9-4.75-1.19-1.16-2.14-2.52-3.08-3.88-.32-.42-.58-.88-.91-1.3-4.87-6.83-11.6-10.79-17.94-10.59-1.33.04-2.64.23-3.95.42-2.31.35-4.52.71-6.74.16-2.08-.52-3.9-1.86-5.62-3.12-1.51-1.07-3.06-2.2-4.81-2.85-.62-.23-1.29-.41-1.92-.54-1.32-.27-2.58-.32-3.65-.33-13.67-.27-27.06,7.09-34.1,18.78-3.14,1.96-6.92,2.77-10.63,3.55-4.31.96-8.77,1.89-12.24,4.7-2.24,1.78-3.91,4.24-5.5,6.57-1.01,1.47-2.04,3.05-3.23,4.43-.86,1-1.8,1.87-2.73,2.7-.81.75-1.58,1.51-2.35,2.32,2.19-6.07,5.44-12.32,8.6-16.62,1.19-1.59,2.54-3.25,4.24-4.38,1.76-1.17,3.9-1.7,6-2.25.43-.12.86-.23,1.29-.35,11.74-3.22,22.3-10.95,28.9-21.21.59-.9,1.14-1.85,1.68-2.76,1.22-1.99,2.45-4.08,3.98-5.86,4.83-5.79,12.54-9.21,24.17-10.93,3.14-.43,6.78-.87,10.11.31,5.08,1.79,8.12,6.62,11.08,11.34.62.94,1.23,1.98,1.85,2.92,4.6,6.93,10.8,12.71,18.01,16.81.77.46,1.6.88,2.38,1.3,4.76,2.59,9.71,5.27,11.41,10.19.25.76.4,1.55.6,2.31.28,1.38.61,2.77,1.38,3.99,1.08,1.69,2.81,2.7,4.49,3.7,1.32.77,2.64,1.55,3.64,2.62,2.25,2.44,2.64,6.08,2.79,9.82l1.66,38.06c.09,2.05.23,4.42-.54,6.45-.46,1.28-1.27,2.49-2.05,3.6-1.09,1.61-2.25,3.31-2.44,5.3-.22,1.84.38,3.64,1.01,5.34.19.55.38,1.14.56,1.74,1.84,6.47-.23,13.99-5.4,19.15-4.67,4.75-11.62,7.41-19.03,7.34-.25,0-.56-.01-.81-.01-2.18-.03-4.46-.09-6.24,1.18-1.6,1.1-2.32,2.94-3.03,4.68-.6,1.46-1.21,2.96-2.29,4.01-1.09,1.1-2.52,1.63-4.14,1.6-2.89-.03-6.4-1.8-9.01-4.47-.67-.7-1.34-1.44-2-2.18-2.95-3.24-5.98-6.65-10.25-7.16-1.49-.2-2.95.01-4.37.24-.73.11-1.47.21-2.19.27-6.39.44-12.76-3.29-15.62-9-.07-.17-.26-.21-.43-.14-.17.07-.21.26-.14.43,2.92,5.93,9.61,9.82,16.22,9.33.77-.05,1.51-.15,2.24-.26,1.41-.17,2.83-.39,4.21-.22,4.07.47,7.02,3.76,9.89,6.93.66.74,1.33,1.49,2,2.18,2.68,2.83,6.43,4.66,9.42,4.7,1.83.01,3.37-.59,4.64-1.81,1.15-1.14,1.76-2.69,2.38-4.25.71-1.74,1.39-3.38,2.82-4.41,1.61-1.15,3.78-1.12,5.86-1.05.25,0,.56.01.81.01,7.56.05,14.68-2.68,19.48-7.55,5.3-5.34,7.43-13.09,5.52-19.78-.18-.6-.37-1.19-.56-1.74-.58-1.64-1.15-3.38-.96-5.07.22-1.84,1.25-3.41,2.34-5.02.79-1.16,1.61-2.42,2.08-3.75.8-2.18.67-4.59.54-6.7l-1.87-38.05c-.18-3.9-.54-7.63-2.96-10.26-1.09-1.14-2.45-1.97-3.77-2.74-1.68-1-3.32-1.94-4.27-3.51-.69-1.11-.98-2.44-1.26-3.81-.14-.79-.34-1.59-.58-2.41-1.75-5.18-6.8-7.88-11.7-10.55-.83-.42-1.6-.88-2.38-1.3-7.12-4.03-13.27-9.8-17.79-16.61-.62-.94-1.24-1.93-1.86-2.87-1.88-3.02-3.85-6.12-6.33-8.45,3.59-1.66,7.77-.21,10.53,1.72,2.23,1.57,4.1,3.62,5.93,5.62.84.88,1.67,1.81,2.56,2.7,2.49,2.54,5.35,4.74,8.11,6.93,4.82,3.82,9.83,7.73,12.85,13.17.42.69.77,1.48,1.14,2.16.69,1.36,1.37,2.77,2.29,4.02,1.2,1.62,2.77,2.9,4.24,4.16.57.47,1.17,1,1.78,1.53,5.68,5.11,9.44,12.43,10.23,20.07.16,1.46.22,2.94.28,4.38.06,1.74.15,3.54.36,5.26.24,1.83.7,3.6,1.1,5.36.4,1.55.78,3.21,1.01,4.83.49,3.35.46,7.01-.1,11.57-.57,4.56-1.59,9.14-2.99,13.53-.13.38-.26.76-.39,1.19-.81,2.48-1.63,5.06-1.67,7.75-.03,2.18.55,4.33,1.09,6.42.37,1.45.77,3,.97,4.52.49,3.86-.42,7.85-1.27,10.83-1.1,3.95-3.11,9.59-7.57,12.55-2.7,1.79-6.04,2.44-9.26,3.06-1.54.3-3.12.59-4.63,1-6.69,1.9-12.67,6.59-16.13,12.65h-.05c-.21,0-.37.07-.45.2-2.48,2.7-6.18,4.14-10.26,3.98-4.19-.14-7.81-1.88-10.02-4.77ZM-20.27,176.87c.18.39.3.77.47,1.21.58,1.64,1.21,3.35,2.71,4.46,1.01.76,2.24,1.01,3.07,1.18,5.01.86,9.97-.78,14.76-2.35,5.17-1.7,10.12-3.29,15.01-2.05.82.22,1.67.54,2.53.82,1.42.54,2.89,1.04,4.43,1.2,2.95.24,5.91-1.04,7.74-3.32,1.83-2.27,2.43-5.46,1.52-8.29-.66-2.01-1.96-3.65-3.25-5.28-.72-.96-1.54-1.94-2.15-2.93-1.67-2.83-2.11-6.43-1.2-9.9.91-3.48,3.08-6.44,5.95-8.05.28-.15.41-.53.22-.82.29-.19.53-.35.82-.55,3.27-2.34,6.58-6.4,7-11.25,2.54,1.78,2.95,5.78,1.8,8.7-.93,2.35-2.55,4.31-4.17,6.28-.61.74-1.22,1.48-1.77,2.23-1.87,2.47-3.89,6.18-2.89,9.79.44,1.61,1.47,3.04,2.47,4.36.88,1.19,1.79,2.45,2.32,3.88.65,1.81.62,3.99-.11,6.59-2.83,10.46-13.98,17.87-24.41,16.12-1.72-.3-3.45-.8-5.13-1.29-3.12-.93-6.33-1.89-9.58-1.43-1.15.17-2.24.51-3.32.85-.76.25-1.52.46-2.32.65-2.29.5-4.63.54-6.97.52-1.52,0-3.25,0-4.63-.73-1.51-.81-2.47-2.38-3.33-3.88-.31-.47-.61-.99-.93-1.46-1.1-1.6-5.22-2.33-7.97-2.07,1.13-.58,2.19-1.29,3.21-2.05,1.58-1.26,2.89-2.72,3.92-4.29.09.07.23.1.34.07,1.71-.42,3.14,1.3,3.85,3.07ZM-22.01,169.91c3.23,1.11,5.67,4.15,6.1,7.54.02.16.03.36.05.52.12,1.14.27,2.44,1.24,3.15,1.06.77,2.45.44,3.55.06,2.07-.7,4.19-1.59,6.19-2.46,3.34-1.41,6.74-2.91,10.34-3.6,5.34-1.01,10.93-.23,15.78,2.17,1.47.76,3.74,1.87,5.32.62,1.09-.85,1.21-2.45.88-3.59-.37-1.19-1.15-2.11-1.93-3.03l-.04-.06c-1.47-1.77-3.18-3.9-4.28-6.25-2.82-6.16-1.14-14.21,3.99-18.72.07-.09.09-.19.11-.28.77-.3,1.56-.65,2.29-1.01-1.57,1.72-2.77,3.91-3.41,6.33-1.02,3.81-.5,7.78,1.31,10.89.64,1.1,1.45,2.12,2.22,3.09,1.26,1.58,2.43,3.08,3.03,4.88.74,2.39.27,5.19-1.3,7.16-1.57,1.97-4.18,3.07-6.68,2.87-1.4-.13-2.73-.6-4.09-1.13-.85-.32-1.7-.65-2.62-.89-5.27-1.37-10.6.35-15.72,2.06-4.68,1.54-9.48,3.12-14.14,2.28-1.13-.18-1.93-.49-2.56-.92-1.2-.85-1.72-2.33-2.27-3.87-.17-.44-.29-.82-.47-1.21-.79-1.89-2.4-3.99-4.53-4.02.55-.96,1.05-1.92,1.44-2.86-.02.1.06.22.19.29ZM-14.8,141.52s0,.05,0,0c.18.14.3.26.44.34.92.74,1.9,1.4,3,2.03,5.08,4.03,12.78,5.94,21.65,5.34,2.93-.17,5.88-.64,8.71-1.34-4.42,6.53-3.76,16.07,1.74,21.81.38.38.81.77,1.19,1.16,1.45,1.36,2.9,2.77,3.28,4.63-1.57-.52-2.98-1.36-4.39-2.16-1.18-.7-2.36-1.39-3.63-1.9-4.04-1.63-9.09-1.58-14.23.22-4.37,1.51-8.35,4.06-12.24,6.47l-.47.31c-.4.22-.86.49-1.18.32-.32-.17-.44-.6-.5-1.07-.08-.63-.15-1.25-.22-1.93-.25-2.29-.48-4.67-1.48-6.76-1.33-2.71-4.67-4.81-7.47-3.54-.12.08-.19.17-.12.33.07.17.17.19.28.11,2.56-1.11,5.58.82,6.85,3.32,1.01,2.04,1.21,4.31,1.46,6.6.08.63.14,1.3.22,1.93.05.52.22,1.16.73,1.42.56.27,1.12-.03,1.64-.33l.47-.31c3.85-2.43,7.81-4.93,12.13-6.45,5.03-1.73,9.93-1.86,13.87-.2,1.22.5,2.4,1.2,3.59,1.84,1.55.87,3.14,1.8,4.87,2.31.1.02.16-.02.22-.06.06-.04.08-.14.09-.19-.27-2.19-1.94-3.75-3.51-5.29-.38-.38-.81-.77-1.19-1.16-5.46-5.68-6.06-15.31-1.37-21.63,1.55-.4,3.02-.86,4.45-1.39-4.78,4.78-6.27,12.66-3.44,18.78,1.13,2.47,2.83,4.59,4.35,6.42l.04.06c.74.86,1.47,1.77,1.82,2.81.27.92.21,2.23-.64,2.92-1.2.93-2.89.23-4.69-.69-4.99-2.48-10.73-3.29-16.18-2.2-3.65.69-7.1,2.17-10.45,3.63-2.01.87-4.07,1.77-6.14,2.47-.98.31-2.16.63-3.01.05-.75-.56-.89-1.65-1.02-2.75-.02-.16-.03-.36-.05-.52-.44-3.6-3.09-6.83-6.51-8.03-.15-.03-.3-.01-.33.14.8-1.92,1.34-3.85,1.67-5.51,1.01-4.73,1.04-9.65,1.09-14.42l.04-1.72c.05-2.99.96-6.26,3.39-6.43.41-.02.8.06,1.18.19ZM20.68,139.03c1.96-1.89,3.72-3.82,4.07-6.3.25-1.73-.33-3.42-.83-4.95-1.91-5.88-4.02-12.56-8.76-17.28-2.08-2.05-4.18-3.23-6.36-3.52-2.08-.27-4.12.24-6.1.75-2.14.53-4.14,1.1-6.19.68-2.99-.55-5.08-2.81-7.23-5.22-1.42-1.51-2.83-3.11-4.59-4.23-1.48-.96-3.13-1.6-4.84-1.95-3.47-.7-7.25-.35-10.65.13-4.65.64-9.33,1.37-13.88,2.28-.84.14-2,.36-2.78,1.17-.63.59-.9,1.44-1.16,2.21l-.04.2c-1.2,3.42-3.99,7.43-7.9,7.4-1.21-.04-2.45-.44-3.63-.89-.38-.13-.76-.26-1.14-.38-6.4-2.06-13.84-.46-18.98,4.1-5.02,4.48-7.56,11.49-6.65,18.33.58,4.18,2.38,8.11,4.1,11.91,2.25,4.98,4.4,9.69,4.11,14.87-.03.4-.07.85-.1,1.25-.1,1.25-.25,2.49.05,3.77.4,1.81,1.63,3.28,2.69,4.56,2.37,2.87,5.02,6.1,8.53,8.13,3.55,2.04,9.79,4.37,23.4.46,3.02-.86,6.55-1.98,9.37-4.11,3.65-2.72,6.34-7.21,7.97-13.29,1.01-3.76,1.55-7.67,1.58-11.58.01-.3.02-.61-.03-.87.48,1.42.86,2.77.82,3.73-.07,4.36-.42,7.09-1.45,10.94-1.46,5.45-3.94,9.17-8.32,12.5-2.76,2.09-9.72,4.59-13.4,5.68-8.69,2.51-15.97,1.8-22.8-2.17-2.5-1.47-5.97-4.92-7.5-7.41-1.86-3.12-3.36-8.51-4.25-11.69-.71-2.53-.55-4.33-.34-6.12.21-2.3.39-4.45-1.36-7.6-.67-1.2-1.4-2.37-2.13-3.53-2.23-3.55-4.3-6.92-4.86-11.15-.99-7.17,1.72-14.55,6.94-19.24,5.34-4.77,13.06-6.51,19.74-4.35.43.14.81.27,1.23.45,1.33.47,2.66.94,4.07.98,4.52.05,7.71-4.44,9.06-8.34l.09-.19c.27-.81.53-1.62,1.1-2.17.64-.63,1.6-.9,2.71-1.08,4.92-.94,9.91-1.76,14.83-2.44,5.39-.74,11.49-1.24,16.21,1.8,1.8,1.18,3.29,2.85,4.74,4.47,2.29,2.5,4.62,5.05,7.94,5.72.05,0,.1.02.1.02,2.31.42,4.61-.19,6.86-.75,2.09-.54,4.24-1.13,6.32-.81,2.18.29,4.38,1.49,6.49,3.6,4.99,4.98,7.27,12.1,9.25,18.39.5,1.57,1.05,3.36.8,5.09-.35,2.47-2.18,4.49-4.21,6.47-1.59,1.56-3.24,2.7-4.88,3.54.75-.71,1.48-1.28,2.18-2ZM2.54,142.28c-.5-.05-1.05-.11-1.55-.11-3.41-.23-7.28-.71-10.08-2.95-.74-.61-1.6-1.39-2.55-2.24-2.74-2.54-5.83-5.35-8.72-5.68-3.03-.36-5.63,2.93-6.78,6.36-.6,1.71.31,4.49,1.24,7.22-.02.35,0,.76-.02,1.11-.01.56-.01,1.07-.01,1.57-.02,3.86-.54,7.72-1.55,11.43-1.61,5.93-4.21,10.28-7.75,12.92-2.76,2.09-6.18,3.17-9.2,3.99-13.38,3.8-19.49,1.6-22.9-.41-3.37-1.95-5.9-5.01-8.36-7.94-1.02-1.22-2.21-2.63-2.59-4.29-.27-1.17-.14-2.32-.04-3.57.04-.45.07-.85.11-1.3.27-5.34-1.98-10.32-4.21-15.14-1.73-3.76-3.53-7.68-4.08-11.76-.91-6.59,1.54-13.42,6.44-17.77,4.95-4.39,12.14-5.99,18.34-3.97.38.13.76.26,1.14.38,1.23.45,2.46.9,3.83.93,4.26.05,7.25-4.18,8.54-7.78l.04-.2c.25-.71.5-1.47,1.01-1.98.63-.59,1.48-.77,2.48-.97,4.55-.86,9.23-1.64,13.87-2.23,5.02-.66,10.7-1.14,15.06,1.72,1.66,1.1,3.08,2.61,4.46,4.1,2.13,2.31,4.33,4.74,7.51,5.38t.1.02c2.16.39,4.35-.14,6.44-.68,1.94-.52,3.92-1.04,5.9-.74,2.02.31,4.04,1.38,5.98,3.35,4.66,4.6,6.78,11.23,8.6,17.04.47,1.47,1,3.1.78,4.68-.31,2.28-2,4.12-3.89,5.92-1.59,1.56-3.23,2.65-4.91,3.43-3.78.86-7.94.53-12.69.13ZM-25.92,143.44c-.72-2.23-1.31-4.33-.84-5.66,1.11-3.23,3.52-6.36,6.31-6.05,2.73.35,5.91,3.23,8.48,5.58.9.84,1.76,1.63,2.55,2.24,2.89,2.31,6.86,2.81,10.36,3.06.55.06,1.06.06,1.55.11,3.56.26,6.86.52,10.03.2-3.58.85-7.38.54-11.73.17l-1.46-.09c-3.16-.23-6.78-.66-9.41-2.77-.92-.74-1.79-1.73-2.61-2.66-1.61-1.85-3.21-3.75-5.7-4-3.13-.38-5.86,2.32-6.83,5.13-.46,1.53-.63,3.13-.7,4.74ZM-22.22,145.51v1.57c-.03,4.37-.09,8.93-.96,13.23-.82,3.8-2.64,9.03-6.98,12.42-2,1.58-4.39,2.62-6.74,3.67-9.66,4.25-19.08,7.84-27.96,4.77-3.9-1.35-7.05-3.87-9.44-6.38,1.24,1.17,2.56,2.19,3.65,2.82,6.96,4.05,14.34,4.78,23.19,2.25,3.89-1.15,10.69-3.58,13.57-5.75,4.49-3.36,7.04-7.17,8.52-12.72,1.03-3.86,1.4-6.68,1.42-11.05.01-1.32-.62-3.23-1.29-5.19-.02-2.14.05-4.26.76-6.25.87-2.52,3.35-5.02,6.14-4.71,2.19.24,3.72,1.97,5.28,3.81.82.98,1.69,1.97,2.7,2.73,2.76,2.19,6.48,2.63,9.74,2.88l1.46.09c5.71.44,10.86.87,15.62-1.57,2.55-.81,5.02-2.19,7.37-4.51,2.1-2.07,3.98-4.08,4.36-6.74.27-1.83-.32-3.68-.86-5.31-2.02-6.36-4.28-13.53-9.36-18.57-2.2-2.17-4.44-3.44-6.77-3.76-2.18-.29-4.38.28-6.52.82-2.2.57-4.46,1.18-6.66.74-.05,0-.1-.02-.1-.02-3.18-.64-5.38-3.07-7.71-5.63-1.5-1.63-3.04-3.31-4.88-4.55-1.57-1.03-3.32-1.69-5.13-2.05-3.71-.75-7.71-.34-11.37.14-4.97.67-9.96,1.49-14.89,2.48-.9.17-2.11.39-2.93,1.19-.64.63-.96,1.48-1.24,2.34l-.04.2c-1.27,3.76-4.33,8.07-8.59,8.03-1.32-.01-2.65-.48-3.93-.95-.43-.14-.81-.27-1.23-.45-6.83-2.19-14.75-.49-20.21,4.41-5.35,4.82-8.09,12.35-7.13,19.66.61,4.29,2.78,7.88,4.93,11.32.73,1.16,1.46,2.33,2.08,3.52,1.67,3.03,1.52,5.04,1.31,7.33-.16,1.8-.34,3.69.36,6.28.64,2.37,1.6,5.92,2.84,8.86-1.83-3.27-3.37-6.73-4.82-10.13l-9.42-21.58c-1.25-2.9-2.58-5.86-3.17-8.98-1.93-9.59,3.49-20.29,12.36-24.4,3.08-1.41,6.48-2.15,9.83-2.84,3.93-.83,7.97-1.69,11.52-3.67,1.89-1.04,3.59-2.43,5.23-3.72,1.94-1.54,3.94-3.12,6.13-4.15,4.89-2.32,10.31-1.93,16.01-1.49,3.25.25,6.62.47,9.83.16.93-.07,1.88-.23,2.77-.36,2.14-.28,4.14-.59,6.17-.33,4.32.52,7.73,3.24,11.37,6.11,2.01,1.63,4.17,3.28,6.46,4.51,2.25,1.22,4.67,2.06,7.05,2.85,2.33.78,4.76,1.62,6.9,2.82,7.14,3.93,11.55,11.79,15.09,18.15,1.34,2.41,2.83,5.1,3.07,7.94.38,4.91-2.91,9.12-6.18,11.46-7.31,5.23-19.95,7.87-30.06,5.82-3.81-.77-7.29-2.18-9.99-4.41-.13-.13-.26-.21-.39-.33-1.17-1-2.53-2.09-4.18-1.96-2.88.43-3.95,3.93-3.98,7.13ZM39.3,161.66c-.22,1.58-.08,3.19,0,4.73.06.72.11,1.45.13,2.11.32,9.98-6.61,19.87-16.09,22.98-1.85.59-3.86,1-5.83,1.41-3.71.73-7.53,1.53-10.68,3.79-1.19.88-1.72,1.99-2.18,2.97s-.83,1.87-1.83,2.53c-.28.15-1.78.25-3.06.3-.39-.08-.96-.3-1.23-.45-1.53-.97-2.79-2.29-4.09-3.67-.59-.63-1.22-1.26-1.9-1.91-4.02-3.76-9.2-6.28-14.63-7.13-1.49-.2-2.94-.29-4.39-.43-1.86-.12-3.76-.25-5.57-.62-3.51-.76-6.16-2.47-7.37-4.79,1.17-.53,2.39-.99,3.56-1.52,1.17-.53,2.29-1.01,3.42-1.6,2.59-.49,7.41.33,8.47,1.86.31.47.61.99.93,1.46.91,1.56,1.86,3.12,3.47,3.96,1.46.8,3.24.81,4.82.82,2.34.01,4.68-.02,7.02-.51.8-.19,1.55-.4,2.32-.65,1.09-.34,2.17-.68,3.32-.8,3.2-.47,6.36.47,9.43,1.4,1.68.49,3.41.99,5.18,1.3,10.57,1.78,21.9-5.69,24.76-16.35.7-2.71.73-4.89.1-6.79-.51-1.48-1.43-2.73-2.35-3.98-.96-1.31-1.95-2.68-2.4-4.25-.97-3.5,1.03-7.11,2.84-9.54.56-.75,1.17-1.49,1.77-2.23,1.62-1.96,3.24-3.97,4.23-6.32,1.25-3.15.78-7.37-2.11-9.17,0-.51.06-1.06-.04-1.58-.05-.26-.05-.52-.1-.78,2.74.76,4.38,3.99,4.54,6.97.12,1.91-.14,3.73-.49,5.7-.24,1.43-.43,2.86-.47,4.33-.04.7-.04,1.47-.02,2.13,0,1.22.03,2.35-.14,3.48-.26,1.78-.96,3.47-1.67,5.25-.66,1.75-1.44,3.62-1.69,5.61ZM-87.47,100.85c3.32-1.57,7.03-2.34,10.59-3.1,4.19-.88,8.5-1.79,12.24-3.93,2.01-1.12,3.78-2.59,5.53-3.97,2.07-1.67,4.24-3.36,6.61-4.51,5.34-2.53,11.16-2.12,17.32-1.68,3.46.24,7.02.5,10.49.19.99-.11,1.97-.21,2.92-.38,2.2-.32,4.5-.62,6.74-.37,4.72.55,8.4,3.48,12.34,6.61,2.2,1.72,4.43,3.49,6.85,4.84,2.38,1.3,5,2.18,7.52,3.05,2.52.87,5.09,1.74,7.47,3.04,6.22,3.44,10.47,9.59,13.92,15.42l-.03.15c-.03.15.09.32.28.36h.05c.71,1.27,1.42,2.53,2.09,3.74.42.69.78,1.43,1.19,2.17.03.11,0,.21-.01.3.03.11.11.23.26.21.64,1.35,1.23,2.74,1.59,4.19,0,.05-.07.09-.09.19-.05.24.07.42.23.61.08.37.11.73.14,1.05.43,5.43-3.21,10.08-6.78,12.66-.35.23-.71.52-1.12.74-.06.04-.11.03-.17.07-.4.22-.81.5-1.22.77-2.76,1.58-6.03,2.9-9.52,3.82-.05,0-.04-.06-.09-.07-.1-.02-.16.02-.23.11,0,.05-.06.04-.06.04-6.49,1.69-13.75,2.1-20.05.83-2.54-.51-4.92-1.3-7.09-2.4,4.04,1.38,8.8,1.98,14,1.66,7.82-.45,15.6-2.95,20.77-6.68,3.51-2.54,7.14-7.15,6.71-12.58-.28-3.16-1.84-5.97-3.22-8.48-3.62-6.48-8.1-14.5-15.55-18.65-2.25-1.22-4.72-2.07-7.09-2.91-2.33-.78-4.71-1.61-6.86-2.81-2.2-1.21-4.26-2.84-6.28-4.42-3.34-2.61-6.75-5.33-10.9-6.17-.34-.07-.68-.14-1.04-.16-2.19-.24-4.38.03-6.52.31-.89.13-1.83.24-2.71.32-3.16.28-6.47.06-9.63-.17-5.61-.42-11.42-.83-16.6,1.63-2.36,1.1-4.41,2.72-6.36,4.31-1.59,1.31-3.27,2.59-5.05,3.61-3.39,1.91-7.37,2.73-11.19,3.53-3.39.69-6.9,1.45-10.1,2.94-9.36,4.31-15.11,15.66-13.09,25.78.67,3.24,1.98,6.3,3.27,9.2l9.42,21.58c2.15,4.96,4.38,10.04,7.62,14.61,3.6,5.1,8.07,8.65,12.86,10.33,9.27,3.2,19.34-.61,28.84-4.85,2.4-1.04,4.86-2.17,7.03-3.82,4.65-3.64,6.64-9.18,7.45-13.19.95-4.44.96-9.01,1-13.48v-1.57c.04-.91.2-5.45,2.89-5.67.82-.04,1.55.36,2.31.87-.05,0-.16.02-.21,0-2.89.23-3.92,3.78-3.96,7.03l-.04,1.72c-.04,4.72-.06,9.6-1.06,14.28-.52,2.59-1.52,5.74-3.33,8.68-.23.11-.37.33-.36.54-1.03,1.57-2.35,3.08-3.93,4.34-2.18,1.75-4.81,2.89-7.32,4.01-1.22.52-2.41,1.09-3.62,1.56-.17-.19-.46-.25-.68-.14-.23.11-.37.33-.37.59-8.77,3.62-17.33,6-25.51,3.18-6.22-2.17-10.63-7.03-13.24-10.71-3.36-4.75-5.77-10.22-8.05-15.51l-10.06-23.19c-1.35-3.12-2.73-6.35-3.42-9.74-2.34-10.29,3.57-21.95,13.23-26.46ZM18.39,99.57c-2.08-1.03-4.32-1.79-6.5-2.54-2.47-.86-5.09-1.74-7.42-3.03-2.38-1.3-4.62-3.07-6.76-4.77-3.55-2.8-7.19-5.67-11.54-6.55-.34-.07-.73-.15-1.08-.17-2.29-.26-4.63.03-6.89.39-.94.12-1.94.27-2.92.38-3.42.33-6.93.07-10.39-.17-5.96-.44-12.13-.88-17.64,1.72-2.48,1.18-4.66,2.92-6.78,4.63-1.75,1.37-3.51,2.8-5.47,3.93-3.1,1.76-6.59,2.68-10.05,3.46,3.02-1.88,6.03-4.42,9.17-7.15,5.53-4.73,11.26-9.67,17.2-10.66,3.22-.57,6.88-.08,10.47,1.3.47.2.89.38,1.37.53,1.74.71,3.47,1.46,5.39,1.5,2.48.04,4.7-1.13,6.87-2.27,1.31-.7,2.67-1.39,4.08-1.82,4.82-1.47,9.76,1.77,14.1,4.68l.94.65c1.71,1.11,3.38,2.41,4.97,3.6,2.73,2.08,5.6,4.23,8.75,5.78.74.35,1.48.71,2.29,1.02,3.21,1.21,6.48,2.63,7.88,5.56ZM10.74,93.4c-.74-.35-1.54-.67-2.24-1.01-3.11-1.49-5.93-3.64-8.66-5.72-1.58-1.23-3.26-2.49-4.97-3.6l-.94-.65c-3.05-2.04-6.36-4.24-9.73-4.92-1.56-.32-3.14-.33-4.71.17-1.47.47-2.83,1.16-4.14,1.86-2.21,1.13-4.27,2.24-6.65,2.21-1.78,0-3.51-.76-5.2-1.46-.47-.2-.89-.38-1.37-.53-3.73-1.42-7.4-1.85-10.72-1.3-6.11,1.05-11.84,6-17.43,10.76-3.56,3.04-6.95,5.97-10.33,7.83-.16.02-.37.08-.53.1-.9.17-1.81.4-2.71.57,2.09-2.78,4.33-5.58,7.14-7.66,1.61-1.15,3.43-2.1,5.18-2.97,1.7-.88,3.51-1.78,5.12-2.93,1.18-.83,2.25-1.83,3.3-2.74,1.62-1.45,3.34-2.94,5.27-3.92,1.63-.79,3.4-1.24,5.16-1.65,1.71-.42,3.48-.87,5.11-1.61,1.18-.57,2.3-1.31,3.36-2.02,1.82-1.21,3.53-2.39,5.59-2.73,2.32-.4,4.76.35,7.08,1.18,2.09.73,4.17,1.5,6.2,2.27,5.2,1.97,10.59,3.97,16.14,5.19.98.2,1.95.39,2.88.58,4.21.8,8.57,1.63,11.91,4.24,1.89,1.45,3.37,3.43,4.82,5.35,1.04,1.38,2.08,2.81,3.35,4.03,2.65,2.72,6.23,4.67,9.93,5.46.34.07.68.14,1.03.21,1.76.36,3.62.68,4.74,1.97,1.36,1.6,1.17,4,.84,6.17l-1.27,9.05c-3.37-5.72-7.62-11.61-13.75-14.98-.14-.08-.27-.16-.41-.24-1.38-3.48-4.93-5.06-8.38-6.58ZM36.55,120.43c-.77-2.49-1.05-5.09-.88-7.7.08-1.15.28-2.38.47-3.57.52-3.3,1.06-6.75-.48-9.71-1.8-3.41-5.5-4.72-9.15-6.07-1.66-.59-3.36-1.24-4.87-2.05-3.4-1.81-6.05-4.78-8.66-7.7-3.24-3.6-6.59-7.38-11.3-8.74-2.02-.56-4.19-.64-6.25-.76-.81-.01-1.66-.08-2.52-.1-5.31-.41-10.35-2.14-14.59-3.76l-1.18-.44c-2.59-1.03-5.28-2.03-8.02-2.59-1.51-.31-3.11-.48-4.65-.38-3.7.22-7.28,1.78-10.45,3.13-4.18,1.8-8.47,3.68-11.94,6.74-.8.7-1.58,1.51-2.34,2.27-1.09,1.1-2.23,2.24-3.5,3.21l-.06.04c7.07-11.08,19.96-17.98,33.12-17.71,1.51.05,3.53.15,5.42.84,1.7.65,3.21,1.72,4.67,2.82,1.78,1.27,3.64,2.62,5.82,3.16,2.28.56,4.63.22,6.89-.13,1.26-.2,2.57-.4,3.9-.43,6.24-.16,12.78,3.7,17.57,10.42.32.42.58.88.91,1.3.95,1.36,1.88,2.77,3.12,3.94,2.51,2.44,5.87,3.68,9.08,4.89,1,.35,1.99.71,2.93,1.1,3.01,1.22,8.17,4.09,8.82,8.95.22,1.67-.12,3.38-.46,5.04l-.11.54c-.85,4.46-1.31,8.99-1.3,13.47ZM-45.69,36.03c-1.66-.34-3.22-.4-4.71.17-1.05.4-2.02,1.17-3.01,2.29-1.07,1.26-1.92,2.71-2.76,4.12-.55.96-1.15,1.9-1.79,2.84-.16.27-.35.49-.56.75-.64.89-1.32,1.77-1.69,2.81-.68,1.85-.41,3.78-.18,5.66.12.94.22,1.93.24,2.84-1.09.13-2.24.26-3.3.71-2.06.9-3.33,2.89-4.44,4.85-.82,1.56-1.66,3.17-2.38,4.71-1.03,2.08-2.08,4.26-3.3,6.25-1.92,3.22-6.26,7.33-9.88,9.39-1.88.48-3.77,1.07-5.47,2.15-1.82,1.21-3.22,2.86-4.43,4.55-2.04,2.79-4.14,6.38-5.93,10.24-.03-2.09-.12-4.19-.21-6.25-.27-5.95-.59-12.68-3.12-18.53-.7-1.57-1.16-3.84-1.56-5.86-.17-.9-.35-1.8-.55-2.55-.08-.37-.15-.74-.29-1.08-.5-2.03-.89-3.38-.56-5.76.43-3.12.95-6.72,2.38-9.99,1.51-3.46,3.88-6.13,6.69-7.44,1.52-.71,3.23-1.13,4.88-1.5,2.56-.6,5.22-1.18,7.12-3.03.82-.8,1.49-1.83,2.1-2.83.98-1.58,1.93-3.02,3.55-3.71,2.45-1.03,5.1.42,6.13,1.14.89.64,1.76,1.37,2.58,2.1.82.73,1.69,1.46,2.58,2.1,3.93,2.68,9.08,2.85,12.53.4.65-.43,1.22-1.02,1.83-1.51.44-.42.87-.79,1.36-1.2,3.2-2.51,7.71-3.17,11.53-1.69.05,0,.1.02.1.02-1.38.79-2.48,1.94-3.49,3.16-.66.02-1.34-.17-1.97-.3ZM-46.72,40.85c-2.15,3.33-4.13,6.84-5.82,10.42l-.07.09c-.99,2.14-2.05,4.36-4.09,5.38-.23.11-.45.21-.67.27-.08-4.39,2.22-8.2,4.6-11.68.74-1.12,1.58-2.27,2.62-3.13,1.04-.86,2.25-1.32,3.42-1.34ZM-50.36,42c-1.1.9-1.95,2.1-2.68,3.22-2.4,3.58-4.77,7.48-4.66,11.97-.65.17-1.33.29-2,.36,0-.97-.11-1.96-.23-2.89-.22-1.93-.46-3.75.14-5.46.35-1,1.04-1.87,1.67-2.71.21-.26.35-.49.56-.75.65-.94,1.25-1.88,1.8-2.89.83-1.36,1.64-2.82,2.75-4.02.93-1.08,1.84-1.81,2.83-2.17,1.88-.74,3.93-.32,6.2.29-.41.53-.83,1.1-1.19,1.59-.44.67-.88,1.35-1.37,2.01-1.26-.05-2.58.44-3.81,1.47ZM-101.65,88.98c-.03-3.62-.95-7.11-1.89-10.5-1.6-5.92-3.26-12.05-3.11-18.32.16-6.83,2.68-12.78,6.9-16.3,2.02-1.68,4.49-2.85,6.91-3.99,2.53-1.22,5.18-2.46,7.39-4.35.43-.37.87-.79,1.25-1.17.87-.79,1.65-1.6,2.61-2.12,3.35-1.97,7.62-.7,10.46,1.1.63.38,1.3.87,1.96,1.36,2.26,1.63,4.63,3.27,7.49,3.19,3.02-.1,5.26-2.14,7.45-4.14,1.43-1.29,2.87-2.62,4.55-3.4,2.87-1.35,6.08-.91,9.49-.42,2.52.36,5.14.73,7.72.29,2.26-.36,4.39-1.35,6.42-2.31,1.46-.67,2.97-1.38,4.49-1.84,8.76-2.6,17.88,2.6,25.81,7.66l7.56,4.83c1.4.89,2.88,1.85,4,3.1,3.26,3.51,3.4,8.82,3.21,14.07-2.51-2.44-5.08-4.79-7.72-7.1-3.11-2.71-6.52-5.49-10.57-6.31-.05,0-.1-.02-.15-.03-.98-.2-2.08-.27-3.08-.37-2.7-.24-5.25-.45-6.91-2.31-.66-.74-1.08-1.69-1.46-2.58-.42-.95-.88-1.96-1.58-2.76-1.04-1.13-2.51-1.68-4.07-1.99-.64-.13-1.33-.22-1.97-.3-4.78-.51-9.59-.62-14.37-.36-2.22.16-4.81.4-6.98,1.59-.06.04-.12.08-.18.12,0,0,.06-.04.07-.09.02-.1-.02-.16-.06-.22-.62-.23-1.24-.4-1.88-.53-3.42-.69-7.15.13-9.92,2.27-.48.36-.92.78-1.36,1.2-.56.5-1.18,1.03-1.77,1.47-3.38,2.37-8.37,2.17-12.17-.43-.89-.64-1.76-1.37-2.54-2.04-.82-.72-1.69-1.46-2.62-2.11-1.07-.73-3.82-2.25-6.43-1.15-1.67.73-2.7,2.3-3.67,3.83-.6.95-1.26,1.98-2.08,2.73-1.83,1.77-4.34,2.38-6.96,2.97-1.65.38-3.41.78-4.98,1.49-2.87,1.35-5.3,4.06-6.83,7.62-1.42,3.27-1.96,6.93-2.39,10.04-.34,2.42.05,3.77.55,5.86.09.32.16.69.29,1.08.2.75.39,1.6.56,2.5.41,2.01.91,4.3,1.6,5.92,2.54,5.8,2.86,12.53,3.14,18.43.1,2.26.2,4.56.19,6.85-1.09,2.37-2.1,4.86-2.94,7.24,0,.05-.02.1-.03.15-.49.66-.93,1.34-1.33,2.07-.18.37-.36.79-.49,1.17-.84-4.14.11-8.32,1.14-12.68.5-3.2,1.28-6.6,1.25-9.97ZM-101.78,120.07c-1.02-.51-1.8-1.43-2.25-2.69-.72-1.98-.5-4.58.58-6.65.4-.73.84-1.41,1.32-2.02.11-.03.17-.07.24-.2,0-.05.02-.1.03-.15.95-1.18,2.02-2.19,3.09-3.19.94-.88,1.88-1.76,2.74-2.75,1.2-1.39,2.27-2.95,3.29-4.47,1.59-2.32,3.2-4.74,5.38-6.49,3.4-2.72,7.81-3.66,12.06-4.58,4.15-.89,8.4-1.81,11.81-4.33,1.31-.96,2.46-2.1,3.55-3.25.76-.76,1.53-1.52,2.33-2.22,3.46-3.01,7.69-4.85,11.82-6.66,3.29-1.42,6.69-2.92,10.29-3.11,4.26-.21,8.46,1.41,12.48,2.93l1.18.44c4.3,1.63,9.39,3.37,14.69,3.78.85.07,1.71.09,2.52.1,2.07.06,4.19.14,6.16.74,4.56,1.33,7.76,4.87,11.12,8.6,2.61,2.92,5.35,5.96,8.79,7.83,1.56.82,3.26,1.47,4.92,2.06,3.69,1.36,7.2,2.62,8.88,5.86,1.51,2.85.94,6.19.44,9.39-.19,1.18-.39,2.41-.48,3.62-.19,2.45.03,4.89.67,7.25-.71-1.26-1.45-2.63-2.24-4.01l1.38-9.84c.31-2.28.53-4.88-.99-6.66-1.28-1.48-3.24-1.82-5.1-2.2-.34-.07-.68-.14-.98-.2-3.61-.78-7.04-2.64-9.62-5.25-1.18-1.2-2.26-2.64-3.27-3.97-1.44-1.92-2.96-3.95-4.94-5.47-3.47-2.69-7.93-3.54-12.18-4.39-.93-.19-1.95-.39-2.88-.58-5.5-1.21-10.84-3.21-16.05-5.13-2.03-.77-4.11-1.54-6.2-2.27-1.14-.38-2.38-.79-3.56-1.02-1.27-.26-2.52-.36-3.79-.11-2.16.38-4.04,1.62-5.86,2.83-1.06.7-2.12,1.45-3.3,1.98-1.58.75-3.29,1.17-5,1.58-1.76.41-3.59.9-5.28,1.73-2.04,1.01-3.77,2.54-5.44,4.04-1.05.91-2.12,1.91-3.24,2.7-1.55,1.11-3.36,2.02-5.06,2.89-1.76.92-3.63,1.86-5.25,3.06-3.04,2.23-5.39,5.27-7.61,8.22,0,.05-.07.09-.03.15-2.41.58-4.83,1.26-7.08,2.33-7.67,3.48-13.03,11.4-14.11,19.72ZM-110.17,72.26c1.46,5.84,3,11.84,2.64,17.87-.1,2.27-.52,4.57-.86,6.79-.41,2.51-.82,5.07-.93,7.64-.17,5.86,1.48,11.54,3.15,16.86,4.69,14.78,10.71,29.27,17.84,43.06,4.06,7.84,7.84,14.04,13.23,19.05,6.42,5.98,14.23,8.83,21.48,7.95.73-.11,1.47-.21,2.15-.33,1.48-.26,2.9-.53,4.36-.44,1.92.08,4.11,1.03,4.74,2.94.13.38.18.85.24,1.32.07.42.14.84.2,1.26.9,3.33,4.47,4.82,7.88,5.81,1.01.31,2.21.65,3.41.49.99-.11,1.84-.54,2.69-.98.23-.11.51-.25.78-.35,4.48-2.04,10.23-.78,13.43,2.97,1.11,1.29,1.92,2.83,2.72,4.41.74,1.37,1.46,2.84,2.43,4.1,2.1,2.71,5.24,4.52,8.93,5.11,2.69,3.8,8.64,10.34,14.25,11.02,5.41.64,11.06-1.12,15.09-4.73.99-.87,2.47-2.4,4.06-4.01,2.3-2.33,4.93-5,6.42-6.12,2.84-2.22,6.41-2.77,10.19-3.38,3.15-.48,6.41-1.04,9.17-2.62,6.15-3.49,8.97-11.66,8.99-17.81.01-1.57-.49-3.61-.92-5.52-.43-1.66-.77-3.26-.86-4.55-.31-5.5,2.22-9.72,5.33-14.28.72-1.02,1.65-2.11,2.68-3.22,1.39-1.6,2.89-3.23,3.68-4.85,1.78-3.51,2.11-7.66.94-11.45-.44-1.36-1.59-2.96-2.7-4.51-1.11-1.55-2.27-3.1-2.66-4.45-1.29-4.43.66-8.31,2.76-12.41,1.85-3.64,3.79-7.42,3.33-11.68-.49-4.62-2.43-10.1-4.91-13.96-7.05-10.88-13.73-22.15-19.8-33.6-3.07-5.7-7.27-11.08-11.29-14.33-1.48-1.22-3.22-2.18-4.92-3.08-2.69-1.51-5.26-2.89-6.96-5.32-.95-1.36-1.38-2.47-1.8-3.67-.36-.99-.67-1.97-1.34-3.17-2.32-4.13-6.38-7.44-12.84-10.43-1.48-.71-3.09-1.34-4.58-1.99-3.52-1.47-7.18-2.98-10.4-5.15-1.16-.79-2.25-1.93-3.29-3.11-1.71-1.87-3.46-3.75-5.76-4.21-.1-.02-.2-.04-.24-.05-2.62-.38-5.26.36-7.79,1.07l-.16.02c-12.47,3.58-29.89,7.28-41.82,8.93l-2.75-.71c-2.22-.6-4.48-1.21-6.88-1.19-3.51,0-6.92,1.3-10.1,2.69-10.4,4.66-19.95,10.92-28.4,18.51-1.87,1.71-4.01,3.72-5.33,6.24-1.17,2.26-1.73,5.04-1.76,8.44.02,5.95,1.46,11.63,2.85,17.1ZM.69,133.57c-.94.37-1.93.73-2.82,1.11-1.34.59-2.56,1.11-3.87,1.05-2.22-.09-3.9-1.6-5.65-3.23-.64-.59-1.29-1.18-1.99-1.72-3.44-2.63-8.1-3.47-12.17-2.16-1.3.4-2.33.95-3.03,1.67-1.52,1.47-1.95,3.62-2.19,5.56-.46,3.52-.37,7.1.15,10.56l.14.79c.56,3.52,1.18,7.51-1.24,9.92-1.19,1.13-2.88,1.66-4.53,2.03-4.07,1.01-8.19,1.8-12.36,2.28-4.12.49-9.25.72-12.6-2.29-1.51-1.32-2.47-3.14-3.25-4.78-2.38-4.8-4.2-9.9-5.43-15.13-.35-1.55-.7-3.34-.3-5.04.82-3.55,4.44-5.61,7.82-7.27,1.18-.57,2.37-1.15,3.68-1.34.47-.06.92-.02,1.38-.03.46,0,.97,0,1.43-.02,4.2-.42,6.6-4.72,7.67-7.25.3-.75.61-1.5.91-2.26.98-2.6,2.02-5.23,3.98-7.13,1.31-1.21,2.91-2.06,4.47-2.76,4.3-1.93,12.42-4.61,18.46-.54,1.26.81,2.35,1.95,3.41,2.98,1.19,1.16,2.42,2.37,3.86,3.27,1.67,1.05,3.59,1.59,5.55,1.99.78.16,1.52.26,2.26.41l.1.02c1.52.26,3.16.49,4.46,1.31,1.08.68,1.89,1.7,2.66,2.67l4.61,5.86c1.45,1.87,2.02,3.36,1.65,4.66-.73,2.34-4.02,3.56-7.22,4.79ZM6.62,123.84l-4.61-5.86c-.77-.97-1.66-2.11-2.83-2.86-1.4-.89-3.08-1.13-4.7-1.41l-.1-.02c-2.61-.43-5.35-.93-7.57-2.29-1.41-.84-2.59-2.05-3.73-3.19-1.1-1.09-2.2-2.17-3.5-3.05-1.47-1.01-3.04-1.58-4.7-1.92-5.32-1.08-11.01.88-14.41,2.37-1.62.74-3.32,1.57-4.65,2.87-2.08,1.97-3.09,4.71-4.13,7.35-.3.75-.56,1.51-.85,2.22-.99,2.39-3.3,6.5-7.14,6.9-.47.06-.87.03-1.33.04-.46,0-.97,0-1.49.06-1.41.17-2.71.83-3.88,1.35-3.5,1.73-7.29,3.87-8.17,7.7-.41,1.8-.03,3.66.35,5.31,1.22,5.28,3.03,10.43,5.45,15.29.84,1.64,1.83,3.52,3.42,4.96,3.53,3.15,8.86,2.96,13.08,2.44,4.17-.53,8.35-1.31,12.42-2.32,1.71-.42,3.5-.97,4.81-2.18,2.66-2.61,2.03-6.76,1.45-10.44l-.14-.79c-.52-3.46-.58-6.93-.13-10.4.22-1.84.62-3.84,2.01-5.19.69-.62,1.56-1.16,2.8-1.52,3.9-1.19,8.37-.39,11.64,2.05.66.49,1.31,1.08,1.95,1.67,1.8,1.64,3.65,3.33,6.08,3.37,1.42.03,2.8-.5,4.14-1.1.89-.38,1.83-.75,2.82-1.11,3.36-1.25,6.83-2.59,7.49-5.1.35-1.46-.28-3.16-1.85-5.2ZM-117.52,41.49c3.98-7.13,9.43-13.2,16.41-20.07,3.88-3.84,7.76-7.43,12.6-9.25,7.33-2.79,14.69-.74,21.86,1.27,7.46,2.07,15.22,4.2,22.78.74,1.79-.81,3.83-2.07,6.02-3.36,3.77-2.29,8.05-4.88,11.53-5.45.84-.14,1.81-.4,2.83-.65,2.2-.57,4.66-1.19,6.53-.87,3.62.68,6.95,1.86,10.22,3.03,3.13,1.14,6.31,2.24,9.73,2.93.2.04.39.08.54.11,4.95.9,10.53,1.98,15.01,4.97,4.39,2.92,8.1,8.45,11.44,13.35.86,1.29,1.68,2.53,2.51,3.66,4.37,6.07,9.81,10.07,15.14,13.89,4.75,3.4,9.62,6.98,13.83,12.05,6.17,7.45,11.58,17.19,16.36,25.73l1.15,2.11c5.45,9.75,8.21,22.25,7.82,35.24-.08,1.92-.26,3.81-.49,5.7-.28,2.38-.57,4.82-.49,7.22.09,3.83,1.17,7.81,2.26,11.69,1.72,6.6,3.41,12.79.46,18.35-1.94,3.57-5.18,6.02-8.31,8.39-2.28,1.73-4.68,3.53-6.55,5.74-3.62,4.3-2.33,9.24-.99,14.44.83,3.17,1.65,6.43,1.32,9.57-.82,8.07-6.06,12.86-10.63,13.87-1.33.29-2.82.35-4.2.42-2.31.09-4.66.18-6.73,1.33-1.39.84-2.45,2.05-3.46,3.27-.21.26-.4.48-.61.74-4.58,5.28-11.08,9.3-18.4,11.28-5.01,1.38-10.66,1.91-17.79,1.74-3.95-.09-8.03-.51-11.22-2.62-3.18-2.12-5.04-5.75-6.83-9.21-1.86-3.63-3.81-7.33-7.23-9.5-3.92-2.47-8.74-2.28-13.36-2.09-4.36.19-8.82.35-12.59-1.63-2.62-1.39-4.63-3.73-6.56-6.05-1.73-2.03-3.49-4.11-5.74-5.58-2.73-1.82-5.99-2.58-9.1-3.26-.88-.18-1.75-.4-2.62-.63-14.24-3.74-26.65-14.54-32.29-28.14-2.06-4.89-3.32-10.23-4.52-15.35-1.78-7.53-3.61-15.32-7.94-21.84-1.29-1.94-2.84-3.83-4.3-5.65-3.14-3.84-6.41-7.8-7.36-12.62-.89-4.4.17-8.91,1.26-13.27.87-3.54,1.75-7.17,1.64-10.86-.14-4.1-1.63-8.06-3-11.84-.94-2.63-1.97-5.33-2.53-8.09-1.69-7.72-.05-16.59,4.59-24.95ZM-122.69,66.53c.56,2.76,1.58,5.51,2.52,8.14,1.37,3.79,2.82,7.69,2.97,11.74.14,3.59-.75,7.22-1.61,10.71-1.09,4.41-2.17,8.97-1.25,13.48,1.04,4.94,4.29,8.95,7.47,12.85,1.46,1.82,3.02,3.66,4.31,5.6,4.29,6.46,6.08,14.19,7.87,21.68,1.24,5.18,2.5,10.52,4.55,15.46,5.72,13.72,18.21,24.63,32.6,28.4.87.23,1.79.46,2.67.64,3.11.73,6.31,1.48,8.96,3.23,2.2,1.46,3.92,3.49,5.6,5.5,1.97,2.33,3.98,4.72,6.69,6.13,3.86,2.05,8.42,1.85,12.83,1.68,4.56-.2,9.34-.4,13.12,1.99,3.34,2.1,5.24,5.79,7.07,9.31,1.83,3.52,3.69,7.15,7,9.4,3.27,2.19,7.45,2.63,11.45,2.72,7.18.18,12.88-.34,17.95-1.76,7.37-2.02,13.99-6.07,18.63-11.44.2-.21.4-.48.61-.74,1-1.17,2.01-2.39,3.34-3.19,1.91-1.14,4.16-1.19,6.46-1.29,1.44-.07,2.91-.07,4.3-.4,4.78-1.02,10.25-5.91,11.06-14.24.3-3.24-.51-6.51-1.34-9.73-1.31-5.09-2.57-9.93.91-14.05,1.81-2.18,4.16-3.99,6.44-5.71,3.18-2.41,6.43-4.9,8.44-8.56,3.08-5.68,1.27-12.3-.49-18.71-1.06-3.82-2.14-7.76-2.23-11.59-.02-2.39.22-4.84.53-7.16.23-1.89.47-3.82.5-5.75.41-13.09-2.38-25.7-7.87-35.51l-1.16-2.06c-4.77-8.59-10.22-18.34-16.39-25.84-4.25-5.13-9.13-8.66-13.92-12.12-5.5-3.96-10.74-7.76-15.01-13.76-.79-1.13-1.61-2.36-2.51-3.66-3.32-4.94-7.08-10.48-11.56-13.47-4.57-3.06-10.21-4.1-15.2-5.06C0,8.7-3.32,7.52-6.59,6.35c-3.13-1.14-6.31-2.24-9.73-2.93-.2-.04-.39-.08-.54-.11-1.96-.35-4.49.31-6.74.88-1.02.25-1.94.52-2.78.66-3.53.61-7.69,3.07-11.69,5.52-2.14,1.3-4.17,2.51-5.96,3.32-7.45,3.43-14.72,1.4-22.48-.73-7.22-2.02-14.68-4.09-22.13-1.22-4.95,1.85-8.84,5.48-12.77,9.37-6.99,6.93-12.49,12.98-16.48,20.16-4.71,8.45-6.42,17.41-4.8,25.27Z" fill="#faf2e9"/>
</svg>