<?xml version="1.0" encoding="UTF-8"?>
<svg id="_Слой_1" data-name="Слой_1" xmlns="http://www.w3.org/2000/svg" xmlns:xlink="http://www.w3.org/1999/xlink" version="1.1" viewBox="0 0 114.1 164.58">
  <!-- Generator: Adobe Illustrator 30.4.0, SVG Export Plug-In . SVG Version: 2.1.3 Build 103)  -->
  <defs>
    <clipPath id="clippath">
      <rect x="-57.02" width="167.89" height="161.14" fill="none"/>
    </clipPath>
  </defs>
  <g clip-path="url(#clippath)">
    <path d="M24.2,121.86c.87-1.19,1.91-1.81,3.07-1.81.54,0,1.12.14,1.7.4,3.9,1.81,8.38.94,11.45-.07,2.02-.69,4.12-1.63,6.14-2.49,1.63-.72,3.32-1.48,4.95-2.1.58-.22,1.19-.43,1.81-.4,1.26.07,2.17,2.13,2.35,3.58.14,1.26-.4,2.67-1.45,3.76-1.23,1.26-2.24,2.1-3.11,2.56-3.94,2.17-8.06,4.05-12.28,5.6-1.66.61-3.32.69-4.95.76-2.28.11-3.47-1.05-4.99-2.53-.14-.14-.29-.25-.4-.4-.61-.58-1.34-1.08-2.02-1.55-.72-.51-1.48-1.01-2.1-1.63-1.08-1.08-1.12-2.42-.18-3.68ZM26.25,127.45c.69.47,1.41.94,1.99,1.52.14.14.29.29.4.4,1.45,1.41,2.71,2.64,4.95,2.64h.29c1.63-.07,3.32-.14,5.06-.79,4.23-1.59,8.35-3.47,12.32-5.64.87-.47,1.91-1.34,3.18-2.64,1.12-1.16,1.73-2.67,1.55-4.01-.18-1.59-1.16-3.79-2.67-3.9-.69-.04-1.34.18-1.95.4-1.63.61-3.32,1.37-4.99,2.1-2.02.9-4.12,1.81-6.11,2.49-3,1.01-7.37,1.84-11.2.11-1.99-.9-3.83-.36-5.2,1.52-1.01,1.41-.94,2.96.22,4.12.65.65,1.45,1.19,2.17,1.7ZM25.71,122.04c.61-.87,1.37-1.16,2.17-1.16s1.59.29,2.35.65c3.5,1.63,7.51.83,10.26-.07,1.81-.61,3.54-1.41,5.24-2.17,1.41-.65,2.89-1.34,4.37-1.88.54-.18,1.08-.4,1.66-.36,1.16.04,2.24,1.16,2.38,2.46.14,1.16-.36,2.42-1.34,3.4-.76.79-1.73,1.34-2.71,1.88-3.54,1.95-7.26,3.61-11.05,5.06-1.45.54-2.96,1.05-4.55,1.12-2.06.07-3.14-.98-4.52-2.28l-.36-.36c-.54-.54-1.19-.98-1.84-1.41-.65-.43-1.34-.9-1.91-1.48-.94-.98-1.01-2.24-.14-3.4ZM27.63,127.06c.61.43,1.26.87,1.81,1.37.14.11.25.25.36.36,1.3,1.26,2.42,2.35,4.44,2.35h.25c1.63-.07,3.18-.61,4.62-1.16,3.79-1.41,7.51-3.11,11.05-5.06,1.01-.54,1.99-1.12,2.78-1.91,1.01-1.05,1.52-2.38,1.37-3.58-.18-1.41-1.3-2.56-2.6-2.64-.61-.04-1.19.18-1.73.36-1.48.54-2.96,1.23-4.41,1.88-1.7.76-3.43,1.59-5.2,2.17-2.71.9-6.65,1.66-10.08.07-1.52-.69-3.43-1.26-4.77.58-.9,1.26-.83,2.6.18,3.65.54.65,1.26,1.12,1.91,1.55ZM13.18,73.12c.76-.36,1.66-.76,2.49-1.34.76-.51,1.48-1.01,2.31-1.16,1.41-.22,2.71.54,3.94,1.3.47.29.94.58,1.41.79,2.42,1.16,5.35,1.12,7.69-.18.76-.4,1.3-.87,1.63-1.37.11-.14.22-.29.33-.47.72-1.05,1.73-2.46,1.66-3.54-.04-.61-.07-1.41-.07-2.28-.04-2.1-.11-4.73-.65-6.21-.22-.58-.51-1.16-.76-1.73-.83-1.73-1.66-3.5-.69-4.95.58-.87,1.59-1.41,2.56-1.84,2.38-1.12,4.84-2.13,7.33-2.96,2.49-.83,5.67-1.59,8.13-.14,1.08.65,1.95,1.66,2.64,2.53,2.1,2.67,3.83,5.6,5.24,8.67.43.94.87,1.99.83,3.11-.04,2.31-2.06,4.08-3.94,5.53-.65.51-1.34,1.05-2.13,1.3-.29.07-.58.14-.87.22-.29.04-.58.11-.87.18-2.49.76-3.43,3.68-3.76,5.38-.11.51-.18,1.01-.25,1.48-.29,1.73-.58,3.5-1.59,4.91-.65.94-1.55,1.66-2.46,2.28-2.42,1.73-7.12,4.41-11.42,2.64-.87-.36-1.7-.9-2.49-1.45-.87-.58-1.77-1.16-2.75-1.55-1.16-.43-2.42-.54-3.65-.54-.47,0-.98.04-1.45.04h-.07c-1.01.04-2.02.07-2.96-.25-.76-.29-1.41-.83-2.02-1.34l-3.58-3.03c-1.37-1.16-1.95-1.95-1.88-2.53.11-.58.98-.98,2.1-1.48ZM12.85,77.31l3.58,3.03c.61.51,1.3,1.08,2.1,1.37.98.36,2.02.33,3.03.29h.07c1.66-.07,3.43-.11,4.99.51.98.36,1.84.94,2.71,1.52.79.54,1.63,1.08,2.53,1.45,1.01.43,2.06.58,3.11.58,3.4,0,6.65-1.91,8.53-3.25.9-.65,1.84-1.37,2.49-2.35,1.01-1.48,1.34-3.29,1.63-5.02.07-.51.18-1.01.25-1.48.33-1.63,1.23-4.48,3.61-5.2.29-.07.54-.14.83-.18s.58-.11.9-.22c.83-.25,1.55-.83,2.2-1.3,1.91-1.48,3.97-3.29,4.05-5.71.04-1.16-.43-2.24-.87-3.18-1.41-3.11-3.18-6.03-5.27-8.71-.72-.9-1.55-1.95-2.71-2.6-2.56-1.48-5.78-.69-8.31.14-2.49.83-4.99,1.84-7.37,2.96-1.01.47-2.02,1.01-2.64,1.95-1.05,1.55-.18,3.4.65,5.17.25.58.54,1.16.76,1.7.54,1.48.61,4.05.65,6.14.04.87.04,1.66.07,2.28.07,1.01-.9,2.38-1.63,3.4-.11.18-.22.33-.33.47-.33.51-.87.9-1.55,1.3-2.28,1.23-5.17,1.3-7.51.18-.47-.22-.94-.51-1.41-.79-1.3-.76-2.64-1.55-4.12-1.34-.87.14-1.63.65-2.38,1.19-.79.58-1.66.98-2.46,1.34-1.16.54-2.06.94-2.17,1.7-.07.61.54,1.48,1.99,2.67ZM106.24,118.64c-1.73,5.49-4.66,10.4-8.49,16.11-2.13,3.18-4.34,6.18-7.41,8.13-4.66,2.93-10.48,2.85-16.11,2.75-5.96-.07-12.14-.18-16.94,3.32-1.23.9-2.31,1.99-3.36,3.07-1.73,1.73-3.32,3.4-5.53,4.23-1.81.69-3.79.72-5.71.76l-15.5.25c-3.54.04-7.55.11-11.02-1.34-3.36-1.37-6-4.01-8.56-6.58-.76-.72-1.52-1.48-2.28-2.2-4.08-3.83-8.85-6.94-13.48-9.93-3.58-2.31-7.26-4.73-10.62-7.44-5.74-4.66-10.66-10.37-15.39-15.9-4.95-5.78-11.13-12.97-12.57-21.46-.22-1.3-.33-2.67-.43-4.01-.14-1.66-.29-3.4-.65-5.06-.54-2.49-1.63-4.91-2.64-7.3-1.95-4.48-3.76-8.74-2.42-13.11.83-2.71,2.71-4.88,4.55-6.94,1.34-1.52,2.71-3.11,3.72-4.91,1.91-3.5.33-6.72-1.34-10.15-1.01-2.06-2.02-4.19-2.24-6.39-.61-5.64,2.35-9.65,5.31-10.95.9-.4,1.88-.61,2.85-.87,1.59-.36,3.22-.76,4.48-1.88.87-.76,1.41-1.77,1.95-2.78.11-.18.22-.4.33-.58,2.42-4.3,6.39-7.95,11.13-10.33,3.25-1.63,7.08-2.82,12.03-3.65,1.37-.25,2.82-.47,4.19-.47s2.64.18,3.87.69C.46,4.73,2.23,6.97,3.93,9.1c1.81,2.24,3.65,4.55,6.32,5.56,3.07,1.16,6.36.36,9.54-.43,2.96-.72,6.03-1.48,8.85-.65,1.99.61,3.68,1.95,5.35,3.25,1.48,1.16,3,2.35,4.73,3.07,2.13.87,4.52.94,6.79,1.01.61,0,1.26.04,1.91.07,10.33.61,20.38,6.29,26.16,14.88,2.1,3.11,3.68,6.58,5.27,9.97,2.28,4.95,4.62,10.04,8.53,13.98,1.16,1.16,2.49,2.24,3.76,3.29,2.71,2.2,5.49,4.48,6.83,7.66,1.23,2.89,1.12,6,.98,9.28-.11,2.56-.18,5.2.4,7.73.69,2.82,2.24,5.35,3.76,7.8,1.05,1.66,2.1,3.4,2.85,5.2,2.24,5.09,2.31,11.42.29,17.85ZM103.53,95.37c-1.48-2.42-3.03-4.91-3.68-7.66-.58-2.46-.51-5.06-.4-7.59.11-3.22.25-6.5-1.01-9.5-1.41-3.29-4.23-5.6-6.97-7.84-1.26-1.05-2.56-2.1-3.72-3.25-3.83-3.87-6.18-8.92-8.45-13.84-1.55-3.4-3.18-6.9-5.31-10.04-5.89-8.71-16.04-14.49-26.52-15.06-.65-.04-1.3-.07-1.91-.07-2.24-.07-4.55-.14-6.61-.98-1.7-.69-3.18-1.88-4.62-3-1.66-1.34-3.4-2.71-5.49-3.32-2.96-.87-6.07-.11-9.1.65-3.25.79-6.36,1.55-9.28.43-2.56-.98-4.37-3.25-6.14-5.42C2.52,6.72.71,4.44-1.85,3.36c-2.56-1.05-5.53-.76-8.31-.29-4.99.87-8.85,2.06-12.17,3.72-4.8,2.42-8.81,6.14-11.31,10.51-.11.18-.22.4-.33.58-.51.94-1.05,1.91-1.88,2.64-1.16,1.05-2.67,1.41-4.26,1.77-.98.25-1.99.47-2.93.9-3.11,1.37-6.21,5.53-5.6,11.42.22,2.28,1.26,4.44,2.31,6.54,1.63,3.32,3.14,6.47,1.34,9.75-.98,1.77-2.31,3.32-3.65,4.8-1.84,2.1-3.76,4.3-4.62,7.08-1.37,4.55.58,9.07,2.46,13.44,1.01,2.35,2.06,4.77,2.6,7.23.36,1.63.51,3.36.65,5.02.11,1.34.22,2.71.43,4.05,1.48,8.63,7.66,15.86,12.68,21.68,4.73,5.53,9.65,11.27,15.43,15.93,3.36,2.75,7.08,5.13,10.66,7.48,4.59,3,9.36,6.07,13.4,9.86.76.72,1.52,1.48,2.28,2.2,2.6,2.6,5.27,5.27,8.71,6.68,2.89,1.19,6.07,1.37,9.1,1.37.72,0,1.41,0,2.13-.04l15.5-.25c1.88-.04,3.97-.07,5.85-.79,2.28-.87,4.01-2.64,5.67-4.34,1.05-1.05,2.13-2.17,3.32-3.03,4.66-3.4,10.77-3.32,16.65-3.22,5.71.07,11.6.18,16.37-2.82,3.14-1.99,5.35-5.02,7.55-8.27,3.87-5.74,6.79-10.69,8.56-16.22,2.06-6.5,1.99-12.93-.22-18.14-.87-1.81-1.95-3.58-3-5.24ZM79.65,108.13c.04-.14.11-.22.11-.29.76-1.23,1.77-2.31,2.89-3.18,1.05-.79,1.91-1.19,2.82-1.23.94-.04,2.1.43,2.38,1.48.33,1.05-.4,2.06-.69,2.46-1.01,1.23-2.53,1.99-3.87,2.67-.72.36-1.59.79-2.49.69-.47-.07-.9-.25-1.26-.58-.18-.14-.36-.4-.4-.72.07-.18.4-1.01.51-1.3ZM80.81,110.91h.29c.83,0,1.66-.4,2.31-.72,1.37-.69,2.89-1.45,3.94-2.75.72-.87.98-1.84.72-2.64-.33-1.12-1.59-1.66-2.64-1.63-.94.04-1.84.47-2.93,1.3-1.16.9-2.17,1.99-2.96,3.25v.04s-.07.14-.11.29c-.33.76-.47,1.19-.47,1.34.04.36.25.69.43.87.4.33.9.58,1.41.65ZM73.15,117.88c.18-2.06.36-4.19,1.3-6.11.36-.76.79-1.45,1.26-2.13.43-.65.87-1.3,1.19-2.02.4-.79.61-1.45.69-2.13.04-.14,0-.33,0-.51-.04-.33-.04-.72.11-.9.33-.4,1.41-.54,2.35-.72.69-.11,1.34-.22,1.77-.4.79-.36,1.55-.79,2.28-1.23.65-.4,1.34-.79,2.06-1.12.87-.4,1.59-.61,2.24-.61.33,0,.61.04.9.14,1.26.43,1.95,1.77,2.53,3.07.72,1.63,1.45,3.5.72,5.06-.4.9-1.23,1.52-1.95,2.1l-4.08,3.18c-.25.18-.51.4-.83.51-.69.25-1.37,0-2.1-.29-.33-.11-.65-.25-.98-.33-1.34-.33-2.85.18-3.76,1.23-.43.54-.72,1.16-1.01,1.81-.18.36-.36.76-.54,1.12-.54.9-1.3,1.66-2.2,2.17-.29.14-.69.33-1.08.25-.94-.18-.9-1.55-.87-2.13ZM73.94,120.3c.07.04.18.04.29.04.36,0,.72-.18.98-.29.98-.51,1.77-1.3,2.31-2.24.22-.36.4-.76.58-1.16.29-.61.54-1.23.98-1.73.83-1.01,2.24-1.48,3.54-1.16.33.07.65.18.94.33.72.29,1.52.54,2.24.29.33-.11.61-.36.9-.54l4.08-3.18c.76-.58,1.59-1.23,2.02-2.17.76-1.66.04-3.58-.72-5.24-.61-1.37-1.34-2.75-2.67-3.22-.9-.33-1.99-.14-3.32.47-.72.33-1.41.72-2.06,1.12-.72.43-1.48.87-2.24,1.19-.4.18-1.01.29-1.7.4-1.01.18-2.1.33-2.46.79-.22.25-.18.69-.18,1.05,0,.18.04.36,0,.47-.07.65-.29,1.26-.69,2.06-.36.69-.76,1.34-1.19,1.99-.43.69-.9,1.41-1.26,2.17-.94,1.95-1.12,4.19-1.3,6.18-.11.58-.14,2.1.94,2.38ZM71.63,114.88c.07-.33.14-.69.22-1.01.58-2.71,1.19-5.82,2.38-8.27.94-2.02,3.29-3.03,5.35-3.9.33-.14.61-.29.94-.4.87-.4,1.73-.87,2.57-1.3,1.7-.9,3.43-1.81,5.27-2.24,1.05-.25,2.53-.36,3.5.43.51.4.87,1.05,1.12,1.63.98,1.95,1.73,4.05,2.2,6.18.29,1.37.54,3.07-.18,4.48-.36.72-.98,1.3-1.55,1.84l-3,2.89c-.47.43-.94.9-1.52,1.12-.72.29-1.55.14-2.42.04-.72-.11-1.45-.22-2.17-.11-2.28.33-3.68,2.42-4.88,4.66-1.05,1.95-2.35,3.97-4.3,4.08-1.19.07-2.42-.65-3.18-1.84-.61-1.01-.94-2.31-.9-3.9,0-1.48.25-2.96.54-4.37ZM74.99,125.9h.22c2.38-.14,3.9-2.38,5.06-4.55,1.08-2.02,2.31-3.94,4.23-4.19.61-.07,1.26,0,1.91.11.94.14,1.91.29,2.89-.07.76-.29,1.3-.83,1.81-1.34l3-2.89c.61-.58,1.3-1.26,1.73-2.1.87-1.63.58-3.58.25-5.06-.51-2.2-1.26-4.37-2.28-6.39-.33-.65-.72-1.41-1.37-1.91-1.26-1.01-3.03-.9-4.26-.61-1.95.43-3.76,1.41-5.49,2.31-.83.43-1.66.87-2.53,1.26-.29.14-.61.25-.9.4-2.2.94-4.7,2.02-5.78,4.34-1.23,2.56-1.88,5.71-2.46,8.49-.07.36-.14.69-.22,1.01-.29,1.45-.58,2.96-.61,4.52-.04,1.77.33,3.25,1.05,4.41.87,1.41,2.31,2.28,3.76,2.28ZM19.86,55.27c-.33.43-.65.72-1.01.87-.54.22-1.19.11-1.63,0-.98-.25-1.88-.69-2.78-1.12-.9-.43-1.88-.87-2.85-1.12-.83-.22-1.66-.29-2.49-.29-1.08,0-2.17.11-3.25.25-1.95.22-3.97.43-5.85-.07-1.01-.29-1.73-.76-2.2-1.37-.47-.65-.65-1.66-.11-2.38.61-.79,1.73-.83,2.82-.87.14,0,.29,0,.43-.04,2.42-.11,4.84-1.12,7.62-3.18.4-.29.87-.76,1.34-1.23,1.01-1.01,2.2-2.2,3.22-2.1.47.04.87.36,1.26.94.22.33.4.69.58,1.05.22.47.47.94.79,1.34.54.72,1.3,1.23,2.02,1.7.58.4,1.19.79,1.66,1.3,1.55,1.66,1.77,4.48.43,6.32ZM17.87,47.47c-.72-.47-1.45-.98-1.99-1.66-.33-.4-.54-.87-.76-1.3-.18-.36-.36-.72-.58-1.08-.4-.61-.9-.98-1.45-1.01-1.12-.11-2.35,1.08-3.4,2.17-.47.47-.9.94-1.34,1.23-2.71,2.02-5.09,3-7.48,3.11-.14,0-.29,0-.43.04-1.08.04-2.31.07-2.96.94-.61.79-.4,1.95.11,2.64.47.65,1.26,1.16,2.31,1.45,1.91.54,3.97.33,5.92.11,1.88-.22,3.83-.43,5.67.04.98.25,1.91.69,2.82,1.12.9.43,1.84.87,2.82,1.12.29.07.61.14.98.14.25,0,.51-.04.76-.14.4-.14.76-.47,1.08-.94,1.41-1.91,1.19-4.88-.47-6.61-.43-.51-1.05-.94-1.63-1.34ZM102.48,116.62c-.54,1.84-1.7,3.5-2.71,4.91-4.84,6.54-10.69,12.28-17.3,17.05-2.28,1.63-4.23,2.78-6.43,3.22-1.59.33-3.22.22-4.84.11l-10.91-.65c-.07,0-.18,0-.25.07-6.14,3.54-12.5,6.32-20.19,9.39-1.34.54-2.56,1.01-3.83,1.01-1.37,0-2.71-.47-4.01-.94l-17.02-6.21c-3.9-1.41-7.51-2.96-9.36-6.07-.69-1.16-1.08-2.53-1.48-3.83-.54-1.81-1.12-3.65-2.38-5.13-1.55-1.77-3.79-2.53-5.96-3.29-1.52-.54-3.11-1.08-4.41-1.95-2.06-1.41-3.32-3.54-4.7-5.82-.69-1.16-1.41-2.38-2.24-3.47-1.66-2.17-3.83-3.97-5.96-5.71-3.03-2.49-5.89-4.88-7.37-8.27-.18-.43-.36-.9-.51-1.34-.29-.76-.58-1.55-.98-2.31-.29-.54-.65-1.05-1.01-1.52-.43-.58-.83-1.16-1.16-1.77-.72-1.52-.72-3.22-.69-4.99,0-.87,0-1.77-.07-2.64-.25-2.67-1.34-5.17-2.38-7.59-1.23-2.82-2.38-5.49-2.35-8.42.07-2.89,1.3-5.53,2.64-8.27,1.08-2.28,2.2-4.66,2.6-7.19.87-5.67-2.1-11.24-4.44-14.92-.72-1.16-1.52-2.38-1.37-3.65.07-.98.69-1.88,1.23-2.64,2.49-3.65,5.24-7.26,9.25-7.8.61-.07,1.3-.07,1.95-.07,1.05,0,2.1,0,3.14-.33,2.35-.76,3.76-2.82,5.09-4.84.33-.51.69-1.05,1.05-1.52,1.08-1.45,3.22-2.71,5.13-2.96.22-.04.43-.04.69-.04.61,0,1.3.11,1.91.54-1.55,4.7-5.02,8.81-9.43,11.05-1.01.51-2.1.94-3.11,1.37-2.24.9-4.55,1.84-6.29,3.58-2.85,2.85-3.47,7.23-3.68,10.3-.18,2.28-.25,5.27.69,8.06.36,1.08.87,2.13,1.34,3.11.65,1.37,1.37,2.78,1.66,4.3.36,1.84.14,3.76-.07,5.6-.04.29-.07.61-.11.9-.36,3.36-.43,6.76-.18,10.15.25,3.36.76,6,1.63,8.38.43,1.12.94,2.24,1.45,3.32.54,1.16,1.12,2.38,1.52,3.61.4,1.19.72,2.42,1.01,3.65.25,1.01.51,2.1.83,3.11,1.7,5.38,5.46,10.15,10.33,13.04.47.29,1.01.58,1.48.83,1.23.65,2.49,1.37,3.54,2.28.79.72,1.48,1.63,2.17,2.49.36.47.72.94,1.12,1.41,2.96,3.47,7.12,5.56,11.16,7.62,2.28,1.16,4.59,2.31,6.72,3.72.72.51,1.48,1.05,2.17,1.55,1.59,1.16,3.25,2.38,5.09,3.22,1.23.54,2.67.9,4.15.9s2.96-.36,4.19-1.34c.51.29,1.05.54,1.59.72.43,1.95,3.4,3,4.95,3.32.51.11.98.14,1.48.14,1.45,0,2.89-.33,4.08-.61,3.36-.79,6.39-1.55,9.21-2.93,2.28-1.12,5.38-3.14,7.08-6.43.69-1.34,1.12-2.78,1.55-4.19.58-1.95,1.19-3.97,2.49-5.6.58-.72,1.26-1.3,1.95-1.91.54-.47,1.12-.98,1.63-1.52,2.06-2.28,3.03-5.31,3.97-8.27,1.08-3.47,2.13-6.79,4.84-8.89.72-.43,1.45-.83,2.17-1.23.18-.11.4-.18.58-.29-2.13,2.06-4.34,5.27-5.17,7.66-.58,1.63-1.01,3.32-1.45,4.95-.33,1.23-.65,2.46-1.01,3.68-.47,1.52-1.08,3.07-2.35,3.97-.65.43-1.45.69-2.17.94-.04-.04-.07-.04-.14-.04s-.11.07-.14.14c-.76.25-1.48.51-2.13,1.01-1.37,1.08-1.81,2.89-2.2,4.52l-.04.07c-.83,3.43-1.99,6.83-3.4,10.08-.65,1.52-1.45,3.25-2.85,4.41-1.34,1.12-3.11,1.66-4.62,2.1-3.32.9-6.79,1.52-10.22,1.81-1.63.14-3.25.18-4.48-.72-.58-.43-1.05-1.05-1.48-1.66-.43-.61-.87-1.23-1.48-1.66-1.52-1.16-3.5-.9-5.38-.69-.76.07-1.52.18-2.24.18-2.96.04-5.82-1.45-8.42-2.93-2.24-1.26-4.48-2.64-6.65-4.01,0-.07-.04-.14-.04-.22-.04-.25-.25-.4-.51-.36-.07,0-.14.07-.22.11-.29-.18-.58-.36-.87-.54-2.1-1.37-4.05-2.42-6.14-3.54-1.3-.69-2.67-1.41-4.05-2.24-1.63-.94-3.29-2.02-3.76-3.68-.14-.43-.18-.94-.22-1.41-.04-.58-.11-1.19-.33-1.77-.69-1.63-2.46-2.31-4.23-2.85-2.31-.72-4.52-1.52-6.11-3.14-1.26-1.26-2.02-2.93-2.75-4.55l-5.78-12.72c-1.16-2.53-2.35-5.13-3.22-7.8-1.63-4.99-2.2-10.4-1.7-15.64.07-.79.18-1.59.29-2.38.43-3.18.83-6.47-.25-9.5-2.96-8.02-3.58-14.99-1.84-20.74.51-1.73,1.81-4.8,4.59-6,.94-.4,1.95-.58,2.93-.72.61-.11,1.26-.18,1.88-.36,3.29-.83,5.85-3.29,7.69-5.35.18-.18.36-.4.54-.61,1.23-1.37,2.49-2.78,4.15-3.61.07-.04.07-.11.04-.14-.04-.07-.11-.07-.14-.04-1.7.83-2.96,2.28-4.23,3.65-.18.18-.36.4-.54.61-1.84,2.02-4.34,4.44-7.59,5.27-.61.14-1.23.25-1.88.36-1.01.14-2.02.33-3,.72-2.85,1.23-4.19,4.37-4.7,6.14-1.73,5.78-1.12,12.82,1.88,20.88,1.08,2.96.65,6.21.25,9.39-.11.79-.22,1.59-.29,2.38-.54,5.27.04,10.69,1.7,15.75.87,2.71,2.06,5.31,3.22,7.84l5.78,12.72c.69,1.55,1.52,3.29,2.82,4.62,1.63,1.63,3.87,2.46,6.21,3.18,1.73.54,3.47,1.23,4.08,2.75.22.54.29,1.08.33,1.7.04.47.07.98.22,1.45.51,1.77,2.2,2.85,3.87,3.83,1.37.79,2.75,1.52,4.05,2.24,2.1,1.12,4.05,2.17,6.11,3.5.29.18.58.36.87.54-.04.07-.04.14-.04.22.61,4.12,1.52,8.31,4.73,10.66,1.08.79,2.31,1.26,3.47,1.73l6.07,2.35c4.26,1.66,8.96,3.29,13.4,3.29,2.35,0,4.62-.43,6.76-1.59,1.08-.58,2.06-1.3,3.03-2.02,1.3-.98,2.56-1.88,4.01-2.42,1.63-.61,3.47-.72,5.24-.83,2.49-.14,5.06-.33,7.15-1.84,1.19-.87,2.06-2.1,2.93-3.25,1.23-1.66,2.35-3.22,4.15-3.65,1.73-.4,3.4.33,5.2,1.16.54.25,1.08.47,1.63.69,2.53.98,6.11,1.26,8.53-.87.69-.61,1.19-1.34,1.7-2.06.22-.33.47-.65.69-.98,1.23-1.55,2.85-2.78,4.44-3.97,1.59-1.19,3.22-2.42,4.48-4.01,2.67-3.32,3.68-8.16,2.75-13.29-.83-4.59-2.89-8.74-4.91-12.79-1.12-2.24-2.24-4.55-2.78-6.97-.47-2.31-.4-4.77-.33-7.15.11-3.36.22-6.86-1.26-9.97-.11-.22-.36-.33-.58-.22,0-1.16-.29-2.31-.83-3.22-.54-.94-1.34-1.52-2.28-1.77-.14-1.7-.54-3.4-1.23-4.99-.98-2.35-2.46-4.44-3.87-6.5l-10.48-15.03c-2.2-3.18-4.52-6.43-7.3-9.25,2.1,2.02,4.12,4.34,6.21,6.97,7.01,8.74,13.33,18.14,18.79,27.93,1.91,3.47,3.87,7.19,4.55,11.24.33,1.77.36,3.65.43,5.46.07,1.66.11,3.4.36,5.06.65,4.44,2.64,8.6,4.55,12.57,1.73,3.65,3.54,7.44,4.3,11.42.36,2.13.36,4.01-.11,5.67ZM40.45,154.62l-.11.04c-1.66.87-3.36,1.73-5.2,1.84-1.63.07-3.14-1.01-4.59-2.1-.94-.69-1.88-1.37-2.85-1.77-2.64-1.08-5.46-1.66-8.2-2.2-1.16-.22-2.35-.47-3.5-.72-4.91-1.16-8.24-2.89-10.4-5.42-.61-.72-1.01-1.37-1.37-1.99-.47-.83-.94-1.59-1.88-2.46-1.63-1.52-3.79-2.2-5.89-2.85-1.3-.4-2.67-.83-3.87-1.48-3.29-1.7-6.97-4.88-9.93-8.45-5.96-7.26-12.36-14.34-18.89-21.06-2.28-2.31-4.37-5.85-5.38-9.03-.9-2.85-.07-5.74.69-8.53.87-3.18,1.81-6.43.14-9.54-.51-.94-1.59-1.95-2.64-2.89-.98-.9-2.02-1.84-2.49-2.67-1.34-2.38-1.66-5.27-.94-7.91.33-1.23,1.12-2.56,1.88-3.87.58-.98,1.08-1.88,1.45-2.75,1.59-3.76,2.82-7.19,1.73-11.2-.25-.94-.76-2.06-1.3-3.18-.61-1.3-1.19-2.6-1.41-3.68-1.12-6.03,1.12-11.24,3.76-13.51,1.7-1.48,3.9-2.28,6-3.07,2.53-.94,5.13-1.91,6.9-3.97.9-1.05,2.42-3.32,3.72-5.35.9-1.37,1.73-2.67,2.31-3.43,2.28-3.07,5.92-5.06,9.72-5.35,3.32-.25,7.91,2.53,11.05,5.38-.25.04-.51.04-.76.07-.14.04-.29.04-.43.07-2.78-2.6-6.68-3.97-10.48-3.68-3.9.29-7.62,2.35-9.97,5.49-.61.83-1.16,1.73-1.66,2.6-.65,1.12-1.3,2.24-2.17,3.25-1.77,2.06-4.3,3.36-6.72,4.59-1.95,1.01-3.97,2.02-5.64,3.47-3.61,3.14-5.38,8.24-4.44,12.93.25,1.19.65,2.35,1.01,3.47.29.83.58,1.66.79,2.49,1.05,3.94.76,8.16-.83,11.89-.33.76-.69,1.48-1.05,2.2-.61,1.23-1.26,2.53-1.63,3.9-.76,2.71-.4,5.71.98,8.16.47.87,1.08,1.7,1.66,2.46.61.83,1.26,1.66,1.73,2.6,1.63,3.03,1.01,6.43.36,10.01-.54,3.03-1.12,6.18-.18,9.07.98,3.18,3.4,5.6,5.71,7.98l.07.07c6.58,6.72,12.93,13.8,18.89,21.03l.25.29c2.56,3.11,5.2,6.32,8.78,8.16,1.16.61,2.42,1.08,3.65,1.52,2.1.76,4.26,1.55,5.92,3.07.94.87,1.66,1.95,2.35,3,.51.76,1.05,1.55,1.66,2.24,2.2,2.56,5.56,4.34,10.55,5.53,1.16.29,2.35.51,3.54.76,2.71.54,5.53,1.08,8.13,2.17.58.22,1.16.51,1.73.76,1.84.83,3.72,1.7,5.71,1.7h.36c1.91-.11,3.65-1.01,5.35-1.88l.07-.04c7.98-4.15,17.2-7.48,25.36-10.3-8.13,3.11-19.22,7.95-27.17,12.07ZM-19.08,19.94c.14-.72.29-1.45.51-2.13,1.3-4.19,5.92-7.08,10.3-6.43,1.23.18,2.38.61,3.54,1.05-1.7.76-3.14,1.95-4.15,3.43-.79-.47-1.84-.65-2.96-.47-2.17.29-4.52,1.66-5.74,3.32-.36.51-.72,1.05-1.08,1.55-.22.29-.4.61-.61.9.07-.4.14-.83.22-1.23ZM-19.34,16.58c.76-2.71,2.31-4.8,4.34-5.92,1.81-.98,3.83-1.16,5.89-.51,1.08.33,3.76,1.23,5.46,1.84-.18.07-.36.11-.54.18-1.3-.51-2.64-1.05-4.05-1.26-4.59-.69-9.39,2.35-10.77,6.76-.22.72-.36,1.48-.51,2.2-.14.79-.29,1.59-.58,2.35-.43.54-.87,1.05-1.37,1.48.69-2.13,1.81-5.89,2.13-7.12ZM-37.98,40.64c2.24,3.54,5.13,8.89,4.3,14.27-.36,2.42-1.48,4.7-2.53,6.94-1.3,2.75-2.67,5.56-2.71,8.67-.07,3.11,1.19,6,2.42,8.78,1.01,2.35,2.1,4.77,2.31,7.3.07.83.07,1.7.07,2.53,0,1.81-.04,3.68.79,5.38.33.69.79,1.3,1.23,1.91.36.47.69.94.98,1.41.4.69.65,1.41.9,2.17.18.47.33.94.54,1.41,1.55,3.61,4.62,6.14,7.62,8.63,2.06,1.7,4.19,3.47,5.82,5.56.79,1.05,1.52,2.24,2.2,3.4,1.34,2.24,2.75,4.59,4.95,6.11,1.41.94,3.03,1.52,4.62,2.06,2.13.72,4.19,1.45,5.56,3.03,1.16,1.3,1.66,3,2.2,4.8.4,1.37.83,2.78,1.59,4.05,1.99,3.36,5.78,4.99,9.83,6.47l16.98,6.21c1.3.47,2.75,1.01,4.23,1.01h.11c1.41-.04,2.71-.51,4.15-1.08,7.66-3.07,14.02-5.85,20.19-9.39l7.01.43c-8.13,2.82-17.23,6.14-25.14,10.26l-.07.04c-1.66.87-3.4,1.77-5.24,1.84-2.1.11-4.05-.79-5.96-1.66-.58-.25-1.16-.54-1.73-.76-2.6-1.08-5.46-1.63-8.16-2.17-1.16-.22-2.35-.47-3.5-.72-4.95-1.16-8.27-2.89-10.44-5.46-.61-.69-1.12-1.48-1.63-2.24-.72-1.05-1.45-2.17-2.38-3.03-1.66-1.55-3.87-2.35-6-3.14-1.23-.43-2.49-.9-3.65-1.52-3.54-1.84-6.18-5.02-8.71-8.13l-.25-.29c-5.96-7.26-12.32-14.34-18.89-21.06l-.07-.07c-2.31-2.35-4.7-4.77-5.67-7.88-.9-2.85-.33-5.96.22-8.96.61-3.47,1.26-7.04-.36-10.15-.51-.94-1.16-1.81-1.77-2.64-.58-.76-1.19-1.59-1.66-2.46-1.34-2.42-1.66-5.35-.94-8.02.36-1.34,1.01-2.6,1.63-3.83.36-.72.72-1.48,1.05-2.24,1.59-3.79,1.88-8.06.83-12.03-.22-.87-.51-1.7-.79-2.53-.4-1.12-.79-2.28-1.01-3.47-.94-4.62.79-9.65,4.37-12.75,1.66-1.45,3.65-2.46,5.6-3.47,2.46-1.26,4.95-2.53,6.79-4.66.87-1.01,1.52-2.17,2.2-3.25.51-.87,1.05-1.77,1.66-2.6,2.31-3.07,5.96-5.09,9.79-5.42,3.68-.29,7.44,1.01,10.19,3.5-.14.04-.25.07-.4.07-1.63-.61-4.84-1.7-6.07-2.06-2.2-.69-4.34-.47-6.25.54-2.17,1.16-3.76,3.36-4.55,6.18-.4,1.37-1.7,5.85-2.31,7.69-.4.25-.79.47-1.26.61-.9.29-1.84.29-2.85.29-.69,0-1.37,0-2.06.11-4.41.58-7.41,4.55-9.86,8.2-.58.83-1.26,1.88-1.37,3.07-.33,1.52.58,2.93,1.34,4.19ZM73.44,97.61c-1.91,2.17-2.82,5.06-3.68,7.88-.9,2.93-1.88,5.92-3.9,8.13-.51.54-1.05,1.01-1.59,1.48-.69.61-1.41,1.23-1.99,1.95-1.34,1.66-1.95,3.72-2.56,5.71-.43,1.41-.87,2.85-1.52,4.15-1.7,3.22-4.7,5.2-6.94,6.29-2.78,1.37-5.78,2.13-9.14,2.89-1.7.4-3.58.83-5.42.47-1.63-.33-4.08-1.3-4.62-2.85.54.18,1.08.33,1.66.4.43.07.87.07,1.3.07,2.17,0,4.26-.69,6.11-1.34,8.13-2.89,13.19-6.54,15.86-11.42.83-1.52,1.45-3.22,1.99-4.8.25-.72.51-1.48.79-2.2,2.71-6.76,7.55-12.72,13.66-16.8ZM6.06,14.45c.83.72,1.52,1.59,2.24,2.46.83,1.01,1.66,2.06,2.71,2.89,3.11,2.46,7.88,2.53,11.05.18.18-.11.33-.25.51-.4.51-.4.98-.76,1.52-.94.65-.22,1.41-.14,2.13-.07,2.31.22,4.8.65,5.71,2.53.11.25.22.51.29.76.11.36.25.72.43,1.05.94,1.63,3.03,2.1,4.7,1.88,1.12-.14,2.2-.58,3.22-1.01.47-.18.98-.36,1.45-.54,4.73-1.59,10.44-.69,15.64,2.46.54.33,1.08.69,1.59,1.05-2.17-1.45-4.84-2.71-7.84-3.11-6.32-.83-12.32,2.2-17.99,6-1.37-1.73-3.79-2.71-6.68-2.75-1.41,0-2.82.18-4.19.36-1.01.14-2.1.29-3.11.33-3.79.18-7.66-.79-10.91-2.82-.54-.33-1.05-.69-1.59-1.05-1.12-.79-2.31-1.59-3.61-2.13-.4-.18-1.19-.22-1.26-.22h-.14c-1.48.36-2.38.65-2.6.9-.79.79-.98,1.66-1.19,2.49-.18.72-.33,1.41-.9,2.02-1.77,1.91-4.15,2.96-6.72,4.01-1.34.58-2.75,1.16-4.01,1.88-6.61,3.76-10.3,12.21-8.56,19.62.11.51.25,1.05.4,1.52.29,1.08.61,2.1.69,3.18.11,1.34-.14,2.64-.43,4.05-.25,1.37-.54,2.75-.43,4.19.04.9.25,1.77.43,2.6.11.51.22.98.29,1.48.14,1.01.22,2.02.25,3.03.07,1.41.14,2.89.51,4.3.65,2.49,2.67,4.99,5.31,4.99h.18c.36.76.83,1.48,1.3,2.17v.04c.29.36.54.76.79,1.12.79,3.47,1.19,7.04,1.19,10.62v.4c0,1.26,0,2.53.4,3.76,1.23,3.54,5.42,4.84,7.8,5.31.76.14,1.52.25,2.24.4,2.42.4,4.95.76,7.01,2.1,1.01.65,1.88,1.48,2.75,2.31.29.25.54.54.83.79,4.44,4.15,9.79,6,14.27,4.95.94-.22,1.84-.54,2.75-.87,1.59-.58,3.11-1.16,4.77-1.08,1.55.07,3.03.76,4.44,1.41,1.23.54,2.49,1.12,3.83,1.34.47.07.98.11,1.45.11.98,0,1.88-.14,2.64-.29,9.75-1.77,18.21-8.92,21.53-18.24,1.95-1.84,4.52-2.96,7.04-4.05,2.93-1.3,5.96-2.6,8.02-5.09,1.34-1.59,2.17-3.58,2.96-5.46.51-1.19,1.01-2.46,1.66-3.61.47-.83,1.01-1.59,1.55-2.31.47-.65.9-1.3,1.34-1.99-.69,4.62-2.1,9.54-3.72,13.04-.61,1.3-1.34,2.67-2.38,3.72s-2.53,1.77-3.94,2.46c-.29.14-.58.29-.87.43-7.88,3.97-14.27,10.98-17.49,19.22-.29.72-.54,1.48-.79,2.2-.58,1.59-1.16,3.25-1.99,4.73-2.6,4.8-7.59,8.35-15.61,11.24-2.17.76-4.7,1.59-7.23,1.23-3.87-.54-6.72-3.54-9.5-6.47-.58-.58-1.16-1.23-1.73-1.81-4.26-4.26-9.5-7.48-15.21-9.36-.61-.22-1.26-.4-1.88-.58-3.76-1.16-7.66-2.35-9.57-5.6-.29-.51-.51-1.05-.76-1.55-.4-.94-.83-1.88-1.55-2.64-1.01-1.05-2.38-1.52-3.72-1.99-1.05-.36-2.1-.72-2.96-1.34-1.95-1.41-2.75-3.94-3.4-6.58l-6.65-26.81c-.36-1.45-.79-3.11-.54-4.66.14-.98.54-1.95.94-2.85.54-1.3,1.12-2.67.98-4.12-.11-1.34-.79-2.53-1.48-3.65-.22-.36-.43-.76-.65-1.16-2.24-4.34-1.84-9.97,1.08-14.38,2.64-4.05,7.19-6.94,12.46-7.95.18-.04.4-.07.58-.11,1.55-.29,3.18-.58,4.26-1.73.98-1.01,1.23-2.42,1.48-3.76.22-1.12.43-2.28,1.05-3.18.61-.94,1.55-1.52,2.71-1.73,2.06-.4,4.8.36,7.04,1.88.58.4,1.16.83,1.73,1.26,2.56,1.88,5.2,3.87,8.31,3.61,1.08-.07,2.1-.43,3.07-.79.51-.18,1.01-.36,1.52-.51,4.48-1.23,9.54.51,12.39,4.15.07.11.22.11.33.04.11-.07.11-.22.04-.33-2.93-3.79-8.24-5.6-12.86-4.3-.54.14-1.05.33-1.55.51-.98.33-1.95.69-2.96.76-2.96.25-5.53-1.66-8.02-3.5-.58-.43-1.16-.87-1.73-1.26-2.31-1.63-5.24-2.38-7.37-1.99-1.3.25-2.31.9-3.03,1.95-.65.98-.87,2.17-1.08,3.36-.25,1.34-.51,2.6-1.37,3.54-.98,1.05-2.53,1.34-4.01,1.59-.18.04-.4.07-.58.11-5.38,1.05-10.04,4.01-12.75,8.16-3,4.55-3.4,10.37-1.08,14.85.22.4.43.79.65,1.16.65,1.08,1.3,2.24,1.41,3.47.11,1.34-.4,2.6-.94,3.9-.4.94-.79,1.95-.94,2.96-.25,1.66.18,3.36.58,4.84l6.79,26.77c.69,2.75,1.48,5.35,3.58,6.86.94.65,2.02,1.05,3.07,1.41,1.34.47,2.64.9,3.54,1.88.65.69,1.05,1.59,1.45,2.53.22.54.47,1.08.76,1.63,1.99,3.43,5.96,4.62,9.83,5.82.65.18,1.26.4,1.88.58,5.64,1.84,10.84,5.06,15.03,9.25.58.58,1.16,1.19,1.73,1.77,1.77,1.88,3.61,3.79,5.71,5.09-2.31,1.7-5.49,1.26-7.73.29-1.81-.79-3.43-1.99-5.02-3.14-.72-.51-1.45-1.05-2.2-1.55-2.13-1.45-4.48-2.6-6.76-3.76-3.97-2.02-8.09-4.08-11.02-7.51-.4-.43-.76-.94-1.12-1.37-.69-.87-1.37-1.77-2.2-2.53-1.08-.98-2.38-1.66-3.61-2.35-.47-.25-.98-.54-1.48-.83-4.77-2.82-8.49-7.48-10.15-12.79-.33-1.01-.58-2.06-.83-3.07-.29-1.23-.61-2.49-1.01-3.68-.43-1.26-1.01-2.46-1.55-3.65-.51-1.05-1.01-2.17-1.41-3.29-.83-2.31-1.34-4.91-1.59-8.24-.25-3.32-.18-6.72.18-10.04.04-.29.07-.58.11-.9.22-1.88.43-3.83.07-5.74-.29-1.55-1.01-3-1.7-4.41-.47-.98-.98-2.02-1.34-3.07-.9-2.67-.83-5.64-.65-7.88.22-2.96.83-7.26,3.58-10.01,1.66-1.66,3.94-2.6,6.14-3.5,1.05-.43,2.13-.87,3.14-1.37,4.48-2.31,8.06-6.5,9.65-11.31h.04c.14-.04.25-.11.29-.22,1.37-2.28,3.79-3.83,6.72-4.3,3-.51,5.82.22,7.8,1.95ZM20.11,37.57c-.18-.25-.33-.51-.51-.79-.65-1.08-1.34-2.2-2.56-2.78-.83-.4-1.73-.4-2.35-.4-3.68.11-6.97,1.99-10.15,3.79-3.43,1.95-6.72,3.79-10.37,3.61-.61-.04-1.26-.14-1.91-.22-1.08-.18-2.2-.33-3.32-.22-2.13.25-4.05,1.59-5.02,3.47-.98,1.88-.94,4.23.11,6.11.76,1.34,1.91,2.31,3.07,3.29.65.58,1.37,1.16,1.95,1.77,1.59,1.77,2.42,4.26,2.28,6.86-.14,2.6-1.26,5.02-3.07,6.58-.18.14-.22.43-.04.61-.18.18-.33.33-.51.51-1.99,2.13-3.76,5.49-3.36,9-2.06-.9-2.93-3.68-2.53-5.92.33-1.81,1.19-3.43,2.06-5.06.33-.61.65-1.23.94-1.84.98-2.02,1.88-4.95.65-7.37-.54-1.08-1.48-1.95-2.38-2.75-.79-.72-1.63-1.48-2.2-2.42-.72-1.19-1.01-2.75-.87-4.7.51-7.84,7.37-14.7,15.03-14.96,1.26-.04,2.56.07,3.83.18,2.35.22,4.77.43,7.01-.36.79-.29,1.52-.69,2.24-1.08.51-.29,1.01-.54,1.55-.79,1.55-.69,3.22-1.05,4.88-1.37,1.08-.22,2.31-.47,3.4-.14,1.19.36,2.1,1.34,2.93,2.28.29.29.58.61.87.9,1.01.98,4.05.9,5.96.33-.72.58-1.37,1.23-1.99,1.91-.94,1.12-1.66,2.35-2.17,3.61-.07-.04-.18-.04-.25,0-1.16.54-2.42-.47-3.18-1.63ZM22.35,42.27c-2.46-.33-4.62-2.13-5.42-4.48-.04-.11-.07-.25-.11-.36-.25-.79-.54-1.7-1.34-2.06-.87-.4-1.81.04-2.53.47-1.37.79-2.75,1.73-4.05,2.64-2.17,1.48-4.37,3.03-6.83,4.05-3.65,1.48-7.73,1.73-11.52.72-1.16-.33-2.93-.79-3.87.33-.65.76-.51,1.91-.11,2.67.43.79,1.12,1.34,1.81,1.88l.04.04c1.3,1.05,2.82,2.31,3.94,3.83,2.89,3.97,2.85,9.93-.14,13.87-.04.07-.04.14-.04.22-.51.33-1.01.69-1.48,1.05.87-1.45,1.41-3.18,1.52-4.99.18-2.85-.76-5.6-2.49-7.55-.61-.69-1.34-1.3-2.02-1.88-1.12-.94-2.17-1.84-2.85-3.03-.87-1.59-.94-3.65-.11-5.27.83-1.63,2.53-2.78,4.34-3,1.01-.11,2.02.04,3.07.22.65.11,1.3.22,1.99.25,3.94.22,7.48-1.77,10.87-3.72,3.11-1.77,6.29-3.58,9.72-3.65.83-.04,1.45.07,1.95.29.98.43,1.55,1.41,2.17,2.42.18.29.33.54.51.79.83,1.23,2.28,2.49,3.79,2.2-.25.76-.47,1.52-.61,2.24,0-.07-.07-.14-.18-.18ZM21.31,63.47s0-.04,0,0c-.14-.07-.25-.14-.36-.18-.76-.4-1.55-.72-2.42-1.01-4.19-2.13-9.93-2.38-16.15-.69-2.06.54-4.08,1.3-6,2.2,2.2-5.27.36-11.96-4.37-15.25-.33-.22-.69-.43-1.01-.65-1.23-.76-2.46-1.55-3-2.82,1.19.14,2.31.54,3.43.9.94.33,1.88.65,2.85.83,3.11.58,6.68-.18,10.08-2.2,2.89-1.7,5.35-4.08,7.77-6.36l.29-.29c.25-.22.54-.47.79-.4.25.07.4.36.51.69.14.43.29.87.43,1.34.51,1.59,1.01,3.25,2.02,4.59,1.34,1.73,4.01,2.75,5.82,1.45.07-.07.11-.14.04-.25-.07-.11-.14-.11-.22-.04-1.66,1.16-4.08.22-5.35-1.37-1.01-1.3-1.48-2.89-1.99-4.48-.14-.43-.29-.9-.43-1.34-.11-.36-.33-.79-.72-.9-.43-.11-.79.18-1.12.47l-.29.29c-2.38,2.28-4.84,4.62-7.69,6.32-3.32,1.95-6.79,2.75-9.83,2.13-.94-.18-1.88-.51-2.82-.79-1.23-.4-2.49-.83-3.79-.94-.07,0-.11.04-.14.07-.04.04-.04.11-.04.14.51,1.52,1.91,2.38,3.25,3.25.33.22.69.43,1.01.65,4.7,3.25,6.5,10.01,4.08,15.17-1.05.51-2.02,1.05-2.96,1.63,2.71-4.08,2.64-9.9-.25-13.84-1.16-1.59-2.67-2.85-4.01-3.94l-.04-.04c-.65-.51-1.3-1.05-1.7-1.73-.33-.61-.47-1.55.04-2.17.72-.83,2.02-.58,3.43-.18,3.9,1.05,8.09.79,11.81-.76,2.49-1.01,4.73-2.56,6.9-4.08,1.3-.9,2.64-1.84,4.01-2.64.65-.36,1.45-.76,2.13-.47.61.29.87,1.05,1.12,1.81.04.11.07.25.11.36.83,2.49,3.18,4.41,5.78,4.77.11,0,.22-.04.22-.14-.29,1.48-.4,2.93-.4,4.15-.04,3.5.65,7.01,1.3,10.4l.22,1.23c.4,2.13.22,4.59-1.48,5.06-.29.07-.58.07-.87.04ZM-3.55,70.34c-1.12,1.63-2.1,3.25-1.99,5.06.07,1.26.72,2.38,1.3,3.4,2.2,3.9,4.66,8.35,8.71,11.02,1.77,1.16,3.43,1.7,5.02,1.59,1.52-.11,2.89-.76,4.23-1.41,1.45-.69,2.78-1.37,4.3-1.37,2.2-.04,4.01,1.26,5.89,2.67,1.23.87,2.46,1.81,3.87,2.35,1.19.47,2.46.69,3.72.69,2.56,0,5.2-.79,7.55-1.63,3.22-1.12,6.43-2.31,9.54-3.61.58-.22,1.37-.54,1.81-1.23.36-.51.43-1.16.51-1.73v-.14c.36-2.6,1.77-5.85,4.55-6.39.87-.14,1.81-.04,2.71.11.29.04.58.07.87.11,4.84.54,9.9-1.66,12.9-5.64,2.93-3.9,3.72-9.25,2.1-13.98-1.01-2.89-2.85-5.42-4.62-7.88-2.31-3.22-4.52-6.25-5.06-9.97-.04-.29-.07-.61-.11-.9-.11-.9-.18-1.81-.58-2.67-.54-1.23-1.63-2.1-2.56-2.85-2.1-1.7-4.44-3.61-7.23-4.55-2.82-.94-7.59-1.7-16.69,3.03-2.02,1.05-4.37,2.35-6.07,4.26-2.2,2.46-3.47,6.03-3.76,10.59-.18,2.82,0,5.67.54,8.45.04.22.07.43.14.61-.54-.94-1.01-1.84-1.12-2.53-.58-3.11-.72-5.09-.54-7.98.25-4.08,1.48-7.08,4.12-10.08,1.66-1.88,6.25-4.66,8.71-5.96,5.82-3.03,11.09-3.58,16.51-1.73,1.99.69,4.95,2.64,6.39,4.19,1.77,1.95,3.61,5.56,4.7,7.69.87,1.7,1.01,3,1.12,4.3.18,1.66.36,3.22,2.06,5.2.65.76,1.34,1.48,2.02,2.2,2.1,2.2,4.05,4.3,5.06,7.23,1.73,4.95.87,10.59-2.17,14.67-3.11,4.15-8.35,6.5-13.4,5.92-.33-.04-.61-.07-.94-.14-1.01-.14-2.02-.29-3.03-.11-3.22.61-4.84,4.26-5.24,7.23l-.04.14c-.07.61-.14,1.23-.47,1.7-.36.54-1.01.87-1.77,1.16-3.36,1.37-6.79,2.67-10.19,3.87-3.72,1.3-7.98,2.53-11.78,1.05-1.45-.58-2.75-1.55-4.01-2.49-1.99-1.45-4.01-2.93-6.47-2.93h-.07c-1.7.04-3.25.79-4.77,1.52-1.41.69-2.85,1.41-4.37,1.48-1.59.11-3.32-.43-5.13-1.63-4.26-2.82-6.9-7.55-9.21-11.74-.58-1.05-1.23-2.24-1.3-3.5-.11-1.81.9-3.5,2.06-5.2.9-1.34,1.91-2.38,2.96-3.22-.43.61-.87,1.12-1.26,1.73ZM8.88,65.43c.36-.04.76-.07,1.12-.14,2.46-.33,5.27-.54,7.59.65.61.33,1.34.76,2.13,1.23,2.31,1.41,4.91,2.96,7.01,2.78,2.2-.18,3.58-2.89,3.9-5.49.18-1.3-.87-3.14-1.91-4.95-.04-.25-.11-.54-.14-.79-.07-.4-.14-.76-.22-1.12-.54-2.75-.72-5.56-.54-8.35.29-4.44,1.52-7.91,3.65-10.3,1.66-1.88,3.94-3.14,5.96-4.15,8.96-4.62,13.62-3.94,16.33-3,2.67.9,4.91,2.71,7.08,4.44.9.72,1.95,1.55,2.46,2.67.36.79.43,1.63.54,2.53.04.33.07.61.11.94.58,3.83,2.89,7.04,5.17,10.15,1.77,2.42,3.61,4.95,4.59,7.77,1.59,4.55.83,9.75-2.02,13.55-2.89,3.83-7.77,6-12.46,5.46-.29-.04-.58-.07-.87-.11-.94-.14-1.88-.29-2.85-.11-3.03.58-4.55,4.01-4.95,6.76v.14c-.07.54-.14,1.12-.43,1.55-.36.51-.94.76-1.63,1.05-3.11,1.26-6.32,2.49-9.54,3.58-3.47,1.19-7.44,2.35-10.95.94-1.34-.54-2.56-1.41-3.76-2.28-1.84-1.34-3.76-2.75-6.11-2.75h-.07c-1.59.04-3.07.72-4.48,1.41-1.3.65-2.64,1.3-4.08,1.37-1.48.07-3.07-.4-4.73-1.52-3.97-2.6-6.43-7.01-8.56-10.87-.54-.98-1.16-2.06-1.23-3.22-.11-1.66.83-3.22,1.91-4.77.9-1.34,1.91-2.35,3-3.14,2.56-1.16,5.56-1.52,9-1.91ZM28.93,60.51c.83,1.48,1.55,2.89,1.41,3.9-.33,2.46-1.59,5.02-3.61,5.2-1.99.14-4.66-1.45-6.83-2.75-.76-.47-1.48-.9-2.13-1.23-2.38-1.23-5.27-1.01-7.8-.69-.4.04-.76.11-1.12.14-2.56.33-4.95.61-7.15,1.3,2.42-1.12,5.17-1.45,8.31-1.81l1.05-.14c2.28-.29,4.91-.51,7.08.61.76.4,1.52.98,2.24,1.52,1.41,1.08,2.82,2.2,4.62,2.02,2.28-.18,3.83-2.49,4.12-4.62.11-1.16,0-2.31-.18-3.47ZM26,59.57l-.22-1.12c-.61-3.11-1.23-6.36-1.23-9.54.04-2.82.58-6.79,3.18-9.83,1.19-1.41,2.75-2.49,4.26-3.58,6.25-4.41,12.43-8.31,19.18-7.41,2.96.4,5.56,1.73,7.62,3.18-1.05-.65-2.13-1.19-3-1.48-5.53-1.88-10.87-1.34-16.8,1.73-2.6,1.37-7.08,4.08-8.81,6.03-2.71,3.03-3.97,6.11-4.23,10.26-.18,2.89-.04,4.95.58,8.06.18.94.9,2.2,1.66,3.5.33,1.52.58,3.03.36,4.55-.25,1.91-1.66,4.05-3.68,4.23-1.59.14-2.93-.87-4.3-1.95-.72-.58-1.48-1.16-2.31-1.55-2.28-1.16-4.99-.94-7.33-.65l-1.05.14c-4.12.51-7.84.94-10.87,3.36-1.7.94-3.25,2.28-4.59,4.26-1.19,1.77-2.24,3.47-2.13,5.42.07,1.34.76,2.56,1.37,3.65,2.35,4.23,4.99,9,9.32,11.85,1.88,1.23,3.65,1.81,5.35,1.7,1.59-.11,3.07-.83,4.52-1.52,1.48-.72,3-1.48,4.62-1.48h.07c2.35,0,4.26,1.41,6.29,2.89,1.3.94,2.64,1.91,4.12,2.53,1.26.51,2.6.72,3.94.72,2.75,0,5.53-.87,8.06-1.73,3.43-1.19,6.86-2.49,10.22-3.9.61-.25,1.45-.58,1.91-1.26.36-.54.47-1.19.54-1.84v-.14c.36-2.85,1.91-6.36,4.95-6.94.94-.18,1.95-.04,2.93.11.33.04.61.07.94.14,5.17.58,10.55-1.77,13.73-6.03,3.11-4.19,3.97-9.93,2.24-14.99-1.05-2.96-3.11-5.2-5.13-7.33-.69-.72-1.37-1.45-1.99-2.2-1.63-1.91-1.81-3.36-1.99-5.02-.14-1.3-.29-2.67-1.16-4.41-.79-1.59-1.99-3.97-3.29-5.89,1.77,2.06,3.36,4.3,4.88,6.5l9.79,13.98c1.3,1.88,2.67,3.79,3.54,5.92,2.75,6.54.43,14.92-5.27,19.11-1.99,1.45-4.3,2.46-6.58,3.43-2.67,1.16-5.42,2.35-7.66,4.26-1.19,1.01-2.2,2.24-3.18,3.4-1.16,1.37-2.35,2.78-3.76,3.83-3.14,2.35-7.04,2.85-11.16,3.36-2.35.29-4.77.61-7.01,1.3-.65.18-1.3.43-1.91.65-1.48.51-2.85,1.01-4.34,1.12-3.14.25-5.96-1.19-8.96-2.71-1.66-.87-3.43-1.73-5.24-2.28-1.77-.54-3.61-.79-5.42-1.01-1.77-.22-3.61-.47-5.31-1.01-5.64-1.77-9.9-6.72-13.33-10.73-1.3-1.52-2.75-3.22-3.32-5.2-.98-3.43.76-6.9,2.75-9.03,4.44-4.77,13.04-8.45,20.52-8.45,2.82,0,5.49.51,7.73,1.7.11.07.22.11.33.18.98.54,2.1,1.12,3.25.79,1.99-.72,2.24-3.36,1.81-5.64ZM-20.02,56.94c-.07-1.16-.4-2.28-.69-3.36-.14-.51-.29-1.01-.4-1.48-1.66-7.04,1.84-15.06,8.13-18.64,1.23-.69,2.6-1.26,3.94-1.84,2.53-1.05,5.13-2.17,7.04-4.23.72-.79.94-1.66,1.12-2.42s.33-1.45.94-2.06c.18-.14,1.23-.43,2.13-.65.29,0,.72.07.94.14,1.23.47,2.31,1.23,3.43,2.02.51.36,1.05.72,1.63,1.08,3.4,2.1,7.44,3.14,11.42,2.96,1.08-.07,2.13-.22,3.18-.33,1.34-.18,2.71-.36,4.05-.36,2.6.04,4.73.87,5.92,2.35-.76.54-1.55,1.05-2.31,1.59-.76.54-1.48,1.05-2.2,1.63-1.77.72-5.31.83-6.29-.11-.29-.29-.58-.61-.87-.9-.87-.98-1.77-1.95-3.03-2.31-1.16-.36-2.42-.11-3.54.11-1.66.33-3.32.69-4.91,1.37-.54.25-1.05.51-1.55.79-.72.4-1.45.79-2.24,1.05-2.2.79-4.59.58-6.9.36-1.26-.11-2.56-.22-3.87-.18-7.77.25-14.74,7.19-15.25,15.17-.11,2.02.18,3.58.9,4.84.58.98,1.41,1.73,2.24,2.49.87.79,1.77,1.63,2.31,2.67,1.19,2.35.29,5.2-.65,7.19-.29.61-.61,1.23-.94,1.84-.87,1.63-1.73,3.29-2.1,5.09-.43,2.42.51,5.35,2.82,6.21.07.36.11.76.25,1.12.07.18.11.36.18.54-2.06-.14-3.68-2.2-4.23-4.3-.36-1.34-.43-2.67-.47-4.12-.04-1.05-.11-2.1-.29-3.14-.07-.51-.18-1.05-.29-1.52-.18-.87-.36-1.66-.4-2.49-.07-1.3.18-2.6.43-3.97.22-1.34.51-2.78.4-4.23ZM78.78,81.94c-2.13,1.59-4.66,2.67-7.08,3.72-2.85,1.23-5.78,2.49-8.13,4.55-1.26,1.08-2.31,2.38-3.36,3.61-1.23,1.48-2.53,3-4.05,4.15-3.43,2.56-7.62,3.11-12.07,3.68-2.49.33-5.06.65-7.48,1.37-.69.22-1.37.43-2.02.69-1.52.54-3.11,1.08-4.73,1.23-3.43.29-6.47-1.26-9.72-2.93-1.81-.9-3.65-1.84-5.56-2.46-1.88-.58-3.87-.83-5.78-1.08-1.91-.25-3.87-.51-5.74-1.08-4.91-1.55-8.81-5.31-12.1-8.96v-.11c0-.11-.11-.22-.25-.22h-.04c-.69-.79-1.37-1.59-2.02-2.35-.4-.43-.76-.9-1.16-1.37-.04-.07-.04-.14-.04-.22-.04-.07-.11-.14-.22-.11-.65-.87-1.26-1.77-1.73-2.75,0-.04.04-.07.04-.14,0-.18-.11-.29-.25-.4-.11-.25-.18-.51-.25-.72-1.08-3.79.83-7.62,3-9.97.22-.22.43-.47.69-.69.04-.04.07-.04.11-.07.25-.22.51-.47.76-.72,1.73-1.52,3.87-2.93,6.21-4.08.04,0,.04.04.07.04.07,0,.11-.04.14-.11,0-.04.04-.04.04-.04,4.37-2.13,9.47-3.47,14.13-3.47,1.88,0,3.68.22,5.38.69-3.07-.4-6.54-.14-10.19.83-5.49,1.45-10.66,4.34-13.8,7.73-2.13,2.31-4.05,6.11-2.96,9.9.65,2.2,2.17,3.97,3.5,5.56,3.5,4.08,7.84,9.14,13.73,11.02,1.77.54,3.65.79,5.46,1.05,1.77.22,3.58.47,5.27,1.01,1.73.54,3.43,1.41,5.09,2.24,2.75,1.37,5.56,2.82,8.63,2.82.25,0,.51,0,.76-.04,1.59-.14,3.11-.65,4.59-1.16.61-.22,1.26-.43,1.88-.61,2.2-.65,4.59-.98,6.86-1.26,4.05-.51,8.24-1.05,11.56-3.54,1.52-1.12,2.75-2.56,3.9-3.97.94-1.16,1.95-2.31,3.07-3.29,2.13-1.84,4.84-3,7.44-4.12,2.31-.98,4.7-2.02,6.76-3.54,6.03-4.41,8.49-13.29,5.6-20.19-.94-2.2-2.31-4.19-3.65-6.07l-9.79-13.98c-2.24-3.22-4.55-6.5-7.51-9.28-3.29-3.11-6.97-4.99-10.62-5.49-7.04-.94-13.66,3.22-19.8,7.59-1.55,1.08-3.14,2.24-4.44,3.72-2.78,3.25-3.4,7.48-3.4,10.44-.04,3.29.61,6.54,1.23,9.72l.22,1.12c.11.65.65,3.9-1.23,4.44-.58.14-1.16-.04-1.77-.29.04,0,.11-.04.14-.04,2.02-.58,2.24-3.25,1.81-5.56l-.22-1.23c-.65-3.36-1.34-6.83-1.3-10.3,0-1.91.25-4.3,1.12-6.65.14-.11.22-.29.18-.43.51-1.26,1.23-2.53,2.17-3.65,1.3-1.55,3-2.75,4.62-3.9.79-.54,1.55-1.12,2.35-1.63.14.11.36.11.51,0,.14-.11.22-.29.18-.47,5.71-3.83,11.45-6.76,17.67-5.92,4.73.65,8.56,3.47,10.95,5.71,3.07,2.89,5.56,6.43,7.95,9.86l10.48,15.03c1.41,2.02,2.85,4.12,3.83,6.43,3.14,6.97.61,16.11-5.6,20.7ZM3.75,98.05c1.63.43,3.32.65,4.99.87,1.88.25,3.87.51,5.71,1.08,1.88.58,3.72,1.52,5.49,2.42,2.93,1.48,5.92,3,9.14,3,.25,0,.54,0,.79-.04,1.66-.14,3.29-.69,4.84-1.26.65-.22,1.34-.47,2.02-.69,2.38-.72,4.91-1.05,7.41-1.37,4.3-.54,8.74-1.12,12.28-3.76,1.59-1.19,2.89-2.75,4.15-4.26,1.05-1.23,2.1-2.49,3.32-3.58,1.95-1.7,4.3-2.85,6.65-3.9-1.88,1.77-3.65,4.01-5.49,6.39-3.25,4.15-6.61,8.49-10.69,10.04-2.2.87-4.88,1.05-7.62.58-.36-.07-.69-.14-1.05-.18-1.34-.25-2.67-.54-4.05-.29-1.77.33-3.18,1.48-4.55,2.6-.83.69-1.7,1.37-2.64,1.88-3.22,1.73-7.19.14-10.69-1.3l-.76-.33c-1.37-.54-2.75-1.23-4.05-1.84-2.24-1.08-4.59-2.2-7.04-2.85-.58-.14-1.16-.29-1.77-.4-2.46-.4-4.99-.94-6.39-2.82ZM10.07,101.34c.58.14,1.19.25,1.73.4,2.42.61,4.73,1.73,6.97,2.82,1.3.65,2.67,1.3,4.05,1.84l.76.33c2.46,1.01,5.13,2.1,7.62,2.1,1.16,0,2.28-.22,3.32-.79.98-.54,1.84-1.23,2.67-1.91,1.41-1.12,2.71-2.2,4.41-2.53,1.26-.25,2.6.04,3.9.29.36.07.69.14,1.05.18,2.85.47,5.53.25,7.8-.61,4.19-1.63,7.55-5.96,10.84-10.15,2.1-2.67,4.08-5.24,6.21-7.04.11-.04.25-.11.36-.14.61-.25,1.23-.54,1.84-.79-1.08,2.28-2.28,4.59-3.97,6.47-.98,1.05-2.13,1.99-3.25,2.85-1.08.87-2.24,1.77-3.22,2.82-.72.76-1.34,1.63-1.95,2.42-.94,1.26-1.95,2.56-3.18,3.54-1.05.79-2.24,1.37-3.43,1.91-1.16.54-2.35,1.12-3.4,1.88-.76.58-1.45,1.26-2.1,1.91-1.12,1.12-2.17,2.2-3.58,2.75-1.59.61-3.43.43-5.2.18-1.59-.22-3.18-.47-4.73-.72-3.97-.65-8.09-1.3-12.21-1.37h-2.13c-3.11.04-6.32.07-9.07-1.3-1.55-.76-2.89-1.95-4.19-3.11-.94-.83-1.88-1.7-2.96-2.38-2.28-1.55-5.09-2.42-7.84-2.46h-.76c-1.3,0-2.67.04-3.65-.72-1.19-.94-1.41-2.67-1.48-4.26l-.4-6.61c3.22,3.58,7.08,7.15,11.92,8.67.11.04.22.07.33.11,1.48,2.28,4.23,2.89,6.9,3.47ZM-12.15,85.84c.9,1.66,1.48,3.47,1.73,5.35.11.83.14,1.73.18,2.6.11,2.42.22,4.95,1.73,6.83,1.77,2.17,4.59,2.56,7.37,3,1.26.18,2.56.4,3.76.76,2.67.79,4.99,2.53,7.26,4.23,2.82,2.1,5.74,4.3,9.28,4.59,1.52.11,3.07-.14,4.55-.36.58-.11,1.19-.18,1.81-.29,3.83-.47,7.66.04,10.91.58l.9.14c1.99.36,4.05.69,6.07.69,1.12,0,2.28-.11,3.36-.4,2.6-.69,4.91-2.31,6.97-3.72,2.71-1.88,5.49-3.83,7.51-6.5.47-.61.9-1.3,1.34-1.95.61-.94,1.26-1.91,2.02-2.78l.04-.04c-3.43,8.89-11.6,15.64-20.99,17.34-1.08.18-2.53.4-3.97.18-1.3-.22-2.53-.76-3.72-1.34-1.45-.65-2.96-1.34-4.59-1.41-1.7-.07-3.32.51-4.88,1.08-.87.33-1.77.65-2.71.87-4.41,1.01-9.61-.79-13.98-4.88-.29-.25-.54-.54-.83-.79-.87-.83-1.73-1.7-2.78-2.35-2.13-1.37-4.7-1.77-7.15-2.17-.76-.11-1.52-.22-2.24-.36-2.31-.43-6.39-1.73-7.55-5.09-.4-1.16-.4-2.42-.4-3.65v-.4c-.04-3.29-.36-6.58-1.01-9.75ZM58.41,133.99c1.23,0,2.35-.18,3.32-.79.69-.43,1.26-1.12,1.81-2.06.58-1.05.98-2.2,1.37-3.32.25-.76.54-1.52.87-2.28.07-.22.18-.4.29-.61.33-.72.69-1.45.79-2.24.22-1.41-.25-2.75-.69-4.05-.22-.65-.43-1.34-.58-1.99.76-.25,1.55-.51,2.24-.98,1.34-.94,1.95-2.53,2.46-4.08.36-1.23.72-2.49,1.01-3.68.43-1.63.87-3.32,1.45-4.91.9-2.56,3.4-6.11,5.67-8.09,1.26-.61,2.53-1.3,3.58-2.31,1.12-1.12,1.88-2.49,2.49-3.87,1.05-2.28,2.02-5.13,2.75-8.13.33,1.48.69,2.96,1.05,4.41,1.05,4.19,2.24,8.92,4.88,12.72.72,1.01,1.37,2.56,1.95,3.94.25.61.51,1.23.76,1.73.11.25.22.51.36.72.65,1.37,1.12,2.28,1.23,4.01.14,2.28.29,4.91-.25,7.44-.58,2.67-1.88,4.91-3.68,6.25-.98.72-2.13,1.26-3.25,1.77-1.73.79-3.54,1.59-4.62,3.18-.47.69-.79,1.52-1.08,2.31-.47,1.26-.94,2.42-1.99,3.14-1.59,1.08-3.68.43-4.52.07-.72-.33-1.45-.72-2.13-1.12-.69-.4-1.41-.79-2.13-1.12-3.18-1.34-6.86-.72-8.96,1.52-.4.4-.72.9-1.08,1.34-.25.36-.51.69-.79,1.05-1.91,2.24-5.02,3.36-7.95,2.85h-.07c.87-.76,1.48-1.73,2.02-2.75.47-.11.98-.07,1.45-.07ZM58.44,130.42c1.05-2.67,1.95-5.46,2.64-8.24l.04-.07c.4-1.66.83-3.4,2.13-4.41.14-.11.29-.22.43-.29.69,3.11-.4,6.14-1.59,8.96-.36.9-.79,1.84-1.41,2.6-.61.76-1.41,1.26-2.24,1.45ZM60.86,129.08c.65-.79,1.08-1.77,1.45-2.67,1.19-2.89,2.31-6,1.59-9.18.43-.22.9-.4,1.37-.54.14.69.36,1.37.58,2.02.43,1.34.87,2.6.69,3.9-.11.76-.47,1.48-.79,2.17-.11.22-.18.4-.29.61-.33.76-.61,1.52-.87,2.31-.4,1.08-.76,2.24-1.37,3.25-.51.9-1.05,1.55-1.7,1.95-1.23.79-2.75.79-4.44.69.22-.43.43-.9.61-1.3.22-.54.43-1.08.69-1.63.9-.14,1.77-.69,2.49-1.59ZM90.56,88.33c.54,2.56,1.7,4.91,2.85,7.19,1.99,3.97,4.05,8.09,4.84,12.57.87,4.88-.07,9.47-2.56,12.57-1.19,1.48-2.78,2.67-4.34,3.83-1.63,1.23-3.32,2.49-4.62,4.15-.25.33-.51.69-.72,1.01-.51.69-.94,1.37-1.55,1.88-2.1,1.88-5.31,1.59-7.59.72-.51-.18-1.05-.43-1.59-.69-1.84-.83-3.76-1.66-5.78-1.19-2.13.51-3.43,2.28-4.7,4.01-.83,1.12-1.66,2.28-2.75,3.07-1.84,1.37-4.19,1.52-6.68,1.66-1.84.11-3.76.22-5.53.9-1.55.58-2.93,1.59-4.23,2.57-.94.69-1.91,1.41-2.93,1.95-5.85,3.11-13.08.72-19.44-1.73l-6.07-2.35c-1.12-.43-2.31-.9-3.29-1.63-2.82-2.02-3.68-5.78-4.3-9.54,2.13,1.37,4.3,2.67,6.5,3.94,2.6,1.48,5.42,2.96,8.42,2.96h.11c.72,0,1.52-.11,2.24-.18,1.95-.22,3.79-.43,5.24.65.58.43,1.01,1.05,1.41,1.63.43.61.9,1.26,1.52,1.73.9.65,2.02.83,3.18.83.47,0,.98-.04,1.45-.07,3.47-.33,6.9-.94,10.26-1.81,1.55-.43,3.36-.98,4.73-2.13.04-.04.07-.07.11-.11,0,0-.04.04-.04.07,0,.07.04.11.07.14.47.07.94.11,1.41.11,2.53,0,5.06-1.12,6.72-3.03.29-.33.54-.69.79-1.05.33-.43.69-.9,1.05-1.3,2.06-2.17,5.64-2.75,8.71-1.45.72.33,1.45.72,2.1,1.08.69.4,1.41.79,2.17,1.12.87.36,3.03,1.05,4.73-.11,1.08-.76,1.59-2.02,2.06-3.25.29-.76.61-1.59,1.08-2.24,1.05-1.52,2.75-2.31,4.52-3.11,1.12-.51,2.31-1.05,3.32-1.77,1.84-1.37,3.18-3.65,3.76-6.39.54-2.53.4-5.2.25-7.48-.11-1.77-.58-2.67-1.23-4.08-.11-.22-.22-.47-.36-.72-.25-.51-.51-1.08-.76-1.7-.58-1.37-1.26-2.93-1.99-3.97-2.64-3.76-3.83-8.49-4.88-12.64-.4-1.59-.79-3.22-1.12-4.84.43-1.84.79-3.76,1.05-5.56v-.11c.25-.54.47-1.08.65-1.66.07-.29.14-.61.18-.9,1.19,2.82,1.12,5.92,1.01,9.18.11,2.35.04,4.88.54,7.26ZM86.19,66.22c.79.22,1.48.76,1.99,1.59.79,1.3,1.01,3.18.54,4.8-.18.58-.4,1.12-.65,1.63-.07.04-.11.07-.14.18v.11c-.51.98-1.12,1.84-1.73,2.71-.54.76-1.08,1.52-1.55,2.35-.65,1.16-1.19,2.42-1.7,3.65-.79,1.88-1.59,3.83-2.89,5.38-2.02,2.42-5.02,3.72-7.91,4.99-2.82,1.23-5.71,2.49-7.77,4.77-.79.87-1.45,1.84-2.06,2.82-.43.65-.87,1.3-1.34,1.91-2.02,2.64-4.77,4.55-7.44,6.43-2.13,1.48-4.34,3.03-6.86,3.68-3,.76-6.21.22-9.28-.29l-.9-.14c-3.29-.54-7.15-1.05-10.98-.58-.61.07-1.23.18-1.81.29-1.48.25-3,.51-4.48.36-3.43-.29-6.21-2.35-9.14-4.52-2.28-1.7-4.66-3.47-7.37-4.3-1.23-.36-2.53-.58-3.79-.76-2.82-.43-5.49-.83-7.15-2.89-1.48-1.81-1.55-4.26-1.66-6.61-.04-.87-.07-1.77-.18-2.64-.22-1.77-.72-3.47-1.52-5.06.69.79,1.41,1.66,2.17,2.53l.43,7.19c.11,1.66.33,3.54,1.66,4.59,1.12.87,2.56.83,3.94.83h.72c2.67.04,5.38.87,7.59,2.35,1.01.69,1.99,1.55,2.89,2.35,1.3,1.16,2.67,2.38,4.3,3.18,2.85,1.41,6.14,1.37,9.28,1.37h2.13c4.08.07,8.16.72,12.14,1.34,1.55.25,3.14.51,4.73.72.87.11,1.81.22,2.67.22.94,0,1.84-.11,2.71-.47,1.48-.58,2.64-1.73,3.76-2.85.65-.65,1.3-1.34,2.06-1.88,1.01-.76,2.17-1.3,3.32-1.84,1.19-.54,2.42-1.16,3.5-1.99,1.3-1.01,2.31-2.35,3.29-3.65.61-.79,1.23-1.66,1.91-2.38.94-1.01,2.1-1.91,3.18-2.78,1.12-.9,2.31-1.84,3.29-2.93,1.84-2.02,3.07-4.52,4.23-6.94,0-.04.04-.07,0-.11,1.63-.76,3.25-1.59,4.7-2.67,4.95-3.58,7.62-9.97,7.19-16.04ZM99.01,98.99c-1.88-3.94-3.83-7.98-4.44-12.32-.25-1.63-.29-3.32-.36-4.95-.07-1.84-.14-3.72-.43-5.56-.72-4.19-2.71-7.98-4.66-11.52-5.46-9.83-11.81-19.26-18.86-28.03-4.01-4.99-7.59-8.85-12.14-11.63-5.42-3.32-11.38-4.23-16.4-2.56-.51.18-1.01.36-1.48.54-1.01.4-1.99.79-3.03.94-1.37.22-3.07-.14-3.79-1.41-.14-.25-.25-.58-.36-.9-.11-.29-.22-.58-.33-.87-1.12-2.24-3.87-2.78-6.43-3-.76-.07-1.66-.14-2.49.14-.69.22-1.23.65-1.77,1.08-.14.11-.33.25-.51.36-2.89,2.1-7.15,2.02-9.97-.18-.98-.76-1.77-1.73-2.56-2.75-.72-.87-1.45-1.81-2.31-2.56-1.88-1.63-4.37-2.46-7.08-2.35-2.46-2.31-7.62-6.11-11.71-5.78-3.94.33-7.69,2.38-10.04,5.53-.58.76-1.41,2.06-2.31,3.43-1.3,1.99-2.78,4.26-3.68,5.27-1.7,1.99-4.15,2.89-6.76,3.87-2.17.79-4.41,1.66-6.14,3.18-3.87,3.36-4.7,9.57-3.83,13.94.22,1.12.87,2.49,1.45,3.79.54,1.12,1.01,2.2,1.26,3.11,1.01,3.87-.18,7.23-1.73,10.91-.36.83-.87,1.73-1.45,2.67-.76,1.34-1.59,2.71-1.91,3.97-.76,2.75-.4,5.74.98,8.27.51.9,1.55,1.88,2.56,2.82,1.01.94,2.06,1.88,2.53,2.78,1.55,2.96.72,6-.18,9.21-.79,2.85-1.63,5.82-.69,8.78,1.01,3.22,3.18,6.83,5.49,9.21,6.58,6.72,12.93,13.76,18.89,21.03,3,3.61,6.76,6.83,10.08,8.56,1.23.65,2.6,1.08,3.94,1.48,2.13.69,4.15,1.3,5.71,2.78.87.83,1.34,1.55,1.81,2.35.4.65.76,1.3,1.41,2.06,2.24,2.6,5.6,4.37,10.62,5.56,1.16.29,2.38.51,3.54.76,2.71.54,5.53,1.08,8.13,2.17.94.4,1.88,1.05,2.78,1.73,1.48,1.08,3,2.17,4.7,2.17h.18c1.91-.11,3.68-1.01,5.38-1.88l.11-.04c8.35-4.34,20.19-9.47,28.43-12.36l2.06.11c1.66.11,3.36.22,5.06-.14,2.49-.51,4.73-1.91,6.79-3.36,6.72-4.8,12.61-10.62,17.52-17.23,1.08-1.48,2.31-3.22,2.89-5.2.51-1.77.51-3.83.04-6.25-.87-4.23-2.71-8.06-4.48-11.74ZM11.44,71.35c.61-.4,1.26-.79,1.84-1.19.87-.61,1.66-1.16,2.6-1.3,1.59-.25,3,.58,4.48,1.48.54.33,1.08.65,1.66.94,2.82,1.37,6.25,1.3,8.96-.22.87-.47,1.52-1.01,1.91-1.63.87-1.26.87-2.85.76-4.26-.18-2.56-.76-5.09-1.63-7.48l-.22-.54c-.9-2.42-1.91-5.17-.54-7.23.69-.98,1.81-1.59,2.93-2.1,2.75-1.3,5.56-2.46,8.45-3.4,2.85-.94,6.47-1.84,9.28-.18,1.26.72,2.2,1.88,3,2.93,2.38,3.07,4.41,6.43,6.03,9.97.47,1.05.98,2.28.94,3.54-.07,2.64-2.35,4.62-4.52,6.29-.76.58-1.52,1.16-2.42,1.48-.33.11-.65.14-.98.22-.33.07-.69.14-1.01.22-2.93.9-4.01,4.3-4.41,6.25-.11.58-.22,1.16-.33,1.73-.33,1.99-.69,4.01-1.81,5.64-.76,1.05-1.77,1.88-2.78,2.6-2.78,1.99-8.16,5.06-13.04,3.03-1.01-.4-1.95-1.05-2.85-1.63-1.01-.65-2.06-1.34-3.22-1.77-1.34-.51-2.78-.61-4.23-.61-.58,0-1.12.04-1.66.04h-.07c-1.12.04-2.31.11-3.36-.29-.87-.33-1.59-.94-2.28-1.52l-4.12-3.5c-1.3-1.12-1.91-2.1-1.84-3.07.18-1.77,2.35-3.11,4.44-4.44ZM8.62,79.12l4.12,3.5c.69.58,1.48,1.26,2.42,1.63,1.12.43,2.35.36,3.54.33h.07c1.91-.07,3.94-.11,5.71.54,1.12.4,2.13,1.08,3.11,1.73.94.61,1.88,1.23,2.93,1.66,1.19.51,2.38.69,3.61.69,3.94,0,7.69-2.2,9.9-3.76,1.05-.76,2.13-1.59,2.89-2.71,1.19-1.7,1.52-3.79,1.88-5.82.11-.58.18-1.16.29-1.7.36-1.84,1.41-5.09,4.08-5.92.33-.11.61-.14.94-.22.33-.07.69-.14,1.05-.25.98-.33,1.81-.98,2.56-1.52,2.24-1.73,4.62-3.79,4.7-6.65.04-1.34-.51-2.6-1.01-3.72-1.63-3.58-3.65-6.97-6.07-10.08-.83-1.05-1.81-2.24-3.14-3.03-2.96-1.73-6.72-.83-9.65.14-2.89.98-5.74,2.13-8.49,3.43-1.16.54-2.35,1.19-3.11,2.24-1.52,2.24-.47,5.09.47,7.62l.22.54c.87,2.38,1.41,4.84,1.59,7.37.11,1.34.11,2.82-.69,3.97-.4.54-.94,1.05-1.77,1.48-2.6,1.41-5.89,1.48-8.56.22-.54-.25-1.08-.58-1.63-.9-1.52-.9-3.07-1.84-4.8-1.52-1.01.18-1.91.76-2.78,1.37-.58.4-1.19.79-1.84,1.19-2.2,1.37-4.48,2.82-4.59,4.7-.04,1.08.65,2.2,2.06,3.43ZM108.66,119.8c-1.81,5.64-4.8,10.73-8.78,16.62-2.2,3.29-4.44,6.39-7.62,8.38-4.8,3.03-10.33,2.64-15.72,2.24-5.6-.4-11.42-.79-16.29,2.75-1.16.83-2.42,2.02-3.79,3.25-2.35,2.17-5.02,4.62-7.41,5.53-.58.22-1.23.54-1.91.87-1.48.72-3.14,1.52-4.52,1.55-2.67.04-5.2-.33-7.69-.69-2.38-.36-4.8-.69-7.33-.69h-.4c-3.65.07-7.77.11-11.38-1.37-3.54-1.45-6.97-4.84-10.04-7.84-.79-.79-1.55-1.55-2.31-2.24-3.97-3.68-8.42-5.74-12.75-7.69-3.87-1.73-7.84-3.58-11.56-6.58-5.46-4.41-10.69-10.55-15.32-15.93l-1.12-1.34c-5.27-6.14-9.03-14.63-10.62-23.92-.22-1.37-.36-2.75-.47-4.12-.14-1.73-.29-3.5-.69-5.2-.61-2.71-1.95-5.38-3.29-7.98-2.17-4.44-4.26-8.6-2.96-12.97.87-2.82,2.82-5.02,4.7-7.15,1.37-1.55,2.82-3.18,3.83-5.02,1.95-3.58.33-6.9-1.37-10.4-1.05-2.13-2.1-4.34-2.31-6.61-.58-5.85,2.46-10.01,5.56-11.38.9-.4,1.95-.65,2.93-.9,1.63-.4,3.29-.79,4.59-1.91.87-.79,1.45-1.81,1.99-2.82.11-.22.22-.4.33-.61,2.49-4.41,6.54-8.2,11.45-10.66,3.36-1.7,7.3-2.89,12.39-3.79,2.82-.51,5.78-.79,8.35.25C-.33,2.46,1.51,4.77,3.28,6.97c1.84,2.31,3.76,4.66,6.5,5.71,3.14,1.19,6.54.36,9.79-.43,3.07-.76,6.21-1.52,9.18-.65,2.06.61,3.83,1.99,5.53,3.36,1.52,1.19,3.07,2.42,4.88,3.14,2.2.9,4.62.98,6.94,1.01.65,0,1.3.04,1.95.07,10.66.61,21.03,6.5,26.99,15.35,2.17,3.18,3.83,6.79,5.42,10.26,2.35,5.09,4.77,10.37,8.78,14.38,1.19,1.19,2.56,2.31,3.87,3.4,2.78,2.28,5.67,4.62,7.04,7.91,1.26,3,1.16,6.36,1.01,9.61-.11,2.64-.22,5.35.4,7.95.69,2.89,2.31,5.49,3.83,7.98,1.05,1.73,2.17,3.5,2.96,5.38,2.31,5.24,2.42,11.78.33,18.39ZM108.73,101.26c-.79-1.88-1.91-3.68-2.96-5.42-1.52-2.49-3.11-5.06-3.79-7.91-.61-2.53-.51-5.24-.4-7.84.14-3.29.25-6.68-1.05-9.75-1.45-3.36-4.34-5.74-7.15-8.06-1.3-1.08-2.67-2.17-3.87-3.36-3.97-3.97-6.36-9.21-8.71-14.27-1.63-3.5-3.29-7.12-5.46-10.33-6.03-8.92-16.47-14.88-27.24-15.5-.65-.04-1.34-.07-1.99-.07-2.31-.07-4.7-.14-6.83-1.01-1.77-.72-3.29-1.91-4.77-3.11-1.73-1.37-3.5-2.78-5.64-3.4-3.03-.9-6.25-.11-9.36.65-3.22.79-6.58,1.63-9.61.47-2.67-1.01-4.55-3.36-6.36-5.6C1.76,4.52-.08,2.2-2.76,1.08-5.39,0-8.43.29-11.28.79c-5.13.9-9.1,2.1-12.5,3.83-4.95,2.49-9.07,6.32-11.6,10.8-.11.18-.22.4-.33.61-.54.98-1.08,1.99-1.91,2.75-1.19,1.08-2.78,1.45-4.41,1.84-1.01.25-2.06.47-3,.9-3.25,1.41-6.43,5.67-5.82,11.71.25,2.35,1.3,4.55,2.35,6.72,1.66,3.43,3.25,6.68,1.37,10.12-.98,1.81-2.38,3.43-3.76,4.99-1.91,2.17-3.87,4.41-4.77,7.3-1.37,4.48.87,8.92,3.03,13.22,1.3,2.56,2.64,5.2,3.25,7.91.36,1.7.54,3.47.65,5.17.11,1.37.22,2.78.47,4.15,1.59,9.36,5.38,17.92,10.69,24.1l1.12,1.3c4.62,5.42,9.9,11.56,15.35,16,3.76,3.03,7.73,4.84,11.63,6.61,4.48,2.02,8.74,3.97,12.64,7.62.72.69,1.48,1.45,2.31,2.24,3.07,3.03,6.54,6.43,10.15,7.91,3.68,1.52,7.84,1.45,11.52,1.41,2.67-.04,5.2.33,7.69.69,2.38.36,4.8.69,7.33.69h.4c1.45-.04,3.14-.87,4.66-1.59.69-.33,1.3-.65,1.88-.87,2.42-.94,5.02-3.29,7.51-5.6,1.34-1.23,2.6-2.38,3.76-3.22,4.8-3.5,10.26-3.11,16.08-2.71,5.42.4,11.02.79,15.9-2.31,3.25-2.02,5.49-5.17,7.73-8.49,3.97-5.92,7.01-11.02,8.81-16.69,2.13-6.68,2.06-13.29-.22-18.64Z" fill="#faf2e9"/>
  </g>
</svg>