<?xml version="1.0" encoding="UTF-8"?>
<svg id="_Слой_1" data-name="Слой_1" xmlns="http://www.w3.org/2000/svg" version="1.1" viewBox="0 0 130.98 115.71">
  <!-- Generator: Adobe Illustrator 30.4.0, SVG Export Plug-In . SVG Version: 2.1.3 Build 103)  -->
  <path d="M130.78,70.99c.18-1.69.88-2.9,2.04-3.56.54-.31,1.2-.5,1.92-.57,4.93-.43,8.91-3.86,11.41-6.63,1.63-1.84,3.19-3.98,4.71-6.01,1.21-1.65,2.47-3.38,3.75-4.93.45-.55.94-1.12,1.58-1.43,1.31-.65,3.39.89,4.39,2.23.87,1.18,1.13,2.9.71,4.58-.5,1.97-1.04,3.38-1.64,4.34-2.7,4.42-5.74,8.66-9.07,12.63-1.31,1.57-2.93,2.59-4.51,3.59-2.21,1.41-4.07.94-6.43.33-.23-.06-.43-.09-.62-.17-.94-.23-1.96-.32-2.91-.39-1.01-.09-2.06-.16-3.02-.43-1.7-.46-2.5-1.78-2.29-3.58ZM136.04,75.41c.95.08,1.95.13,2.85.38.23.06.45.12.62.17,2.25.58,4.22,1.09,6.46-.2.11-.06.18-.1.29-.17,1.58-1,3.24-2.05,4.6-3.69,3.31-4.01,6.36-8.24,9.09-12.68.6-.97,1.15-2.43,1.67-4.46.46-1.8.2-3.66-.74-4.9-1.09-1.49-3.33-3.13-4.91-2.37-.71.36-1.23.95-1.72,1.51-1.27,1.54-2.54,3.27-3.78,4.95-1.51,2.06-3.08,4.16-4.68,5.99-2.42,2.73-6.31,6.06-11.13,6.52-2.5.23-4.03,1.83-4.33,4.49-.2,1.99.76,3.5,2.57,3.99,1.02.28,2.13.36,3.14.46ZM132.4,70.3c.12-1.22.71-1.94,1.5-2.4.76-.43,1.75-.62,2.72-.69,4.43-.38,7.99-3.47,10.21-5.95,1.45-1.65,2.73-3.43,4-5.16,1.04-1.46,2.12-2.99,3.29-4.38.44-.49.86-1.02,1.45-1.31,1.18-.63,2.9-.13,3.79,1.09.81,1.07,1.02,2.63.61,4.16-.3,1.23-.97,2.33-1.63,3.43-2.42,3.98-5.19,7.77-8.15,11.38-1.13,1.37-2.36,2.74-3.91,3.72-2.02,1.25-3.7.82-5.82.31-.17-.05-.4-.11-.57-.15-.85-.23-1.75-.29-2.65-.35-.9-.06-1.85-.14-2.76-.38-1.5-.44-2.29-1.66-2.09-3.31ZM137.19,74.22c.86.08,1.76.14,2.59.34.21.03.4.11.57.15,2.02.52,3.76.96,5.79-.2.07-.04.18-.1.25-.14,1.58-1,2.83-2.43,3.96-3.8,2.98-3.58,5.73-7.41,8.15-11.38.7-1.12,1.34-2.26,1.68-3.51.41-1.63.15-3.25-.68-4.36-.99-1.3-2.77-1.82-4.11-1.15-.63.32-1.09.86-1.53,1.35-1.17,1.39-2.26,2.92-3.33,4.4-1.26,1.73-2.52,3.55-3.96,5.14-2.19,2.45-5.69,5.47-10.03,5.84-1.91.18-4.15.7-4.44,3.31-.18,1.78.66,3.08,2.27,3.54.91.34,1.9.4,2.8.46ZM91.87,28.58c.55-.8,1.23-1.71,1.73-2.76.47-.94.9-1.86,1.65-2.48,1.28-1.02,3.02-1.01,4.68-.95.63.02,1.27.04,1.86-.01,3.08-.23,5.99-1.94,7.59-4.59.53-.83.8-1.61.84-2.3.03-.21.05-.41.06-.66.12-1.46.33-3.45-.37-4.49-.39-.59-.88-1.37-1.37-2.23-1.24-2.07-2.82-4.67-4.21-5.84-.55-.45-1.17-.87-1.75-1.3-1.82-1.26-3.67-2.55-3.52-4.55.08-1.2.78-2.32,1.51-3.31,1.74-2.48,3.62-4.9,5.63-7.16,2.02-2.26,4.76-4.84,8.04-4.8,1.46.03,2.9.54,4.08,1.02,3.62,1.47,7.03,3.4,10.2,5.67.97.69,2,1.49,2.61,2.63,1.29,2.33.28,5.26-.77,7.78-.36.88-.74,1.81-1.39,2.52-.25.24-.5.48-.74.71-.27.2-.52.44-.76.68-2.06,2.19-1.32,5.65-.67,7.53.18.57.4,1.11.6,1.63.7,1.9,1.43,3.83,1.22,5.82-.11,1.31-.6,2.55-1.15,3.68-1.43,3.12-4.59,8.48-9.9,9.17-1.07.14-2.21.07-3.32-.02-1.2-.08-2.43-.14-3.63.02-1.4.23-2.73.84-3.96,1.55-.47.27-.95.59-1.42.86l-.07.04c-.99.62-1.98,1.23-3.11,1.44-.92.15-1.88-.02-2.79-.18l-5.31-.99c-2.03-.37-3.07-.83-3.33-1.45-.22-.64.42-1.53,1.25-2.68ZM93.94,32.96l5.31.99c.9.15,1.92.34,2.88.17,1.18-.2,2.21-.83,3.2-1.45l.07-.04c1.62-1.02,3.37-2.07,5.27-2.35,1.18-.2,2.38-.12,3.58-.03,1.1.09,2.25.15,3.35,0,1.26-.15,2.39-.6,3.44-1.2,3.39-1.94,5.55-5.72,6.66-8.13.53-1.17,1.06-2.43,1.15-3.77.16-2.06-.55-4.05-1.25-5.95-.22-.55-.4-1.11-.6-1.63-.61-1.81-1.34-5.18.63-7.27.25-.24.46-.45.73-.66.27-.2.52-.44.78-.73.69-.73,1.08-1.72,1.46-2.56,1.07-2.58,2.09-5.56.78-8.02-.63-1.18-1.72-1.99-2.69-2.68-3.19-2.3-6.63-4.21-10.26-5.68-1.24-.49-2.67-1.06-4.2-1.05-3.41-.01-6.17,2.62-8.22,4.9-2.02,2.26-3.93,4.7-5.67,7.18-.74,1.05-1.44,2.17-1.52,3.46-.16,2.15,1.76,3.5,3.61,4.79.58.43,1.2.85,1.73,1.26,1.39,1.17,2.93,3.69,4.17,5.77.53.85.99,1.64,1.38,2.23.65.97.46,2.9.32,4.32,0,.24-.03.45-.06.66-.04.69-.35,1.4-.81,2.19-1.57,2.53-4.42,4.26-7.41,4.48-.59.05-1.23.03-1.86.01-1.73-.01-3.53-.04-4.88,1.02-.78.64-1.25,1.58-1.7,2.56-.46,1.03-1.1,1.93-1.69,2.74-.85,1.2-1.52,2.12-1.19,2.94.28.66,1.39,1.17,3.52,1.53ZM210.94,20.81c1.41,6.48,1.3,13.07.74,20.96-.31,4.4-.8,8.66-2.75,12.36-2.98,5.59-8.84,8.85-14.53,11.97-6,3.34-12.24,6.77-15.03,13.02-.71,1.61-1.17,3.31-1.6,4.99-.74,2.73-1.38,5.3-3.11,7.39-1.41,1.72-3.38,2.89-5.27,4.03l-15.35,9.12c-3.52,2.06-7.48,4.43-11.78,4.97-4.14.55-8.29-.58-12.32-1.67-1.17-.29-2.36-.61-3.54-.9-6.27-1.49-12.82-1.87-19.16-2.22-4.9-.26-9.97-.57-14.88-1.36-8.41-1.37-16.59-4.26-24.48-7.08-8.26-2.94-18.55-6.59-24.85-14.25-.96-1.18-1.86-2.49-2.73-3.76-1.1-1.58-2.23-3.23-3.55-4.68-1.97-2.18-4.44-3.98-6.81-5.78-4.51-3.36-8.76-6.59-9.93-11.72-.72-3.18-.08-6.43.58-9.54.47-2.28.93-4.66.91-7.04-.09-4.6-3.52-6.9-7.15-9.38-2.19-1.48-4.42-3.03-5.9-5.11-3.84-5.28-3.17-10.99-.96-13.98.68-.91,1.53-1.69,2.36-2.5,1.38-1.27,2.78-2.6,3.4-4.44.43-1.25.39-2.58.36-3.9,0-.24-.01-.52,0-.76-.04-5.68,1.84-11.6,5.21-16.7,2.32-3.49,5.46-6.87,9.94-10.53,1.23-1.04,2.55-2.08,3.92-2.87,1.34-.77,2.74-1.33,4.26-1.53,3.07-.42,6.12.81,9.04,1.97,3.09,1.2,6.25,2.46,9.5,1.94,3.73-.6,6.56-3.28,9.28-5.89,2.55-2.42,5.18-4.93,8.47-5.72,2.34-.52,4.8-.16,7.21.19,2.14.31,4.34.63,6.49.36,2.63-.35,5.05-1.65,7.37-2.88.61-.35,1.28-.69,1.96-1.02,10.68-5.3,23.96-5.38,34.66-.09,3.87,1.91,7.45,4.46,10.98,6.95,5.11,3.64,10.37,7.39,16.52,9.09,1.82.49,3.77.81,5.64,1.14,3.97.65,8.05,1.33,11.21,3.75,2.88,2.19,4.55,5.35,6.29,8.72,1.36,2.63,2.8,5.3,4.82,7.5,2.3,2.42,5.3,4.06,8.22,5.65,2,1.06,4.04,2.19,5.83,3.57,5.15,3.81,8.85,10.09,10.5,17.67ZM194.92-.89c-2.87-1.57-5.85-3.17-8.07-5.55-1.98-2.12-3.4-4.77-4.74-7.36-1.73-3.28-3.47-6.64-6.45-8.92-3.29-2.48-7.43-3.18-11.46-3.84-1.86-.32-3.76-.63-5.58-1.12-6.04-1.67-11.28-5.38-16.37-8.99-3.5-2.51-7.13-5.08-11.06-7-10.87-5.33-24.32-5.3-35.13.12-.67.34-1.34.67-1.96,1.02-2.28,1.21-4.63,2.46-7.17,2.81-2.09.29-4.25-.06-6.34-.35-2.43-.38-4.95-.76-7.39-.18-3.46.83-6.13,3.37-8.73,5.86-2.79,2.66-5.47,5.19-9.03,5.75-3.12.49-6.23-.75-9.24-1.9-3.01-1.15-6.12-2.39-9.3-2.01-3.16.42-5.96,2.41-8.47,4.47-4.49,3.72-7.67,7.12-10.04,10.69C14.99-12.22,13.11-6.2,13.12-.41c0,.24.01.52,0,.76.03,1.23.05,2.51-.37,3.71-.56,1.71-1.87,2.94-3.25,4.21-.83.81-1.72,1.61-2.41,2.58-2.32,3.15-3.05,9.08.94,14.62,1.52,2.15,3.81,3.72,6.05,5.21,3.53,2.39,6.84,4.66,6.92,8.98.04,2.33-.41,4.65-.9,6.89-.64,3.15-1.29,6.45-.57,9.72,1.23,5.34,5.77,8.73,10.15,12.03,2.36,1.77,4.79,3.59,6.74,5.73,1.29,1.42,2.43,3.07,3.52,4.65.87,1.27,1.77,2.58,2.75,3.8,6.42,7.78,16.73,11.47,25.08,14.41,7.89,2.82,16.09,5.74,24.54,7.09,4.93.82,10.01,1.07,14.93,1.37,6.3.37,12.83.71,19.04,2.19,1.17.29,2.36.61,3.54.9,4.09,1.11,8.29,2.25,12.53,1.7,3.57-.46,6.85-2.1,9.89-3.84.72-.41,1.41-.81,2.11-1.26l15.35-9.12c1.86-1.11,3.93-2.35,5.39-4.14,1.78-2.17,2.5-4.93,3.19-7.58.45-1.65.89-3.39,1.59-4.94,2.71-6.06,8.86-9.48,14.81-12.75,5.75-3.2,11.69-6.46,14.74-12.18,2-3.79,2.47-8.08,2.81-12.59.58-7.95.67-14.58-.73-21.11-1.66-7.68-5.42-14.06-10.6-18-1.9-1.31-4-2.46-6-3.52ZM178.35,25.52c-.05-.17-.02-.28-.06-.35.06-1.66.45-3.32,1.07-4.83.59-1.39,1.23-2.29,2.11-2.84.92-.57,2.34-.77,3.23.12.92.86.78,2.29.72,2.85-.31,1.81-1.39,3.43-2.33,4.88-.52.77-1.13,1.7-2.1,2.11-.51.2-1.05.26-1.59.15-.26-.04-.59-.19-.81-.49-.03-.22-.18-1.24-.24-1.59ZM181.1,27.64c.11-.06.22-.12.29-.17.83-.48,1.43-1.35,1.9-2.05.98-1.47,2.06-3.1,2.36-5,.23-1.28-.08-2.4-.79-3.05-.97-.93-2.54-.75-3.57-.12-.92.57-1.57,1.52-2.18,2.97-.64,1.56-1.03,3.23-1.1,4.95l.02.04s.01.19.06.35c.11.94.21,1.46.3,1.6.24.34.65.54.93.62.58.1,1.23.06,1.78-.16ZM177.43,39c-1-2.16-2.04-4.4-2.19-6.85-.07-.97-.03-1.9.04-2.85.06-.9.12-1.8.03-2.7-.06-1.02-.21-1.8-.53-2.52-.05-.17-.19-.32-.29-.51-.22-.3-.45-.7-.41-.96.1-.58,1.1-1.35,1.93-2.07.62-.5,1.21-.98,1.54-1.41.59-.82,1.1-1.68,1.57-2.53.42-.77.88-1.56,1.42-2.3.64-.89,1.24-1.52,1.89-1.9.32-.19.63-.32.99-.37,1.51-.29,2.96.65,4.29,1.62,1.65,1.21,3.45,2.68,3.62,4.64.12,1.13-.36,2.22-.75,3.21l-2.26,5.51c-.15.33-.28.69-.54.98-.54.65-1.37.79-2.26.91-.39.08-.79.12-1.16.23-1.52.44-2.75,1.81-3.05,3.38-.12.79-.06,1.57.02,2.38.03.46.07.97.1,1.43-.02,1.21-.35,2.41-.96,3.43-.21.31-.5.72-.94.87-1.04.36-1.79-1.04-2.09-1.63ZM179.61,40.96c.09,0,.2-.07.31-.13.36-.21.62-.59.81-.85.69-1.06,1.02-2.31,1.03-3.56,0-.49-.04-.99-.08-1.49-.06-.78-.16-1.54-.02-2.29.25-1.49,1.39-2.76,2.88-3.18.37-.11.75-.19,1.12-.21.89-.12,1.83-.33,2.4-.99.26-.29.41-.71.59-1.06l2.26-5.51c.43-1.01.89-2.14.78-3.32-.19-2.1-2.01-3.6-3.72-4.82-1.4-1.02-2.91-1.98-4.51-1.68-1.09.19-2.07.99-3.05,2.37-.54.74-.99,1.53-1.42,2.3-.47.85-.98,1.71-1.56,2.47-.29.41-.85.87-1.47,1.37-.91.76-1.91,1.52-2,2.2-.07.38.21.79.42,1.15.1.18.24.34.27.47.3.69.43,1.43.49,2.45.03.89,0,1.77-.05,2.67-.04.93-.1,1.93-.02,2.89.18,2.49,1.28,4.83,2.24,6.92.22.64,1.05,2.18,2.3,1.85ZM174.2,36.87c-.11-.37-.25-.77-.36-1.14-.97-3.04-2.14-6.5-2.35-9.63-.22-2.56,1.55-4.91,3.11-6.96.24-.33.45-.64.71-.93.64-.89,1.24-1.86,1.82-2.77,1.18-1.87,2.4-3.77,3.99-5.26.9-.85,2.32-1.81,3.75-1.57.73.11,1.47.55,2.05.98,2.09,1.39,4.05,3.05,5.74,4.91,1.07,1.21,2.3,2.76,2.38,4.58.05.93-.23,1.86-.5,2.73l-1.34,4.61c-.22.7-.42,1.44-.88,1.99-.56.7-1.47,1.03-2.4,1.42-.78.31-1.57.61-2.23,1.13-2.09,1.63-2.3,4.53-2.21,7.45.07,2.55-.07,5.32-1.96,6.54-1.15.75-2.79.74-4.23-.02-1.19-.66-2.26-1.77-3.14-3.38-.85-1.48-1.44-3.11-1.96-4.68ZM183.87,45.96c.07-.04.14-.08.22-.12,2.3-1.51,2.53-4.62,2.45-7.44-.07-2.64.06-5.26,1.83-6.61.57-.42,1.26-.72,1.98-.99,1.02-.39,2.08-.81,2.85-1.73.59-.72.82-1.57,1.04-2.37l1.34-4.61c.28-.93.58-2.01.53-3.09-.06-2.12-1.47-3.91-2.64-5.2-1.77-1.91-3.77-3.65-5.94-5.09-.7-.46-1.53-.99-2.47-1.13-1.84-.29-3.55.83-4.61,1.83-1.7,1.55-2.95,3.56-4.17,5.45-.58.91-1.16,1.82-1.8,2.71-.21.31-.47.6-.68.91-1.67,2.2-3.54,4.71-3.3,7.64.24,3.27,1.39,6.78,2.4,9.89.13.4.25.77.36,1.14.54,1.61,1.12,3.29,1.97,4.87.98,1.79,2.19,3.06,3.57,3.81,1.67.91,3.61.95,5.06.12ZM88.34,6.92c-.08.62-.24,1.09-.51,1.45-.42.53-1.13.79-1.62.93-1.12.31-2.27.39-3.42.47-1.15.08-2.37.21-3.49.51-.95.26-1.83.66-2.66,1.14-1.08.62-2.1,1.35-3.11,2.11-1.83,1.33-3.72,2.71-5.89,3.28-1.18.29-2.17.23-2.99-.11-.84-.38-1.6-1.29-1.47-2.32.16-1.15,1.26-1.82,2.32-2.48.14-.08.29-.17.41-.28,2.36-1.49,4.2-3.89,5.8-7.54.23-.52.43-1.25.63-1.99.43-1.59.94-3.46,2.01-3.93.49-.23,1.07-.14,1.8.22.4.2.79.46,1.18.72.49.35,1.01.67,1.56.88.96.41,2,.48,2.99.54.81.07,1.65.11,2.41.35,2.5.77,4.33,3.46,4.05,6.07ZM81.88.26c-.99-.06-2-.15-2.94-.52-.55-.21-1.04-.56-1.5-.87-.39-.26-.77-.52-1.2-.75-.75-.39-1.46-.46-2.02-.18-1.18.53-1.73,2.43-2.15,4.11-.2.74-.37,1.46-.63,1.99-1.55,3.57-3.38,5.91-5.7,7.39-.14.08-.29.17-.41.28-1.06.66-2.27,1.4-2.42,2.63-.16,1.15.72,2.18,1.62,2.57.84.38,1.93.43,3.14.12,2.22-.55,4.16-1.95,5.98-3.28,1.75-1.29,3.58-2.63,5.69-3.21,1.12-.31,2.31-.41,3.46-.49s2.34-.19,3.46-.49c.33-.09.7-.21,1.06-.41.25-.14.48-.33.68-.58.31-.37.49-.9.55-1.56.31-2.72-1.6-5.56-4.25-6.34-.72-.26-1.58-.34-2.39-.41ZM206.03,20.94c.51,2.15.31,4.47.1,6.46-1.1,9.31-3.66,18.4-7.54,26.95-1.34,2.93-2.63,5.2-4.59,6.89-1.4,1.23-3.09,2.06-4.78,2.88l-11.28,5.6c-.07.04-.18.1-.21.22-4.11,7.05-8.87,13.47-14.81,20.95-1.03,1.31-1.98,2.48-3.25,3.2-1.37.79-2.98,1.08-4.55,1.36l-20.56,3.53c-4.71.83-9.21,1.34-12.83-.71-1.35-.76-2.53-1.91-3.67-2.98-1.58-1.5-3.21-3.01-5.32-3.76-2.57-.88-5.24-.36-7.84.13-1.83.33-3.73.7-5.52.57-2.86-.23-5.35-1.64-8.02-3.13-1.35-.76-2.77-1.58-4.22-2.18-2.9-1.22-6.1-1.78-9.23-2.29-4.46-.75-8.68-1.5-12.1-4.05-.43-.33-.88-.7-1.27-1.05-.72-.59-1.47-1.22-2.3-1.75-.6-.38-1.25-.67-1.88-.94-.76-.33-1.49-.68-2.17-1.11-1.59-1.1-2.56-2.8-3.54-4.59-.5-.87-1.01-1.77-1.58-2.59-1.78-2.53-4.29-4.4-6.73-6.22-2.84-2.11-5.53-4.12-7.17-7.07-1.58-2.93-1.86-6.27-2.1-9.78-.22-2.9-.46-5.92-1.52-8.67-2.38-6.17-8.53-10.03-12.98-12.37-1.38-.74-2.88-1.51-3.46-2.86-.49-1.02-.39-2.27-.28-3.34.4-5.07,1.08-10.26,4.78-13.09.57-.42,1.26-.82,1.91-1.19,1.05-.6,2.09-1.2,2.96-2.12,1.91-2.1,2.14-4.97,2.32-7.75.04-.69.09-1.44.18-2.12.26-2.06,1.66-4.55,3.43-5.9.2-.16.41-.28.67-.43.61-.35,1.36-.64,2.22-.55,1.14,5.58.03,11.68-3.1,16.45-.72,1.08-1.56,2.14-2.32,3.15-1.72,2.18-3.5,4.45-4.24,7.17-1.22,4.49.67,9.21,2.21,12.4,1.12,2.38,2.77,5.42,5.3,7.66.98.88,2.09,1.63,3.11,2.34,1.44,1,2.96,1.99,4.12,3.35,1.42,1.63,2.3,3.67,3.13,5.64.13.31.28.66.41.96,1.56,3.56,3.43,7,5.63,10.25,2.18,3.21,4.19,5.56,6.42,7.45,1.07.87,2.22,1.7,3.35,2.49,1.2.85,2.48,1.74,3.58,2.74,1.08.96,2.11,2.01,3.1,3.07.83.87,1.7,1.8,2.61,2.63,4.78,4.41,11.26,7.02,17.79,7.12.63.02,1.34,0,1.96-.02,1.6-.05,3.28-.05,4.84.25,1.21.27,2.41.78,3.59,1.25.63.26,1.26.53,1.93.77,4.95,1.77,10.3,1.49,15.52,1.23,2.94-.15,5.91-.32,8.85-.13,1.01.09,2.08.2,3.06.31,2.25.25,4.61.52,6.93.3,1.54-.16,3.19-.63,4.67-1.48s2.75-2.06,3.42-3.73c.67,0,1.36-.06,2-.19,1.55,1.7,5.11,1.05,6.85.49.57-.18,1.06-.41,1.56-.7,1.44-.83,2.7-1.98,3.73-2.95,2.9-2.72,5.5-5.21,7.53-8.2,1.63-2.42,3.58-6.22,3.4-10.48-.08-1.73-.47-3.42-.85-5.08-.54-2.28-1.08-4.65-.71-7.02.16-1.05.52-2.02.85-3.03.27-.78.56-1.62.76-2.45.76-3.45,0-7.05-.76-10.54-.9-4.09-1.76-8.01-.25-11.65.47-.85.97-1.66,1.46-2.47.12-.21.29-.41.41-.62-.95,3.28-1.31,7.75-.78,10.61.35,1.96.89,3.9,1.39,5.77.38,1.41.76,2.83,1.1,4.26.4,1.79.67,3.69-.07,5.32-.4.81-1.05,1.51-1.63,2.18-.06-.02-.09,0-.17.05s-.07.13-.06.23c-.61.69-1.19,1.35-1.55,2.23-.75,1.87-.15,3.92.38,5.78v.09c1.14,3.91,1.93,7.96,2.38,12.02.22,1.89.42,4.08-.33,6.04-.7,1.88-2.15,3.44-3.42,4.74-2.81,2.81-5.92,5.4-9.18,7.66-1.54,1.08-3.15,2.04-4.89,1.84-.83-.1-1.65-.45-2.43-.81-.78-.37-1.57-.73-2.43-.81-2.18-.29-4.02,1.1-5.77,2.4-.72.51-1.41,1.05-2.14,1.46-2.94,1.73-6.64,1.88-10.09,1.89-2.96.02-5.99-.07-8.94-.2-.04-.07-.12-.12-.16-.2-.18-.23-.48-.25-.71-.07-.07.04-.1.15-.15.23-.39-.02-.78-.03-1.18-.05-2.88-.17-5.43-.1-8.17-.02-1.69.06-3.48.12-5.33.08-2.16,0-4.44-.14-5.86-1.53-.39-.35-.72-.84-1.02-1.28-.37-.56-.79-1.13-1.34-1.58-1.62-1.23-3.78-.9-5.86-.43-2.72.6-5.38,1.07-7.9.35-1.99-.54-3.7-1.77-5.35-2.98l-13.06-9.4c-2.6-1.87-5.28-3.78-7.68-5.96-4.48-4.05-8.16-9.14-10.65-14.66-.38-.84-.73-1.69-1.08-2.55-1.39-3.43-2.87-6.94-5.69-9.35-7.55-6.32-12.16-12.94-13.71-19.67-.49-2.02-.94-5.84,1.15-8.62.71-.93,1.62-1.69,2.51-2.4.55-.46,1.16-.9,1.67-1.44,2.81-2.71,3.97-6.64,4.63-9.75.08-.28.13-.6.19-.92.44-2.08.9-4.21,2.08-5.99.05-.08.01-.15-.05-.17-.08-.05-.15-.01-.17.05-1.22,1.8-1.66,3.97-2.14,6.07-.08.28-.13.6-.19.92-.68,3.08-1.79,6.92-4.56,9.61-.53.5-1.08.96-1.67,1.44-.93.72-1.84,1.48-2.58,2.44-2.15,2.86-1.69,6.77-1.18,8.83,1.58,6.77,6.22,13.46,13.83,19.8,2.78,2.34,4.21,5.84,5.63,9.24.35.86.69,1.71,1.08,2.55,2.48,5.58,6.16,10.67,10.71,14.77,2.42,2.21,5.1,4.13,7.7,6l13.06,9.4c1.58,1.16,3.4,2.42,5.46,3.01,2.56.69,5.27.24,8.03-.38,2.04-.45,4.17-.76,5.65.41.53.42.91.92,1.3,1.51.3.45.63.93,1.04,1.32,1.52,1.48,3.84,1.59,6.06,1.61,1.83,0,3.61-.06,5.33-.08,2.74-.08,5.28-.15,8.11,0,.39.02.78.03,1.18.05,0,.09.05.17.09.24,2.97,3.76,6.27,7.44,10.83,7.94,1.54.17,3.03-.06,4.46-.25l7.41-1.13c5.21-.78,10.84-1.84,15.28-4.39,2.35-1.34,4.37-3.08,5.84-5.46.75-1.2,1.31-2.48,1.88-3.76.74-1.72,1.49-3.35,2.62-4.71,1.27-1.54,3.05-2.71,4.76-3.83,2.41-1.57,4.87-3.22,6.09-5.94.7-1.55.86-3.27,1.06-4.92.28-2.36.51-4.56,2.06-6.03,1.51-1.39,3.58-1.62,5.86-1.82.69-.06,1.35-.15,2.02-.24,3.09-.47,6.83-2.23,8.03-5.75.33-1.01.43-2.02.52-3.03.03-.45.1-.92.13-1.37.34-2.26,1.26-4.41,2.17-6.52.91-2.1,1.83-4.26,2.18-6.57.77-4.85-.99-10.27-4.87-14.86-3.46-4.11-7.89-7.08-12.23-9.97-2.4-1.6-4.84-3.27-6.77-5.38-1.79-2.04-3.13-4.54-4.42-6.96-1.81-3.42-3.71-6.98-6.97-9.24-.23-.15-.55-.12-.7.11-.66-1.16-1.61-2.15-2.67-2.74-1.08-.63-2.2-.75-3.29-.47-1.12-1.61-2.49-3.08-4.08-4.28-2.32-1.79-5-3.04-7.59-4.29l-19.07-9.02c-4.02-1.92-8.19-3.84-12.59-5.07,3.25.82,6.6,1.98,10.2,3.41,12.01,4.73,23.71,10.5,34.76,17.16,3.9,2.37,7.98,4.97,10.98,8.62,1.34,1.58,2.45,3.44,3.56,5.2,1.02,1.62,2.05,3.33,3.26,4.85,3.19,4.07,7.56,7.08,11.75,9.96,3.82,2.65,7.8,5.41,10.83,8.95,1.58,1.92,2.66,3.8,3.14,5.73ZM165.78,94.43l-.09.1c-1.16,1.82-2.37,3.66-4.15,4.82-1.58,1-3.72.79-5.79.53-1.33-.15-2.66-.3-3.87-.14-3.26.43-6.4,1.46-9.46,2.49-1.28.45-2.62.87-3.92,1.28-5.57,1.66-9.89,1.83-13.5.54-1.03-.37-1.8-.79-2.51-1.2-.95-.56-1.85-1.05-3.28-1.38-2.49-.59-5.05-.03-7.52.52-1.53.35-3.15.7-4.71.73-4.26.18-9.76-.88-14.77-2.76-10.11-3.85-20.56-7.26-30.94-10.24-3.6-1.01-7.72-3.35-10.55-5.95-2.54-2.34-3.36-5.7-4.19-8.91-.95-3.67-1.88-7.46-5.31-9.62-1.04-.65-2.71-1.04-4.29-1.38-1.49-.34-3.08-.68-4.02-1.25-2.7-1.62-4.68-4.32-5.47-7.37-.38-1.41-.35-3.2-.33-4.94.02-1.31,0-2.5-.13-3.57-.56-4.67-1.3-8.8-4.68-12.19-.79-.79-1.94-1.62-3.12-2.43-1.36-.95-2.68-1.92-3.52-2.88-4.57-5.39-5.31-11.87-3.98-15.66.85-2.45,2.6-4.51,4.24-6.5,1.99-2.39,4.03-4.85,4.62-7.92.3-1.56.52-4.71.66-7.47.12-1.89.2-3.66.35-4.75.52-4.37,3.03-8.45,6.65-10.91,3.18-2.16,9.36-2,14.13-.95-.23.18-.48.33-.72.51-.12.12-.27.2-.39.32-4.27-1.01-8.95-.15-12.58,2.31-3.73,2.52-6.27,6.71-6.82,11.2-.14,1.18-.16,2.39-.17,3.55,0,1.49-.02,2.98-.31,4.49-.59,3.07-2.37,5.82-4.09,8.43-1.37,2.13-2.81,4.3-3.65,6.69-1.81,5.21-.67,11.31,2.96,15.47.94,1.05,1.99,1.97,3,2.89.76.67,1.53,1.33,2.22,2.04,3.3,3.34,5.43,7.73,5.97,12.36.11.94.16,1.87.21,2.8.09,1.58.18,3.25.61,4.83.79,3.14,2.87,5.93,5.65,7.6.97.6,2.06,1.08,3.07,1.5,1.09.48,2.22.94,3.22,1.61,3.36,2.1,4.69,5.85,6.09,9.8,1.2,3.34,2.42,6.82,5.01,9.17,2.79,2.62,6.6,3.65,10.28,4.71l.11.03c10.42,2.95,20.83,6.39,30.92,10.2l.42.14c4.34,1.64,8.82,3.34,13.45,3.14,1.51-.05,3.04-.3,4.52-.57,2.53-.44,5.15-.89,7.68-.32,1.44.33,2.78,1,4.06,1.65.94.47,1.94.95,2.94,1.29,3.67,1.3,8.04,1.15,13.71-.51,1.32-.37,2.64-.84,3.97-1.27,3.02-1.01,6.15-2.08,9.37-2.49.7-.11,1.44-.16,2.17-.23,2.32-.22,4.69-.43,6.68-1.57.11-.06.22-.12.36-.21,1.85-1.2,3.07-3.1,4.27-4.94l.05-.08c5.6-8.72,12.91-17.32,19.46-24.81-6.35,7.76-14.66,18.95-20.25,27.61ZM29.19-6.1c-.27-.8-.54-1.61-.71-2.42-1.1-4.93,1.87-10.47,6.61-12.32,1.33-.52,2.73-.75,4.14-.98-1.26,1.73-2.02,3.75-2.19,5.81-1.06-.01-2.21.4-3.23,1.23-2,1.53-3.56,4.25-3.84,6.61-.07.71-.12,1.46-.19,2.17-.05.41-.05.84-.1,1.25-.16-.44-.33-.91-.49-1.35ZM27.01-9.32c-.79-3.14-.44-6.13.94-8.4,1.25-2.01,3.17-3.35,5.6-3.88,1.27-.3,4.46-.92,6.51-1.28-.14.18-.3.32-.44.49-1.59.24-3.24.46-4.77,1.05-4.98,1.94-8.04,7.72-6.89,12.91.2.85.49,1.69.76,2.49.31.88.62,1.75.77,2.68-.12.79-.27,1.54-.52,2.27-.53-2.52-1.57-6.92-1.94-8.33ZM22.15,25.4c4.27,2.26,10.21,5.95,12.47,11.8,1.02,2.63,1.21,5.54,1.44,8.38.27,3.49.51,7.09,2.25,10.22,1.71,3.15,4.62,5.31,7.44,7.39,2.36,1.77,4.82,3.57,6.49,5.97.55.79,1.04,1.66,1.52,2.49,1.03,1.81,2.07,3.7,3.88,4.93.72.5,1.54.85,2.32,1.21.63.26,1.22.55,1.78.85.79.46,1.46,1.04,2.14,1.65.45.37.86.75,1.35,1.1,3.62,2.72,8.14,3.49,12.56,4.27,3.03.52,6.17,1.07,9,2.23,1.39.59,2.8,1.37,4.15,2.13,2.62,1.47,5.37,3.01,8.44,3.27,1.95.13,3.9-.22,5.8-.59,2.54-.5,5.02-.95,7.3-.15,1.9.64,3.38,2.05,4.95,3.54,1.18,1.14,2.42,2.3,3.9,3.13,3.91,2.22,8.63,1.67,13.52.84l20.53-3.51c1.57-.28,3.32-.56,4.8-1.41.04-.02.07-.04.11-.06,1.39-.84,2.42-2.06,3.53-3.46,5.9-7.45,10.66-13.87,14.81-20.95l7.25-3.58c-6.51,7.47-13.71,16-19.26,24.65l-.05.08c-1.16,1.82-2.38,3.71-4.18,4.84-2.03,1.31-4.5,1.52-6.91,1.75-.72.08-1.47.12-2.17.23-3.22.41-6.38,1.5-9.4,2.51-1.28.45-2.62.87-3.92,1.28-5.61,1.68-9.92,1.85-13.56.52-1.01-.33-1.97-.84-2.91-1.31-1.32-.63-2.69-1.34-4.12-1.67-2.55-.6-5.21-.13-7.79.29-1.48.27-3.01.52-4.52.57-4.59.18-9.05-1.48-13.36-3.14l-.42-.14c-10.11-3.85-20.52-7.28-30.94-10.24l-.11-.03c-3.66-1.02-7.42-2.08-10.18-4.63-2.54-2.34-3.74-5.77-4.91-9.08-1.37-3.82-2.77-7.77-6.17-9.94-1.04-.65-2.19-1.14-3.28-1.62-1.01-.43-2.1-.91-3.07-1.5-2.72-1.65-4.72-4.39-5.53-7.48-.4-1.54-.48-3.18-.57-4.76-.05-.93-.13-1.89-.23-2.84-.58-4.7-2.73-9.13-6.06-12.5-.71-.74-1.48-1.41-2.24-2.07-1.04-.89-2.1-1.82-3-2.89-3.59-4.08-4.73-10.1-2.93-15.25.83-2.4,2.24-4.54,3.61-6.67,1.73-2.67,3.5-5.36,4.12-8.55.29-1.51.28-3.04.34-4.51,0-1.16.03-2.37.17-3.55.55-4.39,3.04-8.5,6.68-11.02,3.52-2.4,8.02-3.25,12.19-2.33-.12.12-.21.22-.36.3-1.98.32-5.81,1.07-7.25,1.42-2.6.58-4.6,2.01-5.94,4.12-1.5,2.4-1.83,5.51-1.01,8.78.39,1.6,1.65,6.82,2.09,9.01-.25.48-.53.92-.91,1.34-.74.81-1.68,1.34-2.69,1.92-.69.39-1.37.79-2,1.29-4.07,3.1-4.8,8.79-5.16,13.84-.1,1.16-.19,2.6.39,3.86.54,1.7,2.25,2.59,3.73,3.42ZM166.12,18.57c-.67,3.26.08,6.67.82,9.98.77,3.44,1.51,7,.75,10.36-.2.83-.47,1.61-.74,2.39-.33,1.01-.71,2.03-.87,3.09-.38,2.43.18,4.84.7,7.17.37,1.66.77,3.35.86,5.02.14,4.19-1.72,7.89-3.33,10.25-1.99,2.96-4.56,5.44-7.48,8.12-1.47,1.37-3.1,2.88-5.15,3.57-1.81.61-4.82,1.04-6.26-.21.65-.13,1.27-.3,1.89-.55.47-.18.91-.42,1.34-.67,2.17-1.24,3.87-3.13,5.34-4.83,6.47-7.54,9.44-14.08,9.32-20.49-.04-1.99-.4-4.04-.76-5.94-.16-.87-.34-1.77-.47-2.66-1.16-8.3.27-17.03,4.03-24.61ZM51.17-25.98c1.24.25,2.43.72,3.64,1.17,1.41.54,2.84,1.11,4.36,1.34,4.51.68,9.32-1.98,11.15-6.15.12-.21.18-.44.28-.69.28-.69.54-1.32.98-1.81.53-.59,1.33-.95,2.09-1.29,2.44-1.11,5.17-2.1,7.15-.74.25.19.51.38.72.59.32.3.67.58,1.03.8,1.87,1.09,4.23.36,5.77-.81,1.04-.79,1.87-1.84,2.63-2.85.37-.45.77-.92,1.13-1.37,3.82-4.3,10.04-6.66,17.04-6.5.73.01,1.48.07,2.19.14-2.99-.2-6.39.06-9.61,1.38-6.79,2.79-11.05,9.25-14.55,16.29-2.36-.95-5.34-.54-8.25,1.08-1.41.81-2.71,1.79-3.98,2.76-.93.72-1.93,1.49-2.92,2.1-3.69,2.35-8.11,3.59-12.52,3.43-.73-.01-1.44-.09-2.19-.14-1.57-.15-3.22-.27-4.83-.06-.5.05-1.32.47-1.39.51-.04.02-.07.04-.14.08-1.27,1.21-2.01,2.01-2.08,2.39-.34,1.25-.02,2.22.24,3.17.23.83.48,1.59.26,2.54-.67,2.93-2.46,5.34-4.42,7.85-1.01,1.34-2.08,2.73-2.93,4.17-4.46,7.54-3.3,18.1,2.67,24.51.4.44.85.9,1.27,1.29.91.92,1.81,1.74,2.51,2.78.87,1.27,1.37,2.72,1.88,4.29.53,1.52,1.03,3.05,1.97,4.44.55.88,1.27,1.62,1.92,2.35.4.44.77.85,1.14,1.32.72.93,1.37,1.9,1.99,2.89.88,1.37,1.8,2.81,2.97,4.01,2.08,2.12,5.53,3.45,8.16,1.94.04-.02.07-.04.11-.06t.07-.04c.8.55,1.68,1,2.54,1.42l.02.04c.5.2.98.45,1.44.66,2.78,3.01,5.22,6.36,7.27,9.93l.23.4c.72,1.26,1.45,2.53,2.55,3.53,3.25,2.84,8.19,1.74,10.84.84.84-.29,1.66-.62,2.47-.88,2.65-.99,5.38-2.07,8.2-1.92,1.38.07,2.73.41,4.07.74.43.09.85.23,1.29.32,6.82,1.61,13.22.39,17.1-3.22.81-.75,1.53-1.6,2.25-2.44,1.26-1.49,2.44-2.93,4.15-3.81,1.59-.82,3.47-.98,5.25-1.14,1.54-.16,3.13-.31,4.59-.86.51-.2,1.04-.45,1.51-.72.97-.56,1.79-1.22,2.47-1.8,8.74-7.35,13.09-19.34,11.08-30.56.9-2.96,2.82-5.55,4.73-8.08,2.18-2.97,4.47-6.01,5.1-9.68.43-2.35.12-4.82-.16-7.15-.18-1.48-.4-3.03-.41-4.56,0-1.1.1-2.17.23-3.2.1-.92.16-1.82.2-2.75,1.96,5.01,3.36,10.73,3.75,15.17.13,1.65.19,3.44-.25,5.08-.46,1.7-1.51,3.22-2.53,4.71-.21.31-.41.62-.62.93-5.6,8.48-7.98,19.15-6.48,29.22.12.89.31,1.79.47,2.66.33,1.92.71,3.91.72,5.87.15,6.29-2.81,12.68-9.17,20.16-1.73,2-3.78,4.28-6.52,5.36-4.17,1.67-8.74.31-13.2-1.02-.91-.25-1.86-.57-2.77-.81-6.7-1.82-13.78-2.04-20.56-.65-.74.13-1.49.33-2.21.5-4.42,1-9,2.04-12.77-.12-.58-.34-1.11-.76-1.65-1.12-.93-.71-1.91-1.4-3.06-1.75-1.61-.47-3.25-.15-4.86.14-1.25.24-2.51.48-3.73.36-2.76-.29-5-2.36-7.16-4.63l-21.99-22.99c-1.19-1.24-2.57-2.65-3.21-4.35-.41-1.06-.58-2.26-.69-3.39-.2-1.61-.41-3.31-1.38-4.67-.87-1.27-2.24-2.07-3.57-2.8-.42-.24-.87-.51-1.31-.78-4.72-3.05-7.55-8.91-7.15-14.99.32-5.55,3.22-11.05,7.91-15.08.16-.14.36-.3.52-.44,1.39-1.18,2.85-2.4,3.27-4.17.4-1.57-.16-3.12-.67-4.6-.42-1.24-.87-2.52-.77-3.78.08-1.29.68-2.41,1.72-3.28,1.83-1.58,5.01-2.39,8.12-2.15.81.07,1.63.17,2.46.27,3.64.41,7.41.89,10.37-1.15,1.04-.69,1.85-1.63,2.61-2.55.4-.47.8-.94,1.23-1.37,3.77-3.79,9.82-4.95,14.76-2.94.13.07.28-.02.35-.15.07-.13-.02-.28-.15-.35-5.1-2.12-11.44-.88-15.32,3.06-.46.45-.86.92-1.26,1.39-.79.88-1.56,1.8-2.53,2.45-2.82,1.95-6.48,1.5-10.02,1.09-.83-.1-1.65-.2-2.46-.27-3.24-.3-6.6.62-8.5,2.23-1.16,1-1.79,2.23-1.92,3.69-.09,1.35.37,2.66.84,3.98.51,1.48.98,2.89.65,4.32-.38,1.61-1.76,2.78-3.1,3.88-.16.14-.36.3-.52.44-4.78,4.13-7.74,9.76-8.07,15.46-.39,6.27,2.54,12.31,7.42,15.46.44.27.89.55,1.31.78,1.27.71,2.58,1.49,3.39,2.66.87,1.27,1.09,2.83,1.29,4.44.14,1.17.32,2.4.76,3.5.7,1.81,2.1,3.25,3.35,4.51l22.11,22.87c2.26,2.35,4.54,4.5,7.5,4.81,1.31.11,2.62-.11,3.88-.35,1.6-.3,3.15-.61,4.61-.15,1.04.31,1.96.99,2.89,1.7.53.42,1.09.81,1.69,1.19,3.95,2.29,8.6,1.21,13.15.19.75-.19,1.49-.33,2.21-.5,6.69-1.38,13.73-1.15,20.32.64.91.25,1.84.53,2.75.78,2.84.86,5.78,1.72,8.62,1.82-1.34,3.02-4.76,4.41-7.56,4.71-2.26.24-4.57-.02-6.82-.27-1.01-.09-2.04-.22-3.09-.29-2.96-.22-5.97-.04-8.9.11-5.13.25-10.43.55-15.31-1.2-.65-.21-1.3-.5-1.91-.73-1.18-.47-2.39-.98-3.65-1.27-1.64-.35-3.33-.3-4.96-.28-.61.02-1.29.02-1.96.02-6.38-.09-12.77-2.62-17.47-6.97-.9-.82-1.76-1.73-2.59-2.59-.99-1.06-2.04-2.14-3.12-3.1-1.16-1.02-2.42-1.88-3.64-2.76-1.11-.76-2.25-1.59-3.29-2.48-2.15-1.84-4.15-4.15-6.3-7.32s-4.03-6.61-5.57-10.14c-.13-.31-.26-.62-.41-.96-.86-2-1.76-4.08-3.22-5.78-1.18-1.39-2.73-2.42-4.22-3.43-1.03-.71-2.13-1.46-3.09-2.3-2.43-2.16-4.06-5.16-5.16-7.5-1.48-3.09-3.33-7.73-2.15-12.05.71-2.61,2.45-4.85,4.13-7.02.8-1.03,1.63-2.09,2.36-3.17,3.15-4.88,4.33-11.11,3.17-16.82l.04-.02c.12-.12.19-.25.16-.38.07-3.06,1.6-6,4.26-8.14,2.71-2.22,5.94-3.11,8.92-2.52ZM78.46-10.92c-.33-.15-.61-.32-.96-.5-1.27-.71-2.6-1.44-4.16-1.31-1.06.08-1.96.6-2.57.95-3.62,2.22-5.83,5.98-7.98,9.6-2.31,3.91-4.55,7.64-8.3,9.55-.63.32-1.35.58-2.04.88-1.19.44-2.39.94-3.45,1.69-1.99,1.47-3.13,3.9-3.03,6.34s1.48,4.76,3.6,6.04c1.52.9,3.24,1.22,4.95,1.53.98.21,2.03.37,2.96.65,2.6.86,4.86,2.88,6.2,5.56,1.34,2.68,1.61,5.74.69,8.33-.1.25.03.56.32.63-.08.28-.14.51-.22.8-.77,3.27-.61,7.64,1.79,10.91-2.58.28-5.03-2.01-5.92-4.47-.71-1.99-.77-4.11-.84-6.23-.03-.8-.05-1.6-.12-2.38-.18-2.58-.96-6.02-3.57-7.74-1.16-.77-2.6-1.1-3.95-1.38-1.21-.27-2.47-.55-3.59-1.16-1.4-.78-2.58-2.17-3.55-4.2-3.98-8.13-1.05-18.91,6.46-23.55,1.24-.76,2.61-1.4,3.93-2.01,2.47-1.13,5.01-2.3,6.8-4.37.63-.74,1.12-1.55,1.62-2.37.34-.58.7-1.12,1.1-1.68,1.16-1.58,2.61-2.89,4.09-4.16.96-.84,2.04-1.79,3.31-2.09,1.4-.32,2.86.14,4.23.6.45.12.93.28,1.38.41,1.57.4,4.56-1.41,6.14-3.09-.39.99-.67,2.01-.89,3.05-.3,1.66-.32,3.3-.1,4.85-.09,0-.2.07-.25.14-.85,1.2-2.69.92-4.11.19ZM83.38-7.51c-2.64,1.08-5.84.52-7.98-1.38-.1-.09-.22-.21-.32-.3-.71-.65-1.51-1.39-2.51-1.29-1.09.1-1.78,1.07-2.26,1.92-.92,1.58-1.75,3.3-2.53,4.95-1.32,2.72-2.63,5.54-4.51,7.95-2.8,3.57-6.73,6.16-11.11,7.32-1.34.34-3.38.88-3.68,2.54-.22,1.13.59,2.2,1.42,2.73.89.55,1.88.7,2.88.84l.06.02c1.9.3,4.14.7,6.13,1.57,5.16,2.32,8.54,8.3,7.8,13.95,0,.09.05.17.09.24-.32.61-.62,1.27-.88,1.89.04-1.94-.41-3.98-1.34-5.85-1.45-2.96-3.96-5.16-6.81-6.12-1.01-.33-2.08-.53-3.1-.72-1.66-.3-3.22-.6-4.59-1.4-1.78-1.09-3.03-3.11-3.13-5.21s.94-4.23,2.62-5.48c.95-.69,2.04-1.12,3.19-1.54.71-.26,1.42-.53,2.13-.88,4.06-2.04,6.46-6.05,8.74-9.94,2.09-3.55,4.24-7.17,7.62-9.21.81-.51,1.49-.75,2.12-.83,1.22-.13,2.36.52,3.55,1.18.35.19.64.36.96.5,1.53.75,3.7,1.19,5.05.03.18.9.4,1.79.67,2.59-.04-.07-.15-.1-.28-.08ZM94.47,14.29s-.02-.04,0,0c-.19.01-.34,0-.46.03-.99.04-1.97.17-3,.37-5.41.27-11.29,3.3-16.53,8.56-1.75,1.72-3.34,3.64-4.73,5.64-.82-6.53-6.48-12.16-13.1-12.74-.45-.03-.93-.04-1.38-.07-1.66-.06-3.34-.15-4.61-1.1,1.27-.54,2.62-.78,3.95-1.06,1.12-.21,2.25-.43,3.33-.8,3.44-1.2,6.58-4.01,8.81-7.97,1.92-3.35,3.01-7.14,4.12-10.8l.12-.45c.13-.36.27-.78.57-.85s.6.13.9.4c.39.35.79.7,1.2,1.09,1.42,1.3,2.87,2.67,4.65,3.43,2.33.97,5.58.45,6.64-1.88.03-.11.03-.21-.11-.27-.13-.07-.21-.03-.24.09-1,2.11-3.96,2.55-6.13,1.69-1.76-.72-3.13-2.04-4.55-3.34-.39-.35-.81-.74-1.2-1.09-.32-.3-.78-.61-1.24-.49-.5.14-.69.64-.85,1.11l-.12.45c-1.08,3.64-2.19,7.39-4.07,10.72-2.21,3.85-5.22,6.63-8.6,7.76-1.04.36-2.17.57-3.27.82-1.46.31-2.97.6-4.33,1.23-.07.04-.09.1-.1.15-.02.06.03.13.05.17,1.37,1.23,3.28,1.29,5.11,1.39.45.03.93.04,1.38.07,6.56.56,12.23,6.28,12.77,12.83-.76,1.11-1.42,2.21-2.03,3.32.37-5.63-3.03-11.4-8.17-13.69-2.07-.93-4.31-1.32-6.26-1.64l-.06-.02c-.94-.13-1.9-.3-2.69-.76-.68-.43-1.36-1.28-1.2-2.19.25-1.24,1.69-1.74,3.33-2.15,4.5-1.19,8.54-3.84,11.37-7.52,1.91-2.44,3.26-5.27,4.56-8.03.78-1.65,1.58-3.35,2.5-4.93.44-.73,1.01-1.59,1.86-1.69.78-.06,1.47.55,2.15,1.16.1.09.22.21.32.3,2.26,2.02,5.7,2.59,8.51,1.46.11-.06.2-.16.13-.27.56,1.65,1.28,3.15,1.98,4.38,1.97,3.52,4.66,6.63,7.26,9.65l.92,1.1c1.62,1.9,2.84,4.46,1.41,5.9-.25.24-.54.4-.85.53ZM73.56,35.38c-.19,2.27-.23,4.45.91,6.19.8,1.22,2.09,1.97,3.24,2.65,4.44,2.64,9.43,5.67,15.01,6.03,2.43.14,4.4-.27,5.93-1.29,1.45-.98,2.45-2.41,3.42-3.83,1.05-1.51,1.99-2.96,3.51-3.83,2.18-1.3,4.73-1.03,7.42-.7,1.72.16,3.49.4,5.21.13,1.46-.21,2.85-.72,4.11-1.44,2.56-1.47,4.74-3.77,6.62-5.95,2.57-2.96,5.1-5.99,7.46-9.07.45-.55,1.06-1.33,1.1-2.26.07-.71-.23-1.4-.49-2.02l-.08-.14c-1.13-2.81-1.58-6.86.89-9,.78-.64,1.78-1.07,2.77-1.44.31-.13.62-.26.93-.39,5.15-2.23,8.94-7.33,9.67-13.02.69-5.57-1.57-11.37-5.91-15.17-2.67-2.31-5.95-3.78-9.13-5.22-4.15-1.89-8.09-3.66-10.76-7.07-.2-.27-.42-.57-.63-.84-.63-.84-1.21-1.7-2.11-2.34-1.24-.92-2.82-1.16-4.2-1.38-3.07-.5-6.51-1.07-9.83-.41-3.35.67-8.55,2.65-14.95,12.59-1.42,2.21-3.03,4.85-3.63,7.73-.8,3.72-.01,8.02,2.3,12.73,1.43,2.92,3.25,5.67,5.38,8.14.16.2.32.39.5.53-1.08-.63-2.07-1.26-2.57-1.89-2.36-2.77-3.64-4.68-5.11-7.67-2.08-4.23-2.57-7.93-1.65-12.43.59-2.83,3.58-8.24,5.29-10.94,4.08-6.36,9.04-9.92,15.51-11.18,2.38-.45,6.46-.2,8.79.53,2.89.94,6.8,3.49,9.1,5,1.84,1.2,2.73,2.42,3.58,3.66,1.13,1.56,2.2,3.01,5.04,4.02,1.08.39,2.18.72,3.28,1.04,3.36,1,6.51,1.98,9.19,4.33,4.57,3.95,6.93,10.08,6.23,15.9-.73,5.93-4.62,11.28-10.01,13.59-.35.15-.66.28-1.02.39-1.09.43-2.19.87-3.1,1.63-2.86,2.45-2.4,7.03-1.1,10.22l.05.17c.28.66.56,1.31.5,1.97-.05.75-.51,1.45-1.11,2.17-2.57,3.3-5.26,6.56-7.97,9.7-2.97,3.43-6.53,7.1-11.17,7.79-1.78.25-3.63.02-5.43-.2-2.81-.31-5.68-.63-8.14.78l-.07.04c-1.68,1.01-2.79,2.66-3.9,4.25-1.02,1.49-2.05,3.04-3.52,3.98-1.53,1.02-3.57,1.47-6.06,1.31-5.87-.38-11.22-3.6-15.93-6.46-1.18-.72-2.51-1.54-3.31-2.76-1.14-1.74-1.1-4.02-.92-6.38.14-1.85.55-3.48,1.12-4.91-.08.86-.23,1.62-.27,2.46ZM83.17,23.35c.34-.24.72-.51,1.04-.79,2.27-1.73,4.96-3.56,7.96-3.69.8-.03,1.77,0,2.83,0,3.12.08,6.61.15,8.6-1.23,2.1-1.44,1.92-4.94.76-7.72-.56-1.4-2.67-2.65-4.75-3.85-.18-.23-.42-.48-.6-.71-.3-.36-.58-.68-.86-1-2.11-2.43-3.91-5.15-5.32-8.03-2.25-4.61-3.01-8.78-2.25-12.38.59-2.83,2.14-5.4,3.58-7.56,6.31-9.75,11.36-11.73,14.6-12.34,3.19-.63,6.46-.1,9.62.39,1.32.21,2.84.44,3.99,1.27.82.59,1.36,1.38,1.99,2.22.22.3.42.57.65.88,2.77,3.5,6.92,5.39,10.97,7.19,3.15,1.41,6.44,2.88,9.03,5.14,4.19,3.64,6.41,9.27,5.73,14.7-.7,5.48-4.33,10.44-9.34,12.59-.31.13-.62.26-.93.39-1.02.39-2.04.79-2.91,1.53-2.7,2.31-2.25,6.61-1.08,9.59l.08.14c.24.58.5,1.2.46,1.8-.07.71-.5,1.3-1.03,1.98-2.38,3.04-4.89,6.11-7.49,9.03-2.78,3.18-6.09,6.61-10.4,7.2-1.65.22-3.37.06-5.06-.12-2.61-.28-5.33-.59-7.67.75t-.07.04c-1.57.95-2.66,2.48-3.67,3.97-.93,1.39-1.89,2.81-3.29,3.71-1.44.92-3.3,1.36-5.6,1.19-5.46-.33-10.44-3.32-14.78-5.97-1.1-.66-2.33-1.4-3.07-2.51-1.06-1.6-1.01-3.69-.82-5.86.14-1.85.57-3.44,1.2-4.86,1.9-2.62,4.69-4.7,7.9-7.06ZM100.4,6.97c1.68,1,3.21,2,3.64,3.09,1.08,2.64,1.29,5.93-.63,7.27-1.9,1.28-5.49,1.22-8.4,1.16-1.03-.04-2-.05-2.83,0-3.09.14-5.85,2.01-8.19,3.78-.38.26-.7.54-1.04.79-2.38,1.79-4.6,3.45-6.41,5.39,1.78-2.5,4.34-4.4,7.27-6.56l.96-.74c2.11-1.59,4.62-3.32,7.43-3.44.99-.04,2.07.11,3.11.23,2.03.28,4.08.59,5.78-.62,2.17-1.48,2.4-4.68,1.47-6.98-.55-1.22-1.32-2.31-2.17-3.36ZM96.93,7.7l-.86-1c-2.39-2.75-4.87-5.65-6.69-8.83-1.58-2.84-3.31-7.12-2.45-11.64.39-2.09,1.32-4.06,2.21-6.01,3.72-7.98,7.67-15.42,14.93-18.38,3.19-1.3,6.55-1.45,9.44-1.19-1.42-.05-2.81.03-3.84.24-6.6,1.29-11.63,4.89-15.8,11.35-1.81,2.86-4.74,8.13-5.36,11.08-.97,4.58-.48,8.38,1.65,12.67,1.47,2.99,2.8,4.97,5.19,7.72.72.84,2.16,1.69,3.67,2.55,1.19,1.33,2.31,2.7,2.97,4.34.84,2.06.66,5-1.26,6.33-1.51,1.05-3.42.81-5.41.51-1.05-.16-2.14-.31-3.2-.23-2.94.15-5.52,1.91-7.7,3.55l-.96.74c-3.83,2.86-7.3,5.43-8.95,9.58-1.16,1.91-1.95,4.14-2.15,6.89-.18,2.45-.25,4.75.97,6.64.84,1.29,2.23,2.13,3.46,2.86,4.77,2.88,10.13,6.14,16.1,6.51,2.58.15,4.68-.28,6.32-1.36,1.53-1.02,2.59-2.59,3.65-4.1,1.07-1.57,2.15-3.2,3.77-4.13.04-.02.07-.04.07-.04,2.35-1.34,5.07-1.03,7.94-.71,1.84.19,3.73.4,5.56.17,1.55-.22,3.01-.77,4.35-1.53,2.74-1.57,5.03-4.03,7.06-6.34,2.75-3.16,5.43-6.42,7.99-9.75.47-.6,1.11-1.4,1.19-2.36.05-.75-.21-1.46-.51-2.15l-.08-.14c-1.27-3.06-1.73-7.45.98-9.77.84-.72,1.93-1.15,2.99-1.57.35-.15.66-.28,1.02-.39,5.49-2.38,9.53-7.81,10.27-13.89.71-5.97-1.71-12.2-6.34-16.27-2.74-2.36-6.08-3.42-9.33-4.39-1.1-.33-2.2-.66-3.25-1.07-2.72-.98-3.73-2.32-4.86-3.88-.89-1.22-1.82-2.51-3.68-3.74-1.7-1.13-4.26-2.83-6.66-4,2.95,1.04,5.82,2.37,8.6,3.71l17.79,8.37c2.38,1.13,4.84,2.26,6.93,3.9,6.49,4.96,8.97,14.66,5.67,22.12-1.16,2.58-2.89,4.92-4.61,7.19-2.01,2.69-4.07,5.45-5.22,8.64-.61,1.69-.92,3.5-1.23,5.21-.37,2.03-.75,4.12-1.56,5.98-1.8,4.15-5.41,6.89-9.23,9.75-2.18,1.63-4.41,3.34-6.26,5.31-.55.55-1.05,1.18-1.54,1.75-1.19,1.35-2.27,2.64-3.69,3.6-3,2.05-6.64,2.22-10.51,2.42-2.16.08-4.42.23-6.54.72-2.08.47-4.07,1.27-6,2.09-1.89.8-3.88,1.6-5.89,2.03-6.65,1.46-13.74-1.05-19.47-3.09-2.17-.77-4.58-1.64-6.3-3.3-2.94-2.87-3.19-7.33-2.43-10.6,1.71-7.31,8.2-15.91,15.67-20.2,2.82-1.61,5.78-2.64,8.7-2.73.15.01.28-.02.43,0,1.29-.02,2.74-.08,3.7-1.07,1.57-1.86.32-4.64-1.42-6.67ZM49.42,31.41c-.73-1.11-1.7-2.05-2.61-2.97-.43-.42-.87-.85-1.25-1.25-5.69-6.09-6.78-16.11-2.55-23.29.83-1.39,1.88-2.75,2.88-4.1,1.93-2.49,3.89-5.1,4.62-8.26.27-1.21-.01-2.2-.27-3.06-.25-.86-.5-1.63-.24-2.6.1-.25.98-1.14,1.76-1.87.29-.17.76-.34,1.02-.39,1.5-.23,3.01-.1,4.59.06.71.07,1.46.12,2.25.15,4.59.15,9.24-1.12,13.11-3.57,1.04-.69,2.01-1.44,2.99-2.14,1.23-.95,2.5-1.91,3.84-2.68,2.62-1.45,5.23-1.84,7.27-1.04-.45.98-.95,1.94-1.4,2.91-.45.98-.88,1.89-1.27,2.89-1.36,1.74-4.83,3.87-6.35,3.49-.45-.12-.93-.28-1.38-.41-1.42-.48-2.89-.94-4.36-.57-1.36.3-2.48,1.28-3.48,2.13-1.47,1.28-2.93,2.59-4.13,4.18-.4.56-.76,1.11-1.1,1.68-.49.81-.99,1.62-1.64,2.33-1.75,2.06-4.25,3.2-6.69,4.31-1.33.62-2.69,1.25-3.97,2.03-7.62,4.7-10.62,15.62-6.55,23.89,1.05,2.08,2.23,3.47,3.67,4.32,1.14.64,2.4.93,3.67,1.21,1.32.3,2.7.61,3.84,1.35,2.54,1.66,3.27,5.03,3.47,7.56.06.78.09,1.58.12,2.38.06,2.12.15,4.28.82,6.29.95,2.67,3.57,5.05,6.37,4.6.28.32.54.7.89.97.18.14.32.3.49.44-2.14,1.03-4.94-.09-6.69-1.88-1.13-1.13-1.96-2.42-2.83-3.85-.64-1.03-1.31-2.03-2.09-2.98-.36-.46-.78-.94-1.16-1.35-.68-.76-1.31-1.45-1.82-2.26-.82-1.26-1.31-2.7-1.84-4.22-.55-1.46-1.09-3.07-2.02-4.45ZM162.49-.16c-1.22,2.81-3.13,5.34-4.95,7.77-2.15,2.86-4.35,5.8-5.52,9.2-.64,1.81-.95,3.71-1.29,5.53-.38,2.18-.81,4.44-1.67,6.47-1.96,4.53-5.84,7.47-9.95,10.59-2.31,1.75-4.68,3.55-6.69,5.65-.56.61-1.12,1.22-1.63,1.84-1.21,1.41-2.49,2.86-4.03,3.94-3.26,2.25-7.19,2.44-11.39,2.64-2.32.13-4.7.25-6.97.73-2.21.5-4.34,1.38-6.4,2.23-2.06.84-4.15,1.71-6.36,2.2-5.8,1.26-11.85-.26-17.22-2.03l-.06-.11c-.06-.11-.23-.15-.38-.07l-.04.02c-1.14-.4-2.28-.8-3.37-1.19-.65-.21-1.28-.47-1.94-.71-.08-.05-.12-.12-.16-.2-.08-.05-.19-.08-.28.02-1.15-.49-2.28-1.05-3.3-1.75-.02-.04,0-.09-.05-.17-.1-.18-.27-.23-.48-.25-.25-.19-.47-.4-.67-.58-3.25-3.17-3.53-8.09-2.71-11.68.09-.34.16-.72.29-1.08.02-.06.05-.08.07-.13.13-.36.24-.76.34-1.16.86-2.51,2.19-5.14,3.87-7.64.04-.02.06.02.09,0,.07-.04.09-.1.08-.19-.02-.04.02-.06.02-.06,3.15-4.63,7.48-8.88,12.13-11.55,1.88-1.08,3.81-1.89,5.77-2.4-3.3,1.36-6.62,3.6-9.71,6.66-4.66,4.59-8.17,10.43-9.37,15.63-.81,3.53-.55,8.42,2.71,11.59,1.91,1.83,4.44,2.73,6.69,3.55,5.84,2.07,13.07,4.65,20.03,3.16,2.08-.47,4.1-1.29,6.05-2.08,1.89-.8,3.84-1.58,5.85-2.01,2.04-.45,4.24-.56,6.37-.68,3.53-.2,7.17-.37,10.24-2.13.25-.14.51-.29.74-.47,1.51-1.05,2.73-2.43,3.92-3.78.49-.57,1.02-1.16,1.53-1.69,1.83-1.91,4.03-3.6,6.14-5.19,3.75-2.82,7.63-5.76,9.53-10.16.88-1.99,1.28-4.14,1.63-6.21.28-1.69.63-3.43,1.19-5.04,1.08-3.06,3.12-5.77,5.08-8.38,1.75-2.3,3.54-4.71,4.73-7.41,3.51-7.86.88-18.15-5.96-23.39-2.2-1.67-4.71-2.87-7.12-3.98l-17.79-8.37c-4.08-1.93-8.27-3.89-12.83-4.98-5.06-1.22-9.82-.99-13.76.59-7.58,3.09-11.81,11.03-15.45,18.91-.93,1.97-1.86,4.04-2.31,6.26-.92,4.84.89,9.42,2.58,12.38,1.85,3.31,4.36,6.18,6.79,9.01l.86,1c.48.59,2.88,3.53,1.32,5.14-.5.48-1.18.63-1.93.72.04-.02.09-.1.12-.12,1.69-1.74.38-4.53-1.38-6.59l-.92-1.1c-2.57-2.99-5.24-6.06-7.19-9.55-1.1-1.91-2.21-4.44-2.69-7.29.08-.19.05-.41-.07-.54-.22-1.55-.22-3.23.08-4.89.41-2.3,1.43-4.46,2.39-6.55.48-1,.91-2.01,1.42-2.97.21.03.42-.1.51-.29s.05-.41-.09-.57c3.51-7.09,7.58-13.31,14.27-16.03,5.1-2.06,10.54-1.43,14.21-.56,4.72,1.13,9.24,3.24,13.59,5.31l19.07,9.02c2.57,1.22,5.21,2.48,7.51,4.24,7.13,5.17,9.84,15.75,6.25,23.9ZM96.71,58.9c1.87-.5,3.69-1.25,5.48-1.99,2.02-.82,4.15-1.71,6.33-2.18,2.21-.5,4.59-.61,6.87-.72,3.77-.19,7.64-.39,10.85-2.23.25-.14.54-.31.77-.49,1.58-1.1,2.89-2.57,4.11-4.03.53-.59,1.07-1.23,1.63-1.84,1.97-2.09,4.31-3.86,6.62-5.61,3.99-3,8.1-6.12,10.13-10.79.91-2.1,1.32-4.4,1.71-6.64.34-1.83.67-3.69,1.27-5.48.98-2.81,2.66-5.31,4.41-7.7-.86,2.84-1.35,6.1-1.83,9.53-.87,6.01-1.75,12.27-4.94,16.16-1.71,2.13-4.28,3.84-7.29,4.94-.4.13-.77.25-1.15.42-1.48.51-2.98.99-4.21,2.03-1.58,1.34-2.33,3.3-3.06,5.21-.44,1.16-.91,2.34-1.56,3.39-2.22,3.57-7.1,4.26-11.43,4.82l-.94.11c-1.68.24-3.45.34-5.1.47-2.86.2-5.85.42-8.67,1.18-.66.19-1.32.37-2,.62-2.68,1.01-5.52,1.91-8,.84ZM104.92,58.56c.66-.19,1.34-.43,1.96-.6,2.77-.77,5.72-.98,8.58-1.17,1.67-.09,3.42-.23,5.1-.47l.94-.11c3.03-.4,6.33-.84,8.82-2.27,1.16-.66,2.15-1.52,2.87-2.7.66-1.1,1.14-2.28,1.58-3.44.77-1.93,1.45-3.75,2.96-5.05,1.12-.98,2.62-1.45,4.07-1.94.4-.13.77-.25,1.15-.42,3.12-1.16,5.67-2.91,7.45-5.08,3.26-4.02,4.13-10.28,5.02-16.35.56-3.87,1.08-7.57,2.18-10.6.09-.1.19-.25.28-.35.47-.6.92-1.24,1.39-1.85.22,2.9.35,5.89-.27,8.74-.38,1.61-.99,3.21-1.62,4.71-.59,1.49-1.23,3.05-1.6,4.66-.29,1.17-.41,2.39-.56,3.54-.22,1.8-.48,3.68-1.15,5.36-.59,1.39-1.45,2.65-2.33,3.88-.85,1.2-1.71,2.46-2.32,3.82-.43,1.01-.72,2.09-1,3.11-.48,1.76-.91,3.44-2,4.79-1.24,1.52-3.18,2.4-5.1,3.16-1.71.69-3.45,1.35-5.14,1.99-4.34,1.62-8.83,3.33-12.99,5.62-.72.41-1.44.83-2.13,1.22-3.08,1.81-6.28,3.69-9.81,3.89-1.99.13-4.01-.3-5.97-.71-1.41-.29-2.85-.62-4.33-.69-3.16-.25-6.48.5-9.24,2.03-.25.14-.51.29-.76.43-1.3.74-2.65,1.57-4.06,1.37-1.73-.26-2.94-1.87-3.92-3.41l-4.18-6.38c5.26,1.73,11.17,3.1,16.88,1.84.13-.03.26-.05.39-.08,2.78,1.43,5.88.47,8.88-.48ZM73.84,55.79c1.85,1.14,3.47,2.62,4.79,4.35.58.77,1.14,1.65,1.67,2.5,1.49,2.36,3.05,4.82,5.64,5.83,3.01,1.15,6.05-.06,9.08-1.22,1.37-.54,2.79-1.07,4.19-1.39,3.13-.74,6.43-.33,9.68.07,4.02.48,8.2,1.01,11.91-.73,1.58-.76,2.99-1.9,4.34-2.97.52-.44,1.09-.86,1.64-1.32,3.56-2.66,7.68-4.35,11.24-5.67l.99-.37c2.19-.78,4.44-1.63,6.46-2.79,1.12-.64,2.21-1.41,3.13-2.32,2.21-2.17,3.59-5.12,4.84-7.71,1.63-3.43,3.3-6.97,3.79-10.8.12-.88.16-1.82.22-2.71.08-1.29.17-2.64.43-3.94l.02-.06c1.66,10.85-2.64,22.27-11.05,29.35-.98.8-2.3,1.84-3.87,2.46-1.42.53-2.96.69-4.48.79-1.82.18-3.73.36-5.39,1.22-1.74.9-3.03,2.41-4.25,3.87-.68.82-1.4,1.66-2.21,2.42-3.83,3.53-10.06,4.71-16.77,3.13-.43-.09-.85-.23-1.29-.32-1.34-.33-2.71-.7-4.12-.75-2.92-.15-5.71.92-8.39,1.93-.82.33-1.64.65-2.45.92-2.56.89-7.38,1.93-10.46-.77-1.06-.93-1.78-2.19-2.49-3.42l-.23-.4c-1.92-3.27-4.12-6.37-6.59-9.17ZM171.92,63.54c1.23-.7,2.24-1.52,2.87-2.7.44-.83.62-1.84.63-3.09-.02-1.38-.29-2.76-.53-4.11-.18-.9-.33-1.83-.44-2.77-.05-.26-.05-.5-.06-.78-.09-.91-.14-1.84-.49-2.69-.59-1.53-1.82-2.6-3-3.65-.59-.53-1.2-1.09-1.72-1.66.61-.69,1.26-1.39,1.68-2.26.8-1.7.5-3.64.12-5.49-.34-1.43-.7-2.91-1.1-4.26-.5-1.87-1.04-3.82-1.37-5.74-.57-3.08-.1-8.05,1.04-11.34.91-1.34,1.78-2.75,2.25-4.36.48-1.76.45-3.57.28-5.29-.26-2.87-.91-6.29-1.91-9.7,1.17,1.29,2.38,2.57,3.57,3.81,3.45,3.59,7.35,7.64,12.15,9.92,1.3.6,2.84,1.78,4.2,2.82.6.47,1.21.94,1.75,1.3.25.19.51.38.77.52,1.44,1,2.42,1.63,3.52,3.31,1.45,2.19,3.1,4.75,4.01,7.58.95,3,.93,5.99-.11,8.36-.56,1.28-1.41,2.48-2.24,3.63-1.28,1.79-2.63,3.62-2.8,5.82-.08.95.07,1.97.24,2.93.25,1.53.45,2.96-.19,4.28-.97,1.99-3.43,2.54-4.47,2.66-.91.09-1.86.1-2.77.1s-1.86.01-2.77.1c-3.94.48-7.27,3.21-8.09,6.64-.17.62-.21,1.32-.32,1.96-.05.51-.11.98-.19,1.5-.63,3.33-3.1,6.23-6.31,7.4-.04.02-.07.04-.07.04.43-1.25.49-2.58.45-3.9.41-.38.93-.63,1.4-.9ZM169.91,59.94c-.48-3.27-1.17-6.57-2.08-9.74v-.09c-.56-1.89-1.12-3.87-.4-5.63.08-.19.16-.38.27-.54,2.46,2.71,3.12,6.37,3.54,9.86.16,1.11.26,2.3.08,3.41s-.68,2.07-1.41,2.73ZM171.57,57.22c.2-1.17.07-2.39-.09-3.5-.46-3.57-1.12-7.32-3.66-10.08.31-.46.68-.91,1.06-1.33.54.6,1.15,1.17,1.74,1.69,1.2,1.09,2.36,2.1,2.92,3.51.33.82.38,1.75.45,2.62.02.28.05.5.06.78.11.94.25,1.87.46,2.81.22,1.31.52,2.67.49,4.04.01,1.19-.16,2.15-.58,2.92-.77,1.5-2.29,2.37-4.05,3.23-.03-.56-.08-1.15-.13-1.65-.09-.67-.19-1.33-.24-2.02.82-.66,1.38-1.7,1.58-3.02ZM177.92-.51c2.01,2.25,4.51,3.94,6.97,5.55,4.26,2.83,8.68,5.77,12.03,9.79,3.66,4.38,5.35,9.5,4.63,14.03-.34,2.16-1.25,4.26-2.14,6.31-.92,2.16-1.9,4.39-2.24,6.8-.07.47-.11.98-.14,1.42-.11.98-.15,1.91-.48,2.77-1.02,3.08-4.4,4.63-7.17,5.06-.61.11-1.3.17-1.98.22-2.32.22-4.71.49-6.46,2.12-1.84,1.73-2.13,4.24-2.4,6.7-.19,1.6-.36,3.23-.99,4.64-1.06,2.43-3.32,3.92-5.73,5.49-1.78,1.16-3.63,2.37-5.01,4.07-1.22,1.47-2.01,3.26-2.76,4.98-.55,1.22-1.11,2.5-1.81,3.62-4.07,6.46-12.66,8.21-20.42,9.39l-7.41,1.13c-1.37.21-2.83.42-4.22.26-3.97-.41-6.99-3.67-9.76-7.07,2.92.15,5.83.21,8.75.21,3.45,0,7.11-.14,10.11-1.86.04-.02.07-.04.11-.06.72-.41,1.45-.98,2.14-1.46,1.83-1.33,3.54-2.6,5.61-2.35.83.1,1.61.47,2.34.82.78.37,1.63.75,2.51.86,1.27.13,2.5-.33,3.65-.99.47-.27.95-.59,1.4-.9,3.28-2.31,6.36-4.89,9.22-7.68,1.3-1.32,2.8-2.9,3.51-4.84.02-.06.03-.11.05-.17,0,0-.02.06,0,.09.04.07.1.09.15.1.51-.2,1-.43,1.47-.7,2.53-1.45,4.41-4.01,4.98-6.88.1-.49.15-1,.19-1.5.08-.62.17-1.3.3-1.9.82-3.35,4.06-5.97,7.88-6.43.91-.09,1.86-.1,2.71-.12.91,0,1.86-.01,2.81-.12,1.07-.14,3.63-.69,4.67-2.82.65-1.38.43-2.93.2-4.43-.15-.92-.3-1.94-.2-2.86.18-2.12,1.42-3.88,2.74-5.69.83-1.15,1.71-2.37,2.31-3.67,1.06-2.43,1.09-5.47.1-8.54-.91-2.84-2.58-5.43-4.03-7.62-1.12-1.71-2.11-2.34-3.56-3.38-.23-.15-.49-.35-.77-.52-.54-.36-1.13-.79-1.73-1.26-1.36-1.04-2.94-2.2-4.26-2.83-4.79-2.25-8.69-6.29-12.11-9.85-1.31-1.36-2.63-2.76-3.89-4.2-.62-2.09-1.36-4.21-2.14-6.16-.02-.04-.04-.07-.06-.11-.06-.69-.15-1.35-.3-2.03-.09-.33-.21-.7-.34-1.01,2.8,2.13,4.51,5.28,6.26,8.59,1.45,2.29,2.83,4.85,4.7,6.95ZM160.9-20.11c.92-.24,1.91-.09,2.9.45,1.54.85,2.83,2.6,3.29,4.49.15.68.24,1.35.28,2-.05.08-.07.13-.04.26.02.04.04.07.06.11.05,1.26-.06,2.48-.18,3.7-.11,1.07-.21,2.14-.21,3.24.01,1.53.19,3.1.39,4.62.28,2.33.6,4.74.19,7.03-.64,3.58-2.89,6.59-5.05,9.51-2.11,2.84-4.28,5.76-5.03,9.21-.3,1.32-.39,2.67-.45,4-.06.9-.12,1.8-.24,2.68-.51,3.79-2.16,7.28-3.76,10.69-1.28,2.7-2.6,5.51-4.75,7.61-2.56,2.47-6.09,3.77-9.45,5.03l-.99.37c-3.6,1.34-7.75,3.05-11.31,5.71-.57.42-1.12.88-1.64,1.32-1.34,1.1-2.71,2.22-4.27,2.93-3.6,1.68-7.55,1.21-11.72.72-3.25-.39-6.64-.8-9.83-.08-1.43.34-2.86.87-4.23,1.41-3.06,1.18-5.96,2.31-8.8,1.21-2.51-.96-3.99-3.37-5.45-5.66-.53-.85-1.09-1.73-1.69-2.53-1.23-1.65-2.71-3.05-4.41-4.19,1.14.4,2.36.85,3.61,1.29l4.55,6.94c1.06,1.6,2.35,3.35,4.29,3.63,1.62.23,3.04-.64,4.41-1.42.25-.14.51-.29.72-.41,2.69-1.49,5.88-2.21,8.93-2,1.4.11,2.88.42,4.23.69,1.96.41,4.04.85,6.12.72,3.66-.23,6.92-2.14,10.07-3.94.69-.39,1.44-.83,2.13-1.22,4.12-2.26,8.57-3.95,12.9-5.61,1.7-.64,3.43-1.29,5.14-1.99.93-.39,1.93-.82,2.8-1.31.94-.54,1.78-1.16,2.44-2.02,1.15-1.43,1.64-3.24,2.12-5,.28-1.02.53-2.08.98-3.06.58-1.34,1.42-2.54,2.27-3.74.88-1.22,1.76-2.54,2.37-3.99.72-1.76.97-3.67,1.2-5.53.16-1.15.28-2.36.55-3.48.36-1.55,1-3.11,1.59-4.6.6-1.54,1.26-3.17,1.61-4.81.68-3.08.48-6.27.25-9.35-.02-.04,0-.09-.06-.11,1.19-1.69,2.34-3.45,3.16-5.36,2.9-6.41,1.91-14.33-2-20.15ZM192.47,5.3c-4.13-2.86-8.4-5.79-11.49-9.77-1.18-1.48-2.19-3.16-3.19-4.74-1.13-1.8-2.27-3.64-3.62-5.31-3.12-3.78-7.28-6.43-11.25-8.85-11.08-6.7-22.83-12.48-34.9-17.23-6.86-2.69-12.65-4.5-18.79-4.68-7.32-.22-13.79,2.29-17.86,6.82-.4.47-.8.94-1.17,1.39-.78.98-1.53,1.93-2.5,2.68-1.25,1-3.15,1.61-4.6.76-.29-.17-.58-.43-.88-.7-.27-.23-.55-.45-.82-.68-2.4-1.6-5.46-.57-8.14.68-.8.36-1.74.81-2.41,1.57-.56.61-.86,1.35-1.15,2.1-.08.19-.18.44-.3.65-1.69,3.75-5.99,6.12-10.07,5.53-1.41-.2-2.76-.72-4.14-1.28-1.22-.45-2.48-.98-3.78-1.24-2.81-.55-5.78.05-8.42,1.71-3.78-.9-11.11-1.74-15.01.92-3.75,2.58-6.33,6.79-6.87,11.27-.14,1.09-.23,2.86-.35,4.75-.16,2.73-.34,5.85-.66,7.38-.56,2.96-2.5,5.27-4.54,7.73-1.71,2.04-3.45,4.18-4.32,6.69-1.94,5.57.79,12.26,4.15,16.13.86,1,2.29,2,3.62,2.96,1.18.81,2.27,1.62,3.04,2.38,3.22,3.28,3.96,7.33,4.51,11.9.11,1.04.13,2.23.09,3.5,0,1.77-.04,3.62.36,5.07.81,3.18,2.89,5.97,5.71,7.71,1.02.61,2.63.99,4.18,1.35s3.13.7,4.12,1.33c3.25,2.07,4.15,5.58,5.09,9.31.84,3.31,1.7,6.74,4.34,9.17,2.85,2.63,7.09,5,10.76,6.06,10.42,2.95,20.81,6.35,30.92,10.2,5.06,1.89,10.66,2.96,14.98,2.79,1.6-.05,3.22-.41,4.78-.77,2.52-.53,4.9-1.08,7.3-.49,1.34.33,2.23.79,3.15,1.31.77.42,1.5.87,2.59,1.25,3.73,1.32,8.1,1.16,13.8-.52,1.32-.37,2.67-.86,3.97-1.27,3.02-1.01,6.15-2.08,9.37-2.49,1.17-.14,2.48-.03,3.77.14,2.1.24,4.24.45,5.93-.52.07-.04.14-.08.18-.1,1.85-1.2,3.1-3.12,4.3-4.96l.09-.1c5.86-9.11,14.77-21.02,21.35-28.62l2.12-1.07c1.72-.84,3.48-1.71,4.97-3.04,2.2-1.93,3.63-4.62,4.87-7.25,3.97-8.65,6.52-17.83,7.65-27.25.24-2.1.47-4.54-.09-6.85-.51-2.06-1.69-4.12-3.54-6.27-3.29-3.73-7.32-6.5-11.2-9.17ZM89.12,27.81c.39-.75.81-1.52,1.16-2.25.52-1.11,1-2.11,1.86-2.79,1.44-1.16,3.33-1.14,5.33-1.08.73.01,1.46.03,2.2-.01,3.6-.24,6.99-2.28,8.83-5.35.6-.97.94-1.88.98-2.72.14-1.76-.77-3.35-1.68-4.7-1.65-2.46-3.67-4.66-5.91-6.54l-.53-.42c-2.29-1.9-4.87-4.07-4.68-6.91.13-1.37.9-2.62,1.73-3.77,2-2.87,4.15-5.64,6.51-8.23,2.31-2.57,5.41-5.54,9.18-5.5,1.68,0,3.28.62,4.67,1.21,4.14,1.7,8.09,3.9,11.74,6.51,1.07.78,2.28,1.72,2.97,3,1.44,2.68.3,5.97-.92,8.87-.43,1.01-.85,2.02-1.57,2.87-.26.29-.57.52-.85.77s-.6.54-.89.8c-2.41,2.58-1.55,6.59-.83,8.77.22.64.45,1.28.67,1.92.81,2.17,1.61,4.4,1.42,6.67-.16,1.48-.69,2.89-1.29,4.19-1.64,3.58-5.27,9.73-11.3,10.5-1.24.18-2.55.07-3.78,0-1.38-.07-2.82-.16-4.23.07-1.63.26-3.13.98-4.58,1.81-.58.33-1.1.68-1.64.99l-.07.04c-1.1.68-2.25,1.43-3.52,1.63-1.05.17-2.13-.03-3.14-.21l-6.12-1.15c-1.94-.37-3.11-1-3.6-2.01-.83-1.87.57-4.45,1.9-6.98ZM90.75,37.18l6.12,1.15c1.02.18,2.2.42,3.35.24,1.37-.21,2.55-.98,3.72-1.7l.07-.04c1.87-1.17,3.87-2.36,6.02-2.73,1.35-.24,2.75-.14,4.1-.05,1.29.08,2.58.15,3.88-.01,1.48-.18,2.78-.68,4-1.38,3.94-2.25,6.43-6.61,7.74-9.42.61-1.36,1.22-2.81,1.34-4.36.22-2.38-.65-4.66-1.45-6.89-.22-.64-.48-1.26-.68-1.86-.69-2.05-1.51-5.9.69-8.26.26-.29.53-.5.81-.75.28-.26.6-.54.9-.85.79-.88,1.25-2.01,1.7-2.98,1.25-3.02,2.45-6.44.89-9.33-.73-1.36-1.99-2.31-3.14-3.14-3.67-2.64-7.64-4.88-11.84-6.6-1.43-.57-3.09-1.2-4.88-1.23-3.95-.04-7.19,3.02-9.56,5.67-2.33,2.63-4.52,5.42-6.52,8.29-.85,1.2-1.66,2.54-1.82,4.02-.23,3.11,2.45,5.36,4.83,7.35l.53.42c2.23,1.89,4.18,4.03,5.81,6.46.87,1.27,1.72,2.75,1.59,4.36-.09.77-.34,1.58-.92,2.49-1.79,2.9-5.04,4.85-8.43,5.12-.69.06-1.41.04-2.14.03-2.03-.03-4.12-.08-5.67,1.23-.91.76-1.48,1.85-1.99,2.96-.35.73-.74,1.48-1.16,2.25-1.42,2.63-2.86,5.38-1.9,7.32.58,1.1,1.91,1.83,4.02,2.25ZM214.02,20.58c1.42,6.67,1.34,13.47.74,21.64-.32,4.55-.78,8.93-2.82,12.74-3.07,5.78-8.82,8.55-14.43,11.23-5.82,2.81-11.87,5.74-14.71,12.07-.68,1.49-1.26,3.41-1.93,5.42-1.11,3.51-2.37,7.5-4.24,9.76-.45.55-.92,1.24-1.42,1.96-1.07,1.57-2.27,3.32-3.62,4.14-2.65,1.57-5.39,2.65-8.08,3.72-2.59,1-5.2,2.06-7.72,3.51-.14.08-.29.17-.4.23-3.61,2.16-7.7,4.55-12.16,5.14-4.37.58-9.74-.85-14.53-2.09-1.25-.34-2.44-.66-3.59-.92-6.08-1.41-11.7-.92-17.15-.39-4.86.48-9.88.91-15.32.05-7.98-1.28-16.73-4.42-24.43-7.16l-1.88-.7c-8.79-3.12-17.4-9.45-24.31-17.82-1-1.25-1.93-2.54-2.83-3.85-1.14-1.65-2.29-3.34-3.66-4.81-2.16-2.36-5.03-4.26-7.86-6.1-4.71-3.2-9.18-6.15-10.38-11.27-.75-3.31-.06-6.63.6-9.84.48-2.34,1-4.79.95-7.21-.1-4.69-3.62-7.08-7.33-9.61-2.27-1.53-4.58-3.13-6.1-5.28-3.93-5.52-3.27-11.41-.95-14.56.68-.91,1.58-1.77,2.41-2.58,1.4-1.33,2.83-2.68,3.49-4.54.41-1.29.41-2.63.37-3.95-.02-.28-.01-.52-.03-.8-.03-5.83,1.84-11.94,5.35-17.21,2.39-3.62,5.64-7.07,10.21-10.88,2.53-2.12,5.32-4.1,8.49-4.52,3.16-.42,6.33.84,9.36,2.02,3.17,1.26,6.42,2.51,9.77,1.98,3.82-.61,6.74-3.38,9.54-6.04,2.64-2.52,5.34-5.07,8.8-5.9,2.41-.56,4.96-.21,7.45.19,2.2.32,4.45.66,6.67.35,2.72-.36,5.18-1.67,7.51-2.96.65-.37,1.32-.71,1.99-1.04,11-5.49,24.74-5.54,35.76-.1,3.99,1.94,7.72,4.6,11.29,7.15,5.26,3.75,10.7,7.63,17,9.35,1.87.51,3.89.84,5.81,1.18,4.08.68,8.32,1.38,11.57,3.88,2.98,2.27,4.8,5.69,6.51,9.03,1.4,2.7,2.84,5.47,4.95,7.72,2.34,2.5,5.45,4.17,8.4,5.79,2.04,1.13,4.17,2.26,6.04,3.68,5.31,3.91,9.16,10.39,10.85,18.19ZM203.49,2.02c-1.87-1.42-4.02-2.59-6.06-3.72-2.94-1.62-6-3.28-8.32-5.74-2.06-2.18-3.5-4.95-4.88-7.61-1.74-3.37-3.57-6.82-6.63-9.15-3.37-2.53-7.62-3.26-11.76-3.96-1.92-.34-3.91-.64-5.79-1.15-6.25-1.7-11.63-5.57-16.87-9.28-3.63-2.57-7.36-5.23-11.37-7.2-11.14-5.47-24.99-5.45-36.1.1-.67.34-1.38.69-2.03,1.07-2.35,1.25-4.78,2.54-7.4,2.9-2.18.29-4.38-.03-6.54-.38-2.52-.38-5.09-.77-7.58-.17-3.55.83-6.31,3.47-8.98,6.01-2.76,2.63-5.64,5.39-9.34,5.97-3.25.52-6.47-.75-9.56-1.96-3.09-1.2-6.25-2.46-9.57-2.05-3.26.43-6.12,2.45-8.69,4.59-4.61,3.84-7.9,7.31-10.3,10.98-3.52,5.32-5.44,11.51-5.41,17.43,0,.24.01.52.03.8.02,1.29.05,2.61-.34,3.84-.57,1.77-1.95,3.04-3.35,4.36-.87.83-1.79,1.65-2.48,2.62-2.44,3.27-3.18,9.35.89,15.03,1.6,2.2,3.91,3.81,6.19,5.37,3.63,2.48,7.08,4.82,7.16,9.32.06,2.36-.42,4.8-.9,7.13-.67,3.26-1.34,6.62-.59,10.02,1.19,5.26,5.97,8.42,10.6,11.48,2.77,1.82,5.61,3.69,7.78,6.05,1.33,1.49,2.53,3.16,3.61,4.79.89,1.31,1.81,2.66,2.85,3.88,6.94,8.44,15.64,14.83,24.48,17.96l1.86.66c7.72,2.77,16.51,5.89,24.51,7.21,5.49.88,10.5.41,15.41-.05,5.64-.54,11.01-1.03,17,.38,1.12.27,2.31.6,3.59.92,4.81,1.28,10.22,2.68,14.68,2.1,4.55-.59,8.66-3.04,12.33-5.19,2.65-1.57,5.39-2.65,8.08-3.72,2.59-1,5.2-2.06,7.72-3.51.14-.08.29-.17.4-.23,1.42-.86,2.65-2.67,3.75-4.26.5-.72.93-1.39,1.38-1.94,1.88-2.32,3.14-6.16,4.31-9.9.63-1.99,1.24-3.87,1.91-5.36,2.8-6.25,8.48-8.98,14.52-11.91,5.64-2.7,11.47-5.51,14.56-11.41,2.09-3.88,2.53-8.31,2.87-12.91.58-8.2.7-15.02-.74-21.73-1.7-7.9-5.55-14.47-10.89-18.51Z" fill="#faf2e9"/>
</svg>