<?xml version="1.0" encoding="UTF-8"?>
<svg id="_Слой_1" data-name="Слой_1" xmlns="http://www.w3.org/2000/svg" version="1.1" viewBox="0 0 95.74 254.85">
  <!-- Generator: Adobe Illustrator 30.4.0, SVG Export Plug-In . SVG Version: 2.1.3 Build 103)  -->
  <path d="M46.91,47.43c.53-1.21,1.68-2.01,3.42-2.35.6-.1,1.2-.2,1.8-.3.99-.11,2.03-.22,2.98-.6,1.16-.42,2.11-1.13,3.06-1.79,1.1-.8,2.15-1.53,3.39-1.84,1.55-.42,3.18-.08,4.85.26,1.51.31,3.07.61,4.64.35,1.14-.19,2.07-.68,2.56-1.43s.57-1.6.66-2.46c.03-.17.05-.4.07-.57.55-4.45,4.87-8.13,9.36-8.03.23.02.39,0,.62.01.84.03,1.7.11,2.48-.24.47-.19.86-.53,1.21-.81.2-.14.35-.28.55-.43,1.35-.95,3.23-1.09,4.71-.27.98.51,1.74,1.39,2.44,2.23.14.2.28.35.48.54.82.87,1.81,1.83,2.85,2.72-2.54-1.15-5.18-2.22-7.9-2.78-5.57-1.21-12.52.39-14.95,5.65-.41.91-.7,1.85-.94,2.78-.25.88-.48,1.81-.85,2.66-.62,1.33-5.73,1.22-8.32.76h-.05s-.05.02-.05.02c-6.54,1.36-11.59,5.38-13.95,11.08-.2.48-.39,1.02-.59,1.5-.53,1.54-1.08,2.97-2.11,4.15-.33.39-.67.67-1.06,1.01-.34.34-.74.62-1.06,1.01-3.22,3.55-1.93,9.32.91,12.99.56.69,1.18,1.37,1.74,2.06,2.27,2.59,4.67,5.27,3.96,8.41-.37,1.51-1.44,2.81-2.52,4.05-1.22,1.43-2.44,2.86-2.68,4.75-.11,1.02.05,2.01.27,2.98.13.82.31,1.57.27,2.3-.05,3.08-2.59,5.35-5.07,7.6l-.64.55c-7.49,6.83-11.33,15.74-10.24,23.72,1.48,11,5.74,19.52,12.63,25.38,6.24,5.29,9.86,13.64,9.52,21.81-.05.73-.1,1.42-.15,2.15-.11,1.7-.27,3.46-.05,5.15.31,2.24,1.55,5,4.12,5.98.36.16.71.22,1.12.32.05,1,.21,1.98.43,2.95.23,2.42.57,4.83,1.45,7.09,1.38,3.63,3.89,6.29,6.85,7.26,1.01.34,2.04.5,3.01.62,1.61.24,3.1.5,4.35,1.3,1.13.76,1.93,1.86,2.79,3.01.65.9,1.31,1.85,2.22,2.6,2.67,2.3,6.43,2.35,10.01,2.38.34,0,.62.01.95.01,2.19.03,4.45.16,6.65.3,2.54.14,5.14.33,7.72.35,2.01,0,3.83-.18,5.57-.47,3.21-.53,5.95-1.54,8.22-3.03,1.67-1.06,3.18-2.43,4.58-3.78.83-.75,1.7-1.57,2.59-2.27,2.96-2.39,5.74-3.52,8.33-3.39,1.47.09,2.9.64,4.32,1.08.77.26,1.55.58,2.37.78,7.61,2.05,15.05-1.64,19.1-4.27.54-.09,1.03-.23,1.57-.31,4.19-.69,8.4-1.61,12.31-3.37,7.45-3.35,13.34-9.64,16.22-17.27s2.57-16.31-.88-23.68c-.53-1.2-1.18-2.38-1.81-3.51-.89-1.64-1.78-3.34-2.47-5.13-.78-2-1.75-5.86-.04-9.05.42-.85,1.03-1.57,1.63-2.34.37-.45.79-.97,1.15-1.48,1.62-2.39,2.43-5.27,2.24-8.14-.28-4.09-2.49-7.64-4.63-11.09-1.22-1.98-2.51-4.01-3.42-6.15-1.18-2.77-1.81-5.91-2.36-8.89-1.03-5.25-2.1-10.67-6.1-14.26-2.24-2.04-5.1-3.13-7.91-4.23-1.26-.52-2.63-1.02-3.84-1.6-4.92-2.38-9.2-6.59-11.81-11.59,0-.05-.02-.11-.02-.11-.23-1.08-.42-2.22-.71-3.29-2.26-9.64-7.28-17.7-13.99-22.75,5.29,1.2,9.33,6.74,11.35,11.83.68,1.73,1.31,3.53,1.87,5.23,1.34,4.03,2.75,8.22,5.39,11.64,3.2,4.12,7.9,6.86,12.48,9.52,6.06,3.53,11.81,6.83,14.01,13.07.81,2.22.99,4.65,1.2,6.96.23,2.42.49,5.01,1.32,7.33,1.08,2.84,3.05,5.26,4.94,7.57.78.99,1.67,2.02,2.41,3.07,1.45,2,4.6,7.18,2.43,11.68-.76,1.52-2,2.79-3.25,4-1.44,1.41-2.89,2.83-3.64,4.74-.9,2.33-.43,4.88.11,7.09.86,3.55,2.37,6.94,3.87,10.21,2.58,5.84,5.31,11.88,4.39,18.8-2,15.32-12.56,23.88-21.55,25.36q-.05,0-.11.02c-1.25.21-2.58.31-3.9.42-3.48.29-7.06.6-9.92,2.59-.95.66-1.87,1.54-2.69,2.35-1.25,1.21-2.46,2.36-3.98,3.01-3.1,1.24-6.29-.14-9.6-1.6-2.47-1.1-5.07-2.24-7.75-2.25-5.38-.06-9.32,4.22-13.07,8.25-3.89,4.22-7.54,8.18-12.66,8.02-1.3-.07-2.58-.36-3.86-.71-1.41-.38-2.87-.76-4.37-.73-1.9.03-3.75.67-5.55,1.31-2.7.95-5.24,1.81-7.6.69-1.09-.49-1.9-1.36-2.77-2.23-.81-.82-1.68-1.68-2.72-2.24-.85-.42-1.73-.67-2.67-.9-.99-.23-1.87-.48-2.67-.96-1.42-.83-2.35-2.35-3.25-3.77-1.06-1.67-2.13-3.4-3.94-4.22-.85-.42-1.82-.54-2.74-.67-.63-.06-1.32-.17-1.9-.36-3.7-1.07-5.34-5.27-5.9-6.97-.44-1.33-.72-2.68-1-4.03-.41-1.83-.78-3.73-1.52-5.51-.83-1.99-2.03-3.8-3.16-5.58-1.73-2.68-3.43-5.2-3.87-8.2-.27-1.63-.1-3.34,0-5.04.22-3.06.43-6.22-1.48-8.65-.85-1.09-2.04-1.85-3.16-2.55-.56-.35-1.19-.76-1.7-1.17-3.13-2.39-4.79-6.31-6.24-9.71l-6.22-15.03c-2.39-5.7-4.62-11.71-2.54-17.09.79-1.98,2.11-3.82,3.39-5.54,2.01-2.74,4.06-5.54,4.01-8.94,0-1.06-.24-2.14-.47-3.17-.23-1.08-.45-2.05-.45-3.06,0-2.69,1.64-5.3,4.09-6.38.84-.36,1.74-.62,2.66-.83,1.34-.33,2.74-.68,3.94-1.54,4.17-3.2,1.61-9.55-.21-14.17-3.72-9.01-3.63-19.31.15-28.27ZM50.35,41.1l-.02-.11c-.61-2.02-.05-4.35,1.49-6.23s3.72-2.85,5.83-2.64c.8.09,1.61.29,2.38.5,1.87.48,3.79.94,5.33-.21.6-.43,1.05-1.12,1.45-1.75.14-.19.26-.43.4-.63,2.9-4.11,8.65-4.89,12.96-4.82,1.06,0,2.2.09,3.27.13,3.77.16,7.67.36,11.25-.96.42-.18.84-.36,1.25-.54,1.2-.53,2.51-1.08,3.8-1.02,2.75.05,4.82,2.45,6.62,4.56l.21.25c3.59,4.16,8.01,7.85,12.58,10.51-.4-.05-.81-.15-1.26-.18-3.67-.57-7.46-1.17-11.02-2.38-1.6-.52-3.22-1.2-4.79-1.9-1.94-1.25-4.01-2.97-5.44-4.53-.14-.15-.28-.35-.42-.49-.76-.88-1.58-1.81-2.64-2.42-1.66-.9-3.87-.76-5.43.34-.2.14-.4.29-.59.49-.35.28-.69.56-1.05.73-.63.27-1.36.22-2.15.19-.23-.02-.4-.05-.62-.01-4.83-.1-9.43,3.85-10.04,8.65-.03.17-.05.4-.07.57-.09.8-.14,1.53-.54,2.16-.55.76-1.56,1.04-2.11,1.13-1.42.23-2.92-.08-4.42-.33-1.68-.34-3.41-.67-5.13-.27-1.34.33-2.5,1.14-3.65,1.94-.9.65-1.91,1.32-2.91,1.71-.9.32-1.83.41-2.87.58-.6.1-1.26.15-1.85.31-.65.11-1.23.32-1.75.57.85-1.26,1.61-2.78,1.93-3.9ZM104.08,41.03c2.89,1.59,6.17,2.51,9.28,3.34,1.58.41,3.22.87,4.82,1.44,11.8,4.04,21.39,13.36,25.72,25.07.59,1.53,1.02,3.13,1.49,4.62.97,3.14,1.96,6.44,3.72,9.34,1.85,3.05,4.51,5.63,7.04,8.12,3.32,3.2,6.73,6.55,8.34,10.87.53,1.53.86,3.16,1.16,4.67.15.93.37,1.9.58,2.81.5,2.04,1.29,4.09,2.01,6.1,1.53,4.17,3.12,8.43,2.34,12.81-.27,1.39-.78,2.76-1.28,4.13-.66,1.79-1.37,3.58-1.44,5.5-.13,2.59.79,5.13,1.69,7.55,1.08,2.84,2.1,5.58,1.55,8.41-.55,2.78-2.38,4.92-4.36,7.15-1.08,1.24-2.16,2.48-3.05,3.86-1.64,2.62-2.46,5.77-3.25,8.81-1.09,4.26-2.16,8.3-5.29,11-3.72,3.24-8.69,3.28-13.94,3.31-3.75,0-7.66.03-11.08,1.32-1.53.59-2.91,1.37-4.29,2.16-1.13.63-2.24,1.32-3.44,1.85-3.13,1.36-6.21,1.36-8.17-.05-.89-.64-1.59-1.53-2.24-2.37-.43-.55-.85-1.09-1.32-1.57-1.01-1.06-2.61-1.92-4.03-1.69-.33.05-.64.16-.95.32-.82.47-1.29,1.33-1.76,2.19-.17.31-.35.62-.53.87-2.37,3.63-7.71,4.12-11.74,2.72-2.43-.83-4.73-2.24-6.91-3.56-1.5-.93-3.11-1.89-4.75-2.68-1.33-.62-2.65-1.13-4.02-1.63-1.67-.62-3.46-1.33-5.06-2.19-1.97-1.07-5.37-3.42-6.05-7.17-.23-1.42-.08-2.84.08-4.26.07-.91.19-1.88.2-2.83-.01-3.8-1.89-7.74-5.44-11.63-1.43-1.55-3.01-2.97-4.53-4.4-1.59-1.47-3.29-2.98-4.79-4.64-10.68-11.89-11.09-31.62-.98-43.97.93-1.16,1.98-2.23,2.93-3.28,2.19-2.32,4.47-4.76,5.83-7.73,2.7-5.7,1.66-12.3.33-18.01-.2-.86-.4-1.72-.65-2.58-1.22-5-2.52-10.21-1.85-15.3.8-6.34,5.5-11.76,11.4-13.29,2.1-.51,4.33-.55,6.45-.56,4.35-.05,8.49-.06,11.74-4.12.46-.58.86-1.21,1.26-1.83.76-1.13,1.42-2.25,2.47-2.98,1.9-1.38,4.74-1.45,7.58-.19.12.04.24.13.36.16l.06.05c1.46,1.05,3.04,2.13,4.72,2.86.12.04.18.08.3.12.67.34,1.22.64,1.72.95ZM61.23,169.18c-.44-1.33-1.23-2.37-2.03-3.47l-12.44-17.13c-5.86-8.09-11.88-17.45-9.07-26.86,1.01-3.35,3.05-6.26,5-9.05,1.32-1.84,2.81-3.65,4.31-5.41,1.45-1.69,2.89-3.5,4.12-5.21,1.64-2.28.92-4.91.24-7.37-.25-.85-.45-1.72-.59-2.53.4-.96,1.31-1.56,2.32-2.23.45-.3.96-.61,1.34-1,2.84-2.43,3.04-6.65,2.29-9.83-.41-1.78-1.08-3.51-1.75-5.19-.58-1.47-1.17-3-1.58-4.49-1.58-5.84-.33-12.53,3.29-17.38,3.62-4.85,9.64-8.02,15.65-8.17.22-.04.44-.02.67,0,1.01,0,2.06-.06,3.07-.39,2.06-.73,3.27-2.55,4.48-4.37.58-.88,1.16-1.76,1.83-2.48,2.17-2.43,5.63-3.5,8.82-2.8,1.86.42,3.47,1.39,5.11,2.51-2.6-.86-5.14-.66-6.89.63-1.1.8-1.85,1.98-2.56,3.11-.4.63-.8,1.25-1.26,1.83-3.21,3.94-7.23,3.99-11.47,4.02-2.18.02-4.41.06-6.56.58-6.02,1.5-10.8,7.09-11.64,13.55-.65,5.2.6,10.42,1.88,15.46.2.86.4,1.72.65,2.58,1.32,5.65,2.35,12.2-.31,17.78-1.37,2.91-3.6,5.29-5.79,7.61-1,1.06-2.05,2.18-2.97,3.34-10.25,12.48-9.82,32.38,1,44.41,1.5,1.65,3.15,3.17,4.8,4.69,1.51,1.37,3.1,2.85,4.53,4.4,3.54,3.83,5.29,7.68,5.34,11.37-.02.9-.08,1.86-.21,2.78-.16,1.42-.3,2.9-.06,4.37.7,3.91,4.17,6.3,6.2,7.42,1.66.9,3.39,1.57,5.06,2.19,1.31.51,2.68,1.01,3.96,1.64,1.64.79,3.19,1.71,4.69,2.64,2.24,1.36,4.48,2.73,6.97,3.6,4.21,1.43,9.72.97,12.17-2.85.17-.31.35-.62.52-.92.47-.86.91-1.6,1.62-2.06,1.48-.86,3.37.06,4.57,1.26.47.48.84,1.04,1.26,1.53.71.89,1.36,1.79,2.31,2.47,1.71,1.23,3.74,1.29,5.42,1.01,1.31-.22,2.41-.62,3.09-.96,1.2-.53,2.37-1.23,3.5-1.86,1.38-.79,2.76-1.57,4.23-2.15,3.37-1.28,7.22-1.3,10.97-1.31,5.31-.04,10.33-.08,14.15-3.4,3.23-2.82,4.31-7.09,5.43-11.19.79-3.04,1.62-6.14,3.21-8.69.84-1.37,1.97-2.62,3.01-3.8,1.94-2.16,3.91-4.45,4.44-7.33.58-2.95-.51-5.79-1.53-8.59-.9-2.42-1.81-4.9-1.67-7.44.08-1.86.8-3.65,1.4-5.43.5-1.37,1-2.74,1.27-4.18.83-4.44-.83-8.76-2.36-12.98-.72-2.01-1.51-4.06-2-6.05-.21-.92-.42-1.89-.58-2.81-.31-1.57-.58-3.2-1.17-4.73-1.57-4.44-5.03-7.78-8.42-11.03-2.54-2.49-5.19-5.02-6.97-8.02-1.7-2.85-2.68-6.1-3.65-9.24-.48-1.54-.97-3.14-1.55-4.67-4.34-11.76-14.07-21.23-25.92-25.26-1.6-.52-3.24-.98-4.82-1.44-3.11-.89-6.33-1.75-9.22-3.35q-.06-.05-.13-.09c3.11.89,6.46.84,9.69.75,2.79-.07,5.68-.15,8.4.4,10.24,2.06,16.64,12.41,20.25,20.71.83,1.99,1.67,4.03,2.45,6.03,2.96,7.45,6.02,15.17,11.77,20.82.8.76,1.65,1.52,2.44,2.23,2.03,1.79,4.18,3.67,5.42,6.1,1.06,2.01,1.44,4.35,1.88,6.63.23,1.42.48,2.89.93,4.27.75,2.51,1.97,4.82,3.18,7.08,1.69,3.13,3.25,6.12,3.64,9.52.34,3.08-.43,6.22-1.15,9.31-.85,3.66-1.78,7.51-.84,11.21.26.91.57,1.75.93,2.59.5,1.32,1.04,2.57,1.15,3.95.24,2.81-1.27,5.52-2.47,7.73l-8.09,14.7c-1.13,1.98-2.24,4.06-2.76,6.33-.22,1.04-.37,2.19-.47,3.27-.18,1.99-.38,3.81-1.29,5.41-1.39,2.41-4.45,3.87-8.12,4.02-1.95.04-3.89-.2-5.83-.44-1.26-.18-2.58-.36-3.87-.42-5.65-.35-11.4,1.1-16.16,4.12-.51.31-1.06.68-1.56,1.04-1.61,1.1-3.27,2.22-5.15,2.69-2.85.69-6.04-.35-7.97-2.55-.14-.2-.34-.39-.55-.64-1.05-1.28-2.38-2.91-4.01-2.64-.11.02-.27.04-.37.12-.84.31-1.4,1.01-1.9,1.71-.14.19-.33.39-.46.58-2.15,2.59-6.16,2.64-8.98,1.87-1.64-.46-3.27-1.19-4.79-1.9-1.45-.66-2.96-1.36-4.55-1.82-1.23-.36-2.57-.64-3.89-.87-2.89-.59-5.66-1.08-7.75-2.92-.45-.37-.8-.76-1.2-1.2-.61-.63-1.21-1.25-1.91-1.75-1.2-.81-2.59-1.14-3.93-1.48-1.63-.4-3.15-.77-4.27-1.81-2.18-2.05-1.52-5.17-.89-8.47.32-2.79.88-5.51.1-7.9ZM189.22,161.89c.4,2.79.31,5.6-.48,8.3-.85,2.99-2.34,5.81-3.86,8.47l-5.5,10.08c-2.45,4.49-5.33,8.71-9.69,9.43-.05,0-.11.02-.22.04-.65.11-2.26.2-3.16-.88-.49-.59-.67-1.34-.72-2.01-.64-4.54,1.07-9.46,5.46-15.39.69-.9,1.38-1.79,2.02-2.68,2.71-3.58,5.57-7.24,6.92-11.6,1.36-4.31.58-7.7-.3-11.64-.15-.59-.25-1.19-.41-1.83-.31-1.52-.08-2.5.64-2.9.1-.07.26-.1.43-.13,1.03-.17,2.56.59,3.85,1.99,2.45,2.67,4.12,5.98,4.87,9.54l-.11.02c.02.44.13.82.25,1.19ZM176.33,120.33c-.61-2.02-1.74-3.8-2.81-5.52-.99-1.57-1.97-3.14-2.6-4.89-.85-2.43-.9-5.11-.98-7.67-.04-1.28-.05-2.68-.2-3.94-.37-3.91-2.24-8.47-6.23-9.65-3.94-1.2-7.23-5.86-8.13-7.27-.23-.35-.45-.71-.62-1.07,2.53,3.5,6.15,6.42,10.96,8.82.31.17.67.34.98.51,2.37,1.17,4.8,2.34,6.32,4.44,1.65,2.19,1.96,5.1,2.1,7.65.08,1.16.06,2.4.08,3.57.06,4.07.09,8.32,1.71,12.08.63,1.46,1.47,2.83,2.32,4.2,1.23,2.03,2.44,3.96,2.92,6.17.88,3.99-.69,8-2.29,11.9-.46,1.25-.98,2.51-1.39,3.75-1.2,3.55-1.51,7.46-1.51,10.88-.31-1.18-.72-2.34-1.07-3.46-.92-2.87-1.9-5.78-2.05-8.72-.12-3.11.7-6.27,1.49-9.31,1.17-4.11,2.26-8.37,1.02-12.47ZM159.96,202.51c-.76.13-1.52.25-2.23.37-5.52.46-11.17-.23-16.52-2.14-.24-.07-.53-.19-.77-.26-1.55-.58-3.16-1.16-4.84-1.22-3.81-.04-6.95,2.6-9.8,5.03l-.39.34c-2.5,2.15-6.3,4.84-10.01,3.72-.94-.29-1.8-.77-2.68-1.35-.5-.31-1.05-.61-1.6-.86-.92-.46-3.19-1.38-5-.13-.65.44-1.05,1.07-1.45,1.69-.23.32-.45.63-.68.95-2.39,2.8-6.87,2.08-10.54,1.18-1.05-.27-2.16-.54-2.96-1.3-.46-.43-.78-.99-1.1-1.55-.31-.51-.56-1.03-.97-1.46-1.78-2-4.6-1.76-7.25-1.55-1.1.13-2.26.2-3.33.16-4.46-.27-8.06-3.76-11.39-7.35-.62-.68-1.48-1.88-2.3-3.09-.87-1.2-1.68-2.41-2.36-3.13.05,0,.12.04.23.02.97.12,1.88.19,2.67.57,1.58.75,2.45,2.28,3.39,3.92.4.72.8,1.43,1.3,2.13,1.6,2.25,4.27,3.83,7.01,4.21,1.83.26,3.8-.01,5.61-.25,2.79-.35,5.37-.66,7.69.52,1.16.59,2.11,1.61,3.1,2.51,1.2,1.2,2.41,2.4,4.07,2.96,1.78.6,3.87.09,5.49-1.3,1.56-1.38,2.31-3.29,2.01-5.09,1.71-1.18,4.24.25,5.96,1.87,1.92,1.81,3.92,3.44,6.05,3.09.27-.04.54-.14.8-.24,1.04-.45,1.79-1.36,2.48-2.25.79-.97,1.53-1.93,2.62-2.11h.05c.54-.1,1.12.03,1.71.21.7.16,1.4.33,2.16.2,1.13-.24,1.83-1.09,2.53-1.93.33-.39.65-.78.99-1.11,2.3-2,5.64-1.04,8.86-.18.47.15.94.29,1.41.38,7.25,1.88,14.97-.45,18.75-5.66,1.73-2.41,2.65-5.3,3.53-8.08.8-2.59,1.64-5.3,3.18-7.52,1.39-2.08,3.35-3.8,5.25-5.45,2.69-2.35,5.47-4.82,6.64-8.25.48-1.48.64-2.9.62-4.41-.02-.11-.04-.22-.05-.33-.02-.11-.04-.27,0-.39-.29-4.15-.46-9.93,1.27-15.03.41-1.24.93-2.5,1.4-3.7,1.59-3.95,3.2-8.08,2.28-12.29-.49-2.32-1.79-4.4-3.01-6.38-.83-1.32-1.67-2.69-2.24-4.1-1.55-3.66-1.63-7.84-1.68-11.86-.03-1.17,0-2.4-.09-3.62-.1-2.67-.49-5.68-2.22-8.02-1.59-2.2-4.15-3.45-6.58-4.62-.31-.17-.67-.34-.98-.51-6.4-3.2-10.66-7.3-12.98-12.57-.02-.11-.04-.22-.1-.26,2.42,4.52,7.13,8.28,13.94,10.96.36.16.78.32,1.13.43,2.5.93,5.07,1.9,6.74,3.92.91,1.14,1.59,2.53,2.07,4.41.51,2.1.65,4.26.72,6.42.13,2.83.33,5.76,1.4,8.49.96,2.41,2.65,4.54,4.22,6.58.49.59.99,1.24,1.48,1.88,2.59,3.49,3.74,6.43,3.47,9.16-.2,2.16-1.27,4.18-2.35,6.09-.77,1.41-1.54,2.88-2.01,4.41-1.41,4.71.11,9.83,2.07,14.26-.43-.6-.93-1.24-1.47-1.77-1.63-1.74-3.54-2.49-4.68-1.91-.52.25-1.28,1.05-.8,3.26.11.65.26,1.24.41,1.83.86,3.88,1.64,7.22.32,11.41-1.37,4.25-4.17,7.96-6.83,11.47-.69.9-1.38,1.79-2.02,2.68-2.78,3.81-6.37,9.55-5.53,15.62.11.65.25,1.52.8,2.16,1.03,1.17,2.76,1.11,3.52.99.05,0,.11-.02.22-.04,4.52-.75,7.45-5.03,9.94-9.58l5.5-10.08c1.51-2.71,3-5.53,3.9-8.58.53-1.88.76-3.87.71-5.88,1.91,10.93-2.79,23.11-12.17,30.7-4.04,3.3-8.93,5.55-14.15,6.81-1.22.42-2.42.57-3.57.76ZM61.12,190.9c.68.73,1.57,2.03,2.37,3.19.88,1.25,1.69,2.46,2.36,3.13,3.4,3.63,7.13,7.27,11.82,7.56,1.12.04,2.29-.04,3.45-.12,2.65-.21,5.13-.45,6.7,1.3.34.39.64.84.9,1.36.33.62.71,1.23,1.23,1.7.92.85,2.21,1.2,3.26,1.48,3.8,1,8.55,1.67,11.18-1.4.28-.33.51-.64.73-1.01.41-.57.76-1.13,1.32-1.5,1.05-.73,2.63-.66,4.28.19.54.25,1.04.56,1.54.86.87.53,1.8,1.1,2.86,1.37,4.05,1.18,8-1.66,10.66-3.88l.39-.34c2.84-2.43,5.79-4.93,9.33-4.84,1.57.02,3.12.6,4.61,1.14.24.07.53.19.78.32,3.27,1.19,6.69,1.92,10.15,2.19-1.22.03-2.46.01-3.7-.06-1.08-.1-2.11-.27-3.2-.42-1.61-.24-3.27-.47-4.94-.47-3.25-.02-6.35.82-9.15,2.52-1.58.93-3,2.17-4.38,3.29-1.18.98-2.41,2.02-3.77,2.91-7.22,4.71-16.44,4.11-26.06,3.07-3.53-.37-7.47-.84-10.74-2.7-1.42-.83-2.66-1.91-3.9-2.99-1.57-1.36-3.2-2.77-5.13-3.63-.91-.41-1.9-.69-2.85-.98-.7-.16-1.35-.39-2-.62-5.49-2.11-9.59-7.31-10.08-12.6ZM61.36,194.77c1.63,4.09,5.18,7.65,9.65,9.32.71.22,1.36.45,2.07.67.94.29,1.88.53,2.78.94,1.87.81,3.43,2.17,5,3.54,1.24,1.08,2.55,2.21,4.02,3.03,3.34,1.97,7.44,2.41,10.98,2.83,6.04.68,11.93,1.11,17.32.22,3.32-.55,6.39-1.61,9.22-3.42,1.36-.9,2.59-1.94,3.82-2.92,1.38-1.12,2.75-2.3,4.28-3.22,2.64-1.61,5.69-2.45,8.78-2.4,1.62.01,3.23.25,4.83.49,1.03.17,2.12.32,3.2.42,3.52.31,7.03-.1,10.52-.62,1.11-.07,2.2-.25,3.34-.44-4.11,2.52-11.03,5.68-18.11,3.77-.82-.2-1.6-.52-2.37-.78-1.42-.49-2.86-1.04-4.38-1.12-2.71-.17-5.6.98-8.6,3.49-.89.71-1.76,1.52-2.59,2.27-1.41,1.29-2.92,2.66-4.53,3.71-3.49,2.25-7.94,3.38-13.64,3.42-2.57.03-5.17-.15-7.67-.36-2.15-.15-4.42-.33-6.65-.3-.34,0-.62-.01-.95-.01-3.53-.03-7.22-.04-9.83-2.29-.84-.7-1.5-1.65-2.15-2.55-.81-1.15-1.67-2.3-2.86-3.11-1.37-.84-2.93-1.14-4.47-1.33-.98-.17-2.01-.34-2.96-.63-2.9-.98-5.28-3.55-6.65-7.07-.8-1.77-1.16-3.67-1.41-5.53ZM186.35,149.89c.69,1.79,1.59,3.54,2.53,5.18.63,1.13,1.22,2.32,1.8,3.45,3.33,7.28,3.65,15.67.86,23.18-2.8,7.45-8.6,13.67-15.89,16.94-1.92.88-3.99,1.55-6.04,2.06,3.09-1.29,5.95-2.94,8.46-5.03,10.66-8.64,15.38-23.06,11.48-35.17l-.21.09c-.35-1.79-.96-3.48-1.8-5.13-2.49-4.9-5.11-11.29-3.4-16.89.47-1.53,1.24-3,2.02-4.36,1.07-1.97,2.14-3.99,2.39-6.21.26-2.84-.85-5.84-3.51-9.43-.5-.64-1-1.29-1.48-1.88-1.57-2.03-3.24-4.05-4.14-6.48-1.05-2.62-1.2-5.56-1.38-8.39-.13-2.16-.22-4.38-.73-6.48-.42-1.89-1.12-3.39-2.14-4.51-1.74-2.06-4.37-3.08-6.87-4.01-.36-.16-.78-.32-1.13-.43-9.15-3.58-12.97-8.43-14.53-12.48-.05-.33-.16-.64-.22-.97,2.67,4.31,6.62,7.91,11.05,10.04,1.28.63,2.59,1.14,3.91,1.65,2.69,1.07,5.5,2.17,7.67,4.1,3.81,3.45,4.82,8.55,5.87,13.91.61,3.03,1.25,6.23,2.44,9.05.92,2.2,2.22,4.28,3.44,6.26,2.2,3.5,4.26,6.85,4.52,10.78.17,2.71-.55,5.46-2.08,7.73-.36.51-.74.96-1.11,1.41-.6.77-1.25,1.55-1.73,2.41-1.89,3.44-.83,7.52-.03,9.63ZM150.49,67.43c.23,1.08.48,2.21.71,3.29.74,3.79,1.55,7.69,3.66,10.97,1.2,1.87,4.4,6.32,8.51,7.54,3.65,1.13,5.37,5.43,5.75,9.06.15,1.26.15,2.6.2,3.94.04,2.62.1,5.35,1.02,7.89.63,1.8,1.68,3.41,2.67,4.99,1.06,1.67,2.19,3.44,2.73,5.37,1.21,3.94.12,7.87-.97,12.07-.83,3.1-1.64,6.31-1.5,9.53.1,3,1.11,6.03,2.08,8.89.8,2.5,1.64,4.87,1.87,7.3,0,.39.07.77.07,1.11.06,1.39-.1,2.76-.55,4.12-1.14,3.26-3.73,5.54-6.46,7.95-1.95,1.72-3.96,3.45-5.4,5.59-1.57,2.33-2.47,5.05-3.26,7.7-.34,1.01-.62,2-.96,3.01.31-1.17.4-2.3.49-3.49.1-1.08.2-2.16.43-3.15.48-2.2,1.6-4.23,2.68-6.15l8.09-14.7c1.25-2.27,2.85-5.11,2.57-8.14-.12-1.43-.63-2.8-1.19-4.17-.31-.84-.67-1.68-.87-2.54-.92-3.54-.11-7.09.78-10.87.71-3.14,1.53-6.35,1.17-9.53-.36-3.52-2.06-6.71-3.73-9.73-1.2-2.21-2.42-4.52-3.11-6.98-.39-1.33-.63-2.8-.91-4.16-.38-2.29-.83-4.67-1.9-6.79-1.31-2.52-3.48-4.46-5.57-6.3-.79-.71-1.64-1.46-2.44-2.23-5.62-5.56-8.67-13.22-11.61-20.57-.78-2-1.62-4.04-2.45-6.03-3.63-8.46-10.23-18.95-20.76-21.07-2.78-.55-5.73-.51-8.52-.44-4.01.1-7.8.17-11.3-1.38-1.63-.74-3.14-1.77-4.59-2.77-2.03-1.46-4.18-2.95-6.67-3.49-3.43-.78-7.15.4-9.46,3.01-.71.79-1.34,1.73-1.92,2.61-1.16,1.76-2.28,3.45-4.14,4.09-.9.32-1.85.31-2.85.36-.23-.02-.44.02-.67,0-6.23.19-12.46,3.45-16.16,8.48-3.7,5.03-5.04,11.85-3.42,17.9.42,1.55,1.01,3.08,1.64,4.54.66,1.63,1.34,3.36,1.73,5.08.71,2.96.53,6.96-2.07,9.18-.39.34-.84.64-1.3.94-1.06.68-2.12,1.41-2.58,2.66l-.05.06.02.11c.14.87.41,1.78.61,2.7.69,2.46,1.29,4.77-.1,6.84-1.23,1.71-2.67,3.46-4.12,5.21-1.5,1.76-2.99,3.57-4.3,5.46-1.99,2.85-4.07,5.82-5.08,9.23-2.73,9.23,2.8,18.67,9.17,27.46l12.44,17.13c.72,1,1.52,2.1,1.88,3.27.76,2.22.19,4.89-.29,7.38-.69,3.3-1.4,6.77,1.05,9.11,1.26,1.19,2.95,1.58,4.58,1.99,1.29.35,2.68.62,3.74,1.34.69.45,1.23,1.03,1.84,1.65.41.44.81.87,1.27,1.25,2.27,1.92,5.22,2.49,8.11,3.08,1.27.24,2.6.52,3.84.88,1.53.47,3.04,1.12,4.49,1.78,1.57.69,3.2,1.43,4.9,1.93,2.99.85,7.29.81,9.67-2.1.19-.2.33-.39.51-.64.45-.63.92-1.21,1.55-1.43,1.38-.45,2.56.92,3.68,2.3.21.25.35.45.55.64,1.94,2.25,5.14,3.35,8.08,2.86.22-.04.38-.06.6-.1,1.99-.5,3.7-1.67,5.41-2.79.5-.36,1.01-.67,1.56-1.04,4.66-2.95,10.24-4.37,15.78-4,1.3.07,2.56.25,3.82.43,1.94.24,3.95.52,5.95.47,3.84-.13,7-1.66,8.55-4.09-.42.85-.9,1.66-1.45,2.42-3.65,5.02-11.05,7.25-18.01,5.43-.47-.15-.93-.24-1.41-.38-3.23-.92-6.92-1.94-9.52.28-.39.34-.76.8-1.09,1.19-.65.78-1.26,1.49-2.13,1.69-.6.1-1.18-.03-1.88-.19-.64-.17-1.28-.29-2-.23-1.37.17-2.25,1.27-3.08,2.35-.65.83-1.35,1.68-2.24,2.05-1.99.83-4.1-.78-6.09-2.69-1.59-1.53-3.7-2.75-5.55-2.44-.54.09-1.02.28-1.51.7l-.15.14.04.22c.32,1.62-.34,3.36-1.75,4.65-1.41,1.29-3.3,1.72-4.78,1.18-1.49-.54-2.62-1.64-3.82-2.84-1-.95-2-1.96-3.23-2.65-2.51-1.32-5.36-.96-8.1-.62-1.81.24-3.67.49-5.44.23-2.58-.36-5.06-1.85-6.58-3.95-.44-.65-.84-1.37-1.23-2.03-.95-1.69-1.9-3.38-3.71-4.2-.91-.41-1.93-.52-2.89-.59-.4-.05-.8-.09-1.14-.15l-.43-.26-.03.17c-.29-.06-.58-.13-.83-.26-2.27-.86-3.35-3.36-3.69-5.43-.21-1.64-.1-3.34.07-4.99.06-.68.1-1.42.15-2.15.35-8.39-3.41-16.94-9.78-22.33-6.84-5.86-10.93-14.03-12.39-24.97-1.06-7.77,2.71-16.44,10-23.13l.64-.55c2.44-2.19,5.21-4.72,5.27-8.08.03-.84-.16-1.65-.3-2.47-.16-.98-.36-1.84-.24-2.81.23-1.66,1.35-3.02,2.52-4.39,1.13-1.3,2.25-2.66,2.64-4.35.83-3.44-1.7-6.26-4.11-9-.62-.68-1.23-1.36-1.74-2.06-2.69-3.42-3.91-8.81-.99-12.09.34-.34.67-.67,1.02-.95.39-.34.78-.69,1.11-1.08,1.08-1.24,1.66-2.85,2.25-4.34.2-.48.34-1.01.54-1.49,2.23-5.46,7.13-9.34,13.4-10.65.74.1,7.95,1.09,8.98-1.15.41-.91.65-1.84.89-2.72.25-.88.48-1.81.9-2.67,2.31-4.97,8.9-6.39,14.23-5.26,3.25.7,6.27,2.1,9.28,3.39,2.06.95,4.22,1.88,6.36,2.64,3.61,1.19,7.45,1.79,11.14,2.41,4.48.72,9.13,1.46,13.35,3.28,9.23,3.74,16.41,13.35,19.22,25.3ZM196.15,180.83l.81,1.54c.82,1.6,1.71,3.24,1.95,5.05.26,1.91-.39,3.76-1.7,4.64-.55.37-1.18.64-1.82.86-.43.13-.9.32-1.31.55-.56.32-1.12.69-1.62,1.05-.4.29-.85.59-1.26.82-.51.31-1.76.85-2.84.41,3.84-4.21,6.47-9.62,7.77-14.93ZM202.04,186.06c.43.6.93,1.24,1.11,2,.32,1.29-.29,2.62-.89,3.78-.68,1.29-1.43,2.53-2.24,3.72-.32.44-.64.89-1.05,1.07-.41.24-.91.26-1.4.34l-.27.04c-1.37.17-2.76.57-3.99,1.22-.36.17-.72.4-1.07.62-1.02.62-2.03,1.23-3.15,1.25-.78.02-1.54-.19-2.31-.46-.71-.22-1.48-.48-2.26-.47,1.24-.93,2.42-1.96,3.53-3.04l-.08.18c.55.3,1.23.36,1.94.24.54-.09,1.07-.29,1.63-.61.46-.24.91-.6,1.31-.89.5-.36,1-.72,1.52-.98.42-.18.84-.36,1.26-.49.69-.23,1.37-.51,2.02-.95,1.44-1.08,2.23-3.11,1.98-5.3-.26-1.91-1.17-3.72-1.99-5.27l-1.21-2.26c.1-.41.15-.81.25-1.22l5.37,7.45ZM125.12,214.74c3.33-3.57,6.92-6.9,11.45-6.87,1.01,0,1.99.18,2.98.46-1.17.7-2.4,1.4-3.73,1.79-.11.02-.26.1-.43.13-.48.14-1.02.28-1.53.59-.86.53-1.33,1.45-1.74,2.36-.38.73-.76,1.52-1.4,2.02-.79.63-1.87.87-2.81.58-.35-.11-.66-.28-1.03-.5-.25-.18-.55-.3-.85-.42-.31-.17-.59-.18-.92-.13ZM158.52,208.73c-.21.43-.42.85-.64,1.22-2.06,3.47-6.77,5.09-10.52,3.69-.24-.07-.48-.2-.66-.28-.48-.2-.96-.4-1.42-.49-1.51-.31-3,.1-4.34.49-1.18.31-2.34.72-2.96,1.72-.26.44-.36.9-.45,1.36-.07.24-.14.53-.21.76-.35.95-1.06,1.74-2.1,2.19-1.4.68-3.18.75-4.67.16-.77-.26-1.51-.7-2.19-1.09-.62-.35-1.18-.7-1.83-.93-1.32-.56-2.63-.69-3.7-.4.38-.4.76-.8,1.14-1.25.24-.26.43-.46.66-.72.42-.18.86-.2,1.28-.04.3.12.54.25.85.42.37.22.68.39,1.09.49.48.2,1.04.22,1.59.13.6-.1,1.12-.35,1.62-.71.69-.56,1.06-1.35,1.44-2.14.46-.92.89-1.71,1.65-2.23.4-.29.88-.42,1.42-.57.16-.03.26-.1.43-.13,1.49-.47,2.81-1.25,4.09-2.02,1.36.45,2.74,1,4.06,1.57,3.32,1.47,6.74,2.91,10.1,1.58,1.68-.67,2.98-1.95,4.23-3.16.2-.14.34-.34.54-.48-.22.37-.35.62-.47.86ZM104.96,226.12c-.83.03-1.73,0-2.58-.02-1.74-.05-3.6-.13-5.33.21-.81.19-1.61.43-2.35.67-1.7.56-3.29,1.1-4.96.76-1.68-.34-2.99-1.52-4.31-2.76-.6-.57-1.25-1.14-1.95-1.64-1.08-.77-2.29-1.36-3.44-1.89-1.63-.74-3.28-1.58-4.55-2.83-.74-.77-1.35-1.74-1.89-2.65s-1.15-1.88-1.89-2.65c-1.56-1.64-3.78-2.56-5.94-3.44-2.51-.98-4.9-1.93-6.32-4.05-1.62-2.36-1.66-5.65-1.74-8.83-.03-1.9-.07-3.79-.41-5.53.16.31.27.63.43.94.73,1.72,1.1,3.62,1.51,5.4.28,1.35.57,2.76,1.01,4.08,1.25,3.88,3.55,6.63,6.37,7.45.64.17,1.33.28,2.02.39.92.13,1.78.27,2.56.59,1.63.74,2.62,2.31,3.61,3.93.92,1.53,1.91,3.1,3.51,4.01.87.53,1.92.8,2.86,1.04.88.25,1.75.44,2.49.88.98.51,1.72,1.28,2.59,2.15.88.92,1.81,1.83,2.96,2.36,2.61,1.25,5.42.28,8.11-.67,1.74-.62,3.6-1.21,5.38-1.28,1.4,0,2.85.31,4.2.71,1.29.35,2.63.68,3.97.69.67,0,1.28-.04,1.88-.14,1.36-.22,2.68-.72,3.89-1.48-3.49,2.25-7.47,3.53-11.71,3.61ZM47.48,165.85c-1.1-1.27-2.66-1.91-4.21-2.49-.9-.36-1.8-.71-2.6-1.19-3.16-1.88-4.9-3.95-5.87-7.09-.33-1.01-.62-2.08-.85-3.1-.61-2.36-1.23-4.77-2.37-6.94-.57-1.08-1.24-2.09-1.91-3.1-.44-.65-.9-1.36-1.29-2.08-2.09-3.51-3.16-7.31-2.98-10.97.13-3.6,1.47-7.01,3.64-9.49,0,.05-.04.12-.03.17-2.6,3.9-1.85,8.81-1.2,11.38.63,2.47,1.69,4.81,2.67,7.05.55,1.31,1.17,2.66,1.66,3.98.6,1.63,1.16,3.33,1.66,4.98.6,1.97,1.21,3.94,1.98,5.88,1.71,4.25,4.01,7.34,6.82,9.17.63.4,1.31.79,1.98,1.13,1.54.86,3.19,1.71,4.16,3.17.98,1.52,1.06,3.4,1.16,5.35,0,.34.05.66.05,1-.23-1.08-.46-2.11-.7-2.9-.33-1.34-.79-2.78-1.76-3.9ZM29.85,111.49c-.15-.59-.37-1.23-.47-1.82-.51-2.43-.05-5.03,1.16-7.18.35-.56.7-1.18,1.12-1.69.73-1.01,1.45-2.08,1.8-3.32.95-3.06-.62-6.11-1.66-7.67-.82-1.26-1.79-2.39-2.76-3.52-.7-.84-1.46-1.72-2.16-2.61-1.86-2.49-2.64-4.82-2.33-7,.18-1.26.71-2.47,1.22-3.45.59-1.16,1.32-2.51,2.48-3.26.91-.6,2.15-.86,3.62-.76,1.97.07,3.91.64,5.59,1.65.13.09.31.17.49.25,1.37.84,2.97,1.75,4.48,1.05.68-.28,1.14-.86,1.48-1.53-.35.95-.85,1.65-1.16,1.81-1.17.7-2.76.23-3.59-.08-.48-.2-.97-.46-1.4-.66-.67-.34-1.4-.72-2.17-.93-2.94-.86-6.39.61-7.73,3.34-1.42,2.92-.69,6.66,2.28,11.43l.24.41c1.98,3.2,4.25,6.79,3.58,10.54-.28,1.67-1.2,3.22-2.02,4.7-1.13,1.98-2.3,4.02-2.09,6.33.08.83.31,1.57.56,2.37.14.54.34,1.06.43,1.61.2,1.2-.05,2.41-.47,3.6.02-.56-.02-1.12-.14-1.54,0-.73-.17-1.37-.4-2.06ZM50.49,174.3c-.14-.87-.18-1.76-.21-2.65-.09-1.89-.19-3.88-1.24-5.5-.99-1.57-2.64-2.42-4.23-3.27-.67-.34-1.35-.73-1.98-1.13-2.75-1.78-4.99-4.83-6.69-9.02-.76-1.89-1.37-3.91-1.98-5.88-.5-1.65-1.06-3.35-1.67-5.04-.51-1.37-1.12-2.72-1.67-4.03-.98-2.24-1.99-4.59-2.67-7.05-.6-2.31-1.29-6.44.53-10.04-1.17,5.11.81,10.66,3.07,15.88l6.25,14.85c1.39,3.35,3.19,7.47,6.46,10.01.57.41,1.14.82,1.76,1.16,1.12.71,2.19,1.43,3.03,2.41,1.77,2.23,1.57,5.11,1.35,8.17-.04.45-.04.79-.09,1.13ZM36.09,101.85c.22.97.44,2,.49,2.99.08,3.18-1.84,5.78-3.85,8.52-.83,1.09-1.65,2.23-2.35,3.41.03-.17.06-.34.07-.57.58-1.55,1.16-3.16.83-4.78-.09-.54-.3-1.13-.44-1.66-.23-.74-.47-1.49-.49-2.27-.2-2.2.89-4.12,2.07-6.1.86-1.54,1.78-3.09,2.06-4.81.71-3.86-1.63-7.51-3.62-10.76l-.24-.41c-2.89-4.67-3.65-8.23-2.28-11.09,1.26-2.56,4.54-3.99,7.31-3.16.71.22,1.43.55,2.11.94.49.25.92.46,1.4.66.9.36,2.55.87,3.87.09.35-.23,1.05-1.12,1.36-2.29.41,1.83,1,3.69,1.74,5.47,1.79,4.4,4.25,10.49.47,13.35-1.04.79-2.33,1.11-3.68,1.45-.92.21-1.88.48-2.77.85-2.65,1.22-4.47,4.09-4.49,7.01-.05,1.07.19,2.15.41,3.18ZM28.89,111.81c-.55-2.65-.99-4.98-.03-7.99.36-1.18.97-2.28,1.58-3.34.35-.62.69-1.23.97-1.89,1.03-2.24,1.27-4.18.62-5.75-.28-.68-.73-1.39-1.41-2.12-.89-.97-1.97-1.8-3.01-2.64-1.15-.87-2.31-1.8-3.27-2.87-2.55-2.93-3.43-7.26-2.16-10.72,1.36-3.64,5-6.31,8.75-6.31,1.12-.02,2.28.24,3.37.45,1.5.26,3,.57,4.35,1.3.12.04.19.14.31.17.37.22.74.44,1.21.53.87.19,1.81-.19,2.59-.93.48-.47.77-1.08,1.07-1.63.02.11.04.22.06.38-.28,1.33-.74,2.64-1.78,3.09-1.2.53-2.56-.25-3.86-1.04-.18-.08-.31-.17-.49-.25-1.79-1.05-3.84-1.6-5.88-1.72-1.63-.07-2.99.21-4.05.89-1.32.83-2.14,2.26-2.77,3.53-.55,1.1-1.13,2.31-1.29,3.68-.29,2.34.52,4.84,2.46,7.48.71.89,1.41,1.78,2.16,2.61.96,1.07,1.93,2.2,2.74,3.41.97,1.46,2.44,4.3,1.56,7.07-.37,1.12-1,2.07-1.72,3.14-.41.57-.82,1.14-1.16,1.76-1.3,2.28-1.73,5.1-1.2,7.64.11.65.32,1.29.48,1.88.22.64.38,1.28.5,1.99.15.93.14,2.55-.16,3.77,0-1.06-.08-2.17-.14-2.55,0-1.06-.22-2.03-.38-3.01ZM193.29,206.58c-.22.04-.44.07-.7.17-1.3.61-1.86,2.26-2.4,3.75-.23.65-.46,1.31-.72,1.74-.69,1.23-1.77,2.14-2.9,3.11-1.13.97-2.35,2.01-3.08,3.36-.13.24-.25.49-.38.73-.25.49-.46.97-.79,1.31-.56.65-1.46.97-2.2,1.26-1.58.6-3.26,1.26-4.97,1.38-2.54.2-5.1-.73-7.35-1.53-.65-.23-1.25-.46-1.77-.88-.46-.43-.83-.98-1.16-1.6-.3-.45-.55-.97-.96-1.41-.28-.35-.67-.67-1.05-.95-.51-.36-.91-.75-1.2-1.2-.98-1.52-.8-3.84.44-5.44,1.15-1.53,2.95-2.44,4.67-3.23,3.9-1.76,8.02-2.94,12.21-3.63,1.52-.25,3.06-.45,4.61-.54.72-.06,1.39-.06,1.99.18.24.07.43.21.68.39.24.13.43.26.73.38,1.21.53,2.62.29,4.37-.61.21-.09.46-.24.66-.39.97-.55,2-1.11,3.1-1.18.77-.07,1.55.25,2.09.77.26.24.5.65.48,1.21-.09,1.13-1.5,1.76-1.98,1.89-.32.11-.64.22-.96.27-.54.14-1.07.29-1.53.53l.08.15ZM42.56,69.51c-.53.53-1.4,1.01-2.27.82-.41-.1-.72-.27-1.14-.48-.12-.04-.19-.14-.31-.17-1.36-.78-2.92-1.08-4.42-1.34-1.1-.21-2.31-.46-3.43-.44-3.86.02-7.66,2.72-9.05,6.53-1.3,3.63-.46,8.07,2.22,11.1.97,1.13,2.13,2.05,3.28,2.93,1.02.78,2.06,1.62,2.94,2.59.68.73,1.12,1.38,1.34,2.02.59,1.53.38,3.35-.61,5.47-.29.61-.63,1.28-.98,1.84-.6,1.11-1.2,2.21-1.57,3.39-1,3.07-.5,5.45,0,8.17.16.98.38,1.95.55,2.99.1.6.13,2.16.11,3.39l-.05.06.06.05c.02.11-.02.23,0,.34-2.48,2.59-3.96,6.19-4.1,10.07-.12,3.71.91,7.57,3.07,11.18.4.72.9,1.42,1.35,2.07.67,1.01,1.34,2.02,1.91,3.1,1.14,2.16,1.76,4.58,2.36,6.88.28,1.02.57,2.09.86,3.16.98,3.25,2.73,5.37,6.01,7.29.81.48,1.76.83,2.6,1.19,1.56.64,2.99,1.18,4.03,2.41.91,1.08,1.37,2.52,1.74,3.74.34,1.06.64,2.52.93,3.93.2.86.35,1.79.55,2.65,0,.73.06,1.39.18,2.1.47,3.17,2.25,5.84,3.97,8.46.67,1.01,1.35,2.07,1.97,3.14.73,2.06.75,4.52.8,6.91.09,3.23.13,6.58,1.82,8.98,1.48,2.22,4.05,3.19,6.51,4.18,2.09.83,4.31,1.69,5.81,3.35.74.77,1.29,1.69,1.83,2.61.6.91,1.16,1.93,1.95,2.7,1.29,1.35,2.98,2.14,4.62,2.93,1.15.54,2.37,1.12,3.38,1.85.7.5,1.3,1.07,1.95,1.64,1.31,1.18,2.7,2.46,4.49,2.84,1.74.38,3.44-.18,5.14-.73.74-.23,1.53-.53,2.3-.66,1.73-.34,3.53-.3,5.27-.25.84.03,1.74.05,2.59.08,1.12-.02,2.28-.1,3.37-.28,5.39-.89,10.19-3.69,13.61-8.01.1-.07.19-.2.28-.33,1.47-.91,3.42-.28,4.15.04.61.29,1.22.64,1.83.93.73.38,1.48.82,2.26,1.14,1.07.38,2.2.48,3.35.29.54-.09,1.08-.23,1.6-.49,1.09-.52,1.9-1.38,2.24-2.38.07-.24.14-.53.2-.82.09-.46.19-.87.41-1.24.53-.87,1.64-1.28,2.76-1.57,1.28-.38,2.78-.79,4.17-.46.46.09.94.29,1.42.49.24.07.48.2.72.27,3.87,1.43,8.79-.27,10.94-3.87.22-.37.47-.86.64-1.22.29-.61.58-1.21.95-1.72.39-.34.79-.63,1.19-.92,2.77-1.85,6.24-2.2,9.6-2.48,1.32-.11,2.65-.21,3.96-.43.05,0,.11-.02.16-.03,3.38-.56,6.41-1.84,9.02-3.61l.04.22c.86-.2,1.81.09,2.75.39.83.26,1.7.5,2.59.47.16-.03.33-.05.49-.08,1.09-.18,2.05-.79,2.97-1.33.35-.23.72-.4,1.02-.62,1.13-.63,2.46-1.02,3.72-1.17l.27-.04c.55-.04,1.15-.13,1.67-.39.56-.32.93-.82,1.24-1.32.81-1.2,1.6-2.5,2.28-3.79s1.33-2.79.97-4.3c-.2-.86-.76-1.55-1.2-2.21l-5.86-8.04c.04-.12.02-.23.06-.29.96-7.09-1.79-13.24-4.45-19.18-1.43-3.23-2.94-6.62-3.85-10.1-.51-2.1-.97-4.54-.15-6.69.66-1.79,2.01-3.07,3.46-4.48,1.3-1.28,2.6-2.55,3.39-4.19,1.62-3.4.46-7.07-.87-9.7,4.35,5.38,5.58,13.17,2.95,19.59-.32.78-.69,1.57-1.07,2.3-.46.97-.97,1.95-1.36,2.96-.81,2.2-.97,4.3-.31,5.92.52,1.48,1.66,2.63,2.75,3.8,1.08,1.11,2.09,2.17,2.6,3.54.6,1.58.43,3.28.17,5.12-.06.68-.17,1.37-.17,2.04-.24,4.63,1.65,9.01,3.48,13.3.26.57.46,1.1.72,1.67,1.83,4.29,3.65,9.91,1.82,14.8-.38,1.07-.99,2.12-1.8,3.32-1.4,2.02-2.89,3.5-4.59,4.39-1.18.64-2.41,1.01-3.63,1.05-.39,0-.73-.05-1.14-.15-.05,0-.12-.04-.17-.03.11-.02.27-.04.37-.12.32-.11.64-.16,1.02-.28,1.43-.51,2.28-1.44,2.39-2.46.06-.63-.15-1.26-.62-1.74-.67-.67-1.69-1.06-2.62-.97-1.22.09-2.35.67-3.37,1.28-.21.09-.46.24-.66.39-1.54.81-2.8,1.02-3.76.62-.24-.07-.43-.21-.62-.35-.24-.13-.5-.31-.8-.43-.73-.33-1.55-.25-2.33-.23-5.92.42-11.61,1.86-17.03,4.26-1.82.8-3.73,1.79-4.97,3.45-1.19,1.59-1.76,4.26-.48,6.23.37.55.89.97,1.39,1.34.38.27.71.55.98.85.34.39.58.8.89,1.31.38.61.77,1.27,1.29,1.74.59.52,1.31.79,1.96,1.02,2.32.85,4.93,1.76,7.64,1.54.27-.04.61-.04.88-.09,1.47-.24,2.89-.81,4.31-1.33.79-.3,1.79-.69,2.5-1.47.43-.46.68-.95.93-1.5.13-.24.2-.48.34-.67.69-1.23,1.76-2.19,2.94-3.17,1.13-.97,2.31-1.95,3.04-3.3.31-.5.54-1.15.76-1.86.45-1.36.98-2.85,2.02-3.35.52-.25,1.1-.13,1.73,0,.41.1.86.14,1.31.12,1.33-.05,2.67-.44,3.96-1.1,1.74-.96,3.29-2.44,4.78-4.59.85-1.26,1.46-2.37,1.88-3.5,1.9-5.12,0-10.85-1.85-15.3-.26-.57-.46-1.1-.72-1.67-1.81-4.18-3.64-8.52-3.42-12.97,0-.67.11-1.36.18-1.99.2-1.82.4-3.7-.23-5.44-.58-1.47-1.66-2.63-2.74-3.74-1.08-1.11-2.09-2.17-2.6-3.54-.7-1.9-.21-3.99.34-5.42.39-1.02.85-1.99,1.31-2.9.38-.73.76-1.52,1.12-2.37,3.12-7.51,1.02-16.89-5.03-22.38l-.05.06c0-.05-.07-.1-.14-.15-.73-1.05-1.63-2.08-2.41-3.07-1.88-2.26-3.78-4.63-4.85-7.37-.88-2.26-1.06-4.75-1.29-7.17-.22-2.37-.46-4.85-1.28-7.11-2.29-6.45-8.41-9.97-14.29-13.42-4.51-2.61-9.21-5.31-12.28-9.33-2.56-3.32-3.97-7.46-5.31-11.49-.57-1.75-1.2-3.55-1.88-5.28-2.29-5.72-7-11.93-13.24-12.47-1.39-.95-2.86-1.77-4.43-2.46-3.62-1.58-7.49-2.34-11.34-2.94-4.81-2.73-9.47-6.55-13.26-10.9l-.21-.25c-1.87-2.15-4.01-4.65-6.87-4.68-1.41-.05-2.65.55-3.97,1.05-.42.18-.84.36-1.25.54-3.53,1.31-7.37,1.1-11.14.94-1.07-.05-2.2-.09-3.27-.13-4.43-.05-10.28.74-13.22,4.98-.14.19-.26.43-.4.63-.4.63-.8,1.25-1.35,1.68-1.39,1.07-3.2.58-5.06.16-.82-.2-1.63-.4-2.43-.49-2.22-.25-4.51.8-6.15,2.75-1.64,1.95-2.19,4.33-1.62,6.47-.35,1.29-1.29,3.01-2.25,4.34-.65.44-1.17,1.03-1.45,1.75-2.69,6.43-3.53,13.56-2.51,20.38-.5.7-.88,1.43-1.41,1.97ZM187.88,212.78c-.27.38-.67.67-1.08.91l-.21.09c-1.62,1.05-2.95,2.44-3.91,4.11-.13.24-.25.49-.39.68-.52.92-1.03,1.9-1.89,2.44-.82.47-1.81.58-2.75.62-2,.11-4.02.05-6.06-.12-1.47-.09-3.03-.4-3.94-1.53-.28-.35-.46-.76-.65-1.23-.11-.32-.26-.57-.42-.88-.4-.72-1-1.29-1.53-1.82-.4-.38-.8-.76-1.15-1.21-.65-.9-.85-1.76-.55-2.65.85-2.66,5.81-4.76,8.65-5.56,3.2-.97,6.55-1.3,9.8-1.62.83-.08,1.81-.19,2.65.12,1.83.59,2.67,2.64,3.35,4.71.33,1.01.63,2.13.09,2.95ZM184.56,204.83c-.94-.29-1.93-.18-2.81-.1-3.25.31-6.65.71-9.86,1.62-.8.24-7.72,2.39-8.84,5.76-.34,1.01-.12,1.98.6,2.98.35.45.76.88,1.16,1.26.54.58,1.08,1.11,1.47,1.77.15.25.26.57.42.83.19.47.37.89.71,1.28.93,1.24,2.66,1.52,4.19,1.66,2.04.17,4.06.22,6.11.11.44-.02.89-.03,1.38-.12.54-.09,1.08-.23,1.59-.54.96-.61,1.47-1.59,1.98-2.56.13-.24.25-.49.39-.68.91-1.6,2.25-3,3.82-3.99l.21-.09c.45-.3.91-.6,1.23-1.04.63-.94.31-2.18-.03-3.24-.87-2.21-1.77-4.29-3.72-4.92ZM186.91,211.66c-.18.59-.84,1.03-1.5,1.42-.2.14-.41.24-.61.38-1.3.94-2.14,2.31-2.91,3.72-.22.37-.43.8-.65,1.17-.31.5-.64.89-.98,1.17-.4.29-.89.37-1.49.47-1.74.29-3.5.47-5.23.53-.94.04-1.95.04-2.66-.51-.38-.27-.62-.68-.91-1.08-.07-.1-.15-.25-.24-.41-.36-.5-.72-.94-1.13-1.44-.42-.49-.83-.98-1.14-1.49-.74-1.11-.89-2.31-.47-3.17.33-.73,1.09-1.19,1.75-1.58,2.19-1.31,6.66-3.73,10.63-4.38,1.63-.27,3.2-.25,4.52.26,1.5.59,2.55,1.87,3.02,3.75.07.44.08.83-.03,1.18ZM184.07,205.97c-4.79-1.9-12.6,2.3-15.76,4.16-.76.46-1.57.99-2.04,1.9-.49,1.09-.31,2.51.52,3.83.37.55.79,1.04,1.2,1.54.35.45.76.88,1.06,1.34.07.1.15.25.23.35.3.45.6.91,1.05,1.28.9.69,2.08.72,3.13.66,1.78-.07,3.54-.25,5.28-.54.05,0,.11-.02.16-.03.54-.09,1.08-.23,1.59-.54.5-.36.92-.88,1.23-1.38.22-.37.49-.75.7-1.18.74-1.3,1.52-2.66,2.73-3.47.2-.14.41-.24.61-.38.71-.45,1.47-.91,1.77-1.8.15-.47.12-.97-.05-1.67-.54-1.92-1.73-3.35-3.41-4.08ZM179.07,181.41c.51,3.77-3,8.27-5.31,11.22l-.27.38c-1.11,1.41-2.06,2.07-2.62,1.77-1.11-.6-1.24-4.49-.42-6.64.88-2.49,2.73-5.82,5.28-7.64.9-.65,1.52-.98,2.01-1.06.22-.04.34,0,.51.03.41.1.69.78.82,1.93ZM178.47,178.76c-.73-.33-1.68,0-3.18,1.08-2.64,1.95-4.59,5.4-5.51,7.96-.77,2.09-.93,6.58.73,7.49.31.17.59.18.86.14.76-.13,1.6-.82,2.56-2.1l.27-.38c2.35-3.07,5.95-7.69,5.45-11.75-.11-1.32-.47-2.16-1.18-2.43ZM123.06,124.59c-.62,3.01-2.7,6.04-5.41,5.87-1.75-.1-3.08-1.39-4.41-2.68-.73-.72-1.47-1.44-2.28-1.97-2.14-1.44-4.82-1.78-7.54-2-2.04-.17-4.1-.44-5.13-1.95-.81-1.15-.76-2.9.07-4.65.37-.79.86-1.54,1.36-2.29.45-.69.94-1.44,1.32-2.18,1.64-3.29,1.45-7.12,1.3-10.78l-.02-.78c-.04-.94-.02-1.84.37-2.52.81-1.53,4.83-3.59,6.57-3.93,2.45-.4,4.01,1.58,5.21,3.45,2.98,4.49,5.38,8.23,7.09,12.48,1.81,4.9,2.39,9.73,1.52,13.96ZM114.83,97.76c-1.48-2.22-3.21-4.22-5.94-3.78h-.05c-1.8.31-6.09,2.41-7.07,4.25-.47.86-.48,1.87-.42,2.87l.02.78c.15,3.61.31,7.33-1.23,10.49-.38.73-.83,1.42-1.27,2.11-.49.75-.98,1.5-1.4,2.36-.9,1.99-.91,3.95-.02,5.32,1.19,1.76,3.53,2.1,5.68,2.25,2.66.18,5.22.48,7.25,1.88.76.55,1.49,1.21,2.22,1.93,1.4,1.39,2.86,2.77,4.89,2.88.34,0,.67,0,1-.05,2.72-.45,4.57-3.49,5.16-6.39.91-4.34.32-9.28-1.7-14.37-1.65-4.26-4.12-8.05-7.1-12.53ZM126.3,125.23c-.29,1.95-.65,4.19-1.87,5.96-.73,1.01-1.63,1.67-2.54,1.87-1.46.3-2.75-.39-4.16-1.16-.98-.51-2.02-1.06-3.12-1.28-.63-.12-1.3-.07-1.95.04-.87.14-1.72.45-2.57.7-1.11.41-2.33.78-3.5.8-1.78.07-3.47-.71-5.01-1.52-1.78-.94-3.71-2.13-4.91-4-1.28-2.03-1.52-4.78-.73-8.16.26-1.16.63-2.29.95-3.4.47-1.59.99-3.18,1.27-4.85.21-1.43.2-3.22.16-5.12-.08-4.57-.09-9.72,3.54-12.11,5.47-3.47,12,1.55,14.8,5.61,1.01,1.4,1.89,2.99,2.75,4.47.77,1.27,1.49,2.61,2.37,3.86.3.45.66.95.96,1.41.81,1.15,1.68,2.41,2.34,3.7,2.11,4.29,1.75,9.27,1.22,13.17ZM123.11,108.3c-.3-.45-.66-.95-.96-1.41-.82-1.26-1.6-2.59-2.37-3.86-.86-1.48-1.73-3.02-2.75-4.47-2.91-4.11-9.65-9.32-15.25-5.65-3.8,2.42-3.76,7.72-3.67,12.35.02,1.84.04,3.63-.17,5.06-.24,1.61-.75,3.26-1.22,4.79-.32,1.12-.69,2.24-1,3.41-.83,3.44-.53,6.3.77,8.43,1.21,1.93,3.21,3.16,5.04,4.09,1.6.86,3.34,1.58,5.18,1.55,1.22-.03,2.44-.46,3.61-.82,1.49-.47,2.91-.98,4.36-.72,1.03.17,2.08.72,3,1.24,1.35.73,2.7,1.46,4.23,1.2l.16-.03c1.03-.23,1.97-.94,2.74-2.02,1.26-1.83,1.67-4.13,1.9-6.13.52-3.95.87-8.98-1.17-13.23-.73-1.39-1.6-2.59-2.42-3.8ZM113.18,45.68c1.58.41,3.16.88,4.71,1.41,11.55,3.91,21.02,13.15,25.25,24.58.58,1.47,1.01,3.08,1.48,4.57.97,3.14,1.94,6.34,3.64,9.19,1.84,3,4.44,5.53,6.91,7.98,3.26,3.15,6.65,6.4,8.2,10.73.52,1.48.85,3.1,1.1,4.63.15.93.36,1.84.57,2.76.5,2.04,1.23,4.05,1.99,5.99,1.51,4.06,3.11,8.32,2.29,12.54-.27,1.39-.73,2.69-1.24,4.01-.67,1.73-1.32,3.52-1.4,5.43-.14,2.54.77,5.02,1.67,7.44,1.02,2.8,2.02,5.48,1.47,8.26-.5,2.71-2.34,4.8-4.27,7.02-1.04,1.18-2.17,2.43-3.01,3.8-1.65,2.56-2.42,5.66-3.22,8.64-1.11,4.15-2.13,8.13-5.21,10.81-3.67,3.18-8.53,3.2-13.67,3.26-3.68.05-7.48.06-10.92,1.3-1.47.58-2.85,1.36-4.23,2.15-1.07.62-2.25,1.27-3.4,1.79-3.08,1.35-6.04,1.33-8.01-.08-.89-.64-1.53-1.48-2.17-2.33-.42-.49-.79-1.04-1.26-1.53-1.01-1.06-2.55-1.87-3.96-1.64-.33.05-.64.16-.95.32-.82.47-1.29,1.33-1.72,2.13-.17.31-.35.62-.53.87-2.32,3.57-7.56,4.04-11.53,2.68-2.43-.83-4.61-2.2-6.79-3.52-1.5-.93-3.05-1.85-4.69-2.64-1.28-.63-2.65-1.13-3.96-1.64-1.67-.62-3.4-1.29-4.94-2.15-1.9-1.03-5.25-3.33-5.91-7.02-.22-1.36-.07-2.79.03-4.2.07-.91.2-1.82.21-2.78,0-3.75-1.81-7.59-5.35-11.42-1.42-1.5-2.94-2.93-4.46-4.3-1.59-1.47-3.22-2.94-4.67-4.6-10.49-11.69-10.88-31.04-.96-43.13.94-1.11,1.93-2.22,2.88-3.22,2.14-2.31,4.37-4.69,5.74-7.6,2.66-5.58,1.65-12.07.32-17.73l-.59-2.59c-1.21-4.95-2.43-10-1.81-15.03.82-6.23,5.42-11.58,11.16-13.03,2.1-.51,4.27-.54,6.34-.54,4.3-.04,8.32-.09,11.58-4.04.46-.58.86-1.21,1.26-1.83.71-1.12,1.43-2.19,2.42-2.97,1.84-1.37,4.63-1.43,7.46-.22,1.44.6,2.76,1.5,4.08,2.35.88.58,1.82,1.21,2.74,1.67,3.03,1.74,6.25,2.61,9.29,3.45ZM97.38,38.05c-2.95-1.25-5.84-1.16-7.79.22-1.1.8-1.81,1.92-2.52,3.04-.4.63-.8,1.25-1.22,1.77-3.11,3.87-7.07,3.91-11.27,3.93-2.12.01-4.3.04-6.45.56-5.91,1.48-10.6,6.95-11.45,13.3-.67,5.09.63,10.24,1.83,15.19.2.86.4,1.72.59,2.53,1.31,5.55,2.31,11.98-.3,17.5-1.32,2.85-3.56,5.23-5.65,7.47-1,1.06-2,2.12-2.94,3.22-10.06,12.23-9.64,31.79.92,43.58,1.45,1.66,3.09,3.13,4.73,4.59,1.51,1.37,3.03,2.8,4.46,4.3,3.47,3.73,5.21,7.53,5.25,11.16.03.89-.09,1.81-.17,2.71-.16,1.42-.31,2.85-.03,4.25.69,3.86,4.1,6.2,6.12,7.27,1.6.86,3.33,1.52,5,2.14,1.31.51,2.63,1.02,3.9,1.59,1.58.75,3.14,1.72,4.62,2.59,2.18,1.32,4.41,2.68,6.84,3.51,4.15,1.44,9.55.94,11.95-2.81.17-.31.35-.62.53-.87.43-.8.86-1.6,1.63-2,1.43-.85,3.31.07,4.46,1.28.47.48.83.98,1.26,1.53.64.84,1.35,1.74,2.3,2.42,1.7,1.17,3.68,1.29,5.37,1.02,1.25-.21,2.36-.61,2.99-.88,1.2-.53,2.32-1.17,3.45-1.8,1.33-.78,2.71-1.56,4.19-2.09,3.31-1.27,7.11-1.28,10.75-1.27,5.2-.02,10.12-.05,13.88-3.35,3.18-2.76,4.23-6.91,5.29-11,.74-2.97,1.58-6.02,3.17-8.58.85-1.31,1.93-2.56,2.96-3.73,1.88-2.16,3.81-4.38,4.35-7.2.53-2.88-.5-5.73-1.5-8.42-.89-2.37-1.8-4.79-1.65-7.28.09-1.81.75-3.59,1.36-5.31.51-1.31,1.01-2.68,1.29-4.07.8-4.33-.8-8.59-2.33-12.76-.71-1.95-1.49-3.95-1.99-5.94-.21-.92-.41-1.83-.57-2.76-.31-1.57-.58-3.15-1.16-4.67-1.55-4.33-4.95-7.63-8.27-10.83-2.53-2.44-5.06-4.93-6.89-7.87-1.69-2.8-2.67-5.99-3.62-9.08-.47-1.49-.96-3.09-1.48-4.57-4.25-11.55-13.78-20.83-25.45-24.78-1.54-.53-3.18-.99-4.71-1.41-3.05-.84-6.21-1.72-9.04-3.26-.92-.52-1.86-1.09-2.74-1.67-1.44-.94-2.82-1.83-4.26-2.43ZM112.99,47.56c1.52.42,3.1.83,4.59,1.37,11.26,3.85,20.45,12.79,24.59,23.97.52,1.48.99,2.97,1.46,4.46.95,3.03,1.91,6.17,3.54,8.92,1.77,2.95,4.3,5.39,6.76,7.78,3.19,3.05,6.46,6.26,7.93,10.44.51,1.43.83,3,1.07,4.47.14.87.35,1.79.56,2.7.5,1.99,1.21,3.94,1.91,5.84,1.49,3.95,3.01,8.06,2.24,12.22-.23,1.32-.74,2.64-1.2,3.94-.62,1.67-1.28,3.45-1.37,5.26-.15,2.49.75,4.91,1.64,7.22,1.01,2.74,2,5.32,1.44,8.04-.51,2.66-2.3,4.69-4.19,6.84-1.04,1.18-2.07,2.36-2.91,3.72-1.6,2.5-2.39,5.54-3.14,8.4-1.06,4.09-2.05,7.89-5.04,10.51-3.57,3.11-8.27,3.1-13.3,3.14-3.57.03-7.32.03-10.58,1.3-1.43.51-2.81,1.3-4.08,2.07-1.07.62-2.14,1.25-3.29,1.77-2.97,1.33-5.88,1.31-7.78-.06-.82-.59-1.52-1.43-2.11-2.28-.42-.49-.79-1.04-1.25-1.47-.95-1.02-2.48-1.83-3.84-1.6-.33.05-.59.15-.9.32-.82.47-1.25,1.27-1.67,2.07-.17.31-.3.55-.47.86-2.22,3.5-7.35,3.95-11.26,2.58-2.31-.79-4.49-2.11-6.6-3.39-1.43-.88-2.98-1.8-4.5-2.56-1.27-.57-2.58-1.08-3.84-1.6-1.61-.63-3.28-1.25-4.81-2.06-1.85-1.04-5.12-3.24-5.77-6.82-.22-1.36-.11-2.72.05-4.09.08-.85.21-1.77.18-2.66-.04-3.63-1.77-7.37-5.19-11.11-1.37-1.51-2.88-2.88-4.33-4.21-1.52-1.43-3.16-2.89-4.54-4.45-10.2-11.35-10.63-30.18-.94-42.02.88-1.1,1.88-2.16,2.84-3.15,2.09-2.25,4.28-4.56,5.61-7.36,2.57-5.46,1.58-11.78.35-17.23-.19-.81-.39-1.67-.58-2.48-1.18-4.78-2.39-9.73-1.74-14.65.79-6.06,5.25-11.27,10.88-12.7,2.04-.5,4.17-.52,6.17-.57,4.19-.02,8.1-.05,11.26-3.98.46-.58.82-1.14,1.22-1.77.71-1.12,1.38-2.13,2.38-2.85,1.8-1.3,4.52-1.42,7.24-.19,1.39.61,2.7,1.46,3.96,2.31.88.58,1.76,1.16,2.68,1.68,2.53,1.43,5.63,2.26,8.68,3.1ZM97.55,40.09c-2.83-1.21-5.67-1.13-7.57.24-1.04.79-1.76,1.86-2.47,2.98-.35.56-.76,1.19-1.17,1.7-3.07,3.75-6.92,3.83-11,3.83-2.07,0-4.19.02-6.29.53-5.75,1.45-10.35,6.8-11.12,12.96-.63,4.97.58,9.97,1.76,14.75.19.81.39,1.67.58,2.48,1.28,5.38,2.2,11.66-.27,16.99-1.27,2.78-3.47,5.05-5.51,7.28-.95,1-1.95,2.06-2.84,3.15-9.78,11.9-9.38,30.97.96,42.46,1.44,1.61,3.02,3.08,4.59,4.44,1.45,1.33,2.96,2.7,4.33,4.21,3.34,3.64,5.07,7.33,5.09,10.85.03.89-.1,1.75-.18,2.66-.17,1.37-.32,2.79-.04,4.15.67,3.75,4.02,6.05,5.92,7.08,1.54.86,3.21,1.48,4.88,2.1,1.25.46,2.57.98,3.78,1.56,1.58.75,3.07,1.67,4.5,2.56,2.11,1.27,4.29,2.59,6.66,3.43,4.03,1.4,9.32.92,11.64-2.7.17-.31.35-.56.47-.86.43-.8.86-1.54,1.58-1.94,1.38-.79,3.26.08,4.34,1.24.41.44.83.98,1.19,1.48.64.84,1.35,1.74,2.23,2.32,1.65,1.18,3.56,1.26,5.2.99,1.25-.21,2.31-.6,2.93-.87,1.14-.52,2.27-1.16,3.34-1.78,1.27-.77,2.66-1.5,4.08-2.07,3.21-1.2,6.9-1.25,10.47-1.28,5.08-.05,9.83-.06,13.51-3.23,3.08-2.69,4.14-6.78,5.17-10.7.76-2.87,1.5-5.84,3.1-8.34.79-1.31,1.88-2.49,2.86-3.66,1.84-2.09,3.72-4.25,4.27-7.02.54-2.83-.47-5.57-1.46-8.2-.89-2.31-1.72-4.69-1.62-7.12.09-1.81.7-3.53,1.32-5.2.46-1.31.97-2.62,1.24-4.01.76-4.21-.77-8.38-2.26-12.38-.7-1.9-1.42-3.85-1.9-5.78-.2-.86-.41-1.78-.55-2.65-.31-1.52-.56-3.04-1.08-4.52-1.53-4.22-4.8-7.43-8-10.54-2.4-2.34-4.93-4.78-6.69-7.68-1.63-2.75-2.58-5.84-3.53-8.87-.47-1.49-.94-2.98-1.46-4.46-4.14-11.23-13.41-20.27-24.79-24.16-1.54-.53-3.06-.95-4.59-1.37-2.98-.79-6.09-1.68-8.8-3.19-.92-.52-1.8-1.1-2.67-1.63-1.35-.73-2.66-1.57-4.11-2.23ZM149.18,163.96c-.06.34-.28.66-.52.92-1.14,1.25-2.76,1.91-4.44,1.91.22-1.04.72-2.08,1.43-2.86.54-.48,1.17-1.03,1.94-1.1.44-.07.92.13,1.24.41.19.14.34.39.34.73ZM147.59,162.43c-.16.03-.33.05-.48.14l-.07-.1c-.56.32-1.11.74-1.54,1.2-.05,0-.05.06-.1.07-.75.85-1.3,1.95-1.44,3.15l-.03.17.17.03c.45.04.9.02,1.33-.05,1.36-.22,2.65-.88,3.6-1.94.24-.26.56-.65.6-1.11.05-.4-.13-.76-.4-1.05-.51-.36-1.1-.55-1.65-.51ZM154.96,157.97c-.41,3.65-5.9,8.3-8.65,9.93-1.13.63-2.57,1.04-3.38.22-.61-.63-.45-1.72-.31-2.24.53-2.21,2.39-4.14,4.65-4.68.16-.03.33-.05.48-.14.44-.07.81-.19,1.23-.37.26-.1.79-.63,1.59-1.55,1.09-1.19,2.89-3.16,3.76-3.3.11-.02.22-.04.28,0,.24.07.53.47.35,2.12ZM154.79,155.54c-.91-.41-2.59,1.27-4.49,3.31-.66.72-1.23,1.38-1.49,1.48-.36.17-.74.23-1.17.36-.16.03-.33.05-.54.14-2.36.61-4.32,2.61-4.89,4.94-.17.64-.32,1.79.42,2.56.53.53,1.23.69,1.99.57.6-.1,1.23-.37,1.79-.69,2.86-1.65,8.35-6.35,8.78-10.17.26-1.5.13-2.26-.41-2.5ZM149.59,119.26q.05,0,.11-.02c.44-.07.93.18,1.4.72.62.68.83,1.65.72,3.01-.2,1.82-.86,3.61-1.52,5.34-.55,1.43-1.14,2.93-1.39,4.48-.46,2.65-.07,5.33.3,7.95.27,1.97.56,4.05.5,6.07-.07.91-.35,3.97-2.51,4.78-1.57-.69-2.42-2.45-2.64-5.49-.4-5.47-.09-11.06,1.04-16.45l.05-.4c1.15-6.23,2.5-9.59,3.95-9.99ZM145.23,129.15l-.06.34c-1.11,5.5-1.48,11.04-1.02,16.56.25,3.2,1.18,5.12,2.91,5.78l.06.05h.05c2.43-.86,2.79-4.1,2.85-5.12.11-2.03-.17-4.11-.51-6.12-.37-2.57-.75-5.25-.29-7.84.26-1.5.85-2.99,1.4-4.42.67-1.73,1.38-3.53,1.51-5.45.16-1.42-.14-2.55-.77-3.29-.62-.68-1.22-.97-1.87-.81-2.39.79-3.83,7.96-4.28,10.33ZM102.47,46.88c9.68,2.38,18.4,7.48,26.83,12.47,1.73,1,3.53,2.05,4.79,3.63,1.06,1.34,1.72,2.96,2.18,4.39.79,2.39,1.36,4.87,1.87,7.3,1.18,5.12,2.33,10.41,5.54,14.63,1.8,2.44,4.2,4.45,6.54,6.42,3.83,3.23,7.41,6.27,8.61,10.83.17.7.3,1.46.41,2.17.21,1.25.42,2.56.96,3.76.67,1.34,1.68,2.41,2.7,3.47.81.82,1.61,1.64,2.21,2.54,1.88,2.93,2.05,6.99.43,12.46-.17.64-.39,1.35-.62,2-1.1,3.48-2.18,7.13-1.7,10.74.16.98.38,1.95.64,2.86.29,1.07.59,2.25.72,3.35.47,4.9-2.45,8.9-5.56,13.11-1.32,1.84-2.74,3.75-3.81,5.72-.35.62-.63,1.28-.92,1.89-.84,1.7-1.67,3.46-3.01,4.8-1.74,1.68-4.11,2.52-6.23,3.26-11.14,4.02-21.96,7.26-31.84,3.63-.42-.15-.9-.36-1.31-.51-1.98-.79-4.01-1.58-6.08-1.24q-.05,0-.11.02c-.87.14-1.7.56-2.53.92-.73.34-1.51.7-2.32.83-2.7.56-5.28-.81-7.8-2.18-.92-.52-1.85-1.04-2.81-1.44-1.39-.61-2.91-1.03-4.32-1.47-2.93-.8-5.69-1.58-7.65-3.66-1.49-1.54-2.29-3.71-3.07-5.76-.89-2.31-1.78-4.68-3.73-6.32-.72-.61-1.52-1.09-2.37-1.51-.92-.52-1.85-1.04-2.58-1.76-.8-.76-1.36-1.79-1.96-2.75-.23-.35-.4-.72-.62-1.02-1.74-2.73-4.11-4.92-6.48-7.1-2.51-2.33-5.14-4.69-6.8-7.66-4.18-7.36-2.15-16.42.62-25.1,1.38-4.2,2.78-8.23,5.5-11.42.7-.84,1.47-1.59,2.24-2.38,1.11-1.08,2.22-2.16,3.12-3.48,2.26-3.23,2.73-7.16,2.46-10.86.42,3.9.17,8.14-2.22,11.61-.81,1.2-1.92,2.27-2.93,3.28-.72.73-1.49,1.48-2.2,2.26-2.62,3.12-3.99,7.03-5.33,11.11-2.7,8.39-4.66,17.21-.57,24.37,1.66,2.92,4.16,5.19,6.59,7.41,2.24,2.04,4.55,4.17,6.14,6.71.22.3.39.66.61.96.55.97,1.1,1.94,1.95,2.7.73.72,1.66,1.24,2.58,1.76.74.44,1.54.86,2.19,1.43,1.76,1.5,2.63,3.76,3.44,5.92.78,2,1.56,4.05,3.05,5.59,1.97,2.08,4.78,2.85,7.48,3.63,1.41.38,2.82.82,4.14,1.39.91.41,1.82.87,2.68,1.35,2.46,1.33,4.98,2.7,7.68,2.15.81-.19,1.54-.48,2.27-.82.73-.34,1.56-.7,2.38-.84,1.95-.38,3.87.42,5.73,1.18.42.15.84.36,1.26.52,4.82,1.78,9.93,1.89,15.16,1.02,5.12-.84,10.31-2.59,15.65-4.48,2.06-.73,4.38-1.56,6.07-3.24,1.35-1.34,2.18-3.04,2.97-4.69,0,0,.05-.06.04-.12.71-.79,1.35-1.68,1.94-2.5,2.41-3.36,4.62-6.91,6.6-10.54.81-1.53,1.57-3,1.69-4.7.08-1.19-.16-2.32-.57-3.43-.12-.71-.34-1.4-.51-2.1-.26-.91-.47-1.82-.61-2.7-.51-3.44.55-6.86,1.62-10.17.17-.64.4-1.3.57-1.94,1.58-5.35,1.42-9.35-.45-12.23-.6-.91-1.4-1.73-2.15-2.5-.94-.96-1.95-1.97-2.54-3.22,0-.05-.02-.11-.07-.1-.1-.6-.25-1.19-.36-1.84-.49-2.66-1-5.37-2.39-7.72-1.55-2.6-3.93-4.5-6.3-6.34-1.41-1.11-2.83-2.22-4.1-3.52-3.11-3.24-4.97-7.4-6.71-11.53-.51-1.71-.85-3.44-1.24-5.16-.55-2.31-1.06-4.75-1.83-7.03-.45-1.38-1.06-3.01-2.12-4.35-1.27-1.58-3.06-2.63-4.68-3.59-8.11-4.76-16.53-9.69-25.86-12.01l-.34-.06c-3.67-.9-6.29-1.54-9.14,1.23-2.22,2.16-4.53,2.37-7.23,2.65-1.22.09-2.48.24-3.83.52-2.75.62-5.2,2.37-7.3,3.89-5.1,3.64-10.2,7.67-11.14,13.53-.17,1.03-.17,2.04-.11,3.04-.28-1.69-.38-3.35-.1-5.02.97-5.98,6.17-10.08,11.47-13.86,2.2-1.59,4.71-3.35,7.51-3.98,1.4-.34,2.67-.44,3.94-.54,2.76-.23,5.34-.49,7.75-2.84,2.84-2.82,5.35-2.17,9.19-1.24l.47.15ZM132.28,71.61c-3.11-4.63-7.61-8.14-11.61-11.06-5.73-4.2-12.53-8.5-20-8.34-6.3.14-14.24.78-20.02,4.42-5.92,3.77-9.9,10.19-10.71,17.15-.39,3.76.08,7.59.57,11.26.33,2.69.73,5.47.74,8.21.01,3.13-.48,6.23-1.39,9.23-.77,1.41-2.12,2.75-4.03,4.08-.6.43-1.26.82-1.87,1.2-1.62,1.05-3.23,2.1-4.57,3.49-3.04,3.3-3.92,8.09-4.58,11.94-.52,2.94-1.2,6.63.06,9.83.7,1.9,2.04,3.52,3.35,5.04.55.64,1.05,1.28,1.55,1.93,1.43,1.89,2.52,4.06,3.58,6.12.66,1.29,1.32,2.58,2.08,3.8,2.41,4.08,5.23,6.63,8.36,7.63,1.01.34,2.09.49,3.18.65,2.07.33,4.07.61,5.53,2,1.19,1.09,1.74,2.73,2.32,4.26l.19.47c1.55,4.33,3.48,7.2,5.97,9.08,2.3,1.75,4.29,2.93,7.44,2.41.54-.09,1.13-.24,1.77-.46,2.21.19,4.45-.17,6.41-1.17.62-.33,1.18-.64,1.79-1.02,1.88-1.15,3.71-2.23,5.6-1.65,1.23.36,2.12,1.33,3.08,2.4.81.87,1.64,1.8,2.74,2.35,1.21.58,2.46.66,3.76.44,1.58-.26,3.14-.97,4.66-1.61l.74-.29c3.5-1.47,7.23-2.31,11.01-2.43.5-.03.94-.04,1.45-.02,1.95-.04,3.96-.09,5.8-.79,1.42-.57,2.61-1.49,3.66-2.56-.67,1.34-1.41,2.64-2.42,3.64-1.64,1.61-3.96,2.44-5.97,3.16-10.67,3.83-21.05,6.99-30.53,3.47-.42-.15-.83-.31-1.26-.52-1.86-.76-3.83-1.55-5.85-1.22q-.05,0-.11.02c-.87.14-1.65.5-2.43.85-.73.34-1.46.63-2.22.81-2.6.54-5.05-.79-7.44-2.07-.86-.47-1.79-.99-2.68-1.35-1.32-.56-2.79-.99-4.14-1.39-2.81-.77-5.46-1.56-7.35-3.54-1.42-1.5-2.21-3.55-2.98-5.49-.87-2.21-1.75-4.52-3.57-6.07-.71-.55-1.46-1.05-2.26-1.47-.86-.47-1.79-.99-2.52-1.71-.8-.76-1.34-1.68-1.88-2.6-.17-.36-.39-.66-.62-1.02-1.66-2.58-3.97-4.72-6.21-6.81-2.44-2.23-4.88-4.51-6.53-7.37-4.02-7.06-2.1-15.76.61-24.09,1.3-4.02,2.66-7.93,5.24-10.99.65-.78,1.43-1.52,2.2-2.26,1.06-1.01,2.12-2.08,2.97-3.34,3.62-5.18,2.45-12.26,1.32-17.11-.11-.32-.17-.7-.28-1.02-.71-2.96-1.5-6.02-.98-9.01.91-5.69,5.95-9.71,11.01-13.28,2.1-1.52,4.51-3.2,7.2-3.82,1.29-.32,2.56-.42,3.77-.51,2.65-.21,5.13-.45,7.43-2.74,2.69-2.68,5.14-2.08,8.81-1.17l.34.06c9.27,2.28,17.63,7.22,25.74,11.97,1.67.96,3.34,1.97,4.6,3.49,1.05,1.28,1.65,2.86,2.1,4.24.71,2.29,1.28,4.71,1.83,7.03.22.97.43,1.94.7,2.9-1.42-2.51-2.65-5.21-4.29-7.68ZM62.41,127.54l5.07,16.17c1.06,3.35,2.34,6.72,5.24,8.36,1.36.78,2.91,1.03,4.35,1.3,1.15.2,2.36.39,3.44.83,3.6,1.48,5.6,5.45,6.8,8.33.21.58.47,1.15.68,1.73,1.16,2.94,2.38,5.98,4.6,8.25,1.76,1.84,4.18,2.95,6.65,3.38-3.59.93-5.7-.29-8.13-2.13-2.43-1.84-4.29-4.66-5.89-8.93l-.19-.47c-.6-1.58-1.15-3.22-2.41-4.41-1.52-1.43-3.64-1.75-5.71-2.08-1.03-.17-2.12-.32-3.13-.66-3.06-.95-5.83-3.46-8.17-7.49-.71-1.23-1.43-2.56-2.08-3.8-1.07-2.06-2.21-4.22-3.65-6.17-.5-.64-1.06-1.34-1.55-1.93-1.26-1.53-2.58-3.1-3.28-4.94-1.18-3.1-.55-6.73-.03-9.67.66-3.8,1.55-8.59,4.49-11.76,1.28-1.39,2.95-2.44,4.52-3.43.61-.38,1.26-.82,1.87-1.2,1.45-1.02,2.57-2.05,3.41-3.08-.72,2.08-1.73,4.09-2.88,5.96-.44.74-.98,1.5-1.43,2.19-1.8,2.65-3.65,5.36-3.91,8.53-.15,2.49.59,4.94,1.28,7.11ZM140.95,90.6c.22.3.49.59.77.94.57.74,1.13,1.44,1.8,2.11,1.28,1.3,2.75,2.45,4.17,3.56.57.41,1.09.83,1.6,1.25,1.7,1.51,3.3,3.04,4.48,4.8q0,.05.06.05c1.32,2.24,1.82,4.9,2.3,7.51.49,2.6.99,5.32,2.33,7.67.31.51.61.96.91,1.47.59.85,1.11,1.66,1.43,2.56,1.1,2.95-.14,5.95-1.4,9.12-1.11,2.76-2.27,5.58-1.86,8.42.23,1.75,1.06,3.4,1.82,4.96.85,1.76,1.68,3.41,1.75,5.19-.03.84-.17,1.71-.42,2.53-.3.89-.77,1.75-1.25,2.61-.86,1.6-1.82,3.21-2.79,4.77-.32.44-.64.89-.96,1.28-1.27,1.78-2.59,3.62-3.63,5.46-.05.06-.09.13-.13.24-1.37,1.85-3.05,3.58-5.2,4.44-1.73.68-3.68.72-5.53.74-.5.03-.94.04-1.45.02-3.89.14-7.67.98-11.27,2.53l-.73.34c-2.66,1.17-5.43,2.35-7.81,1.12-.98-.51-1.74-1.39-2.55-2.21-.96-1.07-1.98-2.19-3.39-2.57-.71-.22-1.38-.22-2.03-.11-1.42.23-2.8,1.02-4.11,1.85-.56.32-1.17.7-1.74.96-4.23,2.15-9.75,1.22-13.11-2.15-2.15-2.16-3.31-5.16-4.46-8.05-.21-.58-.47-1.15-.69-1.79-1.22-2.99-3.3-7.12-7.13-8.67-1.14-.48-2.4-.67-3.56-.92-1.5-.26-2.94-.52-4.17-1.21-2.71-1.51-3.84-4.62-4.89-7.97l-5.07-16.17c-.68-2.07-1.41-4.47-1.23-6.79.23-3,2.03-5.65,3.8-8.18.5-.7.99-1.45,1.48-2.2,3.09-4.98,4.85-10.98,4.83-16.85-.01-2.79-.36-5.59-.76-8.32-.48-3.61-.99-7.39-.6-11.09.75-6.67,4.73-13.03,10.4-16.65,5.61-3.61,13.52-4.19,19.7-4.31,7.25-.13,13.98,4.07,19.58,8.18,3.94,2.87,8.37,6.34,11.42,10.92,1.93,2.87,3.3,6.11,4.67,9.3.54,1.25,1.02,2.46,1.62,3.7.78,2,1.7,3.86,2.99,5.6ZM160.3,145.57q0,.05.02.11c-.16-.31-.33-.67-.5-.98-.76-1.55-1.52-3.11-1.79-4.74-.39-2.68.73-5.43,1.8-8.07,1.28-3.12,2.63-6.42,1.44-9.58-.39-1-.98-1.85-1.51-2.72-.3-.45-.61-.96-.9-1.42-.79-1.38-1.26-2.92-1.63-4.43.6.91,1.34,1.68,2.08,2.45.74.77,1.54,1.54,2.08,2.45,1.81,2.83,1.95,6.73.41,11.96-.17.64-.4,1.3-.57,1.94-1.07,3.36-2.12,6.84-1.6,10.33.2.86.47,1.82.67,2.69ZM92.67,47.77c-2.31,2.28-4.74,2.46-7.54,2.75-1.27.1-2.59.26-3.99.55-2.86.64-5.41,2.46-7.61,4.05-5.36,3.79-10.59,8.01-11.6,14.11-.54,3.17.27,6.39,1.06,9.5.12.37.17.7.29,1.07,1.21,4.95,2.35,12.2-1.31,17.5-.85,1.26-1.96,2.34-3.07,3.41-.77.74-1.59,1.55-2.29,2.39-2.71,3.24-4.17,7.29-5.54,11.54-2.81,8.74-4.82,17.91-.57,25.37,1.73,3.01,4.36,5.43,6.87,7.76,2.31,2.14,4.74,4.31,6.41,7,.23.35.39.66.62,1.02.55.97,1.17,1.99,2.03,2.8.8.76,1.72,1.28,2.65,1.8.8.43,1.6.91,2.32,1.52,1.82,1.55,2.71,3.91,3.59,6.18.79,2.11,1.59,4.21,3.15,5.86,2.03,2.13,4.97,2.98,7.78,3.75,1.47.43,2.94.86,4.32,1.41.91.41,1.89.92,2.8,1.38,2.57,1.37,5.22,2.83,8.03,2.2.81-.19,1.59-.54,2.38-.84.78-.35,1.62-.71,2.43-.85,2.01-.39,4.05.45,5.96,1.2.43.21.9.36,1.31.51,5.06,1.85,10.33,1.93,15.77,1.03,5.34-.88,10.75-2.67,16.29-4.64,2.16-.8,4.54-1.64,6.33-3.34,1.4-1.35,2.27-3.17,3.11-4.88.29-.61.63-1.28.92-1.89,1.07-1.97,2.45-3.82,3.77-5.65,3.01-4.13,6.07-8.33,5.63-13.34-.13-1.15-.44-2.33-.74-3.46-.26-.91-.53-1.87-.64-2.86-.53-3.55.61-7.15,1.66-10.62.23-.65.39-1.35.62-2,1.65-5.59,1.47-9.75-.48-12.73-.61-.96-1.42-1.84-2.23-2.65-1.01-1.01-2.02-2.07-2.63-3.37-.52-1.14-.73-2.4-.94-3.65-.12-.71-.24-1.47-.42-2.22-1.22-4.67-4.99-7.9-8.69-10.98-2.34-1.96-4.68-3.98-6.48-6.37-3.1-4.19-4.29-9.42-5.47-14.53-.57-2.42-1.15-4.96-1.88-7.35-.47-1.49-1.13-3.11-2.21-4.56-1.33-1.63-3.19-2.72-4.87-3.73-8.48-4.98-17.21-10.08-26.9-12.51l-.35-.11c-3.93-.75-6.73-1.46-9.66,1.48ZM120.25,123.48c-.14.53-.32,1.12-.76,1.47-.25.21-.55.37-.98.5-1.62.38-3.58-.02-5.3-1.25-1.64-1.13-2.74-2.68-3.1-4.24-.41-1.83.27-3.79,1.69-4.7,1.72-1.12,3.68-1.45,5.35-.77,1.61.63,2.79,2,3.27,3.88.35,1.45.3,3.19-.16,5.12ZM117.25,114.14c-1.8-.71-3.86-.37-5.68.82-1.51,1.03-2.28,3.12-1.85,5.06.39,1.67,1.55,3.27,3.25,4.44,1.7,1.17,3.52,1.66,5.15,1.39.11-.02.27-.04.44-.07.48-.14.84-.31,1.14-.52.49-.42.66-1.06.85-1.65.51-1.99.55-3.78.18-5.34-.5-1.99-1.74-3.46-3.48-4.12ZM147.26,105.83c2.08,2.12,4.29,4.33,5.43,7.16,1.03,2.51,1.4,5.42,1.16,9.43-.23,3.34-.75,6.67-1.61,9.89l-.14.53c-.27,1.05-.55,2.1-.65,3.18-.17,2.04.38,4.02.92,5.94.42,1.55.85,3.1.94,4.71.16,4.39-2.64,8.77-6.8,10.35-.32.11-.69.23-1.06.34-.85.25-1.75.57-2.51,1.08-1.35.95-2.05,2.46-2.7,3.97-.25.54-.49,1.09-.8,1.59-1.67,3.13-5.51,5.61-9,4.45-1.66-.57-3.05-1.9-4.39-3.19-1.73-1.67-3.59-3.44-5.98-3.38-.28,0-.5.03-.77.07-.49.08-.92.21-1.34.33-.54.14-1.13.3-1.68.33-2.03.22-4.17-.88-5.18-2.61-.08-.15-.16-.31-.24-.46-.41-.77-.9-1.7-1.87-1.82-.74-.1-1.4.34-1.9.7-2.97,2-5.53,3.09-7.98,3.5h-.05c-3.16.53-6.25-.25-8.28-2.04-2.16-1.88-3.06-4.64-3.99-7.56-.45-1.38-.91-2.81-1.52-4.11-1.57-3.43-4.34-6.33-7.75-8.01-.85-.42-1.75-.77-2.59-1.14-1.43-.55-2.87-1.15-4.14-2.06-3.99-2.81-5.12-7.99-4.92-11.88.24-4.63,2.15-9.02,3.8-12.93l.09-.13c1.73-4.09,3.54-8.36,3.92-12.84.2-2.49-.05-5.08-.3-7.56-.13-1.49-.28-3.09-.36-4.58-.09-2.56.38-5.15.82-7.57.23-1.32.49-2.77.61-4.13l.1-.74c.38-3.47.74-7.06,3.09-9.74,1.55-1.77,3.66-2.9,5.6-3.72,4.49-1.97,9.3-3.32,13.8-3.84,6.64-.76,12.5.18,17.3,2.8,4.67,2.53,8.69,6.9,12.28,13.41,1.44,2.62,2.73,5.37,4.01,8.01,1.8,3.79,3.62,7.74,6,11.31,2.18,3.39,4.93,6.85,8.62,10.88.62.68,1.35,1.4,2.02,2.07ZM130.86,81.35c-1.27-2.64-2.57-5.39-4.01-8.01-3.65-6.56-7.68-10.98-12.41-13.56-4.86-2.67-10.72-3.6-17.47-2.82-4.56.53-9.37,1.88-13.91,3.86-1.93.82-4.15,1.97-5.75,3.8-2.39,2.8-2.81,6.39-3.17,9.92l-.1.74c-.17,1.37-.39,2.75-.61,4.13-.43,2.48-.9,5.07-.8,7.68.03,1.56.18,3.1.37,4.64.24,2.48.49,5.01.29,7.5-.39,4.43-2.16,8.63-3.94,12.73l-.09.13c-1.65,3.91-3.54,8.36-3.83,13.05-.28,5.08,1.66,9.74,5.09,12.19,1.27.91,2.76,1.5,4.2,2.05.84.36,1.74.72,2.59,1.14,3.35,1.68,6.05,4.48,7.62,7.86.61,1.3,1.06,2.68,1.51,4.06.91,2.81,1.84,5.74,4.12,7.71,2.09,1.84,5.3,2.65,8.52,2.12,2.56-.42,5.17-1.52,8.19-3.59.51-.31,1.05-.73,1.68-.67.74.1,1.21.92,1.61,1.64.08.15.16.31.24.46,1.09,1.89,3.35,3.03,5.49,2.79.61-.04,1.14-.19,1.73-.34.64-.16,1.34-.33,2.06-.4,2.29-.04,3.94,1.53,5.74,3.25,1.39,1.34,2.79,2.67,4.51,3.28,1.01.34,2.02.39,3,.23,2.67-.44,5.13-2.47,6.42-4.81.3-.55.55-1.1.79-1.64.66-1.45,1.3-2.96,2.61-3.84.7-.51,1.55-.76,2.4-1.07.37-.12.74-.23,1.06-.34,4.27-1.6,7.21-6.11,7.02-10.67-.04-1.61-.53-3.21-.96-4.82-.53-1.87-1.08-3.85-.9-5.78.1-1.08.38-2.13.66-3.13l.14-.53c.86-3.27,1.43-6.61,1.6-9.94.28-4.07-.1-7.03-1.19-9.59-1.2-2.88-3.41-5.09-5.5-7.26-.67-.67-1.4-1.39-2.03-2.13-3.69-4.03-6.44-7.5-8.61-10.83-2.31-3.48-4.19-7.42-5.99-11.21ZM142.15,105.72c1.22.97,2.38,1.9,3.2,3.11,2,2.97,1.41,6.87.58,9.64-.41,1.24-.87,2.55-1.34,3.74-.75,1.91-1.53,3.94-1.92,5.97-.49,2.48-.4,5.04-.32,7.55.09,1.89.14,3.89-.05,5.82-.7,6.94-5.15,13.55-11.32,16.8-3.7,1.95-9.55,3.14-13.61-.11-.64-.51-1.31-1.18-1.87-1.82-1.21-1.25-2.49-2.55-4.19-3-.82-.2-1.6-.18-2.3-.07-1.47.24-2.86.97-4.26,1.65-1.7.9-3.46,1.74-5.25,1.76-2.3-.01-4.62-1.53-6.77-4.42-1.87-2.54-3.43-5.53-4.9-8.36-2.46-4.74-5.01-9.69-9.39-12.88-.83-.65-1.76-1.16-2.63-1.69-1.18-.7-2.37-1.46-3.41-2.35-1.63-1.41-3.13-3.73-2.62-6.06.28-1.33,1.27-2.5,2.15-3.6l.28-.33c2.97-3.68,4.75-7.16,5.35-10.61.51-2.99.17-6.07-.2-9.03l-.35-3.13c-.42-5.24.07-10.41,1.47-15.51.28-1,.46-1.98.69-2.97.63-2.96,1.15-5.56,3.98-7.76,2.28-1.77,5.09-2.74,7.68-3.62,4.3-1.38,8.85-2.63,13.45-2.22,3.92.36,11.45,2.31,18.52,11.6,3.71,4.87,6.38,10.53,8.95,15.97.61,1.35,1.22,2.65,1.88,3.94,1.84,3.72,3.89,7.64,7.17,10.56.37.55.83.98,1.35,1.4ZM132.24,89.68c-2.59-5.5-5.25-11.16-9.03-16.07-7.21-9.49-14.99-11.51-18.96-11.86-4.72-.45-9.37.82-13.73,2.21-2.55.81-5.51,1.86-7.89,3.71-3.08,2.35-3.67,5.19-4.25,8.14-.18.93-.36,1.9-.64,2.9-1.44,5.16-1.91,10.44-1.49,15.74.06,1.05.24,2.14.36,3.18.37,2.9.7,5.93.23,8.85-.57,3.34-2.25,6.69-5.18,10.31l-.28.33c-.98,1.17-1.95,2.39-2.27,3.9-.58,2.61,1.08,5.19,2.85,6.75,1.11.94,2.35,1.68,3.53,2.44.87.53,1.74,1.06,2.56,1.65,4.26,3.1,6.65,7.74,9.19,12.64,1.48,2.89,3.03,5.82,4.97,8.46,2.3,3.09,4.75,4.7,7.26,4.68,1.96.01,3.82-.91,5.57-1.81,2.06-1.07,4.08-2.07,6.13-1.51,1.52.42,2.66,1.57,3.88,2.83.61.63,1.28,1.3,1.93,1.86,2.64,2.08,6,2.48,9.05,1.98,1.96-.32,3.81-.96,5.3-1.77,6.38-3.35,10.96-10.2,11.68-17.36.18-1.93.13-3.94.09-5.89-.07-2.45-.15-4.95.29-7.38.39-2.02,1.13-3.99,1.89-5.85.46-1.25.98-2.51,1.39-3.81.87-2.88,1.47-7.01-.67-10.18-.89-1.31-2.12-2.34-3.34-3.31-.52-.42-1.02-.78-1.49-1.21-3.21-2.83-5.18-6.64-7.02-10.36-.65-1.57-1.31-2.86-1.92-4.16ZM140.53,122.99c-1.19,2.94-2.18,5.45-2.38,6.94-.26,1.83-.06,3.37.13,4.84.2,1.87.43,3.62-.27,5.81-1.31,4.24-1.41,4.32-4.1,7l-.73.68c-3.7,3.69-6.77,4.42-10.93,2.58-.91-.41-1.77-.88-2.64-1.41-2.04-1.17-4.14-2.39-6.51-2.17-.16.03-.27.04-.44.07-1.31.22-2.54.87-3.68,1.45-.98.5-1.96.99-2.98,1.27-3.27.87-6.58-.87-8.56-2.73-2.25-2.09-3.77-4.91-5.22-7.58l-.16-.31c-1.61-2.98-3.31-5.83-5.78-7.94-1.1-.88-2.35-1.68-3.53-2.44-2.74-1.67-5.3-3.32-6.05-6.16-.58-2.14.12-4.72,2.01-7.49.45-.69,1-1.4,1.51-2.04,1.15-1.53,2.39-3.13,3.1-4.93,1.52-3.66,1.03-7.66.56-11.56-.27-1.97-.48-3.95-.47-5.91.06-6.11,2.9-12.28,7.75-16.43,1.56-1.38,4.5-3.93,7.01-4.62,4-1.16,9.2,1.17,10.67,1.93,4.08,2.01,7.52,5.25,10.44,8.01,2.6,2.54,5.54,5.46,7.52,8.99.62,1.07,1.18,2.1,1.75,3.12,2.48,4.51,4.81,8.83,8.61,12.56,1.01,1.01,2.12,1.66,3.18,2.33,1.24.75,2.43,1.5,3.47,2.73,1.38,1.9-1.2,8.31-3.27,13.4ZM143.54,120.26c-2,4.47-3.89,9.31-4.12,14.38-.03,1.18,0,2.35.02,3.52.07,2.45.21,5-.58,7.31-.93,2.84-3.08,5.09-5.27,7.08-2.37,2.24-5.99,5.07-9.81,4.25-1.97-.4-3.58-1.7-5.19-3-1.87-1.48-3.74-3.02-6.11-3.13-.45-.04-.89.03-1.32.11-1.47.24-2.86.97-4.26,1.65-1.6.82-3.2,1.65-4.92,1.71-2.39.11-4.97-1.31-6.9-3.84-1.14-1.49-1.98-3.2-2.81-4.85-.42-.83-.83-1.65-1.3-2.47-2.08-3.8-5.03-7.11-8.48-9.73-.71-.55-1.46-1.05-2.21-1.54-1.58-1.08-3.22-2.21-4.58-3.66-1.76-1.84-3.31-4.82-2.44-7.65.43-1.47,1.46-2.7,2.49-3.88.33-.39.61-.72.93-1.16,1.94-2.5,3.24-5.46,3.73-8.61.44-2.76.25-5.58.03-8.28-.08-1.5-.23-3.09-.2-4.61.01-16.22,10.76-28.01,20.72-29.7,7.96.76,15.33,4.46,20.2,10.21,3.61,4.27,6,9.58,8.36,14.73,2.72,5.98,5.47,12.13,10.23,16.6-.75-.49-1.51-1.04-2.25-1.75-3.74-3.69-6.06-7.89-8.48-12.42-.56-1.03-1.13-2.11-1.75-3.12-2.04-3.58-5.01-6.61-7.6-9.15-2.93-2.87-6.43-6.1-10.63-8.15-1.95-.97-7.01-3.15-11.17-1.96-2.61.77-5.65,3.39-7.27,4.78-4.94,4.28-7.92,10.65-7.94,16.97,0,2.01.22,4.05.49,6.02.48,3.95.94,7.73-.5,11.21-.72,1.74-1.92,3.28-3.01,4.8-.51.64-1.01,1.34-1.51,2.04-2.03,2.96-2.76,5.66-2.14,8.07.79,3.11,3.66,4.88,6.34,6.56,1.19.76,2.43,1.5,3.47,2.39,2.4,2.01,3.96,4.66,5.64,7.74l.16.31c1.52,2.77,3.05,5.59,5.37,7.78,2.12,2,5.66,3.82,9.2,2.9,1.13-.3,2.1-.85,3.08-1.35,1.29-.66,2.52-1.31,3.85-1.42,2.15-.19,4.06.9,6.1,2.07.87.53,1.79,1.05,2.7,1.46,2.05.89,3.84,1.21,5.58.93,2.07-.34,3.99-1.55,6.16-3.7l.73-.68c2.79-2.75,2.93-2.94,4.28-7.3.68-2.29.5-4.11.28-6.09-.18-1.42-.32-2.97-.1-4.68.17-1.37,1.24-4.01,2.35-6.76,1.91-4.68,4.02-9.89,3.49-12.77,1.61,2.98.31,6.61-1.11,9.86ZM121.42,74.3c-4.93-5.84-12.38-9.59-20.44-10.33h-.05c-12.96,2.15-20.99,17.23-21,30.04-.02,1.57.12,3.11.2,4.61.17,2.71.41,5.53-.04,8.23-.5,3.05-1.75,5.99-3.64,8.43-.27.38-.6.77-.94,1.11-1.03,1.23-2.05,2.46-2.53,4-.9,3,.72,6.09,2.54,7.97,1.36,1.45,3,2.58,4.64,3.71.75.49,1.45.99,2.16,1.55,3.39,2.57,6.29,5.9,8.36,9.64.47.82.89,1.64,1.24,2.42.83,1.65,1.68,3.41,2.82,4.9,2,2.63,4.7,4.09,7.2,3.96,1.83-.08,3.48-.96,5.07-1.79,1.81-.91,3.51-1.81,5.36-1.72,2.26.13,4.05,1.51,5.93,3.05,1.61,1.3,3.29,2.65,5.32,3.09.87.19,1.77.21,2.64.07,2.94-.48,5.61-2.6,7.5-4.37,2.18-2.04,4.37-4.36,5.35-7.26.78-2.37.7-4.93.62-7.43-.03-1.17-.1-2.33-.02-3.52.24-5.02,2.13-9.8,4.08-14.26,1.47-3.32,2.84-7.18,1.06-10.19-.23-.35-.44-.65-.72-1v-.05c-.78-.94-1.67-1.57-2.55-2.15l-.25-.18c-5.55-4.51-8.62-11.22-11.54-17.73-2.3-5.16-4.69-10.47-8.37-14.78ZM140.53,117.96c-.43,1.13-.97,2.28-1.58,3.34-.43.8-.85,1.65-1.21,2.49-1.09,2.53-1.7,5.31-1.8,8.07-.02.9.02,1.79.05,2.68.07,1.44.09,2.89-.13,4.33-.34,2.68-1.57,4.73-3.37,5.7-2.42,1.29-5.25.36-7.89-.71-.36-.16-.73-.33-1.08-.44-.3-.12-.6-.24-.91-.41-4.74-1.96-9.91-2.78-15.01-2.5-.5.03-1,.05-1.49.13-3.53.3-7.12.56-9.61-1.66-1.19-1.09-1.87-2.54-2.57-4.05-.35-.78-.7-1.56-1.16-2.27-.85-1.43-2-2.63-3.1-3.85-.54-.58-1.09-1.16-1.58-1.75-1.95-2.31-2.8-4.4-2.68-6.44.14-2.2,1.41-3.98,2.72-5.87.77-1.08,1.55-2.16,2.07-3.36,1.53-3.27,1.38-6.88,1.19-10.43-.09-1.89-.19-3.88,0-5.76.59-5.91,5.42-9.9,9.48-12.69.65-.44,2.98-1.95,5.47-2.47.05,0,.16-.03.22-.04,2.56-.42,5.2.65,7.35,1.53,2.39.95,5.11,2.18,7.12,4.19,2.47,2.44,3.69,5.77,4.9,9.04,1.31,3.53,2.64,7.17,5.5,9.61,1.11.94,2.41,1.73,3.71,2.47,2.35,1.35,4.58,2.66,5.53,5.02.96,2.08.46,4.51-.16,6.12ZM109.25,143.25c-.75.18-1.49.47-2.23.7-1.27.43-2.6.88-3.9,1.09-1.42.23-4.07.39-6-1.14-.97-.79-1.66-1.91-2.28-2.98-.94-1.63-1.95-3.37-2.79-5.08-.16-.31-.33-.67-.5-.98-.51-1.04-1.02-2.12-1.69-3.13-.97-1.46-2.29-2.7-3.56-3.94-.61-.63-1.27-1.25-1.87-1.87-2.24-2.37-3.24-4.72-3.09-6.87.19-2.55,1.94-4.51,3.73-6.54,1.04-1.18,2.13-2.36,2.91-3.72,1.21-2.16,1.79-4.77,1.74-8.12.01-.62-.04-1.28-.09-1.89-.14-2.55-.29-5.15.86-7.36.5-1.03,1.3-1.95,2.11-2.81,3.03-3.35,6.01-5.63,8.68-6.74-.25.15-.45.3-.61.38-4.17,2.87-9.05,6.86-9.67,12.95-.18,1.93-.09,3.87,0,5.82.18,3.44.38,7.04-1.16,10.26-.54,1.15-1.31,2.23-2.03,3.3-1.32,1.84-2.67,3.8-2.8,6.06-.1,2.09.76,4.29,2.77,6.65.49.59,1.03,1.17,1.58,1.75,1.09,1.16,2.18,2.38,3.03,3.81.45.71.8,1.49,1.16,2.27.7,1.51,1.4,3.07,2.64,4.15,2.56,2.32,6.27,2.04,9.86,1.79.5-.03,1-.05,1.49-.13,4.65-.26,9.42.46,13.82,2.08-3.85-.93-8.19-.83-12.09.26ZM135.39,106.45c-1.24-.75-2.54-1.48-3.64-2.42-2.8-2.39-4.12-5.98-5.42-9.45-1.22-3.32-2.5-6.69-4.98-9.19-2.07-2.06-4.85-3.28-7.24-4.23-2.28-.91-5.09-2.07-7.8-1.51-1.24.26-2.45.74-3.43,1.24-3.23.76-6.74,3.24-10.47,7.38-.85.92-1.6,1.83-2.16,2.87-1.18,2.32-1.02,4.98-.88,7.53.04.61.04,1.28.09,1.89.09,3.23-.49,5.84-1.66,7.94-.74,1.3-1.83,2.48-2.86,3.66-1.79,2.03-3.64,4.07-3.87,6.73-.19,2.27.89,4.72,3.19,7.14.61.63,1.28,1.3,1.87,1.87,1.26,1.19,2.53,2.44,3.49,3.84.66.95,1.18,2.04,1.63,3.09.16.31.33.67.5.98.85,1.76,1.85,3.44,2.8,5.13.62,1.07,1.32,2.24,2.35,3.08,2,1.63,4.78,1.51,6.25,1.26h.05c1.36-.23,2.69-.68,3.96-1.11.74-.23,1.49-.47,2.23-.7,4.92-1.37,10.55-1.12,15.15.63,2.1.88,4.35,1.63,6.48,1.28.6-.1,1.13-.3,1.7-.56,1.91-.99,3.17-3.15,3.55-5.95.2-1.49.13-2.93.12-4.38-.03-.89-.07-1.78-.05-2.68.06-2.69.67-5.42,1.77-7.9.36-.84.78-1.7,1.21-2.49.55-1.1,1.15-2.2,1.57-3.39.61-1.72,1.21-4.17.27-6.48-1.06-2.34-3.41-3.74-5.76-5.09ZM129.25,125.86c-.3,2.23-.73,4.76-2.13,6.73-.76,1.13-1.76,1.86-2.79,2.08-1.56.37-3.09-.44-4.63-1.31-1.16-.59-2.33-1.24-3.59-1.42-.74-.1-1.52-.08-2.23.03-1.03.17-1.99.5-3,.83-1.27.43-2.6.88-3.93.93-2.01.05-3.88-.81-5.65-1.7-2.02-1.06-4.2-2.38-5.49-4.46-1.44-2.28-1.68-5.43-.85-9.2.29-1.28.69-2.58,1.1-3.87.54-1.82,1.13-3.65,1.43-5.55.28-1.67.22-3.73.21-5.85-.07-5.19-.14-11.05,3.96-13.63,6.12-3.92,13.5,1.8,16.7,6.31,1.16,1.6,2.18,3.39,3.13,5.08.86,1.48,1.73,3.01,2.69,4.42.37.55.73,1.05,1.1,1.61.95,1.35,1.9,2.71,2.65,4.21,2.33,4.65,1.93,10.36,1.32,14.77ZM112.49,134.44c-2.19,1.31-4.28,2.55-6.66,2.33-1.31-.12-2.52-.7-3.68-1.29-3.19-1.71-5.57-3.61-7.39-5.83-2.11-2.62-3.28-5.67-3.27-8.63,0-2.01.57-4.01,1.1-5.89.31-1.17.67-2.4.91-3.62.41-2.25.42-4.6.37-6.89-.02-.78-.03-1.56,0-2.35.07-2.64.29-6.03,1.84-8.86,1.34-2.4,3.41-4.09,5.92-4.78-.15.08-.25.15-.41.24-4.4,2.85-4.35,8.88-4.31,14.25.01,2.12.07,4.13-.23,5.74-.31,1.84-.85,3.66-1.39,5.49-.4,1.3-.8,2.59-1.14,3.94-.91,3.95-.65,7.27.93,9.69,1.38,2.23,3.68,3.64,5.76,4.75,1.84.98,3.83,1.83,5.99,1.75,1.45-.02,2.82-.52,4.15-.96,1.7-.56,3.23-1.09,4.89-.86-1.15.47-2.28,1.1-3.4,1.79ZM125.89,106.45c-.37-.55-.73-1.05-1.1-1.61-.96-1.41-1.83-2.94-2.69-4.42-1-1.68-2.03-3.47-3.19-5.12-3.06-4.31-9.75-9.63-15.87-7.39-3.17.47-5.94,2.32-7.58,5.28-1.59,2.89-1.86,6.35-1.93,8.99.02.78-.02,1.57,0,2.35.03,2.23.03,4.58-.38,6.83-.19,1.21-.55,2.44-.86,3.61-.57,1.94-1.14,3.94-1.14,6,0,3.02,1.19,6.18,3.36,8.84,1.82,2.22,4.27,4.16,7.47,5.93,1.17.65,2.44,1.22,3.81,1.39.57.07,1.12.04,1.67-.05,1.85-.31,3.53-1.31,5.21-2.31,1.23-.71,2.44-1.47,3.76-1.96l.11-.02c.94.29,1.91.75,2.84,1.27,1.53.81,3.13,1.67,4.92,1.37.05,0,.16-.03.22-.04,1.19-.25,2.33-1.11,3.24-2.38,1.45-2.08,1.9-4.73,2.25-7.03.6-4.52.98-10.34-1.39-15.21-.76-1.55-1.77-2.95-2.72-4.31ZM122.05,123.58c-.57,2.67-2.42,5.32-4.85,5.16-1.58-.08-2.71-1.18-3.92-2.37-.61-.63-1.27-1.25-2.01-1.68-1.83-1.26-4.16-1.5-6.54-1.66-1.75-.1-3.65-.41-4.59-1.7-.73-1.05-.7-2.57.04-4.15.34-.67.78-1.36,1.18-1.98s.81-1.2,1.15-1.87c1.44-2.81,1.29-6.09,1.16-9.25l-.05-.66c-.03-.83-.04-1.61.3-2.23.73-1.35,4.23-3.16,5.81-3.42,2.23-.37,3.58,1.37,4.69,3.03,2.01,3.02,4.53,6.8,6.14,10.79,1.75,4.19,2.22,8.36,1.48,12.01ZM114.73,100.51c-1.26-1.86-2.71-3.52-4.99-3.15-1.52.25-5.26,2.04-6.06,3.63-.38.73-.36,1.57-.33,2.4l.05.66c.12,3.11.26,6.33-1.08,9.07-.34.67-.69,1.23-1.09,1.86-.4.63-.85,1.31-1.17,2.04-.79,1.64-.8,3.32.01,4.47,1.02,1.45,3.03,1.74,4.84,1.89,2.32.18,4.6.42,6.37,1.64.69.45,1.35,1.06,1.95,1.64,1.2,1.15,2.45,2.34,4.15,2.45.28,0,.56.02.83-.03,2.29-.38,3.88-2.93,4.43-5.37.79-3.71.31-7.94-1.47-12.29-1.91-4.1-4.43-7.88-6.44-10.91ZM220.01,184.78c.11,4.4-1.16,8.92-3.57,12.61-.54.82-1.08,1.58-1.68,2.35-1.6,2.17-3.25,4.39-3.6,7.02-.19,1.21-.1,2.48-.02,3.64.12,1.77.23,3.43-.41,4.99-.92,2.22-3.1,3.59-5.52,4.88l-11.39,6.24c-6.77,3.74-13.45,6.97-20.2,5.73-.69-.11-1.33-.28-2.03-.45-1.34-.34-2.74-.67-4.19-.65-1.17.03-2.35.33-3.48.63-.86.2-1.77.46-2.7.56-3.08.34-6.17-.77-9.21-1.89-3.93-1.42-7.67-2.76-11.32-1.15-.84.36-1.59.88-2.22,1.48v-.05c1.39-1.01,2.53-2.26,3.57-3.39,0,0,.05,0,.05-.06,1.77-1.13,3.44-2.19,5.34-1.89.4.05.82.2,1.23.36.59.18,1.24.41,1.91.41,1.57.02,2.85-1.03,4.09-2.02,1.34-1.06,2.62-2.11,4.04-1.62l.08-.18c.68.39,1.31.79,1.98,1.18,2.74,1.67,5.59,3.38,8.68,4.16s6.35.85,9.51.33c6.04-1,11.83-4.24,15.48-9.21.27-.38.55-.76.82-1.14.73-1.01,1.5-2.09,2.42-2.97.88-.76,1.9-1.38,2.92-1.94.31-.16.61-.38.97-.55,9.98-5.95,15.38-18.98,12.64-30.22-1.08-4.52-3.4-8.78-5.54-12.9-2.91-5.45-5.92-11.16-6.1-17.34-.08-3.51.75-7,1.59-10.38.19-.87.43-1.8.62-2.68,1.55-6.91,2.11-13.99,1.73-21.04-.11-2.05-.34-4.42-1.35-6.49-1.4-2.73-4.15-4.46-6.72-6.16-2.56-1.59-5.13-3.29-6.57-5.91-.8-1.49-1.15-3.22-1.47-4.85-.29-1.41-.58-2.87-1.2-4.22-2.18-5.07-7.22-7.14-12.57-9.39-2.82-1.16-5.71-2.41-8.11-4.09-5.5-3.85-8.55-10.11-11.49-16.11-.33-.62-.61-1.3-.93-1.92.22.3.49.59.71.89l7.75,9.35c2.64,3.14,5.78,6.54,9.91,6.53.73,0,1.43-.12,2.14-.24.93-.15,1.85-.31,2.76-.23,2,.23,3.62,1.58,5.39,3.19,4.75,4.36,7.5,10.23,8.42,17.85.3,2.47,4.92,6.07,9.01,9.2,2.25,1.75,4.42,3.41,5.58,4.67,8.75,9.63-3.72,40.88-3.84,41.18v.05c.63,8.18,4.5,12.68,8.31,17.09,3.89,4.62,7.56,8.88,7.74,16.73ZM134.98,235.21c-1.44,2.14-2.98,4.3-5.18,5.55-1.79,1.02-3.92,1.32-5.99,1.66-2.73.39-5.51.85-7.48,2.8-.34.34-.65.78-.98,1.17-.65.83-1.29,1.67-2.24,2.05-1.79.69-3.56-.53-5.26-1.71-.38-.27-.76-.55-1.13-.76-1.12-.71-2.38-1.23-3.62-1.58.94-.04,1.94-.1,2.87-.25,4.03-.66,7.93-2.43,10.47-5.03.86-.87,1.7-1.9,2.49-2.87,1.82-2.2,3.67-4.52,6.32-5.41.61.96.2,2.26-.08,2.92-.12.3-.29.61-.46.92-.34.67-.72,1.4-.81,2.2-.2,1.15.32,2.63,1.54,2.88,1.11.26,2.1-.51,2.91-1.32,2.97-2.67,6.21-5.05,9.63-7.07-1.1,1.13-2.05,2.46-3,3.85ZM91.46,243c-10.1-1.19-19.01-7.1-26.91-12.29-4.58-2.99-9.29-6.13-13.52-9.74-4.17-3.56-7.92-7.64-11.53-11.58l-11.17-12.14c-1.01-1.06-2.05-2.24-2.72-3.58-1.52-3.11-.77-6.7-.05-10.17.15-.81.35-1.62.49-2.43,1.29-7.43-.15-15.47-4.02-21.99-.77-1.27-1.58-2.48-2.39-3.63-1.25-1.81-2.5-3.62-3.45-5.64-3.33-6.95-2.51-14.86-1.7-22.54.67-6.43,1.31-13.08-.34-19.35-.74-2.79-1.97-5.49-3.17-8.03-.35-.78-.7-1.56-1.06-2.34-2.67-5.99-4.61-12.33-5.83-18.73-.38-1.95-.69-4.19-.13-6.24.46-1.64,1.45-3.09,2.39-4.48l6.27-9.14c.99-1.45,2.11-2.81,3.53-3.04.11-.02.22-.04.38-.06.55-.04,1.14.15,1.67.28.7.16,1.41.38,2.11.27.93-.15,1.56-.7,1.96-1.67.6-1.44.26-3.51-.74-4.85-.64-.84-1.38-1.56-2.16-2.22-1.12-1.05-2.24-2.04-2.8-3.4-.63-1.46-.43-3.62.5-4.44.44-.41.94-.43,1.55-.09l.13.09.09-.13c2.14-2.98,6.73-2.62,10.07-2.39,1.92.13,6.07.17,8.35-1.94-.26,1.83.52,3.49,1.42,4.52.28.35.32.9.16,1.32-.29.94-1.68,1-2.82.86-2.56-.25-7.09-.23-8.9,3.03-1.35,2.35-.74,5.38,1.81,9.27,1.57,2.43,3.51,5.35,2.75,8.22-.93-.24-1.55-.92-2.28-1.64-.67-.67-1.35-1.4-2.31-1.8-1.5-.59-3.2-.09-4.52.41-6.3,2.49-11.27,7.28-13.31,12.88-.24.6-.4,1.3-.46,1.98-.01.62.13,1.15.27,1.63.89,3.38,2.41,6.48,4.44,9.28.43.55.86,1.14,1.29,1.69,1.49,1.94,3.05,3.92,3.55,6.24.57,2.76-.34,5.42-1.32,8.27-.38,1.07-.77,2.14-1.03,3.25-.73,2.69-.1,9.58.61,14.22-.07.57-.21,1.1-.35,1.62-.21.76-.41,1.58-.44,2.42-.04.79.1,1.61.22,2.37.04.22.07.44.11.65.21,1.64.22,3.38.27,5.04,0,.67,0,1.34.05,2.01.11,4.4.76,8.66,1.53,13,.17,1.03.37,2.23.88,3.32.97,2.13,2.88,3.55,4.78,4.92l.44.32c1.78,1.33,3.67,2.92,4.3,5.05-.25,1.89-.51,3.72-.78,5.44-.19,1.21-.39,2.41-.55,3.45-.17,1.03-.18,1.99-.19,2.94-.49,7.52-.41,15.17,3.38,20.53,1.24,1.75,2.88,3.22,4.4,4.64.53.47.99.9,1.46,1.38,4.37,4.14,7.88,9.1,11,13.79l.74,1.11c2.46,3.73,4.99,7.57,8.35,10.59,2.49,2.22,5.35,3.93,8.36,5.61,3.95,2.26,8.07,4.49,12.01,6.69,4.42,2.4,8.97,4.9,13.99,6.14,3.66.85,7.48.95,11.13.35,5.99-.99,11.66-3.88,15.8-8.31.52-.59,1.09-1.19,1.61-1.78,1.97-2.28,4.05-4.64,6.9-5.33.59-.15,1.04-.12,1.35.06.38.27.52.81.62,1.41.03.16.06.38.14.54.31,1.18,1.08,2.12,2.25,2.82,1.49.87,3.47,1.05,5.18.54.16-.03.32-.11.48-.14-2.79,1.75-5.42,3.75-7.85,5.99-.78.69-1.66,1.45-2.6,1.21-.99-.23-1.42-1.5-1.26-2.53.1-.74.44-1.41.83-2.09.17-.31.35-.62.46-.97.32-.78.8-2.26,0-3.36l-.07-.1-.11.02c-2.81.91-4.77,3.3-6.63,5.57-.79.97-1.58,1.94-2.5,2.82-3.41,3.41-9.28,5.45-14.64,5.15-1.97-.4-4.05-.51-6.03-.63-1.46-.04-2.88-.14-4.18-.26ZM17.36,122.61h.05c.52,8.91,1.23,17.63,3.94,25.91.14.54.32.95.61,1.35.43.6,1.06,1,1.68,1.35.13.09.24.13.37.22,1.99,1.24,3.6,3.15,4.56,5.29-.05.73-.09,1.47-.19,2.21-.81-1.88-2.51-3.33-4.17-4.57l-.44-.32c-1.84-1.32-3.75-2.74-4.65-4.77-.45-1.04-.64-2.19-.81-3.22-.72-4.36-1.36-8.61-1.52-12.95,0-.67-.05-1.33-.04-1.95,0-1.68-.06-3.4-.28-5.1-.04-.22-.07-.44-.11-.65-.13-.76-.25-1.52-.2-2.26.04-.79.24-1.61.45-2.37.07-.24.14-.53.21-.76.17,1.03.38,1.95.54,2.6ZM28.63,156.04c-.99-1.96-2.57-3.72-4.44-4.86-.13-.09-.24-.13-.37-.22-.56-.35-1.18-.7-1.55-1.25-.28-.35-.42-.83-.55-1.31-2.46-7.48-3.3-15.28-3.79-23.31,1.03,4.92,2.87,9.26,5.31,12.55l.15-.08c.61,1.69,1.29,3.42,2.08,5.14.52,1.14,1.06,2.34,1.64,3.48.26.57.52,1.14.84,1.71l-.15.08c.81,2.22.95,5.1.83,8.08ZM44.65,39.81c-.05-.33-.16-.64-.22-.97-.68-3.47,1.02-6.71,4.61-8.65,1.23-.65,2.54-1.2,3.85-1.75,2.62-1.05,5.35-2.17,7.28-4.33.71-.79,1.28-1.72,1.86-2.6.45-.69.89-1.38,1.35-2.01,4.47-5.77,13.01-5.56,16.43-5.17,2.45.27,4.93.75,7.36,1.25,3.53.7,7.17,1.45,10.81,1.46.95.01,1.9-.03,2.89-.09,4.28-.15,8.73-.32,11.45,2.64,1.43,1.55,1.99,3.59,2.58,5.78.41,1.5.85,3.1,1.58,4.49,2.49,4.57,7.59,6.35,12.57,8.05,1.13.43,2.38.84,3.51,1.27,7.35,2.87,13.75,8.08,18.03,14.7,1.79,2.72,3.25,5.78,4.68,8.68,2.87,5.9,5.84,12.01,11.28,15.81,2.4,1.67,5.22,2.83,7.93,4.01,5.05,2.13,9.85,4.14,11.86,8.84.54,1.25.82,2.61,1.1,3.96.32,1.62.66,3.3,1.52,4.84,1.44,2.62,4.01,4.32,6.51,5.92,2.56,1.65,5,3.2,6.31,5.73.99,1.91,1.18,4.11,1.28,6.05.33,6.77-.22,13.57-1.7,20.25-.19.87-.38,1.74-.59,2.56-.8,3.32-1.63,6.76-1.56,10.21.17,6.12,3.1,11.68,5.94,17.03,2.11,3.96,4.29,8.02,5.34,12.37,2.6,10.7-2.52,23.07-11.99,28.71-.31.16-.61.38-.92.54-.97.55-1.99,1.17-2.87,1.93-.98.83-1.7,1.9-2.43,2.92-.27.38-.5.7-.77,1.08-5.32,7.09-15.04,10.53-23.68,8.38-2.39-.61-4.91-1.65-7.31-2.6-4.44-1.84-9.07-3.76-13.48-3.04-.98.16-1.94.43-2.88.87-.88.42-1.69.95-2.5,1.47-1.16.75-2.27,1.49-3.56,1.82-2.3.66-4.58.03-7.03-.57-2.04-.5-4.14-1.05-6.24-.87-3.18.36-5.76,2.35-8.3,4.28-.84.64-1.69,1.29-2.54,1.87-5.38,3.68-12.42,5.07-18.75,3.65-4.87-1.04-9.2-3.57-13.24-6.04-7.28-4.45-14.35-9.32-21.02-14.54-1.54-1.2-2.9-2.32-3.91-3.72-1.3-1.8-2-3.98-2.67-6.05l-3.55-11.33c-.81-2.55-1.62-4.77-3.48-6.19-.96-.74-2.14-1.1-3.21-1.48-.59-.18-1.24-.41-1.8-.71-3.75-1.73-6.53-6.03-7.6-11.83-.4-2.06-.57-4.16-.75-6.25-.25-2.87-.51-5.79-1.25-8.58-.83-3-2.19-5.79-3.48-8.54-.52-1.09-1.09-2.22-1.55-3.32-4.89-11-6.46-23.6-4.35-35.53.15-.81.3-1.56.45-2.37.59-2.84,1.16-5.84.96-8.77-.2-3.27-1.39-6.43-2.51-9.48-.31-.84-.62-1.74-.93-2.59-1.08-3.18-2.36-7.89-.86-12,.77-2.14,2.58-4.01,4.68-4.85,1.15-.47,2.93-.87,4.74-.06.36.16.79.37,1.16.59.74.44,1.49.87,2.35,1.01,1.15.2,2.2-.2,3.08-1.01,1.5-1.42,2.31-4.3,1.94-6.86-.09-.54-.19-1.14-.28-1.69-.48-2.89-.97-5.88.82-7.91.56-.65,1.37-1.18,2.19-1.65.51-.31,1.07-.62,1.51-1.03,3.13-2.36,2.59-4.96,1.93-7.98ZM20.51,92.17c-.49-1.6-1.39-3.01-2.24-4.44-.37-.55-.7-1.17-1.08-1.78-1.98-3.53-2.97-7.51-2.96-11.54.02-1.91.3-3.29.82-4.5.84-1.7,2.35-3.07,3.72-4.25,1.22-1.1,2.49-2.2,3.95-2.83,1.62-.71,3.29-.71,4.52-.07.49.25.88.58,1.28.96.33.28.65.56,1.03.84.88.58,2.17.93,3.12.27.71-.45.96-1.28,1.09-1.86.51-1.99.43-4.15-.33-6.04-.39-1-.93-1.92-1.42-2.84-.33-.62-.7-1.17-.97-1.8-.61-1.3-1.18-3.1-.62-4.76.62-1.67,2.44-2.86,4.83-3.26.33-.05.71-.12,1.04-.12,1.15-.13,2.3-.27,3.32-.88.81-.52,1.43-1.52,1.43-2.53.05-.73-.28-1.35-.79-1.72-1.59-1.14-.66-4.03,0-6.15l.18-.59c.25-.88.59-1.83,1.18-2.66,1.01-1.34,2.52-2.04,4.28-2.55-3.51,2.14-5.18,5.55-4.47,9.18.05.33.16.64.23,1.03.67,3.02,1.18,5.45-1.95,7.87-.5.36-1,.72-1.51,1.03-.86.53-1.73,1.07-2.39,1.79-1.97,2.28-1.44,5.5-.93,8.6.1.6.2,1.2.29,1.74.35,2.46-.48,5.22-1.87,6.63-.76.8-1.73,1.07-2.76.9-.81-.15-1.49-.54-2.23-.97-.37-.22-.81-.48-1.23-.69-1.58-.75-3.47-.71-5.31.04-2.31.94-4.26,3-5.16,5.33-1.62,4.41-.3,9.39.87,12.72.32.9.63,1.8,1,2.69,1.13,3.11,2.33,6.33,2.6,9.64.21,2.99-.41,6-.99,8.94-.15.81-.29,1.61-.44,2.42-1.62,9.16-.62,19.29,2.82,29.63-2.52-4.11-4.26-9.53-4.85-15.53-.36-3.52-.65-6.66-.16-9.76.34-2.01,1-4.14,1.63-6.08,1.41-3.98,2.7-8.05,1.43-12.04ZM54.09,218.17c.42.49.83.98,1.3,1.46,1.8,1.77,4,2.92,6.21,4.07l26.34,13.89c2.27,1.19,4.59,2.38,7.1,3.02-1.65-.18-3.34-.57-4.65-1.08-9.3-3.5-18.27-8.01-26.68-13.22-3.24-2.04-5.9-3.89-8.07-6.22-.49-.59-1.04-1.23-1.55-1.93ZM53.37,217.18c0,.05.07.1.14.2-.07-.1-.14-.15-.14-.2ZM27.24,177.41c1.27,6,5.42,11.86,10.87,14.71.49.25,1.03.5,1.52.76,1.33.62,2.73,1.28,3.85,2.33,1.92,1.81,2.71,4.59,3.39,6.99,1.96,6.78,4.04,13.32,8.59,18.16,2.18,2.38,4.84,4.24,8.14,6.26,8.42,5.27,17.44,9.76,26.74,13.26,1.97.74,4.85,1.27,7.07,1.13,1.36.11,2.8.04,4.22-.19,2.29-.38,4.67-1.22,6.92-2.48,4.3-2.39,7.69-5.91,10.19-8.73,2.26-2.55,5.69-5.86,8.84-4.42.79.37,1.44.94,2.1,1.56.34.34.72.66,1.05.95,2.44,1.89,5.81,2.34,8.64,1.2.21-.09.42-.18.63-.27-1.35,1.34-2.93,2.55-4.8,3.09-1.54.48-3.31.27-4.67-.52-.68-.39-1.64-1.13-1.96-2.36-.03-.16-.05-.33-.14-.48-.16-.64-.29-1.41-.92-1.86-.44-.32-1.07-.38-1.88-.19-3.07.73-5.19,3.15-7.25,5.56-.52.59-1.04,1.18-1.55,1.77-6.52,6.95-16.86,10-26.3,7.75-4.94-1.14-9.44-3.65-13.81-6.06-3.93-2.15-7.99-4.39-11.95-6.64-2.96-1.69-5.82-3.4-8.25-5.58-3.28-2.93-5.81-6.76-8.26-10.44l-.74-1.11c-3.13-4.74-6.7-9.75-11.08-13.95-.47-.48-.99-.9-1.46-1.38-1.52-1.43-3.1-2.85-4.33-4.54-2.65-3.87-3.43-8.94-3.41-14.26ZM53.28,216.97c-2.84-4.34-4.54-9.54-6.03-14.89-.69-2.46-1.49-5.29-3.53-7.14-1.12-1.05-2.58-1.76-3.92-2.37-.49-.25-1.03-.5-1.52-.76-5.88-3.11-10.29-9.83-10.98-16.37,1.23,5.06,4.62,8.69,8.21,10.11,1.08.44,2.25.75,3.36,1.07,2.05.56,3.93,1.09,5.57,2.21,3.43,2.46,4.38,7.22,4.81,10.51.13,1.1.25,2.2.38,3.35.5,5.06,1.07,10.23,3.64,14.28ZM141.86,226.75c-.05,0-.1.07-.15.08-.86.53-1.73,1.07-2.62,1.44-2.62,1.05-5.71.66-7.95-1.09-.38-.27-.72-.61-1.04-.89-.72-.61-1.39-1.28-2.29-1.69-3.62-1.58-7.24,1.87-9.64,4.61-2.45,2.75-5.79,6.27-9.99,8.58s-8.65,3.16-12.6,2.3c-2.61-.58-5-1.81-7.33-3.04l-26.34-13.89c-2.14-1.1-4.29-2.26-6.02-3.93-4.26-4.11-4.96-10.42-5.59-16.58-.13-1.15-.26-2.25-.38-3.35-.46-3.45-1.49-8.37-5.12-11.01-1.71-1.23-3.76-1.78-5.76-2.35-1.12-.32-2.22-.58-3.25-1.03-6.46-2.57-8.99-10.1-8.11-16.28.16-1.09.3-2.23.55-3.45.75-4.6,1.63-10.11.95-14.59.56,1.36,1.07,2.79,1.48,4.23.7,2.57.24,5.55-.23,8.43-.4,2.64-.85,5.34-.39,7.78,1.55,8.41,5.76,11.52,8.17,12.58.79.37,1.87.48,3.01.62,1.42.16,2.91.36,3.74.95,1.79,1.38,2.66,3.59,3.42,6.15l3.66,11.7c.7,2.23,1.42,4.52,2.85,6.41,1.09,1.5,2.51,2.66,4.11,3.91,6.93,5.4,14.26,10.51,21.78,15.09,4.04,2.47,8.74,5.16,13.84,6.27,2.84.59,10.46,1.35,20-5.2.91-.6,1.8-1.3,2.64-1.95,2.53-1.98,5.16-3.98,8.29-4.33,2.14-.24,4.24.64,6.35,1.53,2.35,1.01,4.8,2,7.26,1.32,1.33-.39,3-1.84,4.56-3.21,1.27-1.1,2.49-2.2,3.48-2.64,3.69-1.73,7.13-.5,10.64,1.43-1.22.09-2.35,1-3.44,1.85-1.14.91-2.37,1.9-3.66,1.89-.56-.02-1.09-.16-1.69-.39-.42-.15-.89-.3-1.34-.34-2.17-.26-4.04.95-5.86,2.09ZM208.45,169.29c2.19,4.11,4.45,8.33,5.53,12.85,2.73,11.13-2.65,23.98-12.47,29.85-.31.16-.61.38-.92.54-1.03.56-2.04,1.18-2.98,1.95-.97.89-1.75,1.97-2.52,3.04-.27.38-.55.76-.82,1.14-5.55,7.4-15.7,10.98-24.63,8.7-3.04-.79-5.88-2.44-8.62-4.12-.69-.45-1.37-.84-2.05-1.23l.04-.12c-.17-.03-.29-.06-.46-.09-3.03-1.74-6.04-3.03-9.19-2.51-.76.13-1.56.37-2.34.72-.99.44-2.21,1.54-3.53,2.65-1.56,1.38-3.23,2.77-4.46,3.14-2.35.67-4.64-.3-7.04-1.3-2.1-.88-4.26-1.76-6.52-1.55-3.24.37-5.92,2.43-8.44,4.41-.84.64-1.74,1.35-2.64,1.95-9.5,6.49-16.95,5.76-19.73,5.15-5.05-1.12-9.75-3.82-13.72-6.24-7.52-4.58-14.84-9.63-21.77-15.03-1.6-1.25-3.03-2.41-4.1-3.85-1.38-1.9-2.08-4.13-2.77-6.31l-3.66-11.7c-.82-2.61-1.64-4.87-3.55-6.29-.89-.64-2.43-.83-3.92-1.03-1.14-.15-2.22-.25-2.96-.63-3.93-1.81-6.86-6.31-7.96-12.33-.45-2.39,0-5.04.41-7.67.47-2.93.93-5.91.21-8.59-.55-1.98-1.32-3.92-2.19-5.79-.14-.48-.26-.91-.44-1.33l-.15.08c-.26-.57-.52-1.14-.85-1.76-.52-1.14-1.1-2.28-1.64-3.48-.79-1.72-1.46-3.45-2.09-5.19l.1-.07c-.08-.15-.22-.3-.3-.45-3.83-10.67-4.95-21.22-3.28-30.72.15-.81.29-1.61.44-2.42.58-2.95,1.19-6.01.97-9.05-.22-3.38-1.42-6.59-2.61-9.75-.32-.9-.69-1.79-1-2.69-1.16-3.28-2.47-8.21-.89-12.49.8-2.26,2.72-4.2,4.97-5.13,1.2-.53,3.09-.96,5.03-.05.42.15.8.43,1.22.64.18.08.37.22.55.3-1.27-.24-2.65-.12-4.01.44-2.25.93-4.21,2.99-5.06,5.25-1.58,4.34-.28,9.16.88,12.44.31.84.62,1.74.93,2.59,1.11,3,2.24,6.12,2.48,9.27.19,2.88-.39,5.77-.93,8.6-.15.81-.3,1.56-.45,2.37-2.11,11.98-.56,24.76,4.41,35.91.52,1.14,1.05,2.29,1.56,3.38,1.28,2.7,2.64,5.49,3.46,8.43.73,2.73.99,5.65,1.23,8.47.18,2.1.36,4.19.76,6.31.64,3.53,2.51,9.82,8.02,12.33.61.29,1.25.46,1.85.7,1.12.37,2.19.76,3.03,1.4,1.72,1.28,2.52,3.39,3.26,5.84l3.55,11.33c.69,2.12,1.39,4.36,2.77,6.26,1.09,1.5,2.44,2.62,4.04,3.81,6.74,5.26,13.81,10.14,21.09,14.59,3.92,2.37,8.49,5.03,13.43,6.12,6.56,1.44,13.76.02,19.29-3.74.85-.59,1.74-1.29,2.59-1.94,2.43-1.86,4.96-3.84,7.93-4.16,1.98-.21,4.03.34,6.01.85,2.39.61,4.91,1.26,7.37.58,1.39-.4,2.55-1.15,3.71-1.9.75-.52,1.56-1.04,2.4-1.4,5.04-2.34,10.27-.13,15.85,2.14,2.4,1,4.92,2.04,7.37,2.64,3.03.73,6.18.83,9.28.32,5.93-.98,11.51-4.14,15.13-8.98.27-.38.55-.71.77-1.08.67-1.01,1.46-2.03,2.33-2.84.83-.75,1.8-1.3,2.77-1.85.31-.16.61-.38.92-.54,9.73-5.8,15.02-18.47,12.32-29.44-1.06-4.41-3.25-8.52-5.42-12.53-2.92-5.5-5.74-10.74-5.89-16.7-.11-3.39.73-6.78,1.53-10.04.19-.87.38-1.74.64-2.57,1.47-6.67,2.07-13.54,1.67-20.41-.11-2-.32-4.31-1.33-6.38-1.39-2.68-4.02-4.37-6.59-6.02-2.44-1.56-4.94-3.16-6.3-5.62-.8-1.43-1.11-3-1.43-4.63-.28-1.35-.57-2.76-1.13-4.12-2.16-4.96-7.27-7.13-12.26-9.22-2.7-1.12-5.48-2.34-7.8-3.91-5.3-3.66-8.26-9.71-11.07-15.57-1.44-2.95-2.95-6-4.69-8.79-4.16-6.58-10.68-11.89-18.16-14.85-1.13-.43-2.32-.85-3.51-1.27-4.87-1.71-9.85-3.41-12.19-7.78-.72-1.33-1.14-2.83-1.55-4.33-.58-2.14-1.17-4.39-2.73-6.04-2.93-3.21-7.54-3.01-12-2.89-.94.04-1.94.1-2.84.08-3.58-.02-7.17-.72-10.69-1.42-2.43-.49-4.92-.98-7.42-1.24-3.53-.37-12.35-.59-17.06,5.44-.51.64-.95,1.39-1.39,2.08-.53.87-1.11,1.75-1.76,2.53-1.79,2.03-4.36,3.07-7.03,4.18-1.31.55-2.67,1.11-3.9,1.76-3.85,2.09-5.73,5.64-4.94,9.37.05.33.16.64.22.97.64,2.86,1.13,5.13-1.79,7.45-.45.35-.95.66-1.46.97-.81.52-1.68,1-2.33,1.78-1.97,2.28-1.45,5.44-.96,8.44.1.6.19,1.14.28,1.69.32,2.3-.42,4.93-1.76,6.27-.72.73-1.57.99-2.49.86-.74-.1-1.37-.5-2.11-.94-.19-.14-.44-.26-.62-.35,1.09.16,2.15-.19,3.02-1,1.49-1.48,2.3-4.35,1.99-6.93-.1-.6-.19-1.14-.29-1.74-.5-3.05-1.01-6.15.87-8.31.61-.72,1.43-1.19,2.29-1.72.51-.31,1.07-.62,1.56-1.04,3.27-2.55,2.72-5.2,2.06-8.22-.05-.33-.16-.64-.22-.97-.72-3.68,1.06-7.11,4.87-9.14.21-.09.42-.18.62-.33.22-.04.38-.06.59-.15l-.02-.11c.94-.43,1.93-.82,2.87-1.26,2.67-1.11,5.5-2.25,7.44-4.41.71-.79,1.33-1.78,1.91-2.66.45-.69.88-1.43,1.44-2.14,4.59-6.07,13.41-5.85,17-5.43,2.56.25,5.11.78,7.59,1.27,3.65.74,7.4,1.46,11.15,1.46.95.01,2.01-.05,2.95-.09,4.5-.18,9.12-.33,11.98,2.78,1.5,1.65,2.08,3.8,2.67,6.05.42,1.55.86,3.16,1.65,4.59,2.5,4.68,7.78,6.49,12.89,8.28,1.19.42,2.43.83,3.63,1.3,7.6,3,14.25,8.39,18.68,15.26,1.81,2.83,3.34,5.99,4.85,9.04,2.97,6.11,6.01,12.38,11.63,16.26,2.46,1.72,5.35,2.92,8.18,4.13,5.29,2.2,10.28,4.35,12.38,9.26.55,1.31.85,2.77,1.13,4.12.33,1.68.67,3.41,1.54,4.95,1.45,2.67,4.13,4.35,6.69,6,2.56,1.65,5.25,3.33,6.64,6.01,1.06,2.01,1.22,4.33,1.33,6.38.38,7.04-.2,14.07-1.74,20.98-.19.87-.44,1.75-.62,2.68-.83,3.44-1.65,6.93-1.57,10.49.2,6.29,3.2,11.94,6.13,17.5ZM38.46,33.44c.23-.65.28-1.33.34-2.01.11-1.02.23-2,.83-2.77.55-.76,1.49-1.14,2.33-1.45,1.11-.41,2.27-.82,3.39-1.17,5.36-1.78,10.87-3.64,12.94-8.68.2-.48.34-1.01.53-1.54.28-1,.58-1.89,1.18-2.71,1.09-1.52,3.1-2.24,5.02-2.79,9.48-2.57,19.52-2.71,29.05-.54,2.03.45,4.83.82,5.98-1.04.17-.31.34-.67.46-.97.19-.53.39-1.02.78-1.36.55-.43,1.29-.32,2.03-.22,6.49,1.05,12.6,3.85,17.66,8.05,1.3,1.07,2.57,2.37,2.79,4.01.15,1.26-.41,2.58-1,3.8-.65,1.5-1.34,3.07-.81,4.61.51,1.43,1.87,2.21,3.29,2.98l14.09,7.46c1.35.73,3,1.57,4.72,1.46.61-.04,1.2-.2,1.73-.34.91-.26,1.82-.47,2.69-.28.88.25,1.61.96,2.36,1.79,2.34,2.64,4.8,5.7,4.3,9.13-.12.63-.35,1.29-.52,1.93-.31.83-.55,1.77-.62,2.68,0,.34.05.66.1.93-.62-1.07-1.19-2.15-1.87-3.21-4.5-6.92-11.22-12.41-18.87-15.4-1.2-.47-2.44-.88-3.63-1.3-5.04-1.74-10.26-3.57-12.69-8.09-.73-1.39-1.17-3-1.59-4.55-.59-2.2-1.24-4.49-2.76-6.2-3-3.25-7.67-3.1-12.22-2.91-1,.05-2.01.05-2.95.09-3.75,0-7.45-.73-11.09-1.47-2.48-.49-5.09-1.01-7.65-1.31-3.65-.41-12.63-.6-17.43,5.56-.55.71-1,1.4-1.44,2.14-.58.88-1.16,1.81-1.86,2.6-1.88,2.16-4.67,3.23-7.34,4.34-.94.38-1.89.76-2.82,1.19l-.04-.22c-2.64.6-5.1,1.29-6.62,3.27-.64.89-1.02,1.96-1.31,2.9l-.19.53c-.74,2.3-1.72,5.49.25,6.95.44.32.52.81.52,1.14-.05.73-.47,1.53-1.13,1.98-.86.53-1.96.66-3.06.78-.38.06-.72.06-1.04.12-2.61.43-4.68,1.78-5.38,3.68-.54,1.49-.35,3.3.65,5.32.33.62.65,1.23.98,1.85.48.87,1.02,1.79,1.4,2.73.69,1.79.79,3.78.32,5.65-.15.47-.37,1.12-.87,1.49-.7.51-1.71.17-2.39-.28-.32-.23-.64-.51-.97-.79-.45-.37-.85-.75-1.4-1-1.41-.77-3.36-.73-5.14.06-1.56.7-2.89,1.82-4.15,2.98-1.42,1.24-2.98,2.62-3.85,4.49-.57,1.27-.88,2.77-.89,4.79-.04,4.15,1.02,8.22,3.02,11.86.33.62.71,1.23,1.08,1.78.84,1.37,1.68,2.74,2.16,4.29,1.18,3.78-.03,7.61-1.27,11.62-.62,2-1.28,4.13-1.61,6.19-.16,1.09-.26,2.17-.24,3.28-.29-3.48-.41-6.87.04-8.56.27-1.05.66-2.12.99-3.18.94-2.78,1.97-5.69,1.32-8.61-.52-2.49-2.15-4.57-3.65-6.56-.43-.55-.85-1.09-1.29-1.69-2.02-2.74-3.47-5.8-4.35-9.07-.13-.43-.27-.96-.24-1.47.01-.62.19-1.21.38-1.8,1.96-5.41,6.79-10.07,12.93-12.48,1.15-.47,2.7-.95,3.96-.43.78.32,1.39.95,2.06,1.62.81.87,1.68,1.74,2.89,1.93l.29.06.06-.29c1.09-3.26-1.15-6.63-2.73-9.11-2.39-3.63-2.96-6.45-1.8-8.54,1.65-2.9,5.84-2.92,8.23-2.64,2.5.26,3.31-.6,3.58-1.37.18-.59.17-1.37-.31-1.91-.96-1.07-1.78-3.01-1.03-4.92l-.14.19c.23-.32.39-.68.55-1.1ZM204.33,151.07c.24-.6,3.27-8.31,5.26-16.97,2.75-12.14,2.29-20.4-1.47-24.53-1.16-1.26-3.34-2.97-5.59-4.73-4.04-3.14-8.65-6.68-8.92-8.99-.94-7.73-3.7-13.65-8.51-18.06-1.78-1.66-3.47-3.06-5.57-3.28-.97-.12-1.95.04-2.88.19-.71.12-1.42.23-2.09.23-3.96.04-7.03-3.26-9.61-6.41l-7.75-9.35c-1.47-1.77-2.76-3.52-2.77-5.58.02-.9.28-1.72.59-2.56.23-.65.46-1.31.51-1.99.52-3.61-1.96-6.78-4.36-9.46-.62-.74-1.44-1.61-2.49-1.88-.93-.24-1.91-.02-2.87.25-.54.14-1.13.3-1.68.33-1.66.11-3.26-.75-4.54-1.43l-14.15-7.45c-1.35-.73-2.66-1.52-3.14-2.78-.51-1.43.1-2.81.8-4.33.57-1.27,1.19-2.6,1.02-3.97-.19-1.81-1.65-3.25-2.89-4.28-5.12-4.25-11.29-7.09-17.84-8.13-.81-.15-1.65-.18-2.3.27-.5.36-.68.95-.93,1.5-.12.3-.23.65-.41.91-1.06,1.69-3.58,1.37-5.62.87-9.59-2.22-19.74-2-29.21.57-2.03.56-4.04,1.28-5.23,2.88-.59.82-.93,1.83-1.22,2.77-.15.47-.34,1.01-.48,1.48-2,4.86-7.45,6.71-12.74,8.53-1.11.41-2.28.77-3.39,1.17-.9.32-1.89.76-2.48,1.58-.65.83-.75,1.91-.91,2.95-.06.63-.17,1.32-.36,1.9-.1.41-.33.73-.56,1.04l-.13-.09c-.08.18-.12.3-.15.47-2.05,2.52-6.42,2.46-8.45,2.34-3.4-.28-7.99-.64-10.28,2.42-.67-.34-1.27-.24-1.81.19-1.03.9-1.26,3.23-.54,4.84.62,1.41,1.81,2.5,2.92,3.49.72.66,1.51,1.37,2.09,2.17.93,1.24,1.25,3.15.69,4.53-.25.54-.68,1.29-1.66,1.45-.65.11-1.3-.07-1.94-.24-.58-.13-1.17-.31-1.79-.32-1.78.07-3.04,1.56-4.17,3.2l-6.32,9.15c-.95,1.39-1.99,2.85-2.44,4.54-.6,2.11-.23,4.4.16,6.41,1.23,6.45,3.17,12.79,5.85,18.84.35.78.7,1.56,1.06,2.34,1.2,2.54,2.43,5.25,3.16,7.98,1.69,6.15.98,12.76.31,19.19-.79,7.74-1.61,15.7,1.73,22.7.95,2.02,2.21,3.89,3.45,5.64.81,1.21,1.63,2.42,2.39,3.63,3.81,6.48,5.27,14.34,3.98,21.77-.15.81-.29,1.61-.5,2.38-.76,3.54-1.5,7.18.09,10.39.68,1.4,1.7,2.52,2.72,3.63l11.12,12.15c3.8,4.07,7.55,8.15,11.72,11.71,4.23,3.61,9,6.74,13.57,9.73,7.91,5.24,16.94,11.13,27.09,12.31,1.32.17,2.72.22,4.08.33.96.07,1.92.13,2.88.2.99.23,2.08.38,3.15.43,1.79.32,3.45.89,5,1.86.37.22.75.49,1.13.76,1.58,1.08,3.22,2.21,4.9,1.93.22-.04.44-.07.7-.17,1-.39,1.69-1.29,2.39-2.13.27-.38.6-.77.94-1.11,1.86-1.93,4.49-2.31,7.27-2.71,2.12-.35,4.31-.65,6.15-1.69,2.25-1.27,3.79-3.48,5.28-5.62,1.58-2.27,3.2-4.67,5.71-5.75,3.54-1.59,7.17-.29,11.09,1.14,3.04,1.12,6.18,2.22,9.31,1.88.93-.1,1.85-.31,2.76-.57,1.13-.3,2.25-.59,3.37-.61,1.4,0,2.74.33,4.08.67.64.17,1.34.34,2.03.45,6.92,1.26,13.59-2.02,20.41-5.77l11.39-6.24c2.41-1.35,4.7-2.73,5.65-5.07.68-1.62.56-3.39.39-5.1-.08-1.16-.18-2.43.02-3.58.41-2.58,2.01-4.75,3.57-6.85.55-.76,1.14-1.59,1.68-2.35,2.46-3.76,3.72-8.33,3.6-12.79-.2-8.02-3.88-12.34-7.82-16.89-3.79-4.35-7.67-8.86-8.26-16.87Z" fill="#faf2e9"/>
</svg>