<?xml version="1.0" encoding="UTF-8"?>
<svg id="_Слой_1" data-name="Слой_1" xmlns="http://www.w3.org/2000/svg" version="1.1" viewBox="0 0 114.35 122.74">
  <!-- Generator: Adobe Illustrator 30.4.0, SVG Export Plug-In . SVG Version: 2.1.3 Build 103)  -->
  <path d="M56.8,45.75c-1.04-1.41-1.36-2.82-.94-4.13.2-.61.57-1.22,1.06-1.78,3.46-3.77,4.1-9.16,4.06-13.01-.05-2.54-.35-5.26-.6-7.86-.23-2.1-.48-4.3-.59-6.37-.04-.73-.06-1.51.2-2.19.54-1.41,3.2-1.69,4.9-1.37,1.49.29,2.89,1.42,3.74,3,.99,1.85,1.57,3.3,1.78,4.45,1.03,5.25,1.67,10.6,1.91,15.95.1,2.11-.42,4.02-.93,5.89-.7,2.62-2.44,3.55-4.67,4.74-.22.11-.39.24-.59.31-.88.49-1.71,1.12-2.49,1.73-.83.64-1.68,1.31-2.6,1.79-1.62.84-3.15.39-4.24-1.13ZM63.89,45.44c.78-.61,1.57-1.26,2.44-1.7.22-.11.43-.22.59-.31,2.12-1.13,3.97-2.12,4.78-4.66.04-.12.07-.2.1-.33.51-1.87,1.04-3.82.93-6.02-.27-5.37-.91-10.72-1.93-16-.22-1.15-.82-2.65-1.84-4.56-.91-1.69-2.4-2.93-3.98-3.21-1.87-.37-4.72-.06-5.39,1.62-.29.77-.28,1.58-.26,2.36.11,2.07.35,4.26.57,6.41.29,2.62.56,5.32.62,7.82.06,3.77-.58,9.02-3.93,12.74-1.74,1.93-1.79,4.21-.16,6.45,1.23,1.66,3.02,2.14,4.75,1.24.97-.5,1.87-1.21,2.71-1.84ZM57.55,44.09c-.76-1.01-.81-1.97-.53-2.88.27-.86.9-1.7,1.59-2.43,3.11-3.38,3.66-8.22,3.63-11.66-.04-2.27-.32-4.52-.56-6.72-.23-1.83-.47-3.76-.55-5.64,0-.68-.06-1.37.19-2.01.46-1.3,2.12-2.12,3.65-1.81,1.36.25,2.61,1.29,3.37,2.74.63,1.15.89,2.45,1.15,3.75.93,4.72,1.47,9.54,1.74,14.36.09,1.83.12,3.74-.38,5.57-.66,2.36-2.24,3.21-4.21,4.3-.16.08-.38.2-.54.28-.81.42-1.54,1-2.26,1.58-.73.58-1.51,1.19-2.37,1.63-1.45.71-2.91.34-3.9-1.06ZM63.94,43.74c.71-.54,1.44-1.12,2.21-1.55.18-.12.38-.2.54-.28,1.9-1.02,3.54-1.89,4.27-4.19.03-.08.07-.2.09-.29.51-1.87.45-3.83.36-5.66-.23-4.81-.8-9.64-1.74-14.36-.25-1.34-.55-2.66-1.16-3.85-.82-1.53-2.15-2.58-3.56-2.85-1.66-.3-3.38.55-3.93,1.99-.26.68-.23,1.42-.22,2.1.08,1.88.32,3.8.54,5.68.25,2.2.56,4.47.58,6.68.04,3.4-.52,8.14-3.56,11.45-1.33,1.47-2.67,3.43-1.07,5.62,1.11,1.48,2.65,1.88,4.2,1.12.93-.38,1.73-1.03,2.45-1.61ZM-2.44,40.61c-.14-.99-.26-2.16-.61-3.31-.3-1.04-.61-2.05-.47-3.04.26-1.68,1.59-2.88,2.9-3.99.5-.43,1-.86,1.41-1.31,2.19-2.33,3.2-5.66,2.58-8.79-.18-1-.51-1.79-.97-2.34-.12-.18-.25-.35-.41-.54-.93-1.2-2.16-2.85-3.41-3.16-.71-.18-1.62-.43-2.61-.74-2.39-.72-5.4-1.59-7.28-1.51-.73.04-1.49.16-2.24.23-2.27.31-4.57.62-5.86-1.01-.77-.97-1.02-2.31-1.16-3.57-.41-3.11-.67-6.26-.71-9.39-.04-3.13.25-7.01,2.78-9.27,1.13-.99,2.59-1.61,3.82-2.08,3.79-1.41,7.73-2.32,11.72-2.8,1.22-.15,2.57-.26,3.82.18,2.61.88,3.88,3.81,4.84,6.46.34.92.7,1.89.7,2.89-.02.35-.05.71-.07,1.06-.06.34-.09.69-.11,1.05-.04,3.1,2.94,5.22,4.74,6.21.53.31,1.08.57,1.59.82,1.86.95,3.76,1.92,5,3.58.83,1.08,1.32,2.36,1.69,3.61,1.09,3.37,2.42,9.66-1.14,13.9-.72.85-1.64,1.6-2.54,2.3-.97.77-1.95,1.59-2.75,2.55-.91,1.15-1.49,2.55-1.93,3.94-.17.53-.31,1.12-.48,1.65l-.03.08c-.32,1.16-.65,2.32-1.36,3.27-.6.76-1.45,1.3-2.25,1.81l-4.73,2.96c-1.81,1.14-2.92,1.51-3.55,1.21-.62-.33-.75-1.46-.92-2.91ZM2.2,42.49l4.73-2.96c.8-.51,1.7-1.08,2.31-1.88.76-.98,1.1-2.18,1.43-3.34l.03-.08c.52-1.91,1.12-3.93,2.38-5.47.76-.98,1.73-1.75,2.7-2.52.9-.71,1.82-1.45,2.55-2.34.86-.99,1.4-2.13,1.78-3.31,1.23-3.85.23-8.23-.6-10.84-.41-1.26-.89-2.59-1.76-3.68-1.31-1.68-3.24-2.7-5.1-3.66-.55-.26-1.08-.57-1.59-.82-1.73-.96-4.63-3.01-4.59-5.98.02-.35.03-.67.1-1.01.06-.34.09-.69.08-1.1.01-1.03-.38-2.06-.68-2.97-.99-2.71-2.29-5.69-5.01-6.65-1.3-.46-2.7-.32-3.92-.17-4.03.47-7.99,1.42-11.78,2.83-1.29.49-2.77,1.06-3.93,2.13-2.61,2.37-2.87,6.3-2.84,9.47.04,3.13.29,6.32.69,9.43.17,1.32.41,2.66,1.26,3.7,1.38,1.75,3.78,1.43,6.09,1.13.75-.08,1.51-.2,2.2-.25,1.88-.08,4.81.77,7.2,1.48,1,.27,1.9.56,2.61.74,1.17.28,2.38,1.89,3.26,3.07.17.19.29.36.41.54.46.55.71,1.31.91,2.23.57,3.02-.39,6.33-2.51,8.58-.42.45-.91.88-1.41,1.31-1.33,1.2-2.72,2.43-3.01,4.19-.15,1.04.15,2.08.49,3.13.37,1.11.5,2.24.63,3.27.2,1.51.32,2.67,1.14,3.07.67.3,1.88-.08,3.75-1.29ZM82.83-48.43c5.6,3.95,10.11,9.05,15.2,15.45,2.83,3.57,5.44,7.15,6.54,11.34,1.63,6.34-.55,12.91-2.72,19.26-2.24,6.73-4.6,13.7-2.36,20.41.58,1.72,1.42,3.34,2.27,4.92,1.34,2.59,2.65,5,2.79,7.8.12,2.3-.55,4.56-1.2,6.75l-5.32,17.66c-1.24,4.03-2.61,8.6-5.5,12.01-2.77,3.31-6.72,5.35-10.55,7.33-1.09.6-2.23,1.18-3.32,1.78-5.82,3.24-11.07,7.53-16.14,11.68-3.91,3.22-7.99,6.52-12.28,9.35-7.36,4.83-15.61,8.33-23.59,11.7-8.34,3.52-18.73,7.92-28.88,6.49-1.55-.22-3.15-.6-4.7-.96-1.94-.44-3.95-.9-5.97-1.09-3.02-.29-6.16.07-9.23.35-5.78.59-11.27,1.1-15.74-2-2.77-1.92-4.55-4.84-6.22-7.67-1.24-2.06-2.54-4.2-4.22-6-3.28-3.44-7.5-2.8-11.99-2.16-2.7.4-5.48.78-8.06.23-6.61-1.34-10.09-6.15-10.49-9.98-.12-1.17-.02-2.35.05-3.55.17-1.93.3-3.92-.51-5.76-.55-1.26-1.5-2.24-2.45-3.22-.17-.19-.37-.39-.54-.58-4-4.3-6.7-10.12-7.69-16.35-.67-4.27-.63-9.05.21-14.96.21-1.65.49-3.36.98-4.92.48-1.52,1.16-2.92,2.18-4.13,2.05-2.46,5.23-3.66,8.26-4.81,3.19-1.24,6.48-2.49,8.59-5.15,2.42-3.06,2.71-7.08,2.96-10.97.25-3.62.5-7.38,2.46-10.27,1.41-2.03,3.54-3.47,5.62-4.89,1.85-1.26,3.75-2.55,5.19-4.25,1.75-2.1,2.7-4.78,3.6-7.33.22-.7.5-1.42.77-2.14,4.43-11.49,14.5-20.83,26.33-24.27,4.28-1.25,8.79-1.8,13.21-2.37,6.43-.79,13.06-1.61,18.93-4.61,1.73-.89,3.44-2.02,5.09-3.07,3.48-2.27,7.06-4.6,11.15-4.97,3.72-.35,7.2.9,10.88,2.25,2.87,1.05,5.83,2.09,8.91,2.35,3.44.24,6.87-.61,10.21-1.44,2.26-.59,4.61-1.15,6.93-1.35,6.58-.7,13.78,1.51,20.34,6.13ZM55.48-53.77c-3.28.8-6.67,1.66-10.02,1.41-2.99-.23-5.92-1.26-8.74-2.29-3.61-1.29-7.28-2.64-11.14-2.29-4.24.41-7.88,2.77-11.41,5.07-1.65,1.05-3.3,2.15-5.03,3.04-5.77,2.94-12.35,3.78-18.74,4.58-4.41.53-8.97,1.11-13.31,2.39-12,3.53-22.23,12.94-26.67,24.61-.28.72-.55,1.45-.77,2.14-.89,2.51-1.81,5.11-3.5,7.14-1.39,1.68-3.28,2.92-5.07,4.16-2.12,1.4-4.3,2.87-5.75,5.02-2.05,3.04-2.32,6.84-2.56,10.56-.28,3.97-.54,7.77-2.87,10.68-2.03,2.56-5.27,3.78-8.36,5-3.1,1.22-6.33,2.45-8.49,4.96-2.12,2.53-2.86,5.99-3.33,9.32-.82,5.97-.87,10.78-.19,15.15,1.01,6.32,3.77,12.21,7.83,16.62.17.19.37.39.54.58.88.91,1.79,1.88,2.31,3.08.77,1.69.63,3.54.46,5.47-.07,1.2-.19,2.42-.03,3.64.43,4.02,4.02,9.04,10.92,10.48,2.66.58,5.49.17,8.25-.26,4.36-.64,8.47-1.22,11.54,2.01,1.65,1.75,2.93,3.82,4.13,5.87,1.71,2.85,3.51,5.81,6.35,7.8,4.66,3.2,10.49,2.62,16.12,2.08,3.03-.3,6.15-.61,9.13-.34,1.97.18,3.99.64,5.93,1.08,1.55.36,3.15.73,4.74.97,10.32,1.44,20.75-2.95,29.16-6.53,7.98-3.37,16.27-6.86,23.64-11.73,4.33-2.82,8.38-6.17,12.33-9.38,5.06-4.12,10.27-8.41,16.03-11.63,1.09-.6,2.23-1.18,3.32-1.78,3.89-2.01,7.89-4.07,10.73-7.45,2.4-2.85,3.75-6.38,4.85-9.82.26-.82.51-1.6.73-2.43l5.32-17.66c.64-2.14,1.36-4.53,1.22-6.92-.16-2.89-1.54-5.5-2.86-8-.81-1.57-1.69-3.2-2.24-4.87-2.16-6.51.13-13.41,2.38-20.04,2.15-6.44,4.4-13.08,2.73-19.57-1.12-4.28-3.76-7.88-6.65-11.55-5.11-6.46-9.67-11.57-15.29-15.57-6.63-4.69-13.94-6.93-20.64-6.31-2.36.33-4.76.92-7.02,1.5ZM61.29-22.09c-.15-.09-.21-.2-.29-.23-1.12-1.3-1.98-2.84-2.56-4.43-.52-1.48-.66-2.6-.37-3.64.3-1.08,1.25-2.22,2.54-2.17,1.31.01,2.19,1.2,2.54,1.67,1.03,1.59,1.34,3.59,1.63,5.35.15.95.33,2.09-.12,3.07-.25.51-.61.93-1.11,1.22-.23.15-.58.27-.96.19-.18-.15-1-.82-1.29-1.04ZM64.87-22.39c.04-.12.08-.25.1-.33.3-.94.15-2.03.02-2.88-.28-1.8-.59-3.8-1.69-5.46-.72-1.13-1.74-1.77-2.73-1.77-1.39-.04-2.46,1.2-2.8,2.4-.3,1.08-.13,2.26.42,3.79.61,1.64,1.47,3.18,2.61,4.53h.04s.14.15.29.24c.74.64,1.18.96,1.35,1.02.42.09.87-.04,1.14-.18.51-.33.98-.81,1.25-1.36ZM70-11.19c-2.27-.95-4.62-1.93-6.45-3.68-.73-.68-1.35-1.42-1.96-2.2-.58-.73-1.16-1.45-1.86-2.08-.76-.74-1.42-1.22-2.17-1.55-.15-.09-.37-.12-.57-.18-.38-.08-.83-.22-.98-.45-.33-.51-.1-1.79.03-2.92.13-.82.24-1.59.19-2.15-.12-1.03-.34-2.05-.57-3.02-.22-.88-.42-1.8-.52-2.74-.14-1.13-.12-2.02.11-2.76.12-.37.26-.68.49-.97.95-1.28,2.71-1.57,4.4-1.76,2.1-.23,4.5-.37,6,1.01.88.78,1.28,1.94,1.67,2.97l2.13,5.78c.11.35.27.72.27,1.12.04.87-.5,1.56-1.09,2.27-.24.33-.52.65-.72.99-.85,1.4-.83,3.3.03,4.7.46.69,1.05,1.24,1.68,1.8.34.34.73.68,1.07,1.02.83.94,1.41,2.08,1.66,3.28.06.38.12.9-.11,1.32-.54,1-2.09.46-2.73.21ZM73.03-11.21c.07-.07.11-.19.15-.31.13-.41.06-.88.03-1.21-.22-1.29-.83-2.48-1.7-3.43-.33-.38-.72-.72-1.1-1.07-.59-.55-1.2-1.06-1.61-1.73-.85-1.31-.87-3.08-.03-4.43.2-.34.44-.67.71-.95.59-.71,1.16-1.52,1.14-2.43,0-.41-.19-.83-.29-1.22l-2.13-5.78c-.38-1.07-.82-2.25-1.73-3.08-1.61-1.46-4.04-1.33-6.2-1.08-1.78.2-3.6.52-4.61,1.87-.7.91-.88,2.2-.67,3.94.11.94.31,1.86.52,2.74.23.98.45,1.99.54,2.97.06.52-.04,1.25-.16,2.07-.16,1.21-.39,2.49.01,3.07.21.34.71.45,1.12.58.2.07.42.09.53.17.71.32,1.33.79,2.09,1.52.65.66,1.24,1.34,1.82,2.07.62.74,1.27,1.53,2,2.22,1.87,1.77,4.35,2.79,6.53,3.71.62.33,2.32.92,3.04-.2ZM66.05-10.55c-.34-.2-.73-.41-1.07-.61-2.86-1.64-6.16-3.46-8.52-5.7-1.95-1.8-2.25-4.82-2.49-7.47-.05-.42-.11-.8-.11-1.21-.14-1.13-.36-2.28-.55-3.38-.41-2.25-.81-4.54-.63-6.79.09-1.28.51-3,1.76-3.82.63-.43,1.5-.6,2.25-.68,2.56-.4,5.21-.5,7.8-.26,1.66.17,3.68.5,5.01,1.83.69.67,1.12,1.58,1.53,2.43l2.19,4.44c.32.69.68,1.39.72,2.13.07.92-.4,1.81-.83,2.76-.38.78-.77,1.56-.91,2.42-.45,2.7,1.41,5.05,3.52,7.21,1.83,1.89,3.66,4.1,3.07,6.35-.35,1.38-1.61,2.51-3.24,2.94-1.37.33-2.96.23-4.75-.39-1.68-.54-3.27-1.36-4.76-2.2ZM79.76-10.37c.03-.08.05-.16.08-.25.7-2.76-1.29-5.29-3.33-7.38-1.9-1.96-3.63-4.05-3.22-6.31.14-.72.46-1.43.82-2.13.5-1.01,1.02-2.07.96-3.3-.05-.96-.47-1.77-.86-2.53l-2.19-4.44c-.43-.91-.96-1.93-1.75-2.72-1.53-1.57-3.85-1.95-5.64-2.12-2.68-.22-5.41-.15-8.07.27-.85.13-1.86.31-2.67.86-1.6,1.07-2.12,3.11-2.24,4.61-.21,2.37.24,4.77.63,7.06.19,1.1.38,2.2.52,3.32.06.38.06.79.12,1.17.27,2.84.59,6.06,2.82,8.12,2.46,2.32,5.79,4.19,8.74,5.86.38.21.73.41,1.07.61,1.53.85,3.15,1.73,4.9,2.33,1.99.68,3.8.81,5.38.41,1.91-.47,3.42-1.8,3.94-3.44ZM-20.25,26.58c.37.53.58,1,.62,1.46.05.69-.31,1.39-.59,1.84-.64,1.01-1.46,1.88-2.28,2.75-.82.87-1.66,1.82-2.3,2.83-.55.86-.93,1.78-1.23,2.72-.39,1.23-.66,2.5-.89,3.78-.46,2.29-.95,4.66-2.2,6.61-.69,1.04-1.49,1.69-2.35,2-.91.3-2.12.14-2.74-.74-.68-.98-.31-2.27.04-3.51.05-.16.1-.33.12-.5.75-2.78.48-5.89-.85-9.79-.18-.56-.55-1.26-.91-1.96-.78-1.51-1.7-3.3-1.21-4.4.21-.52.72-.85,1.52-1.09.45-.13.92-.2,1.4-.28.61-.08,1.23-.19,1.8-.42,1.02-.35,1.86-1.03,2.66-1.68.66-.51,1.33-1.06,2.08-1.41,2.45-1.16,5.72-.39,7.32,1.8ZM-29.82,26.01c-.79.65-1.63,1.29-2.6,1.65-.57.22-1.18.3-1.75.39-.47.07-.95.15-1.44.26-.84.23-1.43.67-1.67,1.27-.53,1.23.38,3.05,1.23,4.63.36.7.74,1.36.91,1.96,1.31,3.8,1.56,6.86.82,9.6-.05.16-.1.33-.12.5-.35,1.24-.75,2.65,0,3.7.68.98,2.07,1.16,3.03.83.91-.3,1.77-1.02,2.47-2.1,1.31-1.97,1.81-4.39,2.27-6.68.43-2.21.89-4.5,2.09-6.42.64-1.01,1.47-1.92,2.29-2.79.82-.87,1.65-1.78,2.29-2.79.19-.3.39-.64.52-1.05.09-.29.14-.59.11-.91-.02-.5-.26-1.03-.67-1.57-1.66-2.29-5.1-3.12-7.66-1.86-.73.31-1.44.85-2.1,1.36ZM79.18-44.9c1.89,1.28,3.36,3.19,4.59,4.85,5.66,7.85,10.06,16.57,13.07,25.79,1.02,3.17,1.62,5.8,1.32,8.45-.21,1.92-.92,3.72-1.63,5.53l-4.68,12.13c-.03.08-.07.2,0,.31,1.79,8.24,2.65,16.46,3.34,26.29.13,1.71.22,3.27-.24,4.71-.5,1.56-1.51,2.9-2.52,4.21l-13.2,17.04c-3.01,3.91-6.08,7.45-10.27,8.41-1.56.36-3.26.31-4.88.29-2.24-.04-4.54-.05-6.68.85-2.57,1.12-4.24,3.39-5.88,5.57-1.16,1.52-2.35,3.13-3.81,4.29-2.34,1.82-5.22,2.49-8.29,3.22-1.56.36-3.21.73-4.74,1.28-3.06,1.1-5.89,2.9-8.63,4.69-3.92,2.54-7.66,4.91-12.04,5.36-.56.05-1.15.08-1.7.09-.96.05-1.97.09-2.97.27-.72.13-1.42.36-2.09.6-.81.28-1.61.52-2.42.67-1.98.27-3.91-.34-5.9-1.03-.98-.31-2.01-.64-3.02-.87-3.12-.68-6.34-.35-9.46-.04-3.64.37-7.09.72-10.39-.38-3.25-1.13-5.8-3.47-8.42-5.98-2.19-2.05-4.49-4.18-7.21-5.55-6.12-3.03-13.5-1.69-18.52-.36-1.57.4-3.25.86-4.63.24-1.08-.43-1.88-1.46-2.55-2.35-3.23-4.15-6.34-8.57-5.5-13.31.14-.72.39-1.5.62-2.24.38-1.19.76-2.38.77-3.68-.01-2.94-1.84-5.28-3.65-7.53-.46-.55-.94-1.16-1.34-1.74-1.25-1.75-1.91-4.63-1.5-6.89.04-.26.12-.5.21-.79.22-.7.59-1.44,1.31-1.97,4.76,3.46,8.18,8.88,9.12,14.69.21,1.33.31,2.72.43,4.02.21,2.87.44,5.83,1.78,8.42,2.2,4.27,6.94,6.55,10.34,7.9,2.51,1.03,5.89,2.19,9.38,2.14,1.36-.02,2.73-.21,4.01-.39,1.79-.24,3.65-.55,5.47-.33,2.22.26,4.31,1.2,6.32,2.11.31.15.67.3.98.45,3.68,1.62,7.5,2.94,11.44,3.88,3.9.93,7.07,1.31,10.09,1.19,1.43-.09,2.88-.25,4.29-.44,1.51-.2,3.11-.41,4.64-.41,1.5-.02,3.01.06,4.5.17,1.24.08,2.56.18,3.82.18,6.72.02,13.48-2.51,18.52-7,.5-.43,1.02-.94,1.48-1.38,1.18-1.16,2.46-2.33,3.86-3.19,1.11-.64,2.38-1.09,3.61-1.56.66-.24,1.33-.48,2-.76,5-2.1,8.88-6.06,12.68-9.9,2.13-2.16,4.28-4.37,6.65-6.27.83-.64,1.72-1.3,2.55-1.9,1.89-1.38,3.88-2.82,5.49-4.61,1.06-1.2,1.99-2.7,2.53-4.38.54-1.68.66-3.49,0-5.23.51-.47.99-.99,1.39-1.54,2.37.21,4.63-2.77,5.56-4.41.31-.53.52-1.05.7-1.63.52-1.64.68-3.39.78-4.85.31-4.1.55-7.81.01-11.5-.45-2.99-1.62-7.24-4.73-10.35-1.27-1.26-2.75-2.28-4.19-3.28-2-1.36-4.07-2.79-5.45-4.85-.61-.92-1.02-1.9-1.47-2.9-.34-.78-.7-1.62-1.13-2.39-1.84-3.16-4.92-5.36-7.94-7.5-3.54-2.48-6.93-4.87-8.32-8.7-.23-.98-.42-1.94-.61-2.9-.06-.24-.06-.52-.12-.76,1.56,3.16,4.41,6.82,6.81,8.63,1.63,1.24,3.4,2.35,5.09,3.43,1.27.81,2.55,1.63,3.81,2.48,1.55,1.08,3.09,2.34,3.66,4.1.26.89.26,1.89.28,2.8-.05.03-.07.07-.09.15-.03.08.04.15.11.22.01.95.04,1.86.38,2.78.73,1.95,2.62,3.09,4.32,4.13l.07.07c3.59,2.18,7.02,4.72,10.2,7.5,1.48,1.29,3.16,2.81,3.96,4.83.79,1.92.76,4.12.7,6-.18,4.09-.74,8.25-1.65,12.24-.42,1.9-.97,3.75-2.44,4.82-.7.5-1.57.81-2.42,1.08-.85.27-1.71.54-2.42,1.08-1.86,1.3-2.29,3.65-2.73,5.85-.19.89-.34,1.79-.61,2.6-1.03,3.37-3.74,6.07-6.36,8.48-2.24,2.08-4.61,4.12-6.95,6.09-.08-.03-.18-.01-.26-.04-.3-.05-.54.14-.59.44-.03.08.03.19.04.28-.31.26-.62.52-.93.79-2.31,1.88-4.21,3.71-6.24,5.68-1.25,1.23-2.56,2.52-4,3.78-1.65,1.5-3.48,3-5.54,2.93-.54,0-1.13-.13-1.68-.26-.67-.17-1.39-.31-2.12-.27-2.09.19-3.51,1.95-4.76,3.76-1.66,2.36-3.35,4.57-5.77,5.78-1.89.98-4.05,1.24-6.15,1.47l-16.51,1.95c-3.29.4-6.67.81-10.01.82-6.24.04-12.59-1.27-18.35-3.73-.87-.37-1.74-.78-2.6-1.19-3.45-1.64-7.03-3.28-10.86-3.15-10.16.46-18.29-1.37-24.18-5.41-1.78-1.2-4.79-3.79-5.14-7.37-.11-1.21.05-2.42.24-3.58.1-.74.25-1.5.27-2.26.25-4.03-1.61-7.82-3.28-10.66-.14-.27-.32-.55-.5-.84-1.11-1.89-2.25-3.83-2.59-6.02-.01-.1-.1-.12-.15-.09-.09.01-.12.1-.09.15.33,2.23,1.51,4.18,2.61,6.11.14.27.32.55.5.84,1.63,2.82,3.47,6.52,3.24,10.51-.06.75-.16,1.48-.27,2.26-.2,1.2-.36,2.41-.27,3.66.36,3.68,3.44,6.33,5.26,7.55,5.93,4.06,14.13,5.91,24.35,5.42,3.75-.16,7.28,1.51,10.74,3.11.86.41,1.72.82,2.6,1.19,5.78,2.52,12.14,3.83,18.47,3.77,3.39,0,6.77-.41,10.05-.81l16.51-1.95c2.01-.22,4.28-.53,6.26-1.52,2.43-1.25,4.18-3.49,5.85-5.89,1.24-1.77,2.65-3.49,4.59-3.63.69-.05,1.33.06,2.04.25.55.13,1.13.27,1.72.28,2.19.07,4.03-1.47,5.74-3,1.4-1.27,2.71-2.56,4-3.78,2.03-1.97,3.92-3.8,6.18-5.65.31-.26.62-.52.93-.79.07.07.15.09.23.12,4.89.79,9.97,1.29,13.79-1.51,1.29-.94,2.27-2.16,3.22-3.3l4.86-6.03c3.43-4.23,6.97-8.97,8.58-14.01.85-2.66,1.18-5.4.64-8.23-.26-1.44-.73-2.8-1.2-4.17-.64-1.83-1.2-3.59-1.29-5.42-.11-2.07.44-4.19.95-6.24.74-2.88,1.46-5.85.5-8.78-.55-1.67-1.63-3.09-2.63-4.49-1.44-1.99-2.8-3.83-2.63-6.03.18-2.11,1.6-3.73,3.19-5.48.48-.52.92-1.06,1.37-1.59,2.02-2.51,3.64-6.46,2.1-9.98-.45-1-1.08-1.84-1.72-2.67-.29-.36-.57-.77-.86-1.13-1.32-1.95-2.12-4.24-2.9-6.48-.78-2.23-1.58-4.52-2.93-6.53-2.8-4.23-7.92-7.13-14.08-7.92-5.5-.72-10.96.11-16.28.94-2.94.46-5.97.89-8.91.63-2.79-.3-5.55-1.27-8.23-2.22-3.77-1.34-7.7-2.73-11.76-2.17-.28.04-.5.29-.45.58-1.31-.42-2.73-.51-3.95-.22-1.26.27-2.2.97-2.83,1.94-1.98-.45-4.05-.61-6.1-.41-3.01.26-5.93,1.18-8.77,2.03l-20.83,6.44c-4.4,1.35-8.92,2.79-13.12,4.93,3.05-1.64,6.4-3.1,10.15-4.52,12.45-4.78,25.38-8.55,38.45-11.2,4.62-.92,9.55-1.78,14.38-1.1,2.12.27,4.27.91,6.34,1.48,1.91.52,3.89,1.11,5.86,1.42,5.27.87,10.7.12,15.9-.61,4.76-.65,9.72-1.32,14.5-.74,2.55.36,4.68,1.04,6.39,2.17ZM99.83,39.17v.14c.38,2.2.75,4.44.21,6.56-.51,1.87-2.28,3.2-4.04,4.44-1.12.82-2.24,1.63-3.04,2.6-2.18,2.6-3.86,5.58-5.46,8.5-.66,1.23-1.38,2.49-2.09,3.71-3.09,5.15-6.26,8.29-9.91,9.84-1.04.43-1.92.65-2.75.84-1.11.23-2.14.49-3.46,1.24-2.31,1.29-3.87,3.5-5.37,5.64-.92,1.33-1.91,2.73-3.08,3.85-3.11,3.11-8.05,6.14-13.18,8.21-10.39,4.13-20.73,8.82-30.71,13.8-3.44,1.74-8.22,2.84-12.19,2.84-3.56,0-6.54-2-9.42-3.86-3.29-2.13-6.64-4.37-10.76-3.61-1.25.23-2.79,1.1-4.23,1.94-1.38.78-2.82,1.63-3.93,1.86-3.19.65-6.58-.02-9.31-1.8-1.27-.81-2.5-2.2-3.7-3.53-.9-1.01-1.74-1.91-2.59-2.63-3.68-3.16-7.13-5.8-12.07-6.02-1.16-.05-2.61.12-4.07.32-1.7.23-3.38.41-4.69.26-7.24-.91-12.33-5.33-13.96-9.15-1.07-2.46-1.17-5.25-1.31-7.91-.15-3.21-.32-6.51-2.01-9.26-.86-1.4-2.89-3.95-4.72-6.15-1.23-1.52-2.4-2.93-3.05-3.86-2.66-3.69-3.59-8.55-2.55-12.95.92-3.86,5.73-8.05,10.1-10.59-.05.3-.14.59-.19.89-.01.18-.06.34-.07.52-3.96,2.21-6.92,6.14-7.97,10.54-1.08,4.53-.1,9.49,2.62,13.29.72,1,1.55,1.94,2.35,2.82,1.03,1.14,2.07,2.28,2.9,3.63,1.69,2.75,2.25,6.09,2.77,9.28.44,2.58.86,5.24,1.89,7.64,2.26,5.23,7.39,9.08,13.05,9.72,1.44.14,2.9.11,4.3.11,1.05-.03,2.09-.05,3.11,0,4.84.24,9.53,2.09,13.17,5.24.74.64,1.43,1.31,2.12,1.98,1.17,1.14,2.41,2.35,3.84,3.25,2.8,1.84,6.33,2.52,9.61,1.85,1.15-.22,2.32-.61,3.39-1,1.16-.4,2.34-.83,3.58-1.02,4.03-.75,7.66,1.18,11.48,3.21,3.24,1.71,6.6,3.5,10.21,3.48,3.96.04,7.58-1.82,11.12-3.58l.11-.06c10-5.02,20.32-9.67,30.67-13.81l.42-.18c4.45-1.78,9.05-3.61,12.43-7,1.11-1.09,2.1-2.35,3.04-3.59,1.62-2.1,3.3-4.27,5.62-5.61,1.32-.75,2.81-1.18,4.25-1.58,1.04-.3,2.14-.63,3.14-1.07,3.71-1.57,6.93-4.74,10.08-9.96.75-1.21,1.42-2.48,2.14-3.74,1.59-2.88,3.23-5.87,5.4-8.43.45-.58.99-1.13,1.49-1.69,1.61-1.79,3.27-3.6,3.99-5.86.04-.12.08-.25.13-.41.57-2.21.17-4.5-.2-6.74v-.09c-1.84-10.55-2.27-22.2-2.51-32.48.58,10.34,2.06,24.66,3.85,35.16ZM-74.39,57.95c-.77-.43-1.53-.85-2.23-1.34-4.28-2.99-5.88-9.28-3.57-14,.65-1.33,1.56-2.48,2.47-3.63.25,2.2,1.07,4.27,2.39,5.95-.82.73-1.4,1.85-1.6,3.19-.46,2.56.25,5.72,1.69,7.71.44.59.93,1.2,1.37,1.79.25.35.55.67.8,1.02-.42-.23-.89-.46-1.31-.69ZM-78.29,57.02c-2.8-1.84-4.61-4.36-5.15-7.06-.45-2.4.07-4.76,1.56-6.86.76-1.11,2.75-3.82,4.06-5.52.02.23,0,.45,0,.68-1.04,1.29-2.14,2.61-2.9,4.13-2.44,4.95-.74,11.5,3.76,14.65.74.51,1.55.95,2.32,1.37.85.45,1.7.9,2.45,1.5.46.69.87,1.36,1.18,2.09-2.17-1.55-6.02-4.18-7.3-4.99ZM-57.76,86.86c4.82-1.26,11.93-2.6,17.73.29,2.61,1.29,4.79,3.38,6.95,5.38,2.64,2.47,5.34,5.04,8.85,6.21,3.5,1.21,7.23.82,10.83.43,3.03-.3,6.16-.65,9.11.02.97.22,1.95.53,2.89.83,2.05.65,4.16,1.37,6.39,1.05.9-.12,1.76-.43,2.61-.7.66-.24,1.31-.44,1.95-.6.92-.2,1.83-.23,2.78-.24.6-.03,1.18-.03,1.79-.1,4.66-.45,8.64-3.02,12.55-5.52,2.67-1.72,5.45-3.5,8.41-4.58,1.48-.52,3.09-.91,4.65-1.27,3.02-.71,6.19-1.45,8.71-3.4,1.57-1.26,2.82-2.89,4.01-4.5,1.59-2.16,3.15-4.23,5.45-5.21,1.89-.84,4-.8,6.24-.76,1.7.05,3.45.06,5.16-.34,4.53-1.04,7.74-4.75,10.89-8.8l13.19-17c1-1.3,2.14-2.75,2.68-4.43.01-.04.03-.08.04-.12.47-1.61.41-3.25.27-5.1-.71-9.79-1.56-18.01-3.34-26.29l3.03-7.79c.25,10.23.73,21.76,2.54,32.22v.1c.4,2.2.79,4.49.21,6.61-.64,2.41-2.36,4.3-4.04,6.16-.5.56-1.03,1.11-1.49,1.69-2.17,2.56-3.82,5.6-5.41,8.47-.66,1.23-1.38,2.49-2.09,3.71-3.1,5.19-6.27,8.33-9.96,9.86-1,.45-2.08.73-3.13,1.03-1.45.44-2.98.85-4.3,1.61-2.36,1.32-4.06,3.53-5.73,5.66-.94,1.24-1.93,2.5-3.04,3.59-3.37,3.35-7.93,5.19-12.36,6.93l-.42.18c-10.39,4.13-20.72,8.78-30.71,13.8l-.11.06c-3.5,1.77-7.1,3.6-10.98,3.58-3.56,0-6.88-1.79-10.08-3.49-3.71-1.95-7.53-3.98-11.64-3.26-1.25.23-2.47.66-3.63,1.05-1.07.38-2.23.78-3.39,1-3.23.64-6.66-.05-9.43-1.84-1.38-.89-2.58-2.09-3.75-3.23-.69-.67-1.42-1.35-2.16-2-3.73-3.17-8.45-5.04-13.34-5.29-1.06-.07-2.11-.04-3.15-.01-1.41.05-2.87.08-4.3-.11-5.58-.61-10.65-4.39-12.88-9.57-1.04-2.41-1.47-5.03-1.91-7.6-.54-3.24-1.08-6.53-2.83-9.39-.83-1.35-1.91-2.5-2.89-3.67-.8-.89-1.63-1.83-2.35-2.82-2.64-3.73-3.62-8.6-2.6-13.06,1.01-4.28,3.84-8.07,7.66-10.28-.01.18,0,.31-.06.48-1.28,1.62-3.68,4.87-4.53,6.14-1.58,2.25-2.1,4.74-1.65,7.28.53,2.88,2.45,5.47,5.36,7.4,1.41.95,6.02,4.04,7.89,5.4.14.54.24,1.07.24,1.66,0,1.13-.34,2.19-.7,3.34-.25.78-.5,1.56-.62,2.37-.94,5.21,2.48,10.04,5.73,14.15.73.96,1.67,2.11,2.98,2.67,1.6.92,3.53.4,5.23,0ZM47.13-18.84c1.76,2.95,4.71,5.02,7.6,7.03,2.99,2.08,6.04,4.27,7.8,7.36.43.77.77,1.55,1.1,2.34.45,1,.88,2.04,1.49,2.96,1.4,2.12,3.51,3.56,5.54,4.97,1.44,1,2.92,2.02,4.16,3.22,3.03,3.09,4.2,7.21,4.62,10.14.55,3.65.33,7.32-.03,11.41-.16,2.07-.35,4.36-1.43,6.31-.96,1.73-2.95,4.16-4.91,4.21.4-.55.76-1.11,1.05-1.74.24-.47.4-.96.55-1.45.78-2.46.76-5.08.69-7.41-.34-10.26-2.64-17.31-7.21-22.11-1.42-1.49-3.12-2.8-4.73-3.99-.73-.55-1.5-1.11-2.21-1.7-6.68-5.52-11.69-13.16-14.1-21.56ZM-71.52,27.46c1.12-.68,2.35-1.15,3.6-1.65,1.45-.58,2.94-1.14,4.26-2.03,3.91-2.63,5.72-8.01,4.2-12.47-.06-.24-.17-.46-.27-.72-.27-.72-.51-1.38-.52-2.06-.01-.82.35-1.65.69-2.44,1.08-2.54,2.48-5.21,4.93-5.56.33-.03.65-.06.96-.05.45,0,.91-.03,1.34-.11,2.18-.48,3.47-2.68,3.83-4.64.24-1.32.14-2.71.02-4.01-.03-.6-.06-1.24-.09-1.83-.09-5.94,3-12.08,8.44-16.85.56-.5,1.17-.98,1.76-1.42-2.42,1.93-4.82,4.51-6.36,7.76-3.23,6.87-1.96,14.76.29,22.57-2.46.93-4.44,3.32-5.53,6.58-.51,1.6-.81,3.26-1.11,4.88-.2,1.2-.43,2.48-.76,3.64-1.17,4.37-3.67,8.4-7.14,11.35-.56.5-1.16.94-1.76,1.42-1.31.98-2.64,2.05-3.72,3.32-.35.39-.68,1.27-.7,1.36-.01.04-.03.08-.05.16-.13,1.81-.13,2.94.08,3.28.61,1.19,1.53,1.71,2.39,2.25.75.47,1.48.88,1.97,1.76,1.53,2.7,1.86,5.78,2.12,9.07.17,1.72.32,3.53.68,5.23,1.87,8.85,10.12,16.09,19.14,16.8.61.06,1.28.09,1.86.1,1.33.06,2.6.06,3.85.37,1.55.36,2.94,1.12,4.43,1.96,1.46.78,2.92,1.61,4.59,2.01,1.04.29,2.1.35,3.11.45.61.06,1.18.11,1.78.21,1.2.2,2.37.49,3.53.81,1.62.43,3.33.88,5.06.98,3.06.16,6.62-1.23,7.57-4.22l.04-.12s.01-.04.03-.08c.99-.14,1.98-.41,2.93-.69H0c.51-.18,1.06-.33,1.56-.48,4.22.35,8.42,1.2,12.47,2.49l.45.14c1.43.46,2.87.91,4.4.91,4.46-.11,7.45-4.39,8.84-6.93.44-.81.84-1.63,1.26-2.4,1.33-2.6,2.65-5.34,4.91-7.19,1.1-.91,2.36-1.59,3.61-2.28.39-.24.81-.42,1.2-.65,6.32-3.53,10.34-8.93,10.77-14.39.09-1.14.05-2.28.01-3.43-.08-2.01-.19-3.94.5-5.8.64-1.73,1.96-3.17,3.2-4.53,1.06-1.2,2.17-2.42,2.9-3.86.25-.51.48-1.07.65-1.6.35-1.11.52-2.18.63-3.09,1.52-11.7-3.53-23.87-12.89-31.01-1.38-2.88-1.72-6.19-2.04-9.45-.42-3.79-.79-7.7-2.87-10.93-1.32-2.09-3.27-3.75-5.11-5.33-1.17-1-2.42-2.04-3.49-3.19-.77-.83-1.44-1.72-2.06-2.6-.57-.77-1.15-1.49-1.77-2.23,4.99,2.45,10.05,5.83,13.44,8.94,1.25,1.17,2.55,2.48,3.36,4.05.84,1.62,1.09,3.51,1.36,5.35.06.38.12.76.18,1.14,1.66,10.37,7.29,20.15,15.46,26.77.71.59,1.48,1.15,2.21,1.7,1.59,1.23,3.27,2.49,4.65,3.96,4.51,4.69,6.72,11.62,7.09,21.76.08,2.73.1,5.9-1.22,8.64-2.01,4.19-6.44,6.34-10.77,8.43-.86.45-1.81.87-2.68,1.31-6.37,3.29-11.91,8.07-16.11,13.86-.47.62-.91,1.29-1.33,1.92-2.67,3.84-5.43,7.83-9.81,8.83-.68.14-1.37.19-2.04.3-1.21.11-2.43.26-3.55.81-1.55.77-2.58,2.15-3.6,3.5-.79,1.06-1.58,2.11-2.59,2.87-2.3,1.7-5.46,1.69-8.68,1.47l-32.79-2.16c-1.77-.11-3.81-.22-5.48-1.07-1.05-.52-2.02-1.32-2.9-2.1-1.28-1.08-2.63-2.24-4.32-2.6-1.55-.36-3.15-.01-4.67.36-.49.12-1.02.22-1.55.32-5.72.97-11.97-1.52-15.91-6.43-3.63-4.45-5.26-10.66-4.5-17,.02-.22.06-.48.09-.69.23-1.87.49-3.81-.42-5.46-.79-1.47-2.3-2.27-3.72-3.04-1.19-.65-2.42-1.31-3.23-2.34-.84-1.04-1.16-2.31-.99-3.7.29-2.48,2.15-5.32,4.68-7.31.66-.51,1.36-1.01,2.06-1.51,3.06-2.23,6.26-4.5,7.1-8.11.31-1.25.27-2.53.21-3.77-.02-.64-.04-1.28-.02-1.9.23-5.52,4.02-10.63,9.19-12.55.15-.04.2-.21.16-.36-.04-.15-.21-.2-.36-.16-5.36,1.95-9.33,7.31-9.53,13.03-.03.67-.01,1.31.01,1.94.02,1.22.07,2.46-.21,3.63-.78,3.45-3.88,5.67-6.87,7.82-.7.5-1.4,1-2.06,1.51-2.68,2.03-4.6,5.08-4.92,7.64-.18,1.57.19,2.95,1.11,4.15.87,1.09,2.14,1.77,3.42,2.44,1.42.77,2.77,1.51,3.52,2.84.83,1.48.6,3.35.35,5.12-.02.22-.06.48-.09.69-.76,6.48.91,12.84,4.64,17.41,4.08,5.05,10.53,7.6,16.44,6.6.53-.1,1.06-.2,1.55-.32,1.46-.35,3.01-.66,4.44-.34,1.55.36,2.81,1.39,4.08,2.48.92.79,1.92,1.61,3.02,2.14,1.79.89,3.87,1.01,5.7,1.1l32.81,1.98c3.36.21,6.6.25,9.08-1.57,1.08-.83,1.92-1.91,2.71-2.97,1.02-1.35,1.98-2.66,3.41-3.33,1.01-.49,2.18-.61,3.39-.72.69-.05,1.4-.14,2.12-.27,4.61-1.01,7.4-5.09,10.15-9.04.44-.67.91-1.29,1.33-1.92,4.13-5.72,9.65-10.46,15.92-13.69.86-.45,1.77-.88,2.63-1.33,2.77-1.33,5.61-2.72,7.84-4.63,1.09,3.24-.55,6.68-2.47,8.87-1.55,1.76-3.49,3.17-5.38,4.56-.83.64-1.71,1.26-2.56,1.94-2.41,1.89-4.57,4.14-6.7,6.3-3.73,3.77-7.56,7.7-12.5,9.77-.64.29-1.34.52-1.96.77-1.23.46-2.5.92-3.66,1.58-1.5.88-2.75,2.1-3.97,3.25-.46.44-.97.91-1.48,1.38-4.92,4.39-11.55,6.92-18.17,6.88-1.26,0-2.54-.09-3.78-.17-1.5-.12-3.05-.21-4.54-.19-1.59.03-3.15.26-4.7.44-1.37.19-2.82.36-4.24.41-2.92.11-6.05-.26-9.91-1.18s-7.68-2.23-11.32-3.84c-.31-.15-.63-.29-.98-.45-2.05-.93-4.18-1.88-6.49-2.16-1.87-.23-3.77.06-5.61.33-1.28.18-2.65.37-3.96.4-3.36.06-6.69-1.1-9.16-2.11-3.28-1.32-7.93-3.57-10.05-7.67-1.28-2.49-1.52-5.41-1.75-8.23-.11-1.34-.21-2.73-.42-4.06-1-5.91-4.46-11.49-9.33-15.03v-.04c.02-.18-.02-.33-.13-.41-2.08-2.38-2.97-5.69-2.44-9.17.51-3.58,2.35-6.52,5.03-8.14ZM-40.23,19.89c-.35.11-.69.19-1.08.29-1.46.35-2.98.72-4.08,1.9-.75.8-1.08,1.82-1.3,2.52-1.21,4.22-.27,8.62.63,12.88.97,4.6,1.87,8.99.35,13.06-.26.68-.62,1.38-.94,2.09-.6,1.16-1.17,2.38-1.45,3.69-.48,2.51.34,5.16,2.12,6.95,1.78,1.79,4.45,2.59,6.96,2.09,1.79-.38,3.31-1.33,4.84-2.29.89-.53,1.81-1.14,2.71-1.57,2.58-1.16,5.71-1.2,8.6-.1,2.9,1.1,5.24,3.25,6.34,5.86.1.26.41.4.68.26.14.27.25.49.39.76,1.7,3.02,4.87,6.25,8.98,7.06-1.77,2.01-5.24,1.98-7.63.72-1.93-1.02-3.46-2.59-4.99-4.16-.58-.59-1.16-1.18-1.75-1.73-1.94-1.84-4.93-3.92-8.12-3.4-1.42.22-2.75.97-3.98,1.71-1.11.64-2.27,1.31-3.54,1.62-1.61.39-3.48.15-5.64-.72-8.7-3.41-14-13.67-11.52-22.45.42-1.45,1.01-2.88,1.59-4.28,1.1-2.58,2.22-5.25,2.13-8.08-.04-1.01-.23-1.97-.42-2.93-.14-.68-.25-1.34-.34-2.05-.22-2.01-.02-4.02.21-6.03.15-1.31.3-2.79,1.06-3.9.84-1.22,2.27-1.89,3.64-2.49.43-.22.91-.43,1.34-.66,1.47-.79,2.49-4.26,2.52-6.64.39,1.03.9,2,1.45,2.95.93,1.47,2.06,2.73,3.31,3.76-.07.07-.11.19-.09.29.2,1.51-1.41,2.57-2.99,3.02ZM-34.09,19.05c-1.26,2.67-4.09,4.47-7.04,4.52-.14,0-.31,0-.45,0-.99,0-2.12,0-2.82.77-.76.84-.61,2.06-.38,3.04.4,1.84.97,3.74,1.53,5.54.9,2.99,1.86,6.05,2.12,9.2.36,4.67-.83,9.39-3.35,13.33-.79,1.19-1.96,3.03-1.03,4.5.62,1.01,1.99,1.27,2.99,1.09,1.06-.2,1.92-.79,2.78-1.37l.05-.03c1.66-1.1,3.64-2.36,5.77-3.08,5.55-1.84,12.3.36,15.67,5.18.07.07.15.09.23.12.19.69.41,1.4.65,2.06-1.32-1.51-3.09-2.75-5.1-3.52-3.17-1.24-6.62-1.17-9.46.09-1,.45-1.96,1.04-2.86,1.61-1.47.93-2.87,1.79-4.47,2.14-2.12.41-4.48-.25-6.02-1.79-1.54-1.53-2.24-3.87-1.83-6,.24-1.19.77-2.28,1.36-3.4.36-.7.72-1.4,1.01-2.16,1.67-4.39.7-9.12-.29-13.67-.88-4.16-1.78-8.42-.62-12.34.26-.96.6-1.61,1.03-2.11.84-.95,2.16-1.25,3.53-1.58.39-.1.73-.17,1.08-.29,1.69-.5,3.65-1.68,3.87-3.5.77.56,1.55,1.08,2.32,1.51-.08-.03-.19.03-.27.14ZM-10.43,27.91s-.04-.01,0,0c-.13.14-.26.23-.34.34-.72.72-1.38,1.5-2.02,2.38-3.93,3.98-6.3,10.4-6.62,18.06-.13,2.53,0,5.1.33,7.6-5.18-4.41-13.43-4.73-18.86-.56-.36.29-.74.62-1.1.91-1.3,1.12-2.65,2.22-4.28,2.38.6-1.3,1.45-2.43,2.27-3.56.71-.95,1.42-1.89,1.97-2.93,1.78-3.31,2.21-7.64,1.15-12.22-.88-3.89-2.69-7.54-4.4-11.11l-.22-.43c-.15-.37-.34-.78-.16-1.04s.55-.32.96-.33c.54,0,1.09-.01,1.67,0,1.99,0,4.05.03,5.93-.63,2.45-.89,4.56-3.55,3.74-6.07-.06-.11-.12-.18-.27-.13-.15.04-.18.12-.12.23.71,2.3-1.23,4.71-3.49,5.56-1.84.68-3.81.63-5.8.63-.54,0-1.13,0-1.67,0-.45,0-1.02.08-1.29.49-.28.45-.08.97.13,1.44l.22.43c1.72,3.53,3.49,7.16,4.38,11.01,1.01,4.47.66,8.69-1.14,11.91-.54,1-1.25,1.95-1.92,2.91-.89,1.25-1.84,2.53-2.44,3.96-.03.08,0,.14.03.19.03.05.11.08.15.09,1.9-.02,3.4-1.31,4.86-2.51.36-.29.74-.62,1.1-.91,5.38-4.15,13.7-3.75,18.68.86.19,1.37.46,2.67.77,3.95-3.65-4.55-10.27-6.57-15.78-4.72-2.22.74-4.2,2-5.91,3.12l-.05.03c-.81.55-1.66,1.1-2.58,1.3-.81.15-1.93-.03-2.44-.83-.68-1.12.08-2.5,1.04-3.96,2.6-4.04,3.83-8.89,3.41-13.67-.25-3.19-1.2-6.29-2.13-9.3-.55-1.8-1.13-3.66-1.54-5.5-.17-.87-.34-1.91.24-2.59.55-.59,1.5-.6,2.45-.62.14,0,.31,0,.45,0,3.13-.04,6.15-2.01,7.5-4.83.04-.12.04-.26-.09-.3,1.57.86,3.17,1.51,4.57,1.95,3.96,1.31,8.18,1.8,12.27,2.29l1.47.2c2.56.32,5.28,1.41,5.2,3.51-.02.35-.13.68-.27,1ZM-11.64,58.57c1.44,1.86,2.93,3.55,5.02,4.08,1.46.38,2.96.04,4.32-.25,5.22-1.09,11.15-2.26,15.64-5.88,1.95-1.59,3.17-3.28,3.62-5.12.43-1.76.19-3.55-.07-5.3-.26-1.89-.55-3.65,0-5.37.76-2.51,2.88-4.09,5.16-5.71,1.43-1.08,2.94-2.13,4.06-3.53.96-1.18,1.67-2.54,2.12-3.97.93-2.91.98-6.19.89-9.15-.11-4.05-.3-8.13-.65-12.12-.04-.73-.12-1.75-.74-2.49-.44-.59-1.15-.91-1.78-1.2l-.16-.05c-2.82-1.35-5.99-4.12-5.6-7.47.15-1.04.61-2.06,1.1-3.03.15-.31.29-.63.44-.94,2.37-5.29,1.7-11.82-1.72-16.66-3.36-4.73-9.14-7.56-15.09-7.43-3.64.1-7.18,1.28-10.6,2.39-4.48,1.46-8.72,2.86-13.13,2.13-.34-.06-.72-.14-1.06-.2-1.06-.2-2.11-.45-3.24-.31-1.59.17-2.96,1.09-4.16,1.88-2.68,1.76-5.7,3.73-7.77,6.54-2.08,2.85-4.67,7.99-2.6,20.02.46,2.67,1.08,5.81,2.64,8.42,1.99,3.39,5.59,6.11,10.64,8.09,3.13,1.22,6.43,2.05,9.78,2.44.26.04.52.07.75.06-1.26.27-2.45.48-3.27.35-3.73-.47-6.04-1.02-9.25-2.27-4.54-1.76-7.49-4.24-9.94-8.31-1.53-2.56-3.02-8.77-3.61-12.03-1.34-7.69-.04-13.87,4.01-19.34,1.5-2,4.78-4.66,7.06-5.73,2.85-1.3,7.61-2.08,10.42-2.54,2.24-.37,3.77-.06,5.28.29,1.95.4,3.78.75,6.64-.45,1.1-.46,2.16-.98,3.23-1.5,3.26-1.58,6.34-3.03,10.02-3.12,6.24-.18,12.31,2.85,15.84,7.76,3.59,5.02,4.35,11.81,1.87,17.34-.16.36-.3.67-.5,1.01-.53,1.09-1.06,2.19-1.22,3.4-.47,3.87,3.08,7.03,6.3,8.55l.15.09c.67.3,1.34.61,1.76,1.15.48.61.62,1.46.67,2.43.34,4.31.57,8.67.7,12.95.13,4.69-.02,9.97-3.07,13.73-1.18,1.43-2.75,2.55-4.28,3.64-2.36,1.73-4.77,3.49-5.66,6.27-.01.04-.03.08-.03.08-.57,1.94-.28,3.97,0,5.96.27,1.85.56,3.75.1,5.49-.45,1.84-1.69,3.61-3.7,5.23-4.74,3.81-11.06,5.09-16.64,6.2-1.4.28-2.98.58-4.44.21-2.09-.53-3.65-2.29-5.15-4.22-1.19-1.51-2.01-3.03-2.57-4.52.54.71.96,1.39,1.51,2.06ZM-12.71,42.7c.09-.42.19-.89.24-1.32.52-2.9,1.29-6.18,3.48-8.37.59-.58,1.34-1.24,2.16-1.97,2.43-2.11,5.14-4.5,5.69-6.94.59-2.56-1.98-5.1-4.81-6.41-1.41-.68-3.88-.15-6.3.38-.3-.05-.65-.07-.95-.12-.48-.06-.91-.11-1.35-.16-3.31-.38-6.57-1.19-9.66-2.4-4.93-1.93-8.42-4.58-10.35-7.86-1.53-2.56-2.14-5.6-2.55-8.26-2-11.83.46-16.86,2.51-19.6,1.99-2.7,4.85-4.59,7.6-6.42,1.15-.76,2.47-1.65,3.92-1.82,1.03-.12,2,.1,3.06.3.38.08.72.14,1.1.22,4.55.73,9.03-.73,13.38-2.18,3.38-1.13,6.92-2.31,10.47-2.39,5.74-.16,11.36,2.59,14.63,7.19,3.3,4.66,3.99,10.97,1.68,16.1-.15.31-.29.63-.44.94-.5,1.01-1.01,2.03-1.16,3.2-.44,3.65,2.9,6.61,5.87,8.05l.16.05c.59.28,1.22.57,1.6,1.05.44.59.52,1.34.6,2.22.31,3.98.54,8.07.6,12.11.1,4.36-.03,9.29-2.89,12.75-1.1,1.32-2.53,2.4-3.94,3.44-2.18,1.61-4.47,3.27-5.32,5.93t-.03.08c-.53,1.82-.29,3.74-.02,5.59.27,1.71.52,3.46.08,5.12-.45,1.71-1.56,3.34-3.43,4.82-4.39,3.56-10.27,4.76-15.42,5.77-1.3.26-2.75.57-4.09.23-1.92-.48-3.34-2.11-4.71-3.9-1.19-1.51-1.97-3.02-2.48-4.54-.38-3.33.29-6.86,1.08-10.89ZM-11.03,18.19c1.98-.41,3.84-.72,4.93-.19,2.67,1.26,5.12,3.62,4.59,5.98-.55,2.3-3.32,4.76-5.58,6.75-.81.69-1.56,1.35-2.16,1.97-2.25,2.26-3.05,5.61-3.6,8.6-.1.46-.15.9-.24,1.32-.56,3.03-1.09,5.83-1.11,8.58-.39-3.15.23-6.38.96-10.07l.22-1.24c.5-2.68,1.2-5.75,3.26-7.81.72-.72,1.65-1.37,2.53-1.99,1.74-1.21,3.52-2.4,3.97-4.51.62-2.65-1.44-5.24-3.75-6.34-1.27-.54-2.62-.84-4-1.05ZM-13.16,21.17l-1.35-.16c-3.74-.43-7.65-.91-11.26-2.06-3.18-1.06-7.49-3.11-9.99-7.16-1.17-1.86-1.83-4.01-2.51-6.13-2.74-8.68-4.92-17.09-1.46-24.43,1.52-3.21,3.98-5.68,6.36-7.49-1.12.95-2.12,1.99-2.76,2.86-4.13,5.59-5.45,11.84-4.11,19.67.62,3.45,2.07,9.5,3.65,12.18,2.46,4.17,5.48,6.71,10.1,8.5,3.21,1.25,5.6,1.83,9.34,2.26,1.13.13,2.83-.23,4.57-.62,1.84.18,3.65.44,5.29,1.24,2.08.98,3.99,3.35,3.46,5.71-.41,1.85-2.04,3-3.77,4.17-.92.61-1.85,1.26-2.6,2.06-2.13,2.16-2.87,5.31-3.39,8.08l-.22,1.24c-.92,4.85-1.77,9.23-.12,13.54.45,2.26,1.4,4.51,3.17,6.74,1.58,1.99,3.12,3.79,5.37,4.38,1.54.4,3.18.07,4.63-.24,5.64-1.13,12-2.4,16.8-6.28,2.07-1.69,3.37-3.48,3.86-5.45.45-1.84.17-3.78-.09-5.67-.28-1.94-.59-3.94,0-5.78.01-.04.03-.08.03-.08.85-2.66,3.14-4.32,5.55-6.08,1.54-1.13,3.12-2.3,4.36-3.75,1.03-1.25,1.76-2.69,2.24-4.2.99-3.11,1.02-6.58.95-9.76-.11-4.32-.34-8.68-.73-13-.06-.79-.13-1.85-.74-2.63-.48-.61-1.18-.96-1.89-1.28l-.16-.05c-3.1-1.44-6.52-4.47-6.07-8.12.13-1.13.66-2.22,1.18-3.28.16-.36.3-.67.5-1.01,2.52-5.65,1.81-12.6-1.87-17.75-3.63-5.04-9.83-8.1-16.19-7.96-3.74.12-7.02,1.64-10.17,3.16-1.07.52-2.13,1.03-3.22,1.46-2.76,1.15-4.46.83-6.41.44-1.53-.31-3.14-.64-5.41-.28-2.09.33-5.22.82-7.86,1.6,2.97-1.26,6.09-2.25,9.14-3.18l19.39-6.04c2.6-.79,5.27-1.66,8-1.87,8.41-.75,17.07,4.91,19.76,12.89.92,2.78,1.23,5.76,1.51,8.7.34,3.45.7,6.99,2.06,10.22.72,1.72,1.74,3.31,2.7,4.83,1.14,1.81,2.3,3.67,2.98,5.64,1.53,4.41.69,9.02-.23,13.87-.52,2.77-1.03,5.63-1.06,8.42-.03.8.02,1.63.04,2.41.04,1.86.11,3.6-.3,5.32-.85,3.65-3.51,6.33-6.31,9.18-1.58,1.57-3.21,3.26-4.48,5.12-1.25,1.81-2.21,3.81-3.11,5.78-.89,1.93-1.84,3.93-3.07,5.65-4.05,5.75-11.2,8.79-16.99,11.23-2.19.93-4.64,1.95-7.1,1.89-4.24-.14-7.55-3.36-9.25-6.38-3.8-6.76-4.87-17.84-2.16-26.32,1.02-3.19,2.56-6.04,4.72-8.15.12-.1.2-.21.32-.3.97-.91,2.03-1.97,2.08-3.4-.1-2.51-3-3.75-5.74-4.09ZM-32.79,72.39c-1.34-.34-2.72-.37-4.06-.44-.63-.02-1.25-.04-1.82-.09-8.59-.66-16.41-7.54-18.19-15.96-.33-1.64-.49-3.41-.66-5.13-.27-3.25-.6-6.6-2.24-9.52-.64-1.11-1.54-1.67-2.34-2.15-.79-.48-1.52-.89-1.99-1.81-.1-.26-.05-1.55.03-2.65.1-.33.34-.79.5-1.01.98-1.22,2.23-2.18,3.53-3.16.59-.44,1.2-.93,1.82-1.45,3.6-3.09,6.26-7.3,7.49-11.87.31-1.25.53-2.49.78-3.72.28-1.58.57-3.2,1.05-4.72.98-2.94,2.69-5.05,4.81-5.87.34,1.06.63,2.14.97,3.2.34,1.06.65,2.06,1.05,3.09.18,2.27-.98,6.32-2.4,7.09-.43.22-.91.43-1.34.66-1.42.63-2.85,1.3-3.72,2.6-.83,1.18-1,2.7-1.16,4.05-.23,2-.42,4.02-.22,6.07.09.71.19,1.37.34,2.05.19.96.38,1.93.38,2.92.1,2.79-1,5.41-2.09,7.95-.58,1.39-1.17,2.83-1.6,4.32-2.52,8.9,2.82,19.31,11.69,22.77,2.25.85,4.12,1.09,5.81.73,1.31-.3,2.48-.97,3.64-1.64,1.21-.7,2.48-1.42,3.87-1.65,3.09-.5,6,1.55,7.92,3.34.59.55,1.17,1.14,1.75,1.73,1.53,1.57,3.1,3.16,5.02,4.22,2.59,1.37,6.24,1.36,8.06-.95.44.05.9.15,1.36.12.23-.02.45,0,.68,0-.91,2.28-3.83,3.38-6.4,3.24-1.65-.07-3.19-.48-4.84-.96-1.2-.34-2.41-.64-3.67-.81-.6-.1-1.25-.17-1.82-.22-1.05-.11-2.01-.19-2.97-.45-1.5-.39-2.88-1.15-4.35-1.93-1.44-.73-2.97-1.58-4.65-1.98ZM31.29-30.58c1.03,2.99,1.35,6.25,1.66,9.37.36,3.68.74,7.45,2.22,10.86.77,1.83,1.87,3.48,2.88,5.12,1.23,1.93,2.48,3.95,3.25,6.09,1.67,4.82.76,9.77-.19,15.01-.53,2.94-1.09,5.97-1.15,8.97,0,.86,0,1.71.05,2.54.07,1.92.1,3.91-.32,5.81-.91,4-3.77,6.87-6.83,9.96-1.68,1.72-3.41,3.47-4.8,5.42-1.33,1.92-2.34,4.08-3.32,6.16-.98,2.08-1.97,4.2-3.31,6.12-3.54,5.01-9.21,8.07-14.53,10.48l-.12-.04c-.12-.04-.28.04-.34.21v.04c-1.16.49-2.31.98-3.41,1.44-.64.29-1.3.53-1.97.81-.09.01-.18-.01-.26-.04-.09.01-.2.07-.2.21-1.22.42-2.46.79-3.74.97-.04-.01-.07-.07-.15-.09-.2-.07-.37.02-.54.14-.33.03-.64.02-.91.03-4.69-.14-8.34-3.7-10.22-7.01-.17-.32-.38-.66-.53-1.03-.03-.05-.01-.1-.04-.15-.15-.37-.35-.74-.54-1.12-1.09-2.51-1.92-5.44-2.38-8.52.01-.04.05-.03.07-.07.03-.08,0-.14-.07-.2-.04-.01-.03-.05-.03-.05-.84-5.73-.51-11.98,1.18-17.27.68-2.13,1.58-4.1,2.73-5.85-1.56,3.34-2.53,7.36-2.74,11.85-.35,6.75,1.06,13.65,3.77,18.44,1.85,3.25,5.46,6.8,10.15,6.94,2.73.06,5.29-1.02,7.57-1.96,5.9-2.5,13.2-5.58,17.46-11.58,1.25-1.81,2.22-3.85,3.16-5.81.89-1.93,1.83-3.88,3.05-5.61,1.24-1.77,2.84-3.38,4.38-4.96,2.55-2.62,5.21-5.29,6.32-8.77.09-.29.18-.57.23-.87.41-1.85.39-3.76.35-5.62-.02-.77-.03-1.59-.02-2.35.06-2.73.55-5.55,1.05-8.24.89-4.77,1.79-9.72.17-14.39-.72-2.13-1.91-4.04-3.09-5.86-.97-1.48-1.92-3.05-2.62-4.67-1.32-3.08-1.65-6.57-1.98-9.93-.27-2.97-.59-6.06-1.57-8.94-2.81-8.43-12-14.43-20.87-13.65-2.84.27-5.59,1.11-8.2,1.94l-19.39,6.04c-4.46,1.38-9.02,2.81-13.24,5.16-4.71,2.6-8.17,6.1-10.07,10.05-3.61,7.65-1.29,16.64,1.44,25.19.67,2.15,1.4,4.37,2.61,6.38,2.68,4.33,7.25,6.55,10.61,7.63,3.71,1.23,7.64,1.67,11.46,2.12l1.35.16c.78.11,4.66.67,4.59,3-.05.71-.46,1.3-.97,1.9.01-.04,0-.14.01-.18.08-2.5-2.88-3.72-5.65-4.06l-1.47-.2c-4.04-.48-8.22-.95-12.14-2.25-2.17-.69-4.78-1.84-7.13-3.67-.07-.2-.25-.35-.43-.36-1.25-1.03-2.42-2.31-3.35-3.78-1.29-2.04-2.03-4.39-2.75-6.65-.33-1.1-.71-2.17-.99-3.25.18-.12.25-.37.18-.57-.07-.2-.25-.35-.47-.37-2.28-7.86-3.52-15.43-.33-22.17,2.45-5.13,7.03-8.45,10.43-10.34,4.39-2.44,9.3-3.98,14.06-5.44L1.17-42.4c2.8-.87,5.7-1.75,8.68-2.02,9.04-1.04,18.49,5.13,21.44,13.84ZM22.41,60.32c1.08-1.69,1.94-3.53,2.79-5.34.97-2.04,1.97-4.2,3.29-6.08,1.33-1.92,3.07-3.67,4.73-5.35,2.74-2.78,5.54-5.63,6.71-9.28.09-.29.2-.61.25-.91.44-1.94.41-3.98.32-5.95-.01-.82-.05-1.69-.05-2.54.04-2.96.59-5.95,1.12-8.89.94-5.07,1.89-10.32.18-15.28-.78-2.23-2.07-4.27-3.33-6.25-1.01-1.63-2.07-3.28-2.85-5.06-1.22-2.83-1.68-5.91-2.02-8.95,1.33,2.77,3.23,5.59,5.26,8.54,3.53,5.19,7.23,10.57,7.52,15.76.19,2.81-.58,5.91-2.1,8.85-.21.38-.41.73-.58,1.12-.77,1.42-1.58,2.83-1.79,4.48-.27,2.12.53,4.14,1.3,6.1.48,1.19.94,2.42,1.18,3.67.8,4.27-2.44,8.2-5.34,11.65l-.64.74c-1.11,1.36-2.39,2.67-3.55,3.92-2.04,2.15-4.16,4.4-5.78,6.95-.37.6-.75,1.21-1.09,1.86-1.34,2.64-2.87,5.31-5.51,6.23ZM28.43,54.34c.37-.6.72-1.26,1.08-1.82,1.57-2.52,3.68-4.74,5.72-6.89,1.21-1.24,2.44-2.56,3.55-3.92l.64-.74c2.04-2.42,4.23-5.06,5.13-7.88.42-1.31.58-2.66.3-4.06-.26-1.3-.73-2.53-1.2-3.72-.76-2-1.52-3.87-1.27-5.91.17-1.52.98-2.94,1.74-4.32.21-.38.41-.73.58-1.12,1.56-3.07,2.29-6.17,2.13-9.07-.33-5.34-4.03-10.72-7.59-15.96-2.27-3.34-4.46-6.52-5.74-9.59,0-.14-.03-.33-.03-.46-.06-.79-.17-1.59-.23-2.38,2.19,2.05,4.38,4.24,5.89,6.84.83,1.48,1.48,3.14,2.06,4.72.59,1.54,1.2,3.18,2.03,4.66.6,1.09,1.36,2.1,2.04,3.09,1.09,1.52,2.2,3.14,2.86,4.88.52,1.48.75,3.04.93,4.58.2,1.51.42,3.07.9,4.53.38,1.07.91,2.1,1.41,3.07.86,1.67,1.71,3.25,1.82,5.05.12,2.02-.75,4.05-1.68,5.96-.82,1.72-1.68,3.43-2.53,5.1-2.17,4.27-4.4,8.7-5.97,13.35-.26.82-.52,1.64-.77,2.42-1.08,3.54-2.2,7.19-4.75,9.81-1.42,1.49-3.26,2.57-5.04,3.63-1.28.76-2.6,1.52-3.77,2.5-2.58,2.02-4.59,4.9-5.62,8-.09.29-.18.57-.27.86-.47,1.47-.93,3.04-2.14,3.88-1.5,1.01-3.54.63-5.37.14l-7.64-1.94c5.22-2.35,10.67-5.44,14.14-10.38.08-.11.16-.22.24-.33,3.12-.86,4.81-3.75,6.43-6.57ZM2.82,73.92c2.21-.42,4.47-.42,6.69-.03.98.18,2.02.46,3.01.74,2.78.75,5.69,1.54,8.37.5,3.1-1.22,4.57-4.27,6.07-7.27.66-1.37,1.38-2.76,2.22-3.98,1.87-2.74,4.67-4.74,7.42-6.7,3.39-2.44,6.95-4.96,8.56-8.87.67-1.68.95-3.53,1.24-5.29.09-.69.23-1.42.33-2.15.85-4.51,2.81-8.67,4.6-12.16l.49-.97c1.13-2.12,2.24-4.34,2.97-6.63.41-1.27.7-2.62.76-3.95.16-3.2-.84-6.41-1.7-9.25-1.15-3.75-2.36-7.61-4.65-10.87-.53-.75-1.15-1.49-1.73-2.22-.84-1.04-1.71-2.13-2.42-3.3l-.03-.05c8.83,7.11,13.54,18.81,12.07,30.07-.19,1.29-.46,3.01-1.23,4.57-.72,1.4-1.77,2.59-2.86,3.73-1.26,1.4-2.59,2.87-3.26,4.69-.7,1.9-.63,3.95-.54,5.92.05,1.1.1,2.24,0,3.39-.45,5.36-4.38,10.61-10.59,14.09-.39.24-.81.42-1.2.65-1.26.68-2.55,1.35-3.67,2.3-2.33,1.92-3.71,4.68-5.04,7.33-.4.82-.79,1.64-1.22,2.41-1.33,2.46-4.28,6.62-8.51,6.72-1.45.03-2.89-.43-4.28-.87l-.45-.14c-3.74-1.15-7.58-1.97-11.42-2.38ZM82.94,11.35c.44-1.39.64-2.73.3-4.06-.24-.93-.81-1.84-1.68-2.79-.98-1.03-2.15-1.9-3.27-2.76-.77-.56-1.52-1.16-2.27-1.81-.22-.16-.39-.35-.59-.55-.7-.63-1.39-1.3-2.25-1.71-1.52-.76-3.2-.71-4.84-.69-.82.01-1.67,0-2.46-.06-.01-.95-.01-1.94-.3-2.89-.58-1.86-2.16-3.13-3.74-4.26-1.26-.85-2.56-1.72-3.81-2.48-1.69-1.08-3.45-2.19-5.05-3.42-2.58-1.95-5.69-6.06-7.12-9.36-.24-1.66-.56-3.34-1.33-4.89-.86-1.67-2.15-3.03-3.48-4.22-2.2-2.01-5.08-4.15-8.22-6.05,1.8.17,3.61.29,5.38.41,5.13.33,10.93.69,16.18-.93,1.41-.45,3.4-.63,5.17-.79.79-.06,1.58-.13,2.24-.23.33-.03.65-.06.95-.15,1.79-.24,2.99-.45,4.99.06,2.63.66,5.67,1.45,8.35,2.98,2.82,1.62,4.89,3.91,5.75,6.44.47,1.37.66,2.87.83,4.33.27,2.25.52,4.59,1.93,6.39.61.78,1.43,1.45,2.23,2.07,1.26.99,2.4,1.94,2.84,3.39.65,2.19-.84,4.33-1.55,5.15-.63.7-1.34,1.38-2.04,2.01-.7.63-1.41,1.31-2.04,2.01-2.67,3.12-3.3,7.52-1.52,10.71.31.59.76,1.15,1.12,1.71.32.42.6.82.9,1.28,1.85,2.98,1.99,6.91.36,10.04l-.03.08c-.55-1.26-1.43-2.31-2.38-3.29.05-.57.27-1.13.44-1.66ZM78.89,10.02c-2.65-2.15-5.48-4.18-8.38-5.97l-.07-.07c-1.74-1.05-3.55-2.17-4.23-4.01-.07-.2-.14-.41-.17-.6,3.77.35,6.82,2.67,9.58,5.04.89.74,1.8,1.57,2.44,2.54.64.97.92,2.05.83,3.06ZM78.25,6.79c-.67-1.02-1.61-1.87-2.51-2.61-2.85-2.4-5.96-4.79-9.83-5.12-.09-.57-.12-1.17-.12-1.75.83.08,1.69.09,2.5.08,1.67,0,3.26-.04,4.67.63.82.4,1.51,1.07,2.17,1.69.21.2.39.35.59.55.74.64,1.5,1.25,2.31,1.82,1.08.84,2.26,1.67,3.19,2.73.84.9,1.38,1.75,1.6,2.63.46,1.68-.09,3.4-.83,5.29-.41-.4-.87-.82-1.25-1.17-.54-.44-1.07-.88-1.59-1.37.16-1.08-.14-2.26-.9-3.4ZM42.8-41.62c3.1.31,6.18-.15,9.18-.64,5.22-.82,10.64-1.66,16-.94,5.84.78,10.7,3.51,13.32,7.46,1.25,1.89,2.02,4.12,2.77,6.3.8,2.29,1.62,4.67,3.04,6.75.28.4.6.82.89,1.19.6.82,1.22,1.56,1.57,2.44,1.37,3.05-.12,6.6-1.93,8.86-.39.51-.87,1.03-1.35,1.55-1.61,1.79-3.24,3.66-3.44,6.12-.2,2.6,1.34,4.71,2.85,6.77.97,1.35,1.98,2.71,2.49,4.22.89,2.59.2,5.3-.53,8.18-.54,2.13-1.11,4.34-.98,6.59.09,1.97.74,3.89,1.38,5.72.44,1.31.9,2.68,1.15,4.02,1.41,7.76-3.91,15.09-9,21.41l-4.86,6.03c-.9,1.11-1.86,2.29-3.03,3.14-3.31,2.46-7.89,2.09-12.37,1.42,2.33-1.92,4.59-3.91,6.82-5.95,2.62-2.41,5.32-5.07,6.4-8.47.01-.04.03-.08.04-.12.26-.82.43-1.76.61-2.6.46-2.29.88-4.46,2.63-5.7.7-.5,1.55-.77,2.35-1.01.85-.27,1.76-.57,2.51-1.09,1.06-.79,1.67-1.99,2.09-3.3.17-.53.31-1.12.44-1.66.89-4.05,1.43-8.16,1.66-12.28.07-1.92.11-4.16-.7-6.14-.03-.05-.06-.11-.08-.16,0,0,.03.05.07.07.08.03.14,0,.19-.03.25-.51.46-1.03.63-1.56.91-2.87.56-6.14-1.01-8.72-.26-.45-.58-.86-.9-1.28-.37-.53-.78-1.1-1.1-1.66-1.71-3.12-1.07-7.38,1.51-10.39.63-.7,1.34-1.38,1.99-1.98.7-.63,1.41-1.31,2.05-2.05.72-.85,2.29-3.06,1.59-5.4-.47-1.5-1.72-2.53-2.94-3.51-.76-.6-1.58-1.27-2.15-2.04-1.34-1.74-1.63-3.95-1.89-6.24-.17-1.45-.35-3-.8-4.41-.89-2.59-2.99-4.92-5.89-6.57-2.67-1.53-5.75-2.33-8.39-2.99-2.05-.52-3.24-.31-5.07-.08-.28.04-.61.08-.95.15-.66.1-1.41.18-2.2.25-1.77.16-3.77.38-5.22.82-5.21,1.63-11.01,1.27-16.1.96-1.95-.12-3.93-.26-5.89-.48-1.93-1.16-3.97-2.26-5.93-3.2-.04-.01-.08-.03-.12-.04-.52-.48-1.06-.92-1.65-1.34-.3-.19-.64-.39-.96-.53,3.63-.33,7.12.87,10.77,2.17,2.7.73,5.54,1.72,8.43,2.01ZM16.15-44.66c.53-.82,1.4-1.4,2.52-1.68,1.76-.43,3.97,0,5.64,1.12.59.41,1.13.86,1.61,1.33.01.1.04.15.15.23.04.01.08.03.12.04.92.93,1.68,1.94,2.44,2.95.66.89,1.33,1.78,2.1,2.61,1.08,1.16,2.31,2.23,3.52,3.24,1.84,1.58,3.77,3.19,5.06,5.22,2.01,3.17,2.4,7.04,2.79,10.77.37,3.64.76,7.37,2.6,10.53.7,1.21,1.57,2.3,2.45,3.35.58.73,1.16,1.45,1.69,2.21,2.26,3.25,3.44,7.05,4.6,10.76.91,2.95,1.87,6.01,1.69,9.11-.22,3.67-2,7.12-3.69,10.42l-.49.97c-1.8,3.53-3.78,7.73-4.63,12.24-.14.72-.24,1.46-.33,2.15-.25,1.77-.51,3.58-1.21,5.21-1.57,3.79-4.91,6.2-8.43,8.73-2.75,1.97-5.62,4.03-7.54,6.8-.85,1.26-1.57,2.66-2.23,4.03-1.51,3.04-2.93,5.92-5.86,7.06-2.58,1.03-5.39.22-8.1-.51-1-.27-2.03-.56-3.06-.75-2.09-.39-4.19-.44-6.28-.11,1.15-.49,2.39-1,3.65-1.54l8.31,2.11c1.92.48,4.13.91,5.8-.22,1.39-.96,1.87-2.61,2.37-4.16.09-.29.18-.57.26-.82,1.01-3.02,2.93-5.79,5.41-7.75,1.14-.9,2.48-1.69,3.71-2.43,1.78-1.06,3.67-2.17,5.16-3.72,2.63-2.73,3.78-6.47,4.91-10.03.25-.78.52-1.64.77-2.42,1.56-4.6,3.77-8.99,5.91-13.28.85-1.67,1.71-3.38,2.53-5.1.44-.94.9-1.97,1.21-2.95.34-1.06.54-2.13.45-3.24-.12-1.89-1.01-3.62-1.88-5.29-.5-.97-1.04-1.96-1.38-3.01-.49-1.42-.69-2.93-.89-4.43-.18-1.55-.44-3.16-.99-4.69-.68-1.84-1.83-3.47-2.95-5.05-.68-.98-1.44-1.99-2.01-3.03-.81-1.43-1.41-3.07-2-4.61-.62-1.6-1.25-3.29-2.13-4.79-1.63-2.82-4.01-5.11-6.33-7.3-.04-.01-.07-.07-.12-.04-.27-2.12-.63-4.26-1.33-6.29-2.26-6.9-8.55-12.25-15.58-13.95ZM57.94-47.34c-5.14.71-10.44,1.45-15.57.58-1.93-.3-3.87-.87-5.74-1.38-2.11-.58-4.27-1.18-6.46-1.52-5.01-.7-10.03.18-14.75,1.11-13.11,2.63-26.1,6.43-38.6,11.24-7.1,2.74-12.78,5.4-17.58,9.55-5.73,4.94-8.91,11.37-8.84,17.67.02.64.04,1.28.08,1.88.08,1.29.18,2.54-.03,3.78-.25,1.63-1.27,3.43-2.97,3.79-.34.07-.75.08-1.15.08-.37.02-.73.04-1.1.05-2.94.46-4.55,3.38-5.73,6.21-.36.83-.76,1.83-.74,2.88,0,.86.29,1.63.59,2.4.07.2.17.46.23.7,1.33,4.03-.29,8.84-3.81,11.24-1.21.83-2.61,1.38-4.04,1.91-1.24.51-2.57.98-3.74,1.69-2.52,1.54-4.37,4.07-5.22,7.18-3.51,1.95-9.68,6.43-10.79,11.18-1.06,4.58-.08,9.59,2.63,13.39.65.93,1.82,2.34,3.05,3.86,1.78,2.19,3.83,4.7,4.65,6.09,1.64,2.64,1.77,5.76,1.94,9.06.12,2.74.29,5.6,1.38,8.11,2.41,5.6,9.15,8.79,14.42,9.39,1.35.16,3.14-.08,4.82-.27,1.47-.21,2.86-.35,3.98-.31,4.75.25,8.13,2.82,11.74,5.91.81.71,1.65,1.61,2.51,2.61,1.24,1.34,2.5,2.78,3.81,3.61,2.84,1.85,6.37,2.53,9.73,1.89,1.21-.25,2.69-1.08,4.12-1.89,1.43-.81,2.87-1.65,4.07-1.86,3.92-.69,7.06,1.35,10.38,3.54,2.95,1.93,6.01,3.95,9.7,3.95,4.01.02,8.89-1.13,12.43-2.89,10-5.02,20.28-9.68,30.67-13.81,5.18-2.09,10.18-5.19,13.35-8.33,1.18-1.16,2.17-2.56,3.1-3.93,1.55-2.17,2.98-4.24,5.22-5.46,1.26-.68,2.24-.95,3.32-1.2.88-.22,1.75-.39,2.84-.85,3.76-1.6,6.98-4.77,10.15-10.03.75-1.21,1.44-2.52,2.14-3.74,1.59-2.88,3.23-5.87,5.4-8.43.79-.92,1.87-1.75,2.97-2.53,1.76-1.29,3.54-2.62,4.16-4.54.03-.08.05-.16.07-.2.57-2.21.19-4.54-.18-6.78v-.14c-1.9-11.03-3.43-26.32-3.72-36.7l.87-2.3c.72-1.84,1.46-3.73,1.67-5.79.33-3.01-.46-6.06-1.35-8.92-3.02-9.36-7.48-18.14-13.2-26.1-1.29-1.76-2.81-3.78-4.85-5.16-1.82-1.21-4.16-1.96-7.07-2.3-5.11-.55-10.11.16-14.93.83ZM-5.07,41.94c-.23-.84-.44-1.72-.69-2.52-.38-1.21-.71-2.3-.53-3.42.29-1.89,1.74-3.19,3.3-4.54.56-.5,1.13-.99,1.67-1.54,2.58-2.7,3.74-6.61,3-10.24-.22-1.15-.6-2.09-1.15-2.76-1.12-1.44-2.92-2.02-4.56-2.4-2.97-.72-6.05-.98-9.07-.86l-.69.05c-3.07.15-6.55.3-8.39-2-.86-1.13-1.15-2.62-1.32-4.08-.48-3.58-.77-7.2-.79-10.81-.03-3.58.25-8,3.15-10.59,1.28-1.17,2.93-1.82,4.4-2.34,4.34-1.59,8.88-2.67,13.49-3.23,1.36-.15,2.93-.28,4.35.22,2.96,1.04,4.39,4.33,5.49,7.39.38,1.07.76,2.14.8,3.28,0,.41-.07.79-.11,1.18-.04.39-.08.83-.12,1.23-.03,3.64,3.42,6.1,5.49,7.26.62.33,1.23.66,1.85,1,2.13,1.09,4.3,2.23,5.74,4.09.91,1.24,1.49,2.69,1.94,4.09,1.25,3.87,2.78,11.09-1.28,15.88-.82,1-1.89,1.83-2.88,2.65-1.1.91-2.26,1.85-3.17,3-1.06,1.33-1.7,2.93-2.23,4.57-.21.66-.36,1.28-.56,1.9l-.03.08c-.36,1.28-.71,2.66-1.54,3.7-.68.87-1.64,1.46-2.54,2.03l-5.46,3.4c-1.74,1.07-3.07,1.41-4.15.98-1.94-.85-2.67-3.79-3.43-6.64ZM2.72,47.94l5.46-3.4c.9-.57,1.97-1.22,2.72-2.16.9-1.11,1.26-2.53,1.65-3.9l.03-.08c.61-2.2,1.3-4.5,2.68-6.28.86-1.13,2-2.02,3.09-2.89,1.04-.84,2.07-1.69,2.94-2.72,1-1.17,1.64-2.45,2.08-3.85,1.42-4.46.29-9.52-.68-12.58-.48-1.46-1.03-2.99-2.03-4.26-1.49-1.97-3.75-3.09-5.91-4.23-.62-.33-1.25-.62-1.82-.94-1.96-1.08-5.27-3.44-5.24-6.77,0-.41.06-.75.09-1.14.04-.39.08-.83.09-1.28-.02-1.22-.45-2.4-.79-3.46-1.16-3.17-2.63-6.61-5.84-7.73-1.5-.52-3.13-.37-4.58-.2-4.64.55-9.22,1.61-13.62,3.23-1.49.56-3.19,1.24-4.58,2.47-3.04,2.73-3.37,7.32-3.33,10.99.06,3.63.34,7.28.82,10.87.2,1.51.5,3.09,1.42,4.33,1.99,2.53,5.6,2.37,8.81,2.22l.69-.05c3.02-.12,6,.15,8.93.86,1.55.36,3.23.9,4.26,2.22.47.65.85,1.44,1.04,2.54.66,3.46-.45,7.21-2.85,9.78-.48.52-1.05,1.02-1.61,1.52-1.57,1.39-3.2,2.81-3.46,4.9-.16,1.21.17,2.45.55,3.65.24.8.47,1.64.69,2.52.76,2.99,1.57,6.1,3.66,6.9,1.22.43,2.73.06,4.64-1.09ZM85.02-50.75c5.74,4.09,10.43,9.33,15.66,15.96,2.93,3.69,5.64,7.35,6.74,11.67,1.7,6.54-.75,12.67-3.15,18.63-2.48,6.2-5.03,12.65-2.78,19.46.52,1.61,1.42,3.48,2.31,5.48,1.61,3.45,3.43,7.37,3.59,10.4.04.73.17,1.59.29,2.48.28,1.94.58,4.11.13,5.68-.93,3.04-2.25,5.78-3.56,8.48-1.27,2.57-2.52,5.2-3.43,8.07-.05.16-.1.33-.14.45-1.24,4.16-2.69,8.84-5.67,12.4-2.92,3.49-8.01,6.15-12.52,8.55-1.19.61-2.32,1.2-3.38,1.81-5.61,3.17-9.56,7.46-13.34,11.67-3.36,3.76-6.89,7.59-11.64,10.73-6.97,4.59-15.83,8.31-23.6,11.6l-1.92.79c-8.87,3.76-19.85,4.95-30.95,3.39-1.63-.25-3.24-.58-4.84-.96-2.02-.46-4.08-.94-6.15-1.1-3.29-.28-6.81.26-10.24.84-5.82.85-11.29,1.72-15.77-1.33-2.88-2-4.67-5.01-6.41-7.91-1.26-2.12-2.58-4.34-4.31-6.16-3.35-3.51-7.7-2.86-12.29-2.21-2.8.42-5.67.81-8.33.23-6.84-1.46-10.46-6.4-10.89-10.42-.12-1.17-.03-2.45.03-3.64.14-1.99.29-4.01-.51-5.89-.59-1.27-1.53-2.29-2.48-3.27-.21-.2-.37-.39-.58-.59-4.09-4.42-6.93-10.38-7.94-16.84-.71-4.42-.64-9.32.18-15.42.45-3.38,1.19-6.84,3.31-9.37,2.12-2.53,5.4-3.78,8.54-4.99,3.29-1.25,6.64-2.57,8.82-5.31,2.49-3.13,2.77-7.28,3.05-11.26.25-3.76.53-7.59,2.58-10.64,1.44-2.11,3.64-3.62,5.81-5.05,1.9-1.29,3.85-2.61,5.33-4.39,1.82-2.17,2.78-4.89,3.66-7.5.24-.74.51-1.46.79-2.19,4.55-11.86,14.98-21.48,27.17-25.04,4.39-1.31,9.08-1.88,13.59-2.43,6.62-.82,13.48-1.66,19.48-4.75,1.78-.92,3.55-2.07,5.25-3.15,3.59-2.33,7.29-4.76,11.52-5.12,3.86-.35,7.63.99,11.26,2.33,2.95,1.08,5.98,2.18,9.15,2.42,3.52.27,7.06-.63,10.44-1.45,2.34-.56,4.76-1.19,7.17-1.41,6.77-.73,14.23,1.52,20.96,6.28ZM64.03-57.54c-2.42.22-4.87.84-7.21,1.4-3.37.82-6.86,1.69-10.34,1.44-3.09-.22-6.12-1.32-9.03-2.39-3.67-1.35-7.49-2.7-11.44-2.34-4.33.42-8.08,2.84-11.72,5.2-1.7,1.08-3.42,2.25-5.21,3.17-5.94,3.07-12.74,3.88-19.33,4.71-4.56.58-9.26,1.15-13.69,2.45-12.3,3.61-22.83,13.29-27.42,25.27-.28.72-.57,1.49-.8,2.23-.92,2.6-1.86,5.27-3.62,7.37-1.46,1.75-3.36,3.03-5.25,4.28-2.18,1.47-4.42,2.97-5.89,5.16-2.12,3.11-2.38,7.05-2.65,10.84-.26,3.93-.54,8.04-2.94,11.06-2.11,2.66-5.46,3.95-8.65,5.18-3.19,1.24-6.48,2.49-8.72,5.12-2.18,2.6-2.95,6.14-3.41,9.56-.83,6.14-.92,11.08-.18,15.56,1.04,6.51,3.89,12.57,8.05,17.05.17.19.37.39.58.59.91.97,1.86,1.95,2.42,3.16.8,1.74.63,3.68.49,5.66-.08,1.24-.21,2.5-.06,3.73.42,4.2,4.1,9.34,11.17,10.83,2.75.56,5.63.17,8.47-.23,4.49-.64,8.75-1.27,11.96,2.1,1.69,1.76,3.03,3.94,4.29,6.06,1.76,2.95,3.6,5.98,6.55,8.05,4.58,3.18,10.43,2.24,16.09,1.34,3.38-.55,6.85-1.11,10.15-.82,2.06.2,4.13.64,6.09,1.13,1.6.37,3.23.76,4.88.97,11.18,1.58,22.26.38,31.19-3.41l1.88-.8c7.82-3.28,16.69-7.04,23.7-11.62,4.8-3.16,8.28-7.01,11.7-10.8,3.91-4.35,7.67-8.47,13.22-11.58,1.04-.57,2.17-1.16,3.38-1.81,4.55-2.38,9.66-5.09,12.64-8.65,3.05-3.63,4.47-8.36,5.77-12.56.93-3.04,2.25-5.78,3.56-8.48,1.27-2.57,2.52-5.2,3.43-8.07.05-.16.1-.33.14-.45.48-1.65.15-3.88-.12-5.86-.12-.9-.27-1.71-.3-2.44-.19-3.08-1.91-6.88-3.63-10.54-.91-1.96-1.76-3.81-2.29-5.42-2.23-6.71.19-12.76,2.74-19.21,2.41-6,4.89-12.2,3.13-18.86-1.12-4.42-3.87-8.09-6.83-11.84-5.28-6.65-9.96-11.93-15.73-16.03-6.81-4.83-14.33-7.14-21.21-6.5Z" fill="#fffcbb"/>
</svg>