<?xml version="1.0" encoding="UTF-8"?>
<svg id="_Слой_1" data-name="Слой_1" xmlns="http://www.w3.org/2000/svg" version="1.1" viewBox="0 0 91.99 176.27">
  <!-- Generator: Adobe Illustrator 30.4.0, SVG Export Plug-In . SVG Version: 2.1.3 Build 103)  -->
  <path d="M101.05,125.34c-1.21-1.12-2.49-1.57-3.76-1.32-.6.12-1.2.4-1.78.8-3.9,2.83-9.01,2.84-12.6,2.39-2.37-.32-4.88-.9-7.29-1.42-1.94-.44-3.97-.91-5.89-1.24-.68-.11-1.4-.22-2.07-.05-1.37.35-1.92,2.81-1.81,4.44.11,1.42,1.01,2.85,2.4,3.82,1.62,1.12,2.91,1.82,3.97,2.15,4.79,1.53,9.73,2.71,14.71,3.51,1.96.32,3.8.04,5.6-.23,2.52-.37,3.59-1.9,4.93-3.85.13-.19.26-.34.35-.52.55-.77,1.24-1.48,1.89-2.14.69-.71,1.41-1.43,1.95-2.24.96-1.42.71-2.9-.6-4.09ZM99.99,131.94c-.65.66-1.35,1.34-1.86,2.1-.13.19-.26.38-.35.52-1.28,1.86-2.41,3.48-4.87,3.96-.12.02-.2.04-.32.06-1.8.27-3.68.56-5.73.22-4.99-.84-9.92-2.01-14.75-3.54-1.05-.33-2.39-1.06-4.06-2.21-1.48-1.03-2.48-2.56-2.57-4.07-.14-1.79.45-4.42,2.1-4.86.75-.19,1.51-.09,2.23.02,1.92.32,3.95.79,5.93,1.23,2.42.56,4.92,1.1,7.25,1.42,3.51.47,8.5.44,12.33-2.29,1.99-1.42,4.13-1.22,6.04.55,1.42,1.33,1.67,3.05.65,4.57-.57.85-1.33,1.62-2.02,2.33ZM99.42,125.87c-.86-.82-1.76-.97-2.63-.8-.83.16-1.68.66-2.44,1.22-3.5,2.54-8.08,2.53-11.29,2.13-2.12-.29-4.19-.79-6.22-1.25-1.69-.41-3.46-.85-5.21-1.12-.63-.08-1.28-.2-1.9-.04-1.26.29-2.21,1.75-2.09,3.21.09,1.3.92,2.58,2.2,3.44,1,.71,2.19,1.1,3.38,1.48,4.31,1.38,8.76,2.41,13.24,3.18,1.7.28,3.48.51,5.24.25,2.28-.36,3.24-1.75,4.47-3.47.1-.14.22-.33.32-.47.48-.71,1.1-1.33,1.72-1.95.62-.62,1.27-1.28,1.79-2.04.82-1.27.63-2.68-.57-3.76ZM98.39,131.8c-.58.61-1.2,1.23-1.69,1.9-.14.15-.22.33-.32.47-1.16,1.67-2.15,3.1-4.38,3.54-.08.02-.2.04-.28.05-1.8.27-3.63.01-5.33-.27-4.47-.73-8.93-1.8-13.24-3.18-1.23-.38-2.42-.8-3.47-1.5-1.34-.93-2.18-2.29-2.28-3.63-.11-1.59.88-3.1,2.29-3.46.67-.17,1.35-.06,1.98.02,1.74.28,3.52.71,5.25,1.11,2.03.47,4.11,1.01,6.18,1.26,3.17.41,7.66.39,11.09-2.09,1.52-1.08,3.5-2.13,5.37-.39,1.26,1.19,1.47,2.68.59,4.05-.46.83-1.15,1.5-1.77,2.12ZM102.65,69.41c-.91-.23-1.99-.48-3.03-.93-.94-.39-1.85-.79-2.79-.77-1.6.07-2.86,1.18-4.05,2.28-.45.42-.91.84-1.38,1.18-2.41,1.79-5.63,2.38-8.5,1.46-.92-.27-1.62-.67-2.08-1.16-.15-.14-.3-.27-.46-.45-1.02-1-2.43-2.33-2.59-3.53-.09-.68-.22-1.56-.41-2.52-.41-2.31-.9-5.22-.62-6.97.11-.68.31-1.38.46-2.07.54-2.08,1.07-4.21-.31-5.59-.82-.83-2.05-1.21-3.22-1.47-2.86-.72-5.78-1.3-8.7-1.68-2.92-.38-6.58-.52-8.96,1.59-1.05.95-1.79,2.25-2.35,3.35-1.73,3.39-3,6.98-3.89,10.66-.27,1.13-.52,2.37-.24,3.59.54,2.53,3.14,4.04,5.52,5.23.82.42,1.69.86,2.62.97.33.02.67.03,1,.05.33-.02.66,0,.99.01,2.9.3,4.57,3.31,5.29,5.11.23.53.42,1.07.6,1.57.69,1.84,1.39,3.73,2.81,5.06.92.89,2.07,1.49,3.19,1.97,3.03,1.38,8.77,3.31,13.11.44.87-.58,1.67-1.36,2.43-2.13.83-.82,1.7-1.65,2.68-2.3,1.18-.73,2.54-1.12,3.89-1.38.52-.1,1.08-.17,1.6-.27l.08-.02c1.12-.18,2.24-.36,3.2-.92.77-.48,1.37-1.22,1.94-1.9l3.28-4.11c1.26-1.57,1.72-2.56,1.52-3.18-.24-.61-1.28-.86-2.62-1.18ZM103.91,73.95l-3.28,4.11c-.57.69-1.2,1.47-2.01,1.96-.99.61-2.15.79-3.27.97l-.08.02c-1.84.28-3.8.62-5.37,1.63-.99.61-1.82,1.43-2.65,2.25-.76.77-1.55,1.54-2.47,2.13-1.02.69-2.14,1.08-3.29,1.3-3.73.73-7.72-.67-10.07-1.74-1.13-.52-2.32-1.11-3.25-2.04-1.43-1.41-2.18-3.32-2.87-5.17-.19-.54-.42-1.07-.6-1.57-.71-1.72-2.32-4.66-5.09-4.94-.33-.02-.63-.04-.95-.02-.33.02-.66,0-1.04-.04-.97-.1-1.89-.58-2.7-.95-2.42-1.22-5.08-2.76-5.68-5.4-.29-1.26,0-2.55.27-3.68.88-3.72,2.19-7.32,3.92-10.7.6-1.15,1.29-2.48,2.42-3.44,2.5-2.18,6.2-2,9.16-1.63,2.92.38,5.88.95,8.74,1.67,1.21.3,2.44.68,3.32,1.58,1.49,1.48.93,3.69.4,5.82-.15.69-.35,1.39-.47,2.03-.28,1.74.2,4.58.61,6.89.15.96.32,1.83.41,2.52.14,1.13,1.51,2.43,2.52,3.38.16.18.31.31.46.45.47.49,1.15.81,1.99,1.09,2.77.86,5.96.32,8.3-1.42.47-.34.92-.76,1.38-1.18,1.27-1.11,2.56-2.28,4.24-2.36.98-.03,1.93.36,2.88.8,1,.46,2.04.71,2.99.94,1.39.35,2.47.59,2.75,1.4.21.66-.28,1.74-1.61,3.37ZM10.19,139.49c3.09,5.66,7.36,10.43,12.8,15.88,3.03,3.03,6.1,5.85,9.89,7.34,5.75,2.21,12.13.88,18.3-.45,6.54-1.36,13.3-2.81,19.34,0,1.54.73,2.97,1.69,4.35,2.65,2.28,1.53,4.38,3.02,6.99,3.45,2.13.37,4.32-.02,6.44-.4l17.09-3.06c3.9-.72,8.32-1.51,11.82-3.84,3.4-2.23,5.73-5.7,7.99-9.07.68-.96,1.35-1.95,2.03-2.91,3.66-5.09,8.23-9.53,12.67-13.82,3.43-3.31,6.96-6.77,10.07-10.47,5.31-6.36,9.48-13.69,13.49-20.78,4.19-7.42,9.43-16.65,9.19-26.29-.04-1.48-.22-3.01-.39-4.5-.2-1.86-.41-3.79-.38-5.7.06-2.86.73-5.75,1.33-8.59,1.18-5.34,2.25-10.42-.17-14.93-1.5-2.8-4.03-4.78-6.5-6.64-1.8-1.38-3.65-2.83-5.15-4.6-2.86-3.44-1.81-7.31-.72-11.44.67-2.48,1.32-5.04,1.08-7.51-.54-6.33-4.66-10.09-8.19-10.89-1.08-.24-2.2-.27-3.32-.34-1.82-.05-3.7-.14-5.33-1.1-1.12-.65-1.93-1.64-2.74-2.64-.16-.18-.32-.39-.48-.57-3.59-4.2-8.74-7.36-14.45-8.96-3.92-1.09-8.39-1.57-14.01-1.42-1.56.02-3.2.09-4.71.39-1.47.29-2.86.77-4.1,1.59-2.52,1.65-3.98,4.49-5.39,7.2-1.5,2.85-3.03,5.79-5.75,7.48-3.13,1.93-6.91,1.77-10.57,1.58-3.41-.16-6.95-.33-9.87,1.19-2.05,1.1-3.63,2.94-5.18,4.73-1.38,1.59-2.79,3.23-4.54,4.39-2.16,1.41-4.76,2.01-7.25,2.57-.67.13-1.38.31-2.09.49-11.22,2.9-21.04,11.3-25.54,21.99-1.63,3.87-2.63,8.02-3.65,12.09-1.43,5.93-2.92,12.03-6.36,17.2-1.02,1.52-2.26,3-3.42,4.42-2.5,3.01-5.07,6.11-5.85,9.89-.73,3.44.06,6.83.93,10.41.67,2.8,1.32,5.68,1.23,8.58-.15,3.24-1.31,6.36-2.45,9.39-.79,2.05-1.57,4.18-2.02,6.33-1.36,6.08-.08,13.04,3.53,19.67ZM8.16,113.33c1.11-2.98,2.28-6.05,2.4-9.21.11-2.82-.53-5.67-1.2-8.42-.81-3.51-1.68-7.09-.94-10.66.84-3.92,3.44-7.06,5.97-10.12,1.16-1.42,2.37-2.86,3.39-4.37,3.38-5.07,4.87-11.14,6.31-17.03.98-4.07,2.01-8.27,3.67-12.18,4.6-10.84,14.51-19.38,25.9-22.27.71-.18,1.41-.36,2.09-.49,2.45-.56,4.97-1.14,7.06-2.5,1.72-1.12,3.09-2.75,4.44-4.29,1.54-1.83,3.15-3.71,5.32-4.84,3.07-1.59,6.65-1.43,10.14-1.25,3.74.17,7.32.34,10.3-1.52,2.61-1.62,4.1-4.51,5.58-7.28,1.48-2.76,2.97-5.65,5.56-7.4,2.59-1.7,5.91-2.02,9.07-2.11,5.67-.12,10.17.36,14.18,1.47,5.8,1.62,11.01,4.85,14.69,9.12.16.18.32.39.48.57.76.92,1.56,1.88,2.63,2.49,1.5.9,3.24.97,5.07,1.03,1.13.07,2.28.09,3.41.36,3.71.84,8.02,4.74,8.61,11.34.25,2.55-.43,5.16-1.13,7.68-1.07,4-2.06,7.78.63,11.01,1.45,1.74,3.26,3.15,5.05,4.49,2.48,1.91,5.06,3.92,6.61,6.79,2.49,4.71,1.32,10.09.2,15.3-.61,2.8-1.24,5.68-1.3,8.5-.05,1.86.17,3.8.37,5.66.17,1.49.35,3.02.4,4.54.23,9.81-5,19.08-9.27,26.55-4.01,7.09-8.17,14.47-13.52,20.83-3.1,3.74-6.68,7.16-10.1,10.51-4.4,4.28-8.98,8.69-12.6,13.73-.68.96-1.35,1.95-2.03,2.91-2.3,3.42-4.66,6.93-8.13,9.22-2.92,1.93-6.37,2.82-9.71,3.47-.79.16-1.55.3-2.35.42l-17.09,3.06c-2.07.37-4.38.78-6.6.39-2.69-.46-4.98-2.03-7.17-3.54-1.38-.93-2.81-1.92-4.31-2.62-5.85-2.73-12.55-1.33-19,.05-6.26,1.31-12.71,2.7-18.59.43-3.88-1.51-6.96-4.37-10.08-7.46-5.49-5.48-9.77-10.29-12.9-15.98-3.66-6.7-4.97-13.79-3.67-19.98.56-2.17,1.37-4.35,2.17-6.4ZM37.15,122.2c-.07-.15-.17-.21-.18-.29-1.1-1.19-2.44-2.16-3.86-2.87-1.32-.65-2.36-.9-3.36-.74-1.04.16-2.21.93-2.3,2.14-.13,1.22.88,2.18,1.28,2.55,1.38,1.13,3.21,1.64,4.82,2.11.87.24,1.92.53,2.89.22.5-.18.94-.47,1.27-.91.17-.2.31-.51.28-.88-.12-.18-.65-1.03-.84-1.32ZM36.47,125.51c-.12.02-.24.05-.32.06-.91.18-1.91-.08-2.7-.3-1.66-.46-3.49-.97-4.92-2.17-.98-.8-1.47-1.81-1.36-2.74.12-1.3,1.39-2.17,2.55-2.35,1.04-.16,2.13.12,3.5.8,1.47.74,2.81,1.72,3.96,2.93v.04s.12.14.19.29c.52.76.77,1.21.8,1.37.04.4-.13.81-.29,1.05-.37.44-.87.83-1.41,1.02ZM46.39,131.52c-.64-2.22-1.3-4.53-2.74-6.43-.56-.76-1.18-1.42-1.85-2.07-.62-.62-1.23-1.24-1.75-1.97-.61-.79-.99-1.46-1.21-2.19-.07-.15-.07-.36-.11-.56-.03-.37-.12-.8-.31-.97-.44-.37-1.67-.29-2.74-.29-.78.03-1.52.05-2.03-.06-.95-.23-1.88-.54-2.77-.86-.8-.3-1.64-.59-2.5-.79-1.04-.25-1.88-.33-2.59-.19-.36.07-.67.17-.96.35-1.3.75-1.76,2.37-2.12,3.92-.44,1.94-.83,4.16.3,5.71.63.91,1.68,1.4,2.6,1.88l5.17,2.61c.32.14.64.33,1.02.38.81.13,1.51-.3,2.24-.77.33-.19.66-.42,1-.57,1.4-.65,3.18-.42,4.39.54.59.5,1.04,1.11,1.5,1.77.28.36.56.76.84,1.11.79.88,1.79,1.55,2.89,1.91.35.1.82.21,1.25.04.99-.4.66-1.9.49-2.53ZM46.04,134.35c-.07.06-.19.08-.31.1-.4.08-.83-.04-1.13-.11-1.18-.35-2.23-1.05-3.02-1.96-.32-.35-.6-.75-.88-1.15-.45-.61-.86-1.23-1.45-1.7-1.13-.93-2.78-1.15-4.14-.51-.34.15-.68.34-.96.56-.73.47-1.55.92-2.4.8-.38-.05-.75-.26-1.11-.4l-5.17-2.61c-.96-.47-2.01-1.01-2.69-1.95-1.19-1.66-.81-3.92-.33-5.91.38-1.64.88-3.31,2.25-4.11.92-.55,2.15-.59,3.75-.2.86.2,1.7.49,2.5.79.89.32,1.81.63,2.72.83.48.11,1.17.1,1.95.07,1.15-.02,2.37-.09,2.87.34.29.23.35.72.42,1.11.04.2.04.4.1.52.22.7.59,1.33,1.2,2.12.54.68,1.12,1.31,1.74,1.93.62.66,1.3,1.35,1.86,2.11,1.45,1.94,2.13,4.36,2.76,6.51.24.61.61,2.27-.52,2.82ZM47.41,127.9c-.15-.34-.31-.72-.46-1.06-1.22-2.85-2.56-6.14-4.4-8.58-1.47-2.02-4.27-2.63-6.72-3.14-.39-.09-.74-.19-1.12-.23-1.04-.25-2.09-.58-3.1-.88-2.06-.63-4.16-1.25-6.28-1.33-1.21-.05-2.86.15-3.76,1.23-.47.55-.73,1.34-.88,2.03-.65,2.35-1.03,4.82-1.09,7.26-.02,1.57.07,3.49,1.16,4.88.55.72,1.35,1.22,2.1,1.69l3.92,2.53c.61.38,1.23.79,1.91.9.86.16,1.74-.18,2.67-.48.77-.27,1.54-.55,2.36-.59,2.57-.13,4.57,1.87,6.36,4.07,1.57,1.92,3.44,3.86,5.6,3.56,1.33-.18,2.52-1.24,3.1-2.71.46-1.24.53-2.74.15-4.48-.32-1.63-.92-3.2-1.54-4.69ZM46.1,140.73l-.24.05c-2.65.35-4.8-1.78-6.54-3.91-1.63-1.99-3.39-3.83-5.55-3.69-.69.05-1.39.27-2.08.53-1,.36-2.04.73-3.19.54-.9-.15-1.61-.63-2.27-1.08l-3.92-2.53c-.8-.5-1.7-1.11-2.36-1.93-1.3-1.6-1.41-3.81-1.37-5.5.08-2.53.45-5.08,1.12-7.52.22-.78.49-1.7,1.1-2.4,1.17-1.38,3.14-1.65,4.55-1.59,2.24.06,4.43.74,6.53,1.36,1.01.3,2.01.59,3.05.84.35.1.73.15,1.08.24,2.62.56,5.6,1.21,7.29,3.52,1.9,2.55,3.29,5.87,4.53,8.8.16.38.31.72.46,1.06.63,1.53,1.27,3.13,1.65,4.83.42,1.94.34,3.64-.2,5.07-.65,1.74-2.05,3-3.64,3.31ZM91.46,51.24c.45.41.87.65,1.3.73.64.12,1.33-.14,1.79-.35,1.02-.49,1.92-1.16,2.82-1.83.9-.67,1.88-1.36,2.9-1.85.87-.42,1.76-.68,2.68-.85,1.19-.23,2.41-.35,3.63-.42,2.19-.18,4.46-.38,6.42-1.34,1.05-.54,1.74-1.21,2.13-1.98.38-.82.36-1.97-.39-2.64-.85-.74-2.08-.54-3.28-.35-.16.03-.32.06-.48.05-2.68.4-5.56-.19-9.06-1.85-.5-.23-1.12-.65-1.73-1.06-1.33-.89-2.9-1.95-3.98-1.61-.51.14-.88.58-1.19,1.3-.17.4-.29.84-.41,1.28-.14.56-.31,1.13-.59,1.64-.44.91-1.16,1.63-1.86,2.3-.55.56-1.14,1.13-1.55,1.79-1.35,2.16-.98,5.3.89,7.04ZM91.97,42.23c.69-.67,1.38-1.38,1.83-2.25.27-.51.41-1.07.55-1.59.12-.44.24-.87.4-1.32.3-.76.78-1.27,1.37-1.42,1.21-.36,2.81.69,4.2,1.65.62.41,1.19.84,1.73,1.06,3.41,1.64,6.24,2.2,8.89,1.8.16-.03.32-.06.48-.05,1.2-.19,2.56-.42,3.46.39.85.74.86,2.06.45,2.92-.38.82-1.14,1.54-2.23,2.09-1.99,1.01-4.3,1.21-6.49,1.4-2.11.17-4.3.35-6.23,1.26-1.02.49-1.96,1.17-2.86,1.84-.9.67-1.84,1.35-2.86,1.84-.3.14-.64.29-1.04.37-.28.05-.56.07-.86,0-.47-.07-.93-.35-1.39-.8-1.96-1.8-2.36-5.1-.91-7.37.37-.65.95-1.26,1.5-1.82ZM13.88,136.45c.99,1.91,2.62,3.49,4.04,4.82,6.73,6.14,14.4,11.19,22.69,15.01,2.85,1.3,5.24,2.15,7.76,2.15,1.82.01,3.58-.45,5.34-.92l11.85-3.07c.08-.02.2-.04.29.02,7.51,2.57,15.1,4.25,24.22,5.97,1.59.31,3.04.56,4.43.29,1.51-.3,2.88-1.1,4.2-1.9l17.36-10.49c3.98-2.39,7.62-4.87,8.98-8.69.51-1.42.65-3.01.8-4.53.21-2.1.44-4.25,1.52-6.15,1.33-2.28,3.62-3.6,5.84-4.9,1.55-.92,3.18-1.86,4.42-3.09,1.96-1.99,2.89-4.61,3.91-7.4.51-1.42,1.03-2.92,1.71-4.29,1.36-2.74,3.35-5.19,5.32-7.56,2.8-3.39,5.42-6.63,6.32-10.68.11-.52.2-1.07.27-1.58.15-.9.3-1.83.57-2.75.2-.66.49-1.29.78-1.89.35-.73.66-1.45.89-2.19.47-1.82.1-3.69-.32-5.63-.19-.95-.38-1.95-.49-2.91-.3-2.99.36-5.97.99-8.85.74-3.36,1.44-6.55.77-9.76-.7-3.16-2.62-5.79-4.68-8.52-1.68-2.27-3.43-4.65-4.41-7.34-2.17-6.05-.12-12.8,1.67-17.35.54-1.43,1.15-2.95.72-4.31-.29-1.06-1.16-1.92-1.92-2.63-3.53-3.47-7.32-6.85-11.84-6.58-.69.05-1.44.2-2.16.34-1.15.23-2.3.45-3.52.32-2.74-.33-4.74-2.29-6.64-4.22-.47-.49-.98-1-1.48-1.44-1.5-1.35-4.12-2.28-6.28-2.15-.25,0-.48.05-.76.11-.67.13-1.41.4-1.99,1.01,2.72,4.83,7.42,8.61,12.74,10.12,1.22.34,2.51.58,3.71.84,2.66.51,5.4,1.04,7.68,2.58,3.75,2.52,5.37,7.19,6.27,10.52.69,2.46,1.41,5.74.98,9-.16,1.27-.49,2.53-.8,3.7-.42,1.65-.91,3.35-.9,5.08,0,2.1.65,4.16,1.29,6.14.1.31.21.66.31.97,1.12,3.61,1.93,7.33,2.39,11.12.45,3.75.46,6.75.02,9.56-.24,1.32-.55,2.66-.87,3.96-.35,1.39-.72,2.86-.89,4.3-.18,1.4-.27,2.82-.33,4.23-.06,1.17-.1,2.41-.24,3.59-.71,6.28-3.81,12.33-8.54,16.56-.45.42-.99.85-1.45,1.23-1.21.98-2.44,2.05-3.4,3.26-.72.97-1.28,2.11-1.85,3.21-.3.59-.59,1.19-.93,1.79-2.51,4.45-6.62,7.65-10.63,10.78-2.25,1.76-4.54,3.53-6.58,5.54-.69.71-1.4,1.47-2.05,2.17-1.5,1.61-3.06,3.32-4.91,4.63-1.23.86-2.74,1.57-4.37,1.89-1.63.32-3.33.24-4.89-.57-.49.43-1.03.82-1.59,1.14-.06,2.24-3.09,4.03-4.72,4.72-.53.23-1.04.37-1.6.48-1.59.31-3.25.27-4.62.2-3.86-.15-7.36-.33-10.75-1.23-2.74-.74-6.59-2.29-9.17-5.54-1.04-1.32-1.83-2.82-2.61-4.27-1.06-2.02-2.17-4.11-3.95-5.62-.79-.67-1.67-1.16-2.56-1.68-.7-.4-1.44-.83-2.11-1.32-2.75-2.06-4.48-5.18-6.15-8.24-1.94-3.58-3.81-7-7.23-8.72-.89-.32-1.77-.6-2.65-.88-.22-.08-.48-.11-.7-.19,2.79,1.8,5.9,4.86,7.33,7.3.99,1.66,1.83,3.43,2.65,5.13.62,1.28,1.24,2.56,1.91,3.83.84,1.57,1.85,3.14,3.44,3.86.81.34,1.74.44,2.58.57.03-.05.07-.06.15-.07s.13.06.19.13c.89.11,1.74.24,2.56.65,1.74.9,2.61,2.79,3.39,4.49l.06.07c1.65,3.59,3.65,7.08,5.9,10.35,1.04,1.53,2.29,3.26,4.09,4.23,1.71.94,3.77,1.16,5.53,1.31,3.85.28,7.79.2,11.62-.22,1.82-.19,3.61-.5,4.77-1.76.54-.6.93-1.38,1.27-2.15.34-.77.69-1.54,1.27-2.15,1.42-1.6,3.66-1.75,5.77-1.91.85-.08,1.71-.13,2.5-.28,3.26-.6,6.08-2.84,8.62-5.03,2.19-1.87,4.35-3.86,6.44-5.84-.02-.08,0-.17,0-.25-.01-.29.19-.49.48-.51.08-.02.17.05.26.07.28-.26.56-.52.84-.78,2.01-1.96,3.93-3.53,5.99-5.21,1.28-1.03,2.63-2.12,3.96-3.33,1.58-1.38,3.18-2.93,3.34-4.86.07-.51,0-1.07-.07-1.6-.08-.64-.14-1.33-.02-2.02.4-1.93,2.2-3.07,4.03-4.05,2.39-1.29,4.64-2.64,6.03-4.77,1.12-1.66,1.59-3.65,2.04-5.59l3.61-15.22c.73-3.03,1.48-6.14,1.85-9.27.71-5.83.18-11.91-1.5-17.56-.25-.86-.54-1.71-.83-2.56-1.16-3.4-2.31-6.93-1.77-10.5,1.53-9.45.7-17.25-2.44-23.19-.93-1.8-3.02-4.89-6.33-5.6-1.12-.23-2.27-.21-3.37-.16-.7.01-1.43.07-2.14,0-3.79-.2-7.14-2.35-9.61-4.22-.24-.16-.48-.36-.73-.56-1.65-1.24-3.34-2.52-5.34-3.08-.09-.02-.1-.1-.07-.15.02-.09.1-.1.15-.07,2.05.55,3.75,1.86,5.43,3.1.24.16.48.36.73.56,2.46,1.83,5.72,3.95,9.47,4.16.71.03,1.4.01,2.14,0,1.14-.06,2.29-.08,3.45.15,3.4.73,5.55,3.9,6.48,5.74,3.15,5.98,3.99,13.85,2.43,23.35-.55,3.49.62,6.97,1.75,10.38.29.85.58,1.7.83,2.56,1.73,5.68,2.26,11.76,1.53,17.68-.37,3.16-1.12,6.28-1.84,9.31l-3.61,15.22c-.42,1.86-.96,3.94-2.1,5.69-1.44,2.14-3.72,3.53-6.14,4.83-1.79.97-3.55,2.1-3.89,3.9-.12.64-.08,1.25,0,1.94.06.52.13,1.09.07,1.63-.17,2.05-1.81,3.61-3.42,5.04-1.34,1.17-2.69,2.26-3.96,3.33-2.06,1.68-3.98,3.25-5.95,5.17-.28.26-.56.52-.84.78.06.07.07.15.09.23.21,4.66.12,9.46-2.9,12.73-1.02,1.11-2.27,1.89-3.44,2.65l-6.16,3.89c-4.33,2.74-9.14,5.54-14.02,6.5-2.58.51-5.18.52-7.77-.29-1.32-.4-2.54-.99-3.77-1.57-1.64-.79-3.22-1.51-4.93-1.8-1.92-.32-3.97-.05-5.94.22-2.77.38-5.63.73-8.26-.48-1.5-.7-2.71-1.86-3.92-2.94-1.71-1.56-3.27-3.03-5.35-3.11-1.99-.06-3.66,1.09-5.47,2.39-.54.39-1.09.75-1.64,1.1-2.57,1.62-6.44,2.7-9.56.88-.89-.53-1.6-1.21-2.31-1.9-.31-.31-.66-.61-.96-.92-1.68-1.44-3.74-2.44-5.74-3.41-2-.97-4.05-1.97-5.79-3.44-3.65-3.08-5.81-8.18-5.88-14.02-.08-5.22,1.29-10.23,2.64-15.11.75-2.7,1.48-5.49,1.55-8.26.02-2.64-.59-5.33-1.18-7.93-.84-3.67-1.72-7.5-.76-11.23.07-.26.33-.44.59-.36-.25-1.27-.18-2.6.22-3.71.39-1.15,1.14-1.96,2.12-2.44-.21-1.9-.14-3.85.28-5.74.57-2.79,1.74-5.41,2.85-7.98l8.28-18.77c1.74-3.97,3.58-8.04,6.03-11.74-1.87,2.67-3.59,5.65-5.33,9-5.82,11.12-10.74,22.8-14.63,34.74-1.36,4.22-2.7,8.73-2.58,13.33.02,2.02.39,4.09.7,6.09.28,1.84.61,3.76.69,5.64.24,5.02-1.05,10.02-2.29,14.8-1.12,4.38-2.29,8.94-2.26,13.47.06,2.42.47,4.48,1.34,6.21ZM90.24,164.85l.13.02c2.01.59,4.07,1.18,6.11.9,1.8-.27,3.24-1.79,4.59-3.29.88-.96,1.77-1.91,2.76-2.56,2.66-1.76,5.64-3,8.54-4.19,1.22-.49,2.48-1.02,3.7-1.55,5.15-2.33,8.43-4.95,10.27-8.2.52-.93.82-1.73,1.08-2.48.34-1.01.69-1.95,1.54-3.1,1.46-2.02,3.69-3.24,5.86-4.41,1.34-.72,2.76-1.49,3.93-2.46,3.25-2.57,6.61-6.86,9.1-11.43,4.99-9.26,10.49-18.42,16.23-27.22,2-3.03,3.54-7.37,3.97-11.09.38-3.33-1.16-6.33-2.59-9.22-1.64-3.31-3.37-6.68-2.21-10.45.35-1.14,1.33-2.49,2.28-3.74.88-1.2,1.83-2.46,2.16-3.48.96-2.91.69-6.15-.67-8.9-.62-1.28-1.78-2.58-2.9-3.84-.85-.95-1.6-1.83-2.18-2.71-2.56-3.79-4.65-7.29-4.32-11.93.08-1.09.39-2.43.74-3.77.39-1.56.75-3.12.75-4.35-.07-6.87-3.65-12.11-7.04-14.04-2.19-1.26-4.78-1.66-7.25-2.08-2.98-.49-6.05-1-8.44-2.88-1.22-.96-3.38-3.13-5.24-5.07-1.29-1.31-2.48-2.56-3.28-3.27-3.16-2.88-7.6-4.28-11.83-3.78-3.71.44-8.15,4.48-10.99,8.3.29-.01.56-.07.85-.08.17,0,.33-.02.49-.01,2.5-3.46,6.49-5.81,10.72-6.31,4.35-.52,8.88.94,12.14,3.89.85.78,1.64,1.66,2.39,2.5.96,1.09,1.91,2.18,3.08,3.11,2.39,1.88,5.45,2.77,8.37,3.59,2.36.69,4.8,1.37,6.94,2.6,4.65,2.68,7.69,7.89,7.67,13.26-.02,1.36-.21,2.72-.36,4.03-.14.98-.28,1.95-.34,2.91-.3,4.55.93,9.14,3.47,12.88.52.76,1.07,1.48,1.63,2.2.94,1.22,1.93,2.51,2.63,3.94,1.42,2.81,1.67,6.19.69,9.18-.33,1.05-.83,2.1-1.3,3.06-.5,1.05-1.03,2.1-1.35,3.23-1.13,3.69.27,7.28,1.76,11.08,1.25,3.22,2.56,6.55,2.15,9.93-.39,3.7-2.53,6.89-4.55,10l-.06.09c-5.78,8.8-11.24,17.95-16.23,27.18l-.22.37c-2.15,3.97-4.35,8.07-7.89,10.86-1.14.92-2.43,1.71-3.68,2.45-2.14,1.29-4.35,2.63-5.85,4.65-.85,1.16-1.41,2.5-1.93,3.8-.39.94-.82,1.93-1.34,2.82-1.87,3.29-5.18,5.96-10.4,8.35-1.21.57-2.47,1.06-3.73,1.6-2.86,1.18-5.84,2.38-8.47,4.13-.59.36-1.16.8-1.74,1.21-1.85,1.31-3.72,2.67-5.91,3.1-.12.02-.24.05-.4.08-2.13.29-4.23-.33-6.28-.91l-.09-.02c-9.67-2.85-20.51-4.51-30.09-5.85,9.6,1.66,22.83,4.59,32.46,7.41ZM126.65,4.02c-.31-.76-.63-1.53-1.02-2.23-2.33-4.33-8.04-6.51-12.7-4.85-1.31.46-2.49,1.19-3.67,1.91,2.03.47,3.87,1.47,5.31,2.88.77-.69,1.88-1.11,3.15-1.15,2.44-.15,5.32.85,7.03,2.41.51.48,1.02,1,1.53,1.47.3.27.57.59.87.86-.17-.42-.34-.88-.5-1.3ZM126.2.27c-1.42-2.81-3.58-4.78-6.04-5.58-2.2-.68-4.46-.45-6.58.71-1.12.59-3.86,2.16-5.6,3.2.21.04.42.04.63.08,1.32-.84,2.67-1.72,4.17-2.26,4.89-1.74,10.83.56,13.29,5.1.39.75.72,1.55,1.03,2.31.33.84.66,1.68,1.14,2.46.59.5,1.18.96,1.83,1.33-1.21-2.19-3.25-6.08-3.88-7.36ZM151.87,22.7c-1.7,4.37-3.72,10.87-1.65,16.61.92,2.58,2.64,4.84,4.27,7.08,2.02,2.74,4.14,5.54,4.85,8.94.75,3.4-.02,6.85-.77,10.17-.61,2.8-1.28,5.69-.97,8.52.1.93.29,1.88.47,2.79.39,1.99.83,4.04.29,6.09-.21.82-.59,1.6-.94,2.37-.3.59-.55,1.18-.77,1.76-.29.84-.41,1.69-.53,2.58-.1.56-.15,1.1-.29,1.67-.93,4.3-3.76,7.75-6.52,11.13-1.9,2.31-3.86,4.71-5.19,7.37-.65,1.32-1.18,2.79-1.69,4.21-.99,2.75-2.03,5.63-4.12,7.78-1.35,1.34-3.01,2.32-4.64,3.26-2.19,1.25-4.29,2.49-5.46,4.53-.99,1.68-1.18,3.65-1.39,5.76-.14,1.59-.31,3.24-.88,4.79-1.46,4.12-5.28,6.72-9.41,9.22l-17.32,10.49c-1.33.8-2.8,1.7-4.43,2.02-.04,0-.08.02-.12.02-1.56.26-3.09.03-4.8-.3-9.08-1.72-16.67-3.41-24.22-5.97l-7.61,1.99c9.54,1.35,20.26,3.04,29.84,5.86l.09.02c2.01.59,4.11,1.21,6.15.9,2.33-.33,4.28-1.75,6.19-3.11.58-.4,1.15-.84,1.74-1.21,2.62-1.75,5.64-2.96,8.51-4.14,1.22-.49,2.48-1.02,3.7-1.55,5.19-2.34,8.47-4.96,10.3-8.24.53-.89.91-1.87,1.3-2.81.57-1.31,1.12-2.69,1.97-3.85,1.49-2.07,3.74-3.41,5.91-4.75,1.26-.74,2.54-1.53,3.68-2.45,3.49-2.79,5.71-6.85,7.82-10.81l.22-.37c4.99-9.26,10.45-18.42,16.23-27.22l.06-.09c2.03-3.08,4.13-6.25,4.54-9.88.38-3.33-.93-6.62-2.17-9.8-1.42-3.68-2.91-7.47-1.79-11.23.35-1.14.88-2.23,1.38-3.28.47-.96.97-2,1.3-3.06.95-2.95.67-6.23-.7-9.02-.68-1.39-1.67-2.64-2.61-3.86-.55-.72-1.11-1.47-1.63-2.24-2.56-3.83-3.8-8.45-3.51-13.04.05-1,.19-1.97.33-2.95.2-1.32.38-2.67.36-4.03.04-5.28-2.95-10.43-7.55-13.07-2.14-1.23-4.54-1.91-6.9-2.6-2.97-.86-5.98-1.71-8.47-3.66-1.17-.92-2.13-2.06-3.12-3.1-.74-.84-1.53-1.72-2.39-2.5-3.2-2.88-7.65-4.31-11.93-3.85-4.11.48-7.96,2.72-10.44,6.05.17,0,.29.02.45,0,1.65-1.03,4.95-2.91,6.23-3.57,2.27-1.23,4.66-1.45,6.99-.75,2.63.8,4.85,2.88,6.33,5.81.73,1.42,3.13,6.07,4.2,7.96.49.19.97.34,1.52.4,1.05.12,2.09-.08,3.2-.3.75-.15,1.51-.3,2.29-.32,4.97-.31,9.12,3.41,12.61,6.89.81.79,1.79,1.79,2.17,3.08.68,1.6,0,3.34-.57,4.89ZM41.71,109.31c2.57,1.97,4.19,4.95,5.75,7.86,1.62,3.02,3.34,6.11,6.04,8.09.67.49,1.37.89,2.07,1.29.89.53,1.81,1.05,2.6,1.72,1.83,1.54,2.95,3.67,4.05,5.72.78,1.45,1.57,2.95,2.56,4.24,2.56,3.17,6.28,4.71,8.98,5.41,3.35.91,6.81,1.1,10.67,1.21,1.95.07,4.11.14,6.06-.65,1.72-.71,4.21-2.31,4.47-4.13-.56.32-1.12.59-1.74.79-.46.17-.94.27-1.41.36-2.38.47-4.83.16-7-.15-9.56-1.42-15.9-4.34-19.89-9.13-1.24-1.49-2.28-3.22-3.22-4.85-.43-.74-.87-1.52-1.35-2.25-4.43-6.84-11.04-12.35-18.63-15.52ZM97.84,3.4c-.76.97-1.32,2.07-1.93,3.18-.7,1.29-1.38,2.62-2.35,3.76-2.89,3.37-8.11,4.48-12.11,2.58-.22-.08-.41-.21-.64-.33-.64-.33-1.24-.62-1.87-.71-.76-.1-1.58.14-2.36.38-2.49.74-5.14,1.75-5.73,4.01-.06.3-.13.6-.15.9-.04.42-.12.85-.25,1.24-.68,1.99-2.88,2.96-4.76,3.08-1.26.08-2.55-.16-3.75-.42-.56-.1-1.15-.19-1.7-.28-5.54-.73-11.62,1.5-16.66,6.07-.53.47-1.04.99-1.52,1.49,2.07-2.06,4.74-4.02,7.95-5.1,6.77-2.28,14.01-.23,21.06,2.71,1.14-2.2,3.58-3.79,6.75-4.46,1.55-.3,3.14-.41,4.68-.51,1.14-.06,2.36-.13,3.48-.31,4.21-.62,8.25-2.52,11.38-5.45.53-.47,1-.98,1.52-1.49,1.06-1.11,2.2-2.25,3.51-3.12.4-.28,1.26-.5,1.34-.51.04,0,.08-.02.16-.03,1.71.08,2.76.2,3.05.43,1.04.7,1.43,1.62,1.85,2.48.35.76.66,1.48,1.43,2.03,2.36,1.72,5.2,2.36,8.25,2.96,1.59.35,3.27.68,4.81,1.2,8.07,2.7,13.95,11.2,13.64,19.71-.01.58-.05,1.21-.11,1.75-.08,1.25-.22,2.44-.07,3.64.17,1.49.73,2.87,1.35,4.35.57,1.45,1.19,2.9,1.38,4.51.15,1,.1,2,.08,2.95-.01.58-.03,1.12,0,1.69.06,1.14.2,2.27.38,3.39.22,1.56.46,3.21.37,4.83-.18,2.88-1.86,6.05-4.76,6.62-.04,0-.08.02-.12.02l-.08.02c-.23.91-.59,1.81-.96,2.66v.04c-.23.46-.42.95-.62,1.4-.13,3.98.21,8,.98,11.93l.09.44c.27,1.39.54,2.78.37,4.21-.59,4.16-4.91,6.49-7.43,7.52-.8.32-1.61.6-2.38.92-2.57.96-5.28,1.9-7.25,3.81-.97.93-1.75,2.03-2.52,3.13-.26.34-.48.71-.74,1.05-3.99,5.52-9.47,8.7-14.62,8.51-1.08-.04-2.14-.2-3.2-.36-1.87-.29-3.66-.6-5.47-.16-1.69.41-3.17,1.49-4.58,2.51-1.23.86-2.5,1.77-3.92,2.29-.5.18-1.05.33-1.56.43-1.07.21-2.1.25-2.96.25-11.1.16-21.93-5.88-27.59-15.41-2.54-1.6-5.6-2.28-8.61-2.93-3.5-.8-7.11-1.57-9.91-3.87-1.81-1.46-3.15-3.46-4.43-5.36-.81-1.2-1.64-2.48-2.6-3.61-.7-.81-1.45-1.53-2.21-2.21-.66-.61-1.27-1.23-1.9-1.9,1.75,4.93,4.36,10.03,6.9,13.53.96,1.3,2.04,2.65,3.42,3.58,1.42.96,3.16,1.4,4.86,1.85.35.1.7.19,1.05.29,9.51,2.67,18.05,8.99,23.36,17.35.47.73.91,1.51,1.35,2.25.98,1.62,1.97,3.32,3.2,4.77,3.89,4.72,10.14,7.54,19.57,8.98,2.55.37,5.5.74,8.21-.21,4.13-1.43,6.62-5.34,9.05-9.15.51-.76,1.01-1.6,1.52-2.36,3.77-5.6,8.83-10.27,14.7-13.56.63-.37,1.3-.71,1.94-1.04,3.88-2.08,7.91-4.23,9.31-8.22.21-.62.33-1.26.5-1.87.23-1.12.51-2.24,1.14-3.23.89-1.37,2.29-2.18,3.66-2.99,1.07-.62,2.15-1.25,2.97-2.11,1.84-1.97,2.17-4.92,2.32-7.96l1.53-30.89c.09-1.67.2-3.59-.41-5.24-.37-1.04-1.02-2.03-1.65-2.93-.88-1.31-1.81-2.7-1.96-4.32-.17-1.49.33-2.95.84-4.33.16-.44.31-.93.47-1.41,1.53-5.25-.12-11.35-4.29-15.57-3.77-3.88-9.4-6.07-15.41-6.05-.21,0-.45,0-.66,0-1.77.02-3.62.05-5.06-.99-1.29-.9-1.87-2.4-2.44-3.81-.48-1.18-.97-2.41-1.84-3.27-.88-.9-2.03-1.33-3.35-1.32-2.35,0-5.2,1.43-7.34,3.58-.55.56-1.09,1.16-1.63,1.76-2.41,2.62-4.88,5.37-8.35,5.76-1.21.15-2.4-.02-3.55-.21-.59-.09-1.19-.18-1.78-.23-5.19-.38-10.37,2.61-12.72,7.24-.06.13-.21.17-.35.11s-.17-.21-.11-.35c2.4-4.8,7.85-7.93,13.21-7.5.63.04,1.22.13,1.82.22,1.14.15,2.29.33,3.42.2,3.31-.36,5.72-3.02,8.06-5.58.54-.6,1.08-1.2,1.63-1.76,2.19-2.28,5.24-3.75,7.67-3.77,1.48,0,2.74.49,3.76,1.49.92.93,1.42,2.2,1.91,3.46.57,1.41,1.12,2.75,2.27,3.59,1.3.94,3.07.92,4.75.88.21,0,.45,0,.66,0,6.14,0,11.9,2.24,15.77,6.22,4.28,4.36,5.97,10.66,4.39,16.08-.15.48-.31.97-.47,1.41-.48,1.33-.95,2.74-.8,4.11.17,1.49,1,2.77,1.87,4.09.64.95,1.29,1.97,1.67,3.05.64,1.77.53,3.73.41,5.44l-1.7,30.88c-.16,3.17-.48,6.19-2.45,8.31-.89.92-2,1.59-3.07,2.21-1.37.8-2.7,1.56-3.49,2.83-.57.89-.81,1.97-1.04,3.09-.12.64-.28,1.29-.48,1.95-1.44,4.2-5.55,6.37-9.55,8.51-.68.34-1.3.71-1.94,1.04-5.8,3.24-10.82,7.89-14.52,13.4-.51.76-1.01,1.56-1.52,2.32-1.54,2.45-3.15,4.95-5.18,6.83,2.91,1.37,6.31.21,8.56-1.35,1.81-1.26,3.34-2.92,4.84-4.54.69-.71,1.36-1.46,2.09-2.18,2.03-2.05,4.36-3.82,6.61-5.58,3.93-3.08,8.01-6.23,10.49-10.63.34-.56.63-1.2.93-1.75.57-1.1,1.13-2.24,1.88-3.25.98-1.31,2.26-2.34,3.46-3.36.46-.38.96-.81,1.45-1.23,4.63-4.12,7.72-10.05,8.4-16.24.14-1.18.19-2.39.25-3.55.05-1.41.14-2.87.32-4.27.2-1.48.58-2.92.92-4.34.33-1.26.64-2.6.84-3.92.41-2.72.41-5.69-.03-9.39-.44-3.71-1.25-7.42-2.36-11-.1-.31-.2-.62-.31-.97-.64-2.02-1.3-4.11-1.32-6.3-.02-1.77.47-3.51.92-5.21.31-1.17.64-2.43.81-3.66.42-3.13-.3-6.37-.98-8.8-.88-3.21-2.48-7.8-6.09-10.23-2.18-1.47-4.89-2.01-7.5-2.53-1.24-.25-2.53-.49-3.75-.83-5.42-1.58-10.25-5.41-13.04-10.35h-.04c-.17,0-.3-.06-.36-.17-2-2.21-4.99-3.39-8.31-3.28-3.4.09-6.35,1.49-8.16,3.83ZM87.37,31.84c.14-.32.25-.63.38-.98.48-1.33.99-2.71,2.22-3.61.83-.62,1.82-.81,2.49-.94,4.07-.67,8.09.68,11.97,1.98,4.19,1.4,8.2,2.72,12.17,1.74.67-.17,1.36-.43,2.06-.65,1.15-.43,2.35-.83,3.61-.95,2.4-.18,4.79.88,6.27,2.73,1.48,1.85,1.94,4.44,1.2,6.73-.55,1.63-1.61,2.95-2.67,4.27-.59.78-1.26,1.57-1.76,2.37-1.37,2.29-1.74,5.21-1.02,8.03.72,2.83,2.47,5.25,4.79,6.56.23.12.33.43.17.67.24.16.43.29.66.45,2.64,1.91,5.31,5.23,5.63,9.16,2.07-1.44,2.42-4.68,1.5-7.06-.75-1.92-2.05-3.51-3.35-5.11-.49-.6-.98-1.21-1.43-1.82-1.51-2.01-3.13-5.03-2.3-7.96.36-1.31,1.21-2.46,2.03-3.53.72-.97,1.47-1.98,1.9-3.13.54-1.47.52-3.24-.06-5.35-2.24-8.51-11.27-14.57-19.74-13.2-1.4.23-2.8.63-4.17,1.02-2.53.74-5.15,1.5-7.78,1.11-.94-.15-1.82-.43-2.7-.71-.62-.21-1.23-.38-1.88-.54-1.86-.42-3.76-.46-5.66-.46-1.24,0-2.64-.02-3.76.57-1.23.65-2.01,1.92-2.73,3.13-.26.38-.5.8-.76,1.18-.9,1.29-4.25,1.86-6.48,1.64.92.48,1.77,1.05,2.6,1.68,1.27,1.03,2.33,2.22,3.16,3.5.07-.06.19-.08.28-.05,1.39.35,2.56-1.04,3.14-2.47ZM85.92,37.48c2.63-.89,4.62-3.34,4.99-6.09.02-.13.02-.29.04-.42.11-.93.23-1.98,1.03-2.55.87-.62,1.99-.35,2.88-.03,1.68.58,3.39,1.31,5.01,2.03,2.7,1.16,5.46,2.39,8.38,2.98,4.33.84,8.87.24,12.82-1.69,1.2-.61,3.04-1.5,4.32-.48.88.69.97,2,.7,2.91-.31.97-.94,1.71-1.58,2.45l-.03.05c-1.2,1.43-2.6,3.15-3.5,5.06-2.32,4.99-1,11.53,3.15,15.21.06.07.07.15.09.23.63.25,1.26.54,1.85.83-1.26-1.4-2.23-3.19-2.74-5.15-.81-3.1-.37-6.32,1.11-8.83.53-.89,1.19-1.72,1.82-2.5,1.03-1.27,1.99-2.49,2.48-3.95.61-1.93.25-4.21-1.02-5.82-1.26-1.61-3.38-2.51-5.41-2.36-1.14.1-2.22.48-3.33.9-.69.26-1.38.52-2.13.71-4.28,1.09-8.6-.33-12.75-1.75-3.8-1.28-7.68-2.58-11.47-1.92-.92.14-1.57.39-2.08.74-.98.69-1.4,1.88-1.86,3.13-.14.36-.24.67-.38.98-.65,1.53-1.96,3.23-3.69,3.24.44.78.84,1.57,1.16,2.33-.02-.08.05-.17.16-.24ZM91.64,60.56s0-.04,0,0c.14-.11.25-.21.36-.28.75-.6,1.55-1.13,2.44-1.63,4.15-3.25,10.4-4.76,17.6-4.23,2.38.15,4.77.55,7.07,1.13-3.56-5.32-2.97-13.06,1.52-17.7.31-.31.66-.62.97-.93,1.19-1.1,2.37-2.24,2.69-3.74-1.28.42-2.42,1.09-3.58,1.73-.96.56-1.92,1.12-2.96,1.53-3.29,1.3-7.38,1.24-11.55-.25-3.54-1.24-6.76-3.33-9.91-5.31l-.38-.26c-.32-.18-.7-.4-.96-.27s-.36.48-.41.86c-.07.51-.13,1.02-.19,1.56-.21,1.86-.41,3.79-1.23,5.48-1.1,2.19-3.82,3.88-6.08,2.84-.09-.06-.15-.14-.09-.27.06-.13.14-.15.23-.09,2.08.91,4.53-.64,5.58-2.66.83-1.65,1.01-3.5,1.22-5.35.07-.51.12-1.05.19-1.56.04-.42.19-.94.6-1.15.45-.21.91.03,1.33.27l.38.26c3.11,1.99,6.32,4.04,9.82,5.29,4.07,1.43,8.06,1.55,11.26.23.99-.4,1.96-.96,2.93-1.48,1.26-.7,2.56-1.45,3.97-1.85.08-.02.13.02.17.05.05.03.06.11.07.15-.23,1.78-1.59,3.03-2.87,4.27-.31.31-.66.62-.97.93-4.46,4.59-4.99,12.4-1.22,17.55,1.26.33,2.45.72,3.61,1.15-3.86-3.9-5.03-10.31-2.7-15.26.93-2,2.32-3.71,3.56-5.19l.03-.05c.61-.7,1.2-1.43,1.49-2.27.23-.74.18-1.81-.51-2.37-.97-.76-2.35-.2-3.81.54-4.06,1.99-8.72,2.62-13.15,1.71-2.96-.57-5.75-1.8-8.46-3-1.62-.71-3.3-1.46-4.98-2.03-.79-.26-1.75-.52-2.44-.06-.61.45-.73,1.34-.84,2.23-.02.13-.02.29-.04.42-.38,2.92-2.54,5.53-5.32,6.49-.12.02-.25,0-.27-.11.64,1.57,1.07,3.13,1.33,4.48.79,3.84.8,7.84.81,11.71l.03,1.4c.02,2.43.75,5.09,2.72,5.24.33.02.65-.05.96-.15ZM120.44,62.75c1.58,1.55,3,3.12,3.27,5.13.19,1.41-.28,2.78-.7,4.01-1.58,4.76-3.32,10.18-7.19,13.98-1.7,1.65-3.41,2.61-5.18,2.83-1.69.21-3.34-.21-4.95-.64-1.74-.44-3.35-.91-5.02-.58-2.43.44-4.13,2.25-5.9,4.21-1.16,1.22-2.31,2.51-3.74,3.41-1.21.77-2.55,1.28-3.94,1.56-2.82.55-5.89.25-8.65-.16-3.77-.54-7.57-1.16-11.26-1.92-.68-.11-1.63-.3-2.25-.96-.51-.48-.73-1.18-.93-1.8l-.03-.16c-.96-2.78-3.21-6.05-6.38-6.05-.98.03-1.99.35-2.95.7-.31.1-.62.2-.93.31-5.2,1.64-11.24.31-15.39-3.41-4.06-3.66-6.08-9.36-5.31-14.91.49-3.39,1.97-6.57,3.38-9.65,1.85-4.03,3.62-7.84,3.41-12.05-.02-.33-.05-.69-.08-1.02-.08-1.02-.19-2.02.06-3.06.33-1.47,1.34-2.65,2.2-3.69,1.94-2.32,4.1-4.93,6.96-6.56,2.89-1.64,7.97-3.5,19-.26,2.45.72,5.31,1.64,7.59,3.38,2.95,2.22,5.11,5.88,6.41,10.82.81,3.06,1.22,6.23,1.23,9.41,0,.25.01.49-.03.71.39-1.15.71-2.24.69-3.02-.03-3.54-.3-5.75-1.12-8.89-1.16-4.43-3.15-7.46-6.7-10.19-2.23-1.71-7.87-3.77-10.85-4.67-7.05-2.08-12.96-1.54-18.52,1.65-2.04,1.18-4.87,3.96-6.12,5.98-1.53,2.53-2.77,6.89-3.5,9.47-.59,2.05-.47,3.51-.3,4.97.16,1.87.3,3.61-1.14,6.16-.55.97-1.15,1.92-1.75,2.86-1.83,2.87-3.52,5.6-4,9.03-.84,5.81,1.33,11.82,5.54,15.65,4.31,3.9,10.57,5.35,16.01,3.62.35-.11.66-.21,1-.36,1.08-.38,2.16-.75,3.31-.77,3.67-.02,6.24,3.64,7.31,6.81l.07.15c.21.66.42,1.32.88,1.76.51.52,1.3.73,2.19.89,3.99.78,8.04,1.47,12.03,2.05,4.37.63,9.32,1.06,13.17-1.39,1.46-.95,2.68-2.3,3.87-3.6,1.87-2.02,3.78-4.08,6.48-4.61.04,0,.08-.02.08-.02,1.87-.33,3.74.17,5.57.64,1.7.45,3.44.93,5.12.69,1.77-.22,3.56-1.19,5.29-2.89,4.08-4.02,5.96-9.78,7.59-14.89.41-1.28.87-2.73.67-4.13-.27-2.01-1.75-3.66-3.38-5.27-1.28-1.27-2.62-2.21-3.95-2.9.61.58,1.19,1.04,1.76,1.63ZM105.72,60.03c-.4.04-.85.08-1.26.08-2.77.17-5.91.54-8.2,2.35-.6.49-1.31,1.12-2.08,1.81-2.24,2.05-4.76,4.31-7.1,4.57-2.46.28-4.55-2.41-5.47-5.19-.48-1.39.28-3.64,1.04-5.85-.01-.29,0-.62-.01-.9,0-.45,0-.86,0-1.28,0-3.13-.4-6.27-1.2-9.29-1.27-4.82-3.37-8.37-6.23-10.53-2.23-1.71-5-2.61-7.45-3.28-10.84-3.15-15.82-1.39-18.59.22-2.74,1.57-4.82,4.04-6.82,6.41-.84.99-1.81,2.13-2.12,3.47-.23.95-.13,1.88-.05,2.9.03.37.05.69.08,1.06.19,4.33-1.66,8.36-3.49,12.27-1.42,3.04-2.9,6.22-3.37,9.52-.77,5.34,1.19,10.9,5.14,14.45,4,3.59,9.83,4.92,14.87,3.31.31-.1.62-.2.93-.31,1-.36,2-.72,3.11-.73,3.46-.02,5.87,3.43,6.89,6.36l.03.16c.2.58.4,1.2.81,1.61.51.48,1.2.63,2.01.8,3.69.72,7.48,1.38,11.25,1.88,4.07.56,8.68.98,12.23-1.33,1.35-.88,2.52-2.1,3.64-3.31,1.74-1.87,3.54-3.83,6.12-4.33t.08-.02c1.75-.3,3.53.13,5.23.58,1.57.43,3.18.86,4.78.63,1.64-.24,3.29-1.1,4.87-2.69,3.81-3.71,5.56-9.09,7.07-13.79.39-1.19.83-2.51.66-3.8-.24-1.85-1.61-3.35-3.13-4.83-1.28-1.27-2.61-2.17-3.97-2.81-3.07-.72-6.44-.47-10.3-.17ZM82.63,58.95c-.59,1.81-1.08,3.51-.71,4.59.89,2.63,2.83,5.18,5.09,4.94,2.21-.27,4.81-2.59,6.91-4.49.73-.68,1.43-1.31,2.08-1.81,2.36-1.86,5.58-2.25,8.43-2.44.44-.05.86-.04,1.26-.08,2.89-.2,5.57-.39,8.14-.11-2.9-.71-5.99-.47-9.52-.19l-1.18.07c-2.56.17-5.51.5-7.65,2.2-.75.6-1.46,1.4-2.13,2.15-1.31,1.49-2.62,3.03-4.65,3.22-2.54.29-4.75-1.91-5.52-4.19-.37-1.25-.5-2.54-.55-3.85ZM85.64,57.29v-1.28c0-3.55-.02-7.25-.71-10.75-.65-3.09-2.1-7.34-5.61-10.11-1.61-1.29-3.55-2.15-5.46-3.01-7.82-3.5-15.45-6.45-22.68-4.01-3.17,1.07-5.74,3.1-7.69,5.14,1.01-.94,2.09-1.77,2.98-2.27,5.67-3.26,11.66-3.81,18.83-1.71,3.15.95,8.66,2.96,10.99,4.73,3.63,2.75,5.68,5.85,6.86,10.36.82,3.14,1.11,5.43,1.1,8.98,0,1.07-.52,2.62-1.07,4.21-.03,1.74.02,3.46.58,5.08.69,2.05,2.7,4.09,4.96,3.85,1.78-.18,3.03-1.58,4.3-3.07.67-.79,1.38-1.59,2.21-2.21,2.25-1.76,5.28-2.11,7.92-2.29l1.18-.07c4.63-.33,8.82-.66,12.67,1.35,2.07.67,4.06,1.8,5.96,3.7,1.69,1.69,3.21,3.33,3.51,5.5.21,1.48-.28,2.98-.72,4.31-1.67,5.15-3.54,10.96-7.69,15.03-1.8,1.75-3.62,2.77-5.51,3.02-1.77.22-3.55-.25-5.29-.69-1.78-.47-3.61-.98-5.4-.63l-.08.02c-2.58.51-4.38,2.47-6.29,4.53-1.23,1.31-2.49,2.67-3.98,3.67-1.28.83-2.7,1.35-4.17,1.64-3.02.59-6.26.24-9.23-.17-4.03-.57-8.08-1.26-12.08-2.09-.73-.15-1.71-.32-2.38-.98-.51-.52-.77-1.21-.99-1.91l-.03-.16c-1.01-3.06-3.47-6.57-6.93-6.56-1.07,0-2.15.38-3.19.75-.35.11-.66.21-1,.36-5.55,1.75-11.97.33-16.39-3.67-4.32-3.94-6.51-10.06-5.69-15.99.51-3.48,2.29-6.39,4.06-9.16.6-.94,1.2-1.88,1.71-2.85,1.37-2.45,1.26-4.08,1.1-5.95-.12-1.46-.26-3,.32-5.09.53-1.92,1.33-4.8,2.34-7.18-1.5,2.64-2.77,5.45-3.96,8.2l-7.75,17.47c-1.02,2.34-2.12,4.74-2.61,7.27-1.61,7.78,2.74,16.49,9.91,19.87,2.49,1.16,5.25,1.77,7.97,2.36,3.19.69,6.46,1.41,9.34,3.03,1.53.85,2.9,1.99,4.23,3.05,1.57,1.26,3.18,2.55,4.95,3.4,3.96,1.9,8.36,1.62,12.99,1.29,2.64-.19,5.37-.35,7.98-.08.75.06,1.52.2,2.24.3,1.74.24,3.35.5,5.01.3,3.51-.4,6.29-2.59,9.26-4.91,1.64-1.31,3.4-2.65,5.27-3.63,1.83-.98,3.8-1.65,5.74-2.28,1.9-.62,3.87-1.29,5.62-2.26,5.81-3.16,9.43-9.52,12.34-14.66,1.1-1.95,2.32-4.13,2.53-6.43.33-3.98-2.32-7.42-4.96-9.33-5.91-4.28-16.15-6.48-24.37-4.87-3.1.61-5.93,1.74-8.13,3.53-.1.1-.21.17-.32.27-.96.81-2.06,1.68-3.4,1.57-2.34-.37-3.19-3.21-3.2-5.8ZM135.65,44.47c-.17-1.29-.05-2.59.03-3.84.05-.59.1-1.17.12-1.71.31-8.1-5.27-16.16-12.95-18.73-1.5-.49-3.13-.83-4.72-1.18-3-.61-6.1-1.28-8.65-3.13-.97-.72-1.39-1.62-1.75-2.42-.36-.79-.67-1.52-1.48-2.06-.23-.12-1.44-.21-2.48-.26-.32.06-.78.24-1,.36-1.25.78-2.28,1.85-3.34,2.96-.48.51-1,1.02-1.55,1.54-3.28,3.03-7.5,5.06-11.91,5.72-1.21.15-2.39.22-3.56.33-1.51.09-3.06.19-4.52.47-2.85.6-5.01,1.97-6.01,3.86.95.43,1.93.82,2.88,1.25.95.43,1.85.83,2.77,1.31,2.1.41,6.02-.23,6.88-1.47.26-.38.5-.8.76-1.18.74-1.26,1.53-2.53,2.84-3.19,1.19-.65,2.64-.64,3.91-.64,1.9,0,3.8.04,5.7.45.65.16,1.26.33,1.88.54.88.28,1.76.56,2.69.67,2.59.4,5.17-.35,7.66-1.09,1.37-.39,2.77-.79,4.21-1.03,8.59-1.4,17.75,4.72,20.02,13.39.55,2.2.57,3.97.05,5.51-.43,1.2-1.17,2.21-1.92,3.22-.78,1.06-1.6,2.17-1.96,3.44-.8,2.84.8,5.78,2.26,7.76.45.61.94,1.22,1.43,1.82,1.3,1.6,2.61,3.24,3.4,5.15,1,2.57.6,5.98-1.76,7.44,0,.41.04.86-.04,1.29-.04.21-.04.42-.08.63,2.23-.6,3.57-3.22,3.72-5.64.11-1.55-.1-3.03-.37-4.63-.19-1.16-.33-2.33-.36-3.52-.03-.57-.03-1.19,0-1.73.01-.99.04-1.9-.1-2.83-.2-1.44-.76-2.82-1.33-4.27-.53-1.42-1.16-2.95-1.35-4.56ZM32.46,93.23c2.68,1.29,5.7,1.93,8.58,2.56,3.4.73,6.89,1.49,9.91,3.25,1.62.92,3.05,2.12,4.47,3.25,1.67,1.36,3.43,2.75,5.34,3.69,4.32,2.08,9.05,1.77,14.05,1.45,2.81-.18,5.7-.38,8.51-.1.8.09,1.6.18,2.37.32,1.78.27,3.65.52,5.47.33,3.83-.42,6.83-2.78,10.05-5.31,1.79-1.38,3.61-2.81,5.58-3.9,1.94-1.04,4.07-1.75,6.12-2.44s4.14-1.39,6.08-2.43c5.06-2.77,8.54-7.74,11.37-12.45l-.02-.12c-.02-.12.07-.26.23-.29h.04c.58-1.03,1.17-2.05,1.72-3.02.34-.56.64-1.16.97-1.76.02-.09,0-.17,0-.25.02-.09.09-.18.21-.17.53-1.09,1.01-2.22,1.31-3.39,0-.04-.06-.07-.07-.15-.04-.2.06-.34.19-.49.06-.3.09-.59.12-.85.37-4.4-2.56-8.2-5.44-10.31-.28-.19-.58-.42-.9-.61-.05-.03-.09-.02-.13-.06-.32-.18-.66-.41-.99-.63-2.23-1.29-4.88-2.38-7.71-3.15-.04,0-.03.05-.07.06-.08.02-.13-.02-.18-.09,0-.04-.05-.03-.05-.03-5.26-1.4-11.15-1.77-16.27-.77-2.06.4-4,1.03-5.77,1.91,3.29-1.1,7.15-1.57,11.37-1.28,6.35.4,12.65,2.47,16.83,5.52,2.84,2.08,5.76,5.84,5.39,10.24-.24,2.56-1.53,4.83-2.65,6.87-2.97,5.24-6.65,11.73-12.71,15.07-1.83.98-3.84,1.66-5.77,2.33-1.9.62-3.83,1.29-5.58,2.25-1.79.97-3.47,2.29-5.12,3.56-2.72,2.1-5.51,4.3-8.88,4.96-.28.05-.56.11-.84.12-1.78.18-3.55-.05-5.29-.28-.72-.11-1.48-.2-2.2-.27-2.56-.24-5.25-.08-7.82.09-4.56.32-9.28.62-13.47-1.4-1.91-.9-3.57-2.23-5.14-3.53-1.28-1.07-2.64-2.12-4.08-2.95-2.74-1.57-5.97-2.25-9.07-2.92-2.75-.57-5.6-1.21-8.19-2.44-7.58-3.54-12.19-12.78-10.5-20.99.56-2.62,1.64-5.1,2.7-7.46l7.75-17.47c1.77-4.02,3.6-8.13,6.26-11.82,2.94-4.12,6.59-6.98,10.49-8.32,7.54-2.55,15.7.59,23.39,4.07,1.94.86,3.94,1.78,5.69,3.13,3.76,2.97,5.34,7.49,5.98,10.74.75,3.61.73,7.32.74,10.94v1.28c.02.74.13,4.43,2.31,4.62.67.03,1.26-.29,1.88-.7-.04,0-.13-.02-.17,0-2.35-.2-3.16-3.09-3.18-5.72l-.03-1.4c0-3.83,0-7.79-.79-11.6-.41-2.1-1.2-4.67-2.66-7.06-.18-.09-.3-.27-.29-.44-.83-1.28-1.89-2.51-3.17-3.54-1.76-1.43-3.89-2.37-5.92-3.29-.99-.42-1.95-.9-2.93-1.28-.14.15-.37.2-.56.11-.18-.09-.3-.27-.3-.48-7.1-2.98-14.04-4.96-20.69-2.7-5.06,1.73-8.66,5.66-10.8,8.63-2.75,3.84-4.73,8.27-6.61,12.55l-8.28,18.77c-1.11,2.53-2.25,5.14-2.82,7.89-1.95,8.34,2.8,17.84,10.61,21.54ZM118.39,94.77c-1.69.83-3.51,1.43-5.29,2.03-2.01.68-4.14,1.39-6.04,2.42-1.94,1.04-3.76,2.47-5.51,3.84-2.9,2.26-5.87,4.57-9.4,5.26-.28.05-.6.12-.88.13-1.86.2-3.76-.05-5.59-.35-.76-.1-1.57-.23-2.37-.32-2.78-.28-5.63-.09-8.43.09-4.84.33-9.85.65-14.31-1.48-2-.97-3.77-2.39-5.48-3.79-1.42-1.12-2.84-2.29-4.42-3.21-2.51-1.45-5.34-2.21-8.15-2.86,2.45,1.54,4.87,3.62,7.41,5.84,4.47,3.87,9.09,7.91,13.92,8.73,2.61.48,5.59.1,8.5-1.01.38-.16.72-.31,1.11-.42,1.41-.57,2.82-1.17,4.38-1.19,2.02-.02,3.81.94,5.56,1.88,1.06.58,2.16,1.14,3.3,1.5,3.91,1.21,7.93-1.39,11.47-3.73l.76-.52c1.39-.89,2.75-1.94,4.05-2.9,2.23-1.67,4.57-3.41,7.13-4.65.6-.28,1.21-.57,1.86-.82,2.61-.97,5.28-2.11,6.42-4.47ZM112.15,99.75c-.6.28-1.26.53-1.82.81-2.53,1.2-4.83,2.93-7.06,4.6-1.29.99-2.66,2.01-4.05,2.9l-.76.52c-2.48,1.64-5.19,3.41-7.93,3.95-1.27.25-2.55.25-3.82-.16-1.19-.39-2.29-.95-3.35-1.53-1.79-.93-3.45-1.84-5.39-1.83-1.44,0-2.85.6-4.23,1.16-.38.16-.72.31-1.11.42-3.04,1.13-6.02,1.47-8.71,1.01-4.96-.88-9.58-4.92-14.1-8.82-2.88-2.49-5.61-4.88-8.35-6.4-.13-.02-.3-.06-.43-.08-.73-.15-1.47-.33-2.2-.48,1.68,2.27,3.49,4.55,5.76,6.25,1.3.94,2.77,1.72,4.19,2.44,1.38.72,2.84,1.46,4.14,2.4.96.68,1.82,1.5,2.67,2.24,1.3,1.19,2.7,2.4,4.26,3.21,1.32.65,2.76,1.03,4.18,1.36,1.39.35,2.82.72,4.14,1.33.96.47,1.86,1.08,2.72,1.65,1.47.99,2.86,1.95,4.52,2.25,1.88.33,3.87-.26,5.76-.92,1.7-.58,3.39-1.2,5.05-1.81,4.23-1.57,8.61-3.17,13.12-4.14.79-.16,1.59-.31,2.34-.46,3.42-.63,6.96-1.28,9.68-3.38,1.54-1.17,2.76-2.77,3.94-4.32.85-1.12,1.7-2.27,2.74-3.26,2.17-2.2,5.08-3.76,8.09-4.39.28-.05.56-.11.83-.16,1.43-.28,2.95-.54,3.85-1.58,1.11-1.29.97-3.24.71-5l-.99-7.35c-2.76,4.62-6.24,9.39-11.23,12.1-.11.06-.22.13-.33.19-1.14,2.82-4.02,4.09-6.84,5.3ZM133.23,77.93c-.63,2.02-.88,4.13-.75,6.25.06.94.21,1.94.36,2.9.4,2.68.83,5.49-.43,7.88-1.48,2.76-4.49,3.81-7.45,4.88-1.35.47-2.73.99-3.97,1.64-2.77,1.45-4.93,3.85-7.07,6.21-2.65,2.91-5.39,5.96-9.21,7.04-1.64.45-3.41.5-5.08.58-.66,0-1.35.06-2.05.07-4.31.31-8.41,1.69-11.87,2.99l-.96.35c-2.11.83-4.3,1.63-6.52,2.06-1.23.24-2.52.37-3.78.29-3.01-.19-5.9-1.48-8.46-2.59-3.38-1.48-6.86-3.03-9.66-5.53-.65-.57-1.27-1.23-1.89-1.86-.88-.9-1.8-1.83-2.82-2.62l-.05-.03c5.69,9.03,16.11,14.69,26.8,14.53,1.23-.04,2.86-.11,4.41-.66,1.38-.52,2.62-1.38,3.8-2.27,1.45-1.03,2.97-2.11,4.74-2.54,1.85-.45,3.76-.16,5.59.14,1.02.17,2.09.33,3.16.37,5.06.16,10.39-2.94,14.31-8.37.26-.34.48-.71.74-1.05.77-1.1,1.54-2.24,2.55-3.18,2.05-1.97,4.78-2.96,7.39-3.92.81-.28,1.62-.57,2.38-.88,2.45-.97,6.65-3.28,7.2-7.22.19-1.36-.08-2.75-.35-4.1l-.09-.44c-.67-3.62-1.02-7.3-.99-10.94ZM66.06,146.05c-1.35.26-2.62.31-3.82-.16-.85-.33-1.63-.96-2.43-1.87-.86-1.03-1.55-2.21-2.22-3.36-.44-.78-.92-1.55-1.44-2.31-.13-.22-.28-.4-.45-.61-.51-.72-1.07-1.44-1.36-2.29-.54-1.5-.31-3.07-.12-4.59.1-.76.19-1.56.21-2.31-.89-.11-1.82-.22-2.67-.59-1.67-.74-2.69-2.36-3.58-3.96-.66-1.27-1.33-2.58-1.91-3.83-.83-1.69-1.67-3.47-2.65-5.09-1.55-2.62-5.05-5.98-7.98-7.67-1.52-.4-3.06-.88-4.43-1.77-1.47-.99-2.6-2.33-3.57-3.71-1.64-2.28-3.33-5.2-4.77-8.34-.04,1.7-.12,3.4-.2,5.07-.25,4.83-.54,10.29-2.62,15.03-.58,1.27-.96,3.11-1.3,4.75-.15.73-.29,1.46-.46,2.07-.06.3-.13.6-.24.87-.42,1.65-.74,2.74-.49,4.67.33,2.53.74,5.46,1.88,8.12,1.21,2.81,3.12,4.99,5.4,6.07,1.23.58,2.61.93,3.95,1.24,2.08.5,4.23.98,5.77,2.5.66.65,1.2,1.5,1.69,2.31.79,1.29,1.55,2.46,2.86,3.03,1.98.85,4.14-.32,4.98-.89.72-.51,1.43-1.11,2.1-1.69.67-.58,1.38-1.18,2.1-1.69,3.21-2.15,7.39-2.27,10.17-.26.52.35.99.84,1.48,1.24.36.34.7.65,1.1.98,2.59,2.05,6.24,2.61,9.35,1.42.04,0,.08-.02.08-.02-1.12-.65-2-1.59-2.81-2.58-.54-.02-1.09.13-1.6.23ZM65.25,142.13c-1.73-2.71-3.32-5.57-4.67-8.48l-.06-.07c-.79-1.74-1.64-3.55-3.29-4.38-.18-.09-.36-.18-.54-.22-.08,3.56,1.76,6.66,3.68,9.5.59.91,1.27,1.85,2.11,2.55.84.7,1.82,1.09,2.77,1.11ZM62.31,141.18c-.89-.73-1.57-1.71-2.16-2.63-1.93-2.92-3.83-6.09-3.72-9.74-.52-.14-1.08-.24-1.63-.3-.01.79-.1,1.59-.2,2.35-.19,1.56-.39,3.05.09,4.44.28.81.84,1.53,1.34,2.21.17.21.28.4.45.61.52.76,1,1.54,1.45,2.35.67,1.11,1.32,2.3,2.21,3.28.75.88,1.49,1.48,2.29,1.78,1.52.61,3.19.28,5.03-.2-.33-.43-.67-.9-.96-1.3-.35-.55-.71-1.1-1.1-1.64-1.02.04-2.09-.37-3.08-1.21ZM20.89,102.8c-.04,2.94-.81,5.77-1.59,8.52-1.33,4.8-2.7,9.76-2.61,14.86.1,5.55,2.12,10.39,5.53,13.26,1.63,1.37,3.63,2.34,5.59,3.27,2.05,1,4.19,2.02,5.98,3.57.35.3.7.65,1.01.96.7.65,1.33,1.31,2.11,1.73,2.71,1.61,6.18.6,8.49-.84.52-.31,1.06-.7,1.6-1.1,1.85-1.31,3.77-2.64,6.1-2.56,2.45.1,4.26,1.76,6.03,3.4,1.15,1.05,2.32,2.14,3.68,2.78,2.32,1.11,4.93.76,7.7.39,2.05-.28,4.18-.57,6.27-.2,1.83.3,3.56,1.12,5.2,1.91,1.18.55,2.41,1.14,3.64,1.51,7.1,2.15,14.53-2.02,20.99-6.09l6.16-3.89c1.14-.72,2.35-1.49,3.26-2.49,2.66-2.83,2.8-7.15,2.67-11.41-2.05,1.97-4.15,3.86-6.3,5.73-2.54,2.19-5.32,4.42-8.61,5.07-.04,0-.08.02-.12.02-.79.16-1.69.21-2.5.28-2.19.18-4.26.34-5.62,1.84-.54.6-.89,1.37-1.2,2.09-.34.77-.72,1.58-1.29,2.23-.85.91-2.04,1.35-3.31,1.6-.52.1-1.08.17-1.6.23-3.88.39-7.79.45-11.66.23-1.8-.14-3.9-.35-5.66-1.32-.05-.03-.09-.06-.14-.1,0,0,.05.03.06.07.02.08-.02.13-.05.17-.5.18-1.01.32-1.53.42-2.78.54-5.8-.14-8.04-1.89-.39-.3-.74-.64-1.1-.98-.45-.41-.95-.84-1.43-1.2-2.73-1.94-6.79-1.8-9.88.29-.72.51-1.43,1.11-2.07,1.64-.67.58-1.38,1.18-2.14,1.7-.88.58-3.11,1.81-5.22.9-1.35-.6-2.18-1.88-2.96-3.13-.48-.77-1.02-1.61-1.67-2.23-1.48-1.44-3.52-1.95-5.63-2.44-1.34-.31-2.77-.65-4.03-1.23-2.32-1.11-4.28-3.32-5.51-6.22-1.14-2.66-1.56-5.63-1.89-8.16-.26-1.97.06-3.06.47-4.75.07-.26.14-.56.24-.87.17-.61.32-1.3.47-2.03.34-1.63.76-3.49,1.33-4.8,2.09-4.7,2.38-10.15,2.64-14.95.09-1.83.18-3.7.19-5.56-.87-1.93-1.68-3.96-2.35-5.89,0-.04-.02-.08-.02-.12-.39-.54-.75-1.09-1.07-1.69-.14-.3-.29-.64-.39-.95-.7,3.35.05,6.75.87,10.3.39,2.6,1.01,5.37.97,8.1ZM20.93,77.56c-.83.41-1.46,1.15-1.84,2.17-.59,1.6-.43,3.71.44,5.4.32.6.68,1.15,1.06,1.65.09.02.13.06.2.17,0,.04.02.08.02.12.77.96,1.63,1.78,2.49,2.6.76.72,1.52,1.43,2.21,2.25.96,1.13,1.83,2.4,2.65,3.64,1.28,1.89,2.57,3.87,4.34,5.29,2.74,2.22,6.32,3.01,9.77,3.77,3.36.74,6.81,1.51,9.56,3.57,1.06.78,1.99,1.71,2.87,2.65.62.62,1.23,1.24,1.88,1.82,2.79,2.46,6.22,3.97,9.56,5.46,2.66,1.17,5.42,2.4,8.34,2.57,3.46.19,6.88-1.1,10.14-2.32l.96-.35c3.5-1.3,7.64-2.69,11.94-3,.69-.05,1.39-.07,2.05-.07,1.68-.04,3.4-.09,5-.57,3.71-1.06,6.32-3.92,9.07-6.93,2.14-2.36,4.37-4.82,7.17-6.31,1.27-.66,2.65-1.18,4.01-1.65,3-1.08,5.86-2.1,7.24-4.72,1.24-2.3.79-5.02.4-7.62-.15-.96-.3-1.96-.37-2.94-.14-1.99.05-3.97.58-5.89-.58,1.02-1.19,2.13-1.84,3.25l1.07,7.99c.24,1.85.41,3.96-.84,5.4-1.04,1.19-2.64,1.47-4.15,1.76-.28.05-.56.11-.79.16-2.93.62-5.73,2.11-7.83,4.22-.96.97-1.85,2.14-2.67,3.2-1.18,1.55-2.42,3.2-4.04,4.42-2.83,2.16-6.45,2.83-9.91,3.51-.75.15-1.59.31-2.34.46-4.47.96-8.82,2.55-13.05,4.08-1.65.61-3.35,1.23-5.05,1.81-.93.31-1.94.63-2.89.81-1.03.2-2.05.28-3.08.07-1.75-.32-3.27-1.34-4.74-2.33-.85-.57-1.72-1.19-2.67-1.62-1.28-.62-2.66-.96-4.05-1.31-1.43-.34-2.91-.75-4.28-1.43-1.65-.83-3.05-2.08-4.4-3.3-.85-.74-1.71-1.56-2.62-2.21-1.25-.91-2.72-1.65-4.09-2.37-1.43-.75-2.94-1.53-4.24-2.51-2.46-1.83-4.35-4.3-6.14-6.71,0-.04-.06-.07-.02-.12-1.95-.48-3.92-1.05-5.74-1.93-6.21-2.86-10.53-9.32-11.36-16.08ZM13.9,116.33c1.22-4.73,2.49-9.6,2.23-14.5-.07-1.84-.4-3.71-.67-5.52-.32-2.04-.64-4.12-.72-6.21-.11-4.76,1.26-9.36,2.64-13.67,3.88-11.97,8.83-23.71,14.68-34.87,3.33-6.34,6.43-11.36,10.83-15.4,5.24-4.82,11.6-7.1,17.47-6.35.59.09,1.19.18,1.74.28,1.2.22,2.35.45,3.54.38,1.56-.06,3.34-.82,3.87-2.37.1-.31.15-.69.2-1.07.06-.34.11-.68.17-1.02.75-2.7,3.65-3.89,6.42-4.68.82-.24,1.8-.52,2.77-.38.8.09,1.49.45,2.18.81.18.09.41.21.63.29,3.63,1.68,8.3.68,10.92-2.35.91-1.04,1.57-2.29,2.23-3.57.61-1.11,1.2-2.3,1.99-3.32,1.71-2.19,4.27-3.64,7.28-4.11,2.2-3.07,7.06-8.35,11.62-8.87,4.4-.49,8.97.96,12.23,3.91.8.71,1.99,1.96,3.28,3.27,1.86,1.9,3.98,4.09,5.19,5,2.29,1.82,5.19,2.28,8.26,2.79,2.55.41,5.2.88,7.43,2.17,4.97,2.86,7.22,9.51,7.21,14.5,0,1.28-.42,2.93-.77,4.48-.35,1.35-.64,2.64-.72,3.69-.28,4.47,1.76,7.9,4.26,11.62.58.84,1.33,1.72,2.16,2.63,1.12,1.31,2.33,2.64,2.96,3.95,1.43,2.85,1.67,6.23.71,9.3-.36,1.1-1.3,2.4-2.21,3.65-.91,1.25-1.86,2.51-2.18,3.6-1.07,3.59.5,6.75,2.18,10.09,1.49,2.97,3.04,6.04,2.65,9.5-.42,3.75-2.02,8.19-4.05,11.31-5.78,8.8-11.25,17.91-16.23,27.18-2.52,4.62-5.95,8.96-9.23,11.58-1.21.98-2.63,1.75-4.01,2.48-2.19,1.21-4.29,2.32-5.67,4.29-.77,1.1-1.13,2-1.48,2.97-.3.8-.55,1.59-1.1,2.57-1.9,3.34-5.21,6.01-10.47,8.4-1.21.57-2.51,1.07-3.73,1.6-2.86,1.18-5.84,2.38-8.47,4.13-.95.64-1.84,1.56-2.68,2.51-1.39,1.51-2.83,3.03-4.69,3.39-.08.02-.16.03-.2.04-2.13.29-4.27-.32-6.32-.9l-.13-.02c-10.11-2.97-24.23-6.05-33.91-7.45l-2.24.56c-1.8.48-3.65.96-5.59.93-2.85-.02-5.61-1.08-8.19-2.23-8.42-3.83-16.14-8.96-22.97-15.16-1.51-1.39-3.23-3.04-4.3-5.09-.94-1.84-1.38-4.1-1.39-6.86.04-4.83,1.24-9.44,2.39-13.87ZM104.18,67.09c-.76-.3-1.56-.6-2.28-.91-1.09-.49-2.08-.91-3.14-.87-1.8.06-3.17,1.28-4.6,2.59-.53.47-1.05.95-1.62,1.39-2.8,2.12-6.59,2.78-9.89,1.69-1.05-.33-1.89-.78-2.45-1.37-1.23-1.2-1.57-2.95-1.75-4.52-.35-2.86-.26-5.76.18-8.57l.12-.64c.47-2.85.99-6.09-.96-8.06-.96-.92-2.33-1.36-3.67-1.67-3.3-.84-6.64-1.5-10.02-1.91-3.34-.42-7.5-.63-10.24,1.8-1.23,1.07-2.02,2.54-2.66,3.86-1.96,3.89-3.46,8.02-4.48,12.26-.29,1.25-.58,2.71-.27,4.09.65,2.88,3.58,4.58,6.32,5.94.96.47,1.92.94,2.98,1.11.38.05.75.02,1.12.03.37,0,.79.01,1.16.02,3.41.36,5.33,3.86,6.19,5.92.24.61.49,1.22.73,1.84.79,2.11,1.62,4.26,3.2,5.8,1.06.99,2.35,1.68,3.62,2.26,3.49,1.58,10.06,3.8,14.99.53,1.03-.65,1.92-1.57,2.79-2.4.97-.93,1.98-1.91,3.15-2.64,1.36-.84,2.92-1.27,4.51-1.59.64-.12,1.24-.2,1.83-.32l.08-.02c1.24-.2,2.56-.38,3.63-1.04.88-.54,1.54-1.37,2.17-2.16l3.77-4.74c1.19-1.51,1.65-2.72,1.36-3.77-.58-1.91-3.25-2.91-5.84-3.93ZM108.95,75.02l-3.77,4.74c-.63.78-1.36,1.71-2.31,2.31-1.14.72-2.5.9-3.82,1.12l-.08.02c-2.12.33-4.35.73-6.16,1.83-1.15.68-2.11,1.65-3.04,2.58-.9.88-1.8,1.75-2.86,2.46-1.2.81-2.47,1.27-3.82,1.53-4.33.85-8.93-.76-11.69-2-1.31-.61-2.68-1.29-3.76-2.35-1.68-1.61-2.48-3.84-3.32-5.99-.24-.61-.45-1.23-.68-1.8-.79-1.95-2.65-5.29-5.76-5.63-.38-.05-.71-.03-1.08-.04-.37,0-.79-.01-1.21-.05-1.14-.15-2.2-.68-3.15-1.11-2.84-1.42-5.9-3.17-6.59-6.29-.33-1.46,0-2.97.31-4.31,1.02-4.28,2.51-8.45,4.5-12.38.69-1.33,1.5-2.85,2.8-4.01,2.88-2.54,7.21-2.36,10.63-1.92,3.39.45,6.77,1.1,10.07,1.94,1.39.35,2.84.8,3.9,1.79,2.15,2.13,1.61,5.5,1.13,8.48l-.12.64c-.44,2.81-.51,5.62-.16,8.44.17,1.49.49,3.12,1.61,4.22.55.51,1.26.95,2.26,1.25,3.16.99,6.79.36,9.46-1.61.54-.39,1.07-.87,1.59-1.34,1.47-1.32,2.98-2.69,4.95-2.7,1.15-.02,2.27.42,3.35.91.72.31,1.48.62,2.28.91,2.72,1.03,5.53,2.13,6.05,4.17.27,1.18-.24,2.56-1.52,4.22ZM7.78,141.28c3.2,5.8,7.59,10.76,13.23,16.37,3.13,3.14,6.26,6.07,10.18,7.57,5.93,2.3,11.92.67,17.75-.92,6.07-1.64,12.37-3.33,18.5-.49,1.45.66,3.1,1.7,4.87,2.76,3.05,1.88,6.51,4,9.33,4.48.68.11,1.47.33,2.29.54,1.78.47,3.78.99,5.3.73,2.95-.54,5.65-1.48,8.31-2.41,2.54-.91,5.13-1.79,7.91-2.33.16-.03.32-.06.44-.09,4.03-.71,8.56-1.55,12.21-3.96,3.58-2.35,6.62-6.82,9.35-10.78.7-1.04,1.37-2.04,2.06-2.96,3.57-4.91,8.01-8.13,12.36-11.2,3.87-2.74,7.84-5.62,11.29-9.72,5.05-6.02,9.48-13.9,13.4-20.81l.94-1.71c4.47-7.89,6.77-18.03,6.52-28.57-.06-1.56-.19-3.1-.37-4.63-.21-1.94-.44-3.91-.37-5.86.09-3.11.98-6.34,1.89-9.48,1.42-5.35,2.83-10.37.46-14.89-1.56-2.91-4.18-4.91-6.7-6.85-1.84-1.41-3.78-2.89-5.29-4.69-2.91-3.51-1.84-7.51-.73-11.73.69-2.57,1.37-5.22,1.12-7.76-.63-6.56-4.86-10.47-8.57-11.31-1.08-.24-2.28-.29-3.41-.36-1.87-.09-3.78-.17-5.45-1.12-1.12-.69-1.98-1.67-2.79-2.67-.17-.21-.32-.39-.49-.6-3.69-4.31-8.95-7.6-14.88-9.24-4.06-1.14-8.64-1.6-14.43-1.5-3.21.05-6.52.37-9.12,2.08-2.59,1.7-4.12,4.64-5.59,7.45-1.53,2.94-3.12,5.93-5.92,7.67-3.2,1.99-7.11,1.81-10.85,1.63-3.54-.17-7.16-.33-10.22,1.26-2.13,1.12-3.78,3.01-5.35,4.88-1.41,1.64-2.85,3.32-4.68,4.5-2.23,1.47-4.87,2.07-7.4,2.61-.71.14-1.42.32-2.13.5-11.58,2.97-21.71,11.68-26.35,22.69-1.7,3.96-2.75,8.29-3.74,12.44-1.48,6.1-3.01,12.42-6.55,17.69-1.05,1.57-2.32,3.09-3.52,4.56-2.57,3.1-5.24,6.3-6.04,10.21-.74,3.57.1,7.24.96,10.78.69,2.87,1.39,5.83,1.28,8.82-.13,3.32-1.36,6.53-2.49,9.6-.78,2.13-1.63,4.32-2.1,6.55-1.41,6.25-.12,13.46,3.6,20.28ZM3.71,120.93c.47-2.24,1.31-4.46,2.09-6.59,1.13-3.07,2.32-6.23,2.46-9.51.13-2.91-.57-5.87-1.25-8.7-.87-3.58-1.72-7.29-.95-10.95.86-4,3.53-7.25,6.13-10.39,1.2-1.47,2.47-2.96,3.52-4.53,3.51-5.22,5-11.49,6.49-17.56,1.03-4.2,2.08-8.53,3.77-12.53,4.71-11.11,14.9-19.91,26.6-22.9.71-.18,1.45-.37,2.17-.51,2.53-.58,5.13-1.17,7.29-2.58,1.79-1.18,3.2-2.81,4.57-4.44,1.61-1.88,3.25-3.81,5.46-4.95,3.14-1.65,6.85-1.47,10.42-1.3,3.7.18,7.58.37,10.66-1.55,2.72-1.69,4.28-4.67,5.78-7.52,1.5-2.85,3.03-5.79,5.73-7.6,2.66-1.76,6.06-2.1,9.31-2.15,5.83-.11,10.46.34,14.56,1.52,5.98,1.67,11.33,4.99,15.07,9.37.16.18.32.39.49.6.81.96,1.62,1.95,2.7,2.6,1.54.93,3.37.99,5.24,1.08,1.17.06,2.36.07,3.49.35,3.88.85,8.29,4.85,8.91,11.61.23,2.64-.45,5.28-1.13,7.89-1.09,4.13-2.13,8.05.67,11.41,1.46,1.77,3.36,3.26,5.2,4.67,2.57,1.97,5.2,4.01,6.81,6.99,2.47,4.63.97,9.99-.49,15.18-.88,3.1-1.78,6.29-1.87,9.4-.03,1.94.15,3.93.4,5.82.18,1.53.36,3.1.38,4.67.27,10.63-2.05,20.85-6.56,28.79l-.95,1.67c-3.91,6.95-8.39,14.84-13.43,20.9-3.48,4.14-7.45,6.99-11.36,9.77-4.49,3.19-8.75,6.25-12.25,11.1-.65.91-1.32,1.91-2.06,2.96-2.72,4-5.8,8.48-9.45,10.88-3.72,2.46-8.3,3.28-12.36,4.03-2.95.54-5.65,1.48-8.31,2.41-2.54.91-5.13,1.79-7.91,2.33-.16.03-.32.06-.44.09-1.6.27-3.64-.28-5.46-.74-.82-.21-1.57-.43-2.25-.55-2.86-.51-6.23-2.53-9.46-4.53-1.73-1.06-3.37-2.06-4.82-2.72-6.04-2.82-11.94-1.2-18.25.49-5.87,1.6-11.94,3.25-17.97.88-4.01-1.52-7.15-4.49-10.33-7.66-5.64-5.65-10.08-10.6-13.28-16.44-3.78-6.89-5.13-14.17-3.78-20.53Z" fill="#fffcbb"/>
</svg>